<svg width="100" height="100" viewBox="0 0 100 100" fill="none" xmlns="http://www.w3.org/2000/svg">
    <path d="M44.5185 63.1111V85.3333H35.2593L49.9259 100L64.6667 85.3333H55.4074V63.1111H44.5185Z" fill="#00020C"/>
    <path d="M55.4074 36.9629V14.7407H64.6667L50 0L35.2593 14.7407H44.5185V36.9629H55.4074Z" fill="#00020C"/>
    <path d="M55.4075 63.1111L71.1112 78.8148L64.5186 85.4074H85.3334V64.5926L78.7408 71.1852L63.0371 55.4814L55.4075 63.1111Z" fill="#00020C"/>
    <path d="M44.5186 36.963L28.8149 21.2594L35.4075 14.6667H14.5927V35.4815L21.1852 28.889L36.8889 44.5927L44.5186 36.963Z" fill="#00020C"/>
    <path d="M63.037 55.4814H85.2592V64.7406L100 50.074L85.2592 35.3333V44.5925H63.037V55.4814Z" fill="#00020C"/>
    <path d="M36.8889 44.5925H14.6667V35.3333L0 49.9999L14.6667 64.7406V55.4814H36.8889V44.5925Z" fill="#00020C"/>
    <path d="M63.0371 44.5927L78.7408 28.889L85.3334 35.4815V14.6667H64.5186L71.1112 21.2594L55.4075 36.963L63.0371 44.5927Z" fill="#00020C"/>
    <path d="M36.8889 55.4814L21.1852 71.1852L14.5927 64.5926V85.4074H35.4075L28.8149 78.8148L44.5186 63.1111L36.8889 55.4814Z" fill="#00020C"/>
</svg>
