<svg width="362" height="100" viewBox="0 0 362 100" fill="none" xmlns="http://www.w3.org/2000/svg">
    <path d="M361.338 19.4397V8.32802H358.571V6.93881H353.038V8.32802H348.888V9.71672H344.737V11.1059H341.971V12.4951H344.737V13.8844H341.971V12.4951H339.204V11.1059H337.821V12.4951H336.437V13.8844H332.287V15.2731H336.437V16.6623H332.287V18.0515H329.52V16.6623H328.136V15.2731H326.753V16.6623H325.369V18.0515H328.136V19.4407H325.369V18.0515H321.219V19.4407H323.986V20.8299H321.219V19.4407H317.069V18.0515H315.685V20.8294H319.835V22.2181H315.685V23.6073H312.919V22.2181H315.685V20.8294H311.535V22.2181H307.384V23.6073H306.001V24.9965H307.384V26.3857H304.618V24.9965H299.084V26.3857H296.317V27.7749H299.084V29.1636H296.317V27.7749H289.4V29.1636H286.633V30.5528H290.784V31.942H286.633V33.3313H283.867V31.942H278.333V33.3313H276.949V31.942H275.566V33.3313H274.183V34.7205H272.799V33.3313H271.416V34.7205H270.032V36.1092H271.416V37.4984H270.032V38.8876H267.265V37.4984H263.115V38.8876H265.882V40.2768H263.115V41.6655H258.965V43.0547H254.814V44.4439H250.664V43.0547H245.13V44.4439H242.364V45.8331H246.514V44.4439H249.281V45.8331H246.514V47.2218H242.364V48.611H238.213V50.0003H234.063V51.3895H229.913V52.7787H225.762V54.1674H221.613V55.5566H217.462V54.1674H211.929V55.5566H209.162V56.9458H213.312V55.5566H216.078V56.9458H213.312V58.335H209.162V59.7242H205.011V61.1129H200.861V62.5021H196.711V61.1129H192.561V62.5021H195.327V63.8913H192.561V65.2806H188.41V66.6693H184.26V68.0585H180.11V69.4477H178.727V68.0585H180.11V66.6693H174.576V68.0585H173.192V70.8364H171.809V72.2251H167.659V73.6143H163.508V75.0035H159.359V76.3927H155.208V77.7819H151.058V79.1706H146.908V80.5598H142.757V81.949H138.607V83.3382H134.457V84.7275H131.69V5.55582H130.307V4.1666H126.157V2.7779H130.307V4.1666H131.69V1.3887H123.39V2.7779H124.773V4.1666H123.39V5.55582H120.623V4.1666H123.39V2.7779H119.239V4.1666H115.089V5.55582H116.473V6.94502H115.089V8.33424H113.706V6.94502H115.089V5.55582H110.939V6.94502H112.322V8.33424H110.939V9.72293H108.172V8.33424H110.939V6.94502H106.789V8.33424H105.405V6.94502H104.022V8.33424H102.639V9.72293H104.022V11.1121H102.639V12.5014H98.4882V13.8906H94.3378V15.2793H90.1878V16.6685H86.0374V18.0577H81.887V19.4469H77.737V20.8361H74.9702V19.4469H77.737V18.0577H76.3534V16.6685H74.9697V18.0577H73.5866V19.4469H69.4362V20.8361H73.5866V22.2248H69.4362V23.614H65.2862V25.0032H62.5194V26.3924H56.9858V27.7817H55.6027V26.3924H56.9858V25.0032H52.8359V26.3924H54.2191V27.7817H52.8359V29.1704H48.6855V30.5596H45.9187V29.1704H48.6855V27.7817H45.9187V26.3924H44.535V27.7817H43.1514V29.1704H41.7682V30.5596H44.535V31.9488H41.7682V30.5596H40.3851V33.3375H37.6183V31.9483H39.002V30.5591H40.3857V29.1698H41.7688V27.7811H43.1519V26.3919H44.5356V25.0027H45.9192V23.6135H47.3024V22.2243H48.686V20.8356H50.0692V18.0577H52.8359V16.6685H54.2191V15.2793H55.6027V13.8906H56.9858V12.5014H58.3695V11.1121H59.7526V8.33424H58.3695V5.55633H56.9858V4.16712H54.2191V2.77843H52.8359V1.38921H51.4523V0H50.0686V1.38921H48.6855V4.16712H50.0686V2.77843H51.4523V4.16712H50.0686V5.55633H48.6855V6.94555H47.3018V8.33475H45.9187V9.72345H44.535V11.1127H43.1514V12.5019H41.7682V13.8911H40.3851V15.2798H39.0015V16.669H37.6178V18.0582H36.2347V19.4474H34.851V20.8366H33.4679V19.4474H34.851V18.0582H36.2347V16.669H37.6178V15.2798H39.0015V13.8911H40.3851V12.5019H41.7682V11.1127H43.1514V9.72345H44.535V8.33475H45.9187V6.94555H47.3018V5.55633H48.6855V4.16712H44.535V6.94502H43.1514V8.33424H41.7682V9.72293H40.3851V11.1121H39.0015V12.5014H37.6178V13.8906H36.2347V15.2793H34.851V16.6685H33.4679V18.0577H32.0842V19.4469H30.7006V20.8361H29.3175V22.2248H30.7006V23.614H29.3175V22.2248H27.9343V23.614H25.1675V26.3919H26.5512V25.0027H27.9348V26.3919H26.5512V27.7811H25.1675V29.1698H23.7844V30.5591H22.4008V31.9483H21.0176V33.3375H19.634V34.7267H18.2503V36.1154H16.8672V37.5046H15.484V38.8938H14.1004V40.283H12.7167V41.6717H11.3336V43.0609H9.9505V41.6717H8.5668V43.0609H9.94995V44.4501H8.5668L8.56631 45.8394H7.18317V47.228H5.79953V45.8394H4.41638V47.228H5.79953V48.6173H4.41586V50.006H3.03275V48.6167H1.64908V50.006H3.0322V51.3946H1.64856V52.7839H0.338135L0.34021 54.1726H11.3326V52.7839H16.8661V54.1726H11.3326V55.5618H16.8661V56.951H27.9333V55.5618H18.2493V54.1726H27.9333V55.5618H40.3841V56.951L51.4512 56.951V58.3402H62.5184V59.7294H70.8219V61.1181H62.5215V62.5073H66.6719V63.8965H68.0556V62.5073H72.206V58.3407H76.3559V50.007H74.9723V56.952H73.5891V51.3962H72.206V45.8404H63.9057V47.2291H70.8219V48.6183H63.9046V47.2291H52.8375V45.8404H41.7704V44.4512H43.1535V43.062H45.9203V44.4512H51.4538V43.062H52.8375V45.8404L63.9046 45.8399V44.4507H54.2206V41.6727H51.4538V40.284H54.2206V41.6727H59.7542V40.284H63.9046V38.8948H68.0551V37.5056H72.2055V36.1164H76.3554V34.7277H79.1222V33.3385H76.3554V31.9493H80.5059V30.5601H83.2726V31.9493H87.4226V30.5601H84.6558V29.1709H87.4226V30.5601H92.9561V29.1709H97.1066V27.7822H92.9561V26.393H97.1066V25.0038H99.8734V26.393H101.257V27.7822H102.641V26.393H104.024V27.7822H105.407V25.0043H109.558V23.6151H113.708V22.2258H116.475V20.8372H113.708V19.4479H116.475V20.8372H117.858V97.2221H119.241V19.4397H117.858V18.0504H120.625V95.8329H122.009V98.6108H120.625V100H123.392V98.6108H127.542V100H131.692V98.6108H128.925V97.2221H131.692V95.8329H135.843V94.4437H139.993V93.0545H144.143V94.4437H148.293V95.8329H149.677V93.055H151.06V91.6663H148.293V93.055H145.527V91.6663H148.293V90.2771H152.444V88.8878H156.594V90.2771H152.444V91.6663H157.977V90.2771H160.744V88.8878H157.977V87.4986H160.744V88.8878H166.278V87.4986H169.045V86.1094H164.895V87.4986H162.128V86.1094H164.895V84.7207H169.045V83.3315H173.195V81.9423H177.345V83.3315H181.495V81.9423H178.729V80.5531H181.495V77.7752H182.879V79.1639H185.646V77.7752H189.796V76.386H193.947V74.9968H198.097V73.6075L202.247 73.6075V72.2183H206.398V70.8296H210.547V69.4404H214.698V68.0512H218.848V66.662H222.999V65.2733H221.615V63.8841H222.999V65.2733H227.149V63.8841H231.299V62.4949H235.45V61.1057H239.599V59.717H243.75V58.3278H245.133V59.717H243.75V61.1057H247.9V59.717H246.517V58.3278H247.9V56.9386H252.05V55.5493H256.201V54.1601H260.351V52.7714H264.501V51.3822H268.652V49.993H270.035V51.3822H268.652V52.7714H270.035V54.1601H271.418V52.7714H272.802V51.3822H271.418V49.993H272.802V48.6038H276.952V47.2146H281.102V45.8259H285.253V44.4367H289.403V43.0475H293.553V41.6582H294.936V43.0475H293.553V44.4367L297.704 44.4367V43.0475L296.32 43.0475V41.6582L297.704 41.6582V40.2696H299.087V41.6582H297.704V43.0475H301.853V41.6582H300.47V40.2696H301.853V38.8803H303.237V40.2696H301.853V41.6582H306.004V40.2696H304.621V38.8803H306.004V37.4911H307.387V38.8803H306.004V40.2696H310.154V38.8803H308.771V37.4911H310.154V36.1019H314.304V34.7132H312.921V33.324H314.304V34.7132H315.688V36.1019H314.304V37.4911H317.071V34.7132H318.454V33.324H322.605V31.9348H321.221V30.5456H322.605V31.9348H326.755V30.5456H329.521V31.9348H326.755V33.324H330.905V31.9348H332.288V33.324H333.672V31.9348H335.055V30.5456H330.906V29.1564H329.522V27.7677H330.906V29.1564H335.055V27.7677H339.205V26.3785H340.589V27.7677H339.205V29.1564H343.355V27.7677H341.972V26.3785H343.355V24.9893H347.506V23.6001H351.656V22.2108H355.806V20.8221H359.956V19.4329H361.338V19.4397ZM36.2362 52.7751H34.8526V51.3858H36.2362V52.7751ZM61.1378 48.6079H62.521V49.9972H61.1378V48.6079ZM41.7704 41.6629L40.3872 41.6629V40.2742L41.7704 40.2742V41.6629ZM50.0707 43.0521H47.3039V41.6629H50.0707V43.0521ZM58.3711 40.2742H55.6042V38.885H58.3711V40.2742ZM62.521 38.8855H59.7542V37.4963H62.521V38.8855ZM66.6714 37.4963H63.9046V36.1071H66.6714V37.4963ZM70.8219 36.1071H68.0551V34.7184H70.8219V36.1071ZM74.9718 34.7184H72.205V33.3292H74.9718V34.7184ZM84.6558 22.2176H83.2721V20.8289H84.6558V22.2176ZM91.573 29.1626H88.8062V27.7739H91.573V29.1626ZM104.023 24.9955H101.257V23.6063H99.8729V22.217H101.257V23.6063H104.023V24.9955ZM105.407 9.71672H106.79V11.1059H105.407V9.71672ZM112.324 22.2176H108.174V23.6068H105.407V22.2176H108.174V20.8289H112.324V22.2176ZM119.241 6.93881H117.858V5.5496H119.241V6.93881ZM128.925 73.6096H127.542V72.2204H128.925V73.6096ZM128.925 62.4975H127.542V61.1083H128.925V62.4975ZM128.925 45.83H127.542V44.4408H128.925V45.83ZM128.925 31.9405H127.542V30.5513H128.925V31.9405ZM128.925 16.6617H127.542V15.2725H128.925V16.6617ZM177.344 69.4425H175.961V70.8317H174.578V69.4425H175.961V68.0533H177.344V69.4425ZM240.981 52.7751H239.597V51.3858H240.981V52.7751ZM274.183 41.6629H272.8V40.2742H274.183V41.6629ZM274.183 37.4963H272.8V36.1071H274.183V37.4963ZM278.333 36.1071H275.567V34.7184H278.333V36.1071ZM282.483 34.7184H281.1V33.3292H282.483V34.7184ZM294.934 30.5513H292.167V29.1621H294.934V30.5513ZM303.235 27.7734H300.468V26.3842H303.235V27.7734ZM311.535 24.9955H308.768V23.6063H311.535V24.9955ZM340.587 19.4397H339.203V18.0504H340.587V19.4397ZM340.587 15.2725H337.82V13.8838H340.587V15.2725ZM348.887 12.4946H346.121V11.1054H348.887V12.4946ZM353.037 11.1059H350.27V9.71672H353.037V11.1059ZM357.188 9.71672H354.421V8.32802H357.188V9.71672Z" fill="#00020C"/>
</svg>
