<svg width="100" height="100" viewBox="0 0 100 100" fill="none" xmlns="http://www.w3.org/2000/svg">
    <path d="M64.035 4.3584C52.9989 9.1203 45.2417 20.2583 45.2417 33.172C45.2417 39.3867 47.0011 45.1171 50.04 49.9597C49.96 49.2333 49.96 48.5069 49.96 47.7805C49.96 30.4278 63.8751 16.4649 80.989 16.4649C83.628 16.4649 86.1071 16.7878 88.5063 17.4335C82.9883 9.68528 74.1114 4.60053 64.035 4.3584Z" fill="#00020C"/>
    <path d="M17.8115 14.9314C16.372 27.0379 22.05 39.3059 33.166 45.8434C38.4441 48.9104 44.282 50.2825 50.04 50.0403C49.4002 49.7175 48.7605 49.3947 48.1207 48.9911C33.246 40.3551 28.2078 21.1461 36.7647 6.13401C38.0443 3.87412 39.6437 1.77562 41.3231 0C31.8865 0.968523 23.0896 6.21469 17.8115 14.9314Z" fill="#00020C"/>
    <path d="M3.81645 60.6135C13.493 67.8774 26.8483 69.0881 37.9643 62.6313C43.2424 59.5643 47.321 55.1252 49.96 50.0404C49.4002 50.444 48.7604 50.8476 48.1207 51.1704C33.246 59.8064 14.2927 54.7216 5.6558 39.7095C4.37625 37.4497 3.33662 35.0283 2.69685 32.6877C-1.14178 41.3237 -0.981843 51.6547 3.81645 60.6135Z" fill="#00020C"/>
    <path d="M35.9651 95.6416C47.0011 90.8797 54.7584 79.7416 54.7584 66.828C54.7584 60.6133 52.999 54.8829 49.9601 50.0403C50.0401 50.7667 50.04 51.4931 50.04 52.2195C50.04 69.5722 36.125 83.535 19.0111 83.535C16.372 83.535 13.8929 83.2122 11.4938 82.5665C17.0118 90.3147 25.8887 95.3994 35.9651 95.6416Z" fill="#00020C"/>
    <path d="M82.1885 85.0685C83.628 72.962 77.95 60.694 66.834 54.1565C61.5559 51.0895 55.718 49.7174 49.96 49.9596C50.5998 50.2824 51.2396 50.6053 51.8793 51.0088C66.754 59.6448 71.7922 78.8538 63.2353 93.8659C61.9557 96.1258 60.3563 98.2243 58.6769 99.9999C68.1136 99.0314 76.9104 93.7852 82.1885 85.0685Z" fill="#00020C"/>
    <path d="M96.1836 39.3867C86.507 32.1227 73.1517 30.9121 62.0357 37.3689C56.7576 40.4359 52.679 44.875 50.04 49.9597C50.5998 49.5562 51.2396 49.1526 51.8793 48.8298C66.754 40.1938 85.7073 45.2785 94.3442 60.2906C95.6238 62.5505 96.6634 64.9718 97.3032 67.3124C101.142 58.6764 100.982 48.3455 96.1836 39.3867Z" fill="#00020C"/>
</svg>
