<svg width="142" height="100" viewBox="0 0 142 100" fill="none" xmlns="http://www.w3.org/2000/svg">
    <path d="M139.965 13.9536H137.635V15.1164H134.139V16.2791H132.973V17.442H130.643V18.6047H128.312V19.7675H125.982V20.9304H122.486V22.0931H121.32V23.2558H118.99V24.4187H115.494V25.5815H114.329V26.7442H111.998V27.9071H109.668V29.0698H107.337V30.2325H102.676V31.3955H100.345V30.2325H99.18V24.4187H100.345V23.2558H101.511V22.0931H102.676V20.9304H103.841V18.6047H106.172V16.2791H108.502V15.1164H109.668V12.7907H110.833V11.628H113.163V9.30237H115.494V8.13964H116.659V6.97673H117.825V4.65128H120.155V3.48836H121.32V2.32564H120.155V0H116.659V2.32564H115.494V3.48836H114.329V4.65128H111.998V6.97673H110.833V8.13964H109.668V9.30237H107.337V11.628H105.007V12.7907H103.841V15.1164H102.676V16.2791H101.511V17.442H100.345V18.6047H98.0148V20.9304H95.6842V22.0931H94.519V24.4187H93.3535V25.5815H91.0229V26.7442H89.8577V29.0698H88.6925V30.2325H87.5271V31.3955H86.3618V32.5582H84.0312V33.7209H82.866V36.0466H80.5353V37.2093H79.3701V38.3722H74.709V37.2093H73.5436V36.0466H72.3784V34.8838H73.5436V33.7209H72.3784V29.0698H73.5436V27.9071H72.3784V24.4187H73.5436V23.2558H72.3784V20.9304H73.5436V19.7675H72.3784V15.1164H71.2132V13.9536H70.0478V15.1164H67.7173V16.2791H68.8825V17.442H67.7173V18.6047H68.8825V19.7675H67.7173V20.9304H68.8825V23.2558H67.7173V24.4187H68.8825V25.5815H67.7173V26.7442H68.8825V27.9071H67.7173V30.2325H68.8825V31.3955H67.7173V32.5582H68.8825V33.7209H67.7173V34.8838H68.8825V37.2093H67.7173V38.3722H68.8825V39.5349H67.7173V40.6978H68.8825V41.8605H67.7173V44.1862H68.8825V45.3489H67.7173V46.5116H65.3867V47.6746H60.7254V48.8373H59.5602V47.6746H57.2295V48.8373H56.0643V47.6746H53.7337V48.8373H52.5685V47.6746H47.9074V48.8373H46.742V47.6746H44.4115V48.8373H43.2461V47.6746H38.585V48.8373H37.4198V47.6746H32.7585V48.8373H31.5933V47.6746H29.2627V48.8373H28.0974V47.6746H25.7668V48.8373H24.6016V47.6746H22.2709V48.8373H19.9403V51.1629H21.1057V52.3256H44.4115V53.4884H46.742V55.814H47.9074V56.9767H46.742V59.3024H45.5767V60.4651H43.2461V61.628H42.0809V62.7907H38.585V63.9535H37.4198V65.1164H35.0892V66.2791H31.5933V67.4418H29.2627V68.6047H28.0974V69.7675H25.7668V70.9304H22.2709V72.0931H21.1057V73.2558H18.7751V74.4187H15.2792V75.5815H14.114V76.7442H11.7834V77.9071H9.45273V79.0698H5.95687V80.2325H4.79164V81.3955H1.29578V83.7209H0.130371V86.0465H4.79164V84.8838H7.12209V83.7209H9.45273V82.5582H11.7834V81.3955H14.114V80.2325H16.4444V79.0698H17.6099V77.9071H21.1057V76.7442H22.2709V75.5815H25.7668V74.4187H28.0974V73.2558H30.4279V72.0931H31.5933V70.9304H35.0892V69.7675H40.9157V70.9304H42.0809V75.5815H40.9157V76.7442H39.7502V77.9071H38.585V79.0698H37.4198V81.3955H35.0892V82.5582H33.9237V83.7209H32.7585V86.0465H30.4279V87.2093H29.2627V88.3722H28.0974V90.6976H26.932V91.8605H24.6016V94.186H22.2709V95.3489H21.1057V97.6746H19.9403V98.8373H21.1057V100H24.6016V97.6746H26.932V95.3489H29.2627V93.0233H31.5933V90.6976H33.9237V89.5349H35.0892V87.2093H37.4198V86.0465H38.585V83.7209H40.9157V81.3955H43.2461V80.2325H44.4115V77.9071H45.5767V76.7442H47.9074V74.4187H50.2378V72.0931H52.5685V70.9304H53.7337V68.6047H56.0643V67.4418H57.2295V65.1164H59.5602V62.7907H61.8908V61.628H63.056V62.7907H64.2213V61.628H65.3867V62.7907H67.7173V69.7675H68.8825V70.9304H67.7173V72.0931H68.8825V73.2558H67.7173V74.4187H68.8825V75.5815H67.7173V76.7442H68.8825V79.0698H67.7173V81.3955H68.8825V82.5582H67.7173V83.7209H68.8825V86.0465H72.3784V80.2325H73.5436V79.0698H72.3784V76.7442H73.5436V75.5815H72.3784V70.9304H73.5436V69.7675H72.3784V63.9535H73.5436V62.7907H72.3784V59.3024H73.5436V58.1396H72.3784V56.9767H73.5436V54.6513H74.709V53.4884H75.8743V52.3256H81.7008V53.4884H82.866V52.3256H93.3535V53.4884H94.519V52.3256H120.155V48.8373H118.99V47.6746H116.659V48.8373H115.494V47.6746H109.668V48.8373H108.502V47.6746H105.007V48.8373H103.841V47.6746H95.6842V46.5116H93.3535V43.0233H94.519V40.6978H95.6842V39.5349H98.0148V38.3722H100.345V37.2093H102.676V36.0466H105.007V34.8838H107.337V33.7209H109.668V32.5582H111.998V31.3955H114.329V30.2325H116.659V29.0698H118.99V27.9071H121.32V26.7442H123.651V25.5815H125.982V24.4187H128.312V23.2558H130.643V22.0931H132.973V20.9304H135.304V19.7675H137.635V18.6047H139.965V17.442H141.13V16.2791H139.965V13.9536Z" fill="#00020C"/>
</svg>
