<svg width="79" height="55" viewBox="0 0 79 55" fill="none" xmlns="http://www.w3.org/2000/svg">
    <path d="M5.65776 5.80863C5.82036 5.78753 5.98481 5.7646 6.14842 5.76829C6.90733 5.78387 7.66718 5.79671 8.4252 5.83247C8.90024 5.85536 9.37437 5.94338 9.84935 5.95257C10.5532 5.9672 11.2579 5.94339 11.9618 5.92503C12.4313 5.91315 12.8999 5.88199 13.3693 5.86089C13.6423 5.84897 13.916 5.83427 14.1899 5.83064C14.7567 5.82242 15.3108 5.91772 15.8557 6.06988C16.4409 6.23306 16.9445 6.54376 17.2973 7.02776C18.0912 8.11673 19.1983 8.80239 20.3276 9.46693C20.5674 9.60809 20.8191 9.598 21.0737 9.49995C21.3833 9.38081 21.7039 9.30745 22.0347 9.30196C22.6696 9.29096 23.2319 9.49718 23.7253 9.89502C24.3951 10.4349 25.1302 10.8593 25.9434 11.1453C26.5369 11.3534 27.1479 11.4808 27.7736 11.5386C27.8471 11.545 27.9206 11.5606 27.9932 11.5724C27.9951 11.5899 27.9978 11.6082 28.0005 11.6256C27.9418 11.6559 27.8857 11.6917 27.8251 11.7145C26.9779 12.0345 26.1152 12.1051 25.2542 11.7961C24.5256 11.5349 23.8117 11.2333 23.0913 10.9482C22.8001 10.8327 22.5106 10.7099 22.1918 10.7008C22.0714 10.6971 21.9501 10.7218 21.8206 10.7338C21.9005 11.0106 21.9713 11.2553 22.0467 11.5175C22.1422 11.522 22.2497 11.5294 22.3572 11.5321C23.2751 11.5587 23.9945 11.9593 24.5293 12.6926C24.68 12.8998 24.8215 13.1216 24.9226 13.3562C25.3571 14.3591 26.0628 15.1217 26.9651 15.7175C27.1929 15.8687 27.4309 16.0054 27.6634 16.1502C27.7332 16.1942 27.7993 16.2446 27.86 16.3115C27.6009 16.3518 27.351 16.3225 27.1047 16.2675C26.2364 16.0741 25.4729 15.6708 24.8334 15.0576C24.5017 14.7394 24.2132 14.3764 23.9017 14.0364C23.706 13.8228 23.5214 13.5974 23.3036 13.4094C23.0224 13.1665 22.6972 12.9924 22.3076 12.9905C22.0301 12.9896 21.8665 13.0959 21.7701 13.3562C21.7305 13.4644 21.7039 13.5808 21.6939 13.6963C21.6608 14.0676 21.5633 14.4223 21.3695 14.7385C20.9799 15.3738 20.9597 16.0502 21.0993 16.7524C21.1297 16.9055 21.1683 17.0585 21.1774 17.2135C21.2059 17.6928 21.024 18.0834 20.6399 18.374C20.2384 18.6764 19.7754 18.8038 19.2792 18.8185C18.9089 18.8286 18.545 18.7699 18.1904 18.6682C17.7779 18.5508 17.4747 18.2529 17.4994 17.735C17.5077 17.5636 17.515 17.3913 17.5233 17.2199C17.5537 16.5553 17.267 16.0649 16.7065 15.7166C16.3748 15.5104 16.0569 15.2812 15.7271 15.0722C15.6058 14.9952 15.5672 14.9036 15.5708 14.7642C15.58 14.436 15.5736 14.1079 15.5736 13.7797C15.5736 13.7201 15.5736 13.6615 15.5736 13.5543C15.4845 13.6331 15.4312 13.6743 15.3852 13.722C15.0241 14.1015 14.664 14.4828 14.3038 14.8632C14.2551 14.9146 14.2045 14.964 14.1586 15.0172C14.0291 15.1666 13.8766 15.2088 13.6762 15.1786C13.0368 15.0823 12.3982 15.075 11.7678 15.2491C11.2506 15.3921 10.804 15.6497 10.4199 16.0823C10.4971 16.0695 10.5431 16.0649 10.5881 16.053C11.0871 15.9229 11.5915 15.8073 12.0839 15.6552C12.5691 15.5058 13.0487 15.5131 13.544 15.5892C13.9528 15.6515 14.3672 15.6928 14.7834 15.6387C14.8909 15.6249 15.004 15.6241 15.1114 15.6378C15.7124 15.713 16.0357 16.1648 15.9356 16.8001C15.8676 17.2309 15.7785 17.659 15.705 18.0898C15.6719 18.2823 15.6407 18.4766 15.6361 18.67C15.6177 19.5445 15.6048 20.4189 15.5984 21.2934C15.5956 21.6894 15.5442 22.0716 15.3595 22.4273C15.0434 23.0369 14.5197 23.3834 13.8637 23.4842C13.0046 23.6171 12.1584 23.8059 11.3112 23.9911C11.2965 23.9947 11.2818 24.0012 11.2662 24.0039C11.0089 24.0461 10.8794 23.9719 10.8104 23.7198C10.6534 23.1441 10.5541 22.5612 10.5871 21.9617C10.5973 21.7747 10.6055 21.5858 10.6451 21.4043C10.7149 21.0808 10.9207 20.9277 11.2552 20.9424C11.6539 20.9588 12.0527 20.9772 12.434 21.1202C12.6031 21.1834 12.7813 21.2018 12.9642 21.166C13.2325 21.1138 13.3978 20.9524 13.4594 20.6949C13.4952 20.5436 13.5145 20.386 13.5164 20.2311C13.5238 19.6765 13.521 19.1219 13.521 18.5674C13.521 18.538 13.5118 18.5086 13.5026 18.4555C13.4218 18.4977 13.3537 18.5307 13.2876 18.5674C12.434 19.0449 11.5832 19.527 10.7268 20.001C10.0938 20.3511 9.43592 20.6362 8.71557 20.7572C8.06046 20.8672 7.4219 20.7929 6.79155 20.6087C6.70978 20.5849 6.63079 20.5464 6.55724 20.5033C6.26966 20.3355 5.96466 20.3108 5.65038 20.3942C5.43264 20.452 5.21948 20.5262 5.00814 20.5922V40.3219C5.24427 40.3577 5.46571 40.3953 5.689 40.4228C6.86048 40.5658 8.03109 40.7143 9.2044 40.8426C9.74831 40.9022 10.2959 40.9288 10.8426 40.9572C11.5768 40.9957 12.3118 41.0223 13.0469 41.0562C13.1075 41.0598 13.1682 41.08 13.2288 41.0919H16.9895L16.9922 41.091C17.2008 41.0745 17.4094 41.0516 17.618 41.0415C18.7591 40.9865 19.8957 40.8875 21.0268 40.7252C22.213 40.5548 23.3835 40.3156 24.5321 39.9709C26.1712 39.4787 27.713 38.7865 29.1059 37.7828C30.1773 37.011 31.0667 36.0614 31.8348 34.9944C31.8826 34.9275 31.9313 34.8606 31.9791 34.7937C31.9947 34.7992 32.0103 34.8037 32.0259 34.8093V39.7729H47.5621C47.5144 39.6803 47.4785 39.606 47.4381 39.5336C47.1165 38.9607 46.794 38.3897 46.4706 37.8176C46.1472 37.2457 45.9267 36.6435 45.9028 35.9789C45.889 35.5838 45.9533 35.2016 46.0654 34.8249C46.1812 34.4334 46.2611 34.0402 46.1977 33.6259C46.1444 33.2757 46.0149 32.9659 45.8063 32.6845C45.5453 32.3325 45.3708 31.9448 45.3138 31.5084C45.2605 31.1006 45.3119 30.7 45.4121 30.3031C45.4728 30.0638 45.515 29.8191 45.5711 29.5523C45.4856 29.5569 45.4241 29.5505 45.3671 29.5633C44.5429 29.7504 43.716 29.9135 42.8734 29.9978C41.3206 30.1537 39.811 30.0281 38.3868 29.3259C37.7272 29.0015 37.1474 28.5669 36.6181 28.061C36.5492 27.995 36.4803 27.9299 36.5318 27.7833C39.4655 26.8034 42.4223 25.8161 45.4305 24.8105C45.3551 24.7794 45.3275 24.7666 45.2982 24.7565C45.2614 24.7436 45.2238 24.7326 45.1861 24.7216C44.259 24.4622 43.3384 24.1854 42.4572 23.7904C41.3703 23.3036 40.3605 22.6996 39.4968 21.8737C38.5072 20.9268 37.7272 19.8295 37.3853 18.4949C36.914 16.6571 37.2604 14.9493 38.3896 13.4131C38.5394 13.2077 38.7057 13.0098 38.9611 12.8383C38.9262 12.9988 38.9014 13.1188 38.8738 13.2371C38.7544 13.7467 38.622 14.2527 38.5164 14.7642C38.2325 16.1382 38.5872 17.3666 39.427 18.4628C40.3853 19.715 41.6588 20.4959 43.1849 20.8718C44.0669 21.089 44.9674 21.2036 45.8687 21.3044C46.2262 21.3447 46.5836 21.3869 46.941 21.4226C47.3462 21.463 47.7459 21.4226 48.0996 21.2118C48.5535 20.9414 49.0313 20.8818 49.545 20.958C50.1982 21.0551 50.8552 21.0239 51.513 20.9927C52.3712 20.9524 53.2303 20.8773 54.0913 21.0047C54.8079 21.111 55.5255 21.0643 56.2413 20.9515C56.5675 20.9001 56.8971 20.9038 57.2197 20.9927C57.4652 21.0606 57.6882 21.1761 57.8674 21.3566C57.9913 21.4823 58.1296 21.5116 58.2938 21.4896C58.6805 21.4373 59.0694 21.3897 59.4561 21.3374C60.1141 21.2485 60.7739 21.1669 61.4297 21.0633C62.2969 20.9258 63.1543 20.7462 63.9565 20.3722C65.2962 19.7471 66.3219 18.8002 66.9246 17.4362C67.4103 16.3371 67.4887 15.206 67.1332 14.0528C67.0318 13.7247 66.92 13.4002 66.814 13.073C66.7938 13.0107 66.7817 12.9455 66.7661 12.8823C66.7811 12.8731 66.7949 12.8649 66.8093 12.8566C66.9586 13.0134 67.1165 13.1628 67.2559 13.3278C67.9215 14.1106 68.3092 15.0218 68.4677 16.0301C68.772 17.9624 68.1784 19.6352 66.9649 21.1229C66.1242 22.1532 65.0737 22.9149 63.893 23.5107C62.9394 23.992 61.9362 24.3422 60.9099 24.6309C60.7324 24.6804 60.5567 24.7372 60.3758 24.839C63.3335 25.8188 66.2913 26.7996 69.2399 27.7768C69.3004 27.8914 69.2652 27.961 69.1782 28.0279C68.7875 28.3277 68.4055 28.6403 68.0096 28.9327C67.2761 29.4744 66.4308 29.7494 65.548 29.9245C64.8761 30.0574 64.1944 30.1032 63.5145 30.0537C62.853 30.0051 62.1949 29.8997 61.5375 29.8081C61.1421 29.7531 60.7509 29.6751 60.3573 29.6092C60.3124 29.6018 60.2657 29.6036 60.1827 29.5982C60.2306 29.8337 60.2738 30.051 60.3187 30.2673C60.3665 30.4965 60.4345 30.7229 60.4622 30.9538C60.5331 31.5387 60.3723 32.0685 60.0277 32.5424C59.856 32.778 59.7137 33.0273 59.629 33.3078C59.4791 33.8055 59.5287 34.296 59.6889 34.7809C59.8249 35.1933 59.8917 35.614 59.8635 36.0486C59.8209 36.7021 59.595 37.2952 59.2607 37.8525C58.983 38.3154 58.703 38.7765 58.4281 39.2403C58.3307 39.4053 58.246 39.5785 58.1411 39.7737H73.7235V2.20899C73.629 2.20716 73.5305 2.2035 73.4325 2.2035C70.2523 2.2035 67.0715 2.2035 63.8902 2.2035C63.6862 2.2035 63.4822 2.21082 63.2793 2.20072C63.1405 2.19341 63.0494 2.24106 62.9607 2.34832C62.0399 3.45379 61.1145 4.5556 60.1902 5.65832C57.8346 8.46872 55.4778 11.2782 53.1219 14.0887C53.1017 14.1124 53.0842 14.139 53.0631 14.162C52.9372 14.2985 52.8398 14.2995 52.7139 14.1546C52.4943 13.9007 52.2793 13.6422 52.0625 13.3847C48.9762 9.71622 45.8899 6.0497 42.8082 2.37856C42.6952 2.24292 42.5803 2.19981 42.4094 2.19981C39.041 2.20442 35.6717 2.2035 32.3034 2.2035C32.2198 2.2035 32.1352 2.2035 32.0305 2.2035V7.6282C32.0176 7.6309 32.0048 7.6346 31.9919 7.63734C31.9689 7.59335 31.9404 7.55114 31.9221 7.50536C31.2017 5.70781 30.0266 4.27603 28.4756 3.12013C26.6232 1.7406 24.5458 0.911018 22.2938 0.477448C21.2638 0.278547 20.2246 0.161226 19.1781 0.0869922C17.8091 -0.0101736 16.4391 -0.014783 15.0692 0.0191536C14.1228 0.0420449 13.1746 0.0832932 12.2319 0.163053C11.087 0.259303 9.94311 0.3794 8.80563 0.536137C7.91618 0.658936 7.03689 0.852358 6.15296 1.01736C5.77815 1.08703 5.40323 1.16495 5.03665 1.23828C4.98425 1.42617 4.97142 5.60149 5.02104 5.90484C5.23326 5.87189 5.44456 5.83518 5.65776 5.80863ZM23.1115 28.8401C22.9719 29.5395 22.6099 30.0932 22.0402 30.5176C21.4797 30.9355 20.8421 31.1895 20.175 31.3755C19.3426 31.6074 18.4936 31.7367 17.6308 31.7651C17.029 31.7844 16.4262 31.788 15.8235 31.7972C15.7472 31.799 15.671 31.7908 15.5837 31.7871H15.5846V24.1698C15.6471 24.1634 15.7059 24.1515 15.7656 24.1515C16.384 24.1561 17.0042 24.1387 17.6207 24.1744C18.7646 24.2414 19.8893 24.4238 20.9569 24.8665C21.3777 25.0407 21.7738 25.2579 22.1331 25.542C22.8001 26.0709 23.1281 26.7703 23.186 27.6054C23.2145 28.0197 23.1933 28.4304 23.1115 28.8401ZM32.014 15.1951V21.4575C31.6125 21.001 31.2422 20.5418 30.8305 20.1229C30.4152 19.7003 29.9595 19.3171 29.4982 18.8946C30.5626 17.8373 31.414 16.6086 32.014 15.1951Z" fill="#F8FAFF" fill-opacity="0.8"/>
    <path d="M46.8495 31.7654C46.8458 32.0468 46.8357 32.3291 46.8514 32.6096C46.8743 33.0304 46.9257 33.4493 47.0737 33.849C47.2308 34.2743 47.4862 34.6199 47.8914 34.839C48.3297 35.0755 48.8047 35.1461 49.3514 35.1507V35.1498C48.5217 33.9068 47.7224 32.7068 46.922 31.5078C46.8679 31.6013 46.8504 31.6829 46.8495 31.7654Z" fill="#F8FAFF" fill-opacity="0.8"/>
    <path d="M58.9574 32.3934C58.9764 32.1101 58.9608 31.825 58.9608 31.54C58.9441 31.5344 58.9268 31.529 58.9101 31.5234C58.1138 32.717 57.3168 33.9106 56.5057 35.1279C56.5728 35.1334 56.6013 35.1398 56.6297 35.1371C56.7933 35.1214 56.9567 35.1096 57.1186 35.0866C58.1345 34.9455 58.6376 34.4844 58.8306 33.4824C58.8992 33.124 58.9314 32.7573 58.9574 32.3934Z" fill="#F8FAFF" fill-opacity="0.8"/>
    <path d="M8.14864 49.9169C8.47024 49.6978 8.70183 49.4631 8.8442 49.2128C8.98667 48.9626 9.05828 48.6848 9.05828 48.3777C9.05828 47.9075 8.90121 47.4977 8.58784 47.1512C8.27454 46.8038 7.85187 46.5664 7.32175 46.439C6.94778 46.3445 6.35696 46.2969 5.54935 46.2969H4.15735V54.3527H6.63997C7.35484 54.3527 7.91528 54.2601 8.32139 54.0759C8.72659 53.8917 9.05828 53.613 9.31554 53.2408C9.57285 52.8686 9.70147 52.4744 9.70147 52.0033C9.70147 51.532 9.57739 51.1241 9.32842 50.7795C9.07941 50.4348 8.68614 50.147 8.14864 49.9169ZM5.84246 47.759H6.27797C6.66389 47.759 6.95239 47.8332 7.14164 47.9808C7.33093 48.1284 7.42554 48.3282 7.42554 48.5803C7.42554 48.8507 7.32537 49.0643 7.12603 49.2211C6.92665 49.3778 6.62158 49.4566 6.2109 49.4566H5.84246L5.84246 47.759ZM7.68098 52.6496C7.43753 52.81 6.96523 52.8906 6.26506 52.8906H5.84246V50.8263L5.84337 50.8253H6.19346C6.8568 50.8253 7.33185 50.9262 7.6176 51.1269C7.90336 51.3277 8.04664 51.6018 8.04664 51.9483C8.04664 52.2553 7.9245 52.4891 7.68098 52.6496Z" fill="#F8FAFF" fill-opacity="0.8"/>
    <path d="M15.1815 51.3157C15.1815 51.8557 15.1402 52.2214 15.0584 52.413C14.9757 52.6046 14.8278 52.7622 14.6128 52.886C14.3987 53.0098 14.1423 53.0721 13.8456 53.0721C13.5644 53.0721 13.3246 53.0162 13.1261 52.9053C12.9277 52.7934 12.7853 52.6449 12.6989 52.4589C12.6125 52.2728 12.5694 51.9556 12.5694 51.5064V46.2969H10.8778L10.8759 46.2987V51.1021C10.8759 52.0619 10.9779 52.7439 11.1828 53.1473C11.3877 53.5506 11.7277 53.8861 12.2036 54.1547C12.6796 54.4233 13.2383 54.5572 13.8805 54.5572C14.3702 54.5572 14.7993 54.4865 15.1687 54.3463C15.538 54.206 15.8642 53.9897 16.1472 53.6973C16.4302 53.4049 16.6222 53.1024 16.7223 52.7879C16.8225 52.4744 16.8731 51.9116 16.8731 51.1012V46.2978H15.1815V51.3157Z" fill="#F8FAFF" fill-opacity="0.8"/>
    <path d="M20.2623 46.2969H18.5772H18.5763V54.3527H22.7183V52.8906H20.2623V46.2969Z" fill="#F8FAFF" fill-opacity="0.8"/>
    <path d="M25.2461 46.2969H23.561H23.5601V54.3527H27.7021V52.8906H25.2461V46.2969Z" fill="#F8FAFF" fill-opacity="0.8"/>
    <path d="M32.8314 50.4297C32.6945 50.3013 32.3049 49.9933 31.6617 49.5038C30.9744 48.9749 30.5628 48.6293 30.4259 48.4689C30.3258 48.3488 30.2752 48.2205 30.2752 48.0857C30.2752 47.9509 30.346 47.829 30.4865 47.7217C30.6271 47.6145 30.8081 47.5604 31.0296 47.5604C31.4835 47.5604 31.93 47.8382 32.3683 48.3928L33.617 47.3908L33.6151 47.3918C33.1483 46.8995 32.7156 46.5594 32.3159 46.3733C31.9162 46.1872 31.4954 46.0938 31.0535 46.0938C30.3662 46.0938 29.7883 46.2936 29.3206 46.6932C28.8529 47.0929 28.6186 47.5724 28.6186 48.1306C28.6186 48.5184 28.7592 48.9062 29.0403 49.2948C29.3224 49.6835 29.9454 50.2353 30.9101 50.9513C31.4164 51.3272 31.7444 51.6067 31.8933 51.7891C32.0421 51.9715 32.1165 52.154 32.1165 52.3364C32.1165 52.5372 32.0173 52.7141 31.8207 52.8672C31.6241 53.0202 31.3806 53.0972 31.0911 53.0972C30.5362 53.0972 30.0465 52.7415 29.6201 52.0293L28.2033 52.8067C28.5368 53.4089 28.9384 53.8508 29.4061 54.1321C29.8746 54.4136 30.4241 54.5539 31.0544 54.5539C31.862 54.5539 32.5162 54.3384 33.0188 53.9076C33.5214 53.4768 33.7722 52.9313 33.7722 52.2704C33.7722 51.9303 33.7006 51.6177 33.5582 51.3308C33.4148 51.0439 33.1732 50.7441 32.8314 50.4297Z" fill="#F8FAFF" fill-opacity="0.8"/>
    <path d="M45.2067 46.2969L43.1356 51.9161L41.083 46.2969H39.4411L37.9076 54.3527H39.5513L40.5234 49.2651L42.3877 54.3527H43.8734L45.7542 49.2651L46.7034 54.3527H48.3334L46.8476 46.2969H45.2067Z" fill="#F8FAFF" fill-opacity="0.8"/>
    <path d="M49.4598 54.3527H54.2936V52.8466H51.1329V50.7272H54.2936V49.2541H51.1329V47.7975H54.2936V46.2969H49.4598V54.3527Z" fill="#F8FAFF" fill-opacity="0.8"/>
    <path d="M60.6673 46.7323C60.0426 46.4417 59.0861 46.2969 57.7988 46.2969H55.8024H55.8015V54.3527H57.8282C58.9749 54.3527 59.781 54.2867 60.246 54.1556C60.7116 54.0236 61.1432 53.7862 61.5419 53.4434C61.9407 53.1005 62.2536 52.6688 62.4801 52.1481C62.7071 51.6274 62.82 51.0573 62.82 50.4366C62.82 49.564 62.6184 48.8012 62.2127 48.1476C61.8087 47.4941 61.293 47.0229 60.6673 46.7323ZM60.7871 51.8052C60.5664 52.1848 60.2823 52.4561 59.9354 52.6165C59.588 52.7769 59.029 52.8576 58.2586 52.8576H57.4755V47.7755H57.4767H58.0477C59.0953 47.7755 59.8559 47.9881 60.3296 48.4116C60.8551 48.8828 61.1179 49.5465 61.1179 50.4018C61.1179 50.9573 61.0072 51.4248 60.7871 51.8052Z" fill="#F8FAFF" fill-opacity="0.8"/>
    <path d="M65.7729 46.2969H64.0995V54.3527H65.7729V46.2969Z" fill="#F8FAFF" fill-opacity="0.8"/>
    <path d="M69.9926 46.2969H69.9915L66.5762 54.3527H68.3285L69.0488 52.6935H72.6629L73.3555 54.3527H75.1078L71.7017 46.2969H69.9926ZM69.67 51.1984L70.8581 48.4327L72.0388 51.1984H69.67Z" fill="#F8FAFF" fill-opacity="0.8"/>
    <path d="M78.7128 42.9766H0V43.6402H78.7128V42.9766Z" fill="#F8FAFF" fill-opacity="0.8"/>
</svg>
