<svg width="100" height="100" viewBox="0 0 100 100" fill="none" xmlns="http://www.w3.org/2000/svg">
    <path d="M35.2518 11.5108C38.4305 11.5108 41.0072 8.93401 41.0072 5.7554C41.0072 2.57678 38.4305 0 35.2518 0C32.0732 0 29.4965 2.57678 29.4965 5.7554C29.4965 8.93401 32.0732 11.5108 35.2518 11.5108Z" fill="#00020C"/>
    <path d="M49.96 11.5108C53.1386 11.5108 55.7154 8.93401 55.7154 5.7554C55.7154 2.57678 53.1386 0 49.96 0C46.7814 0 44.2046 2.57678 44.2046 5.7554C44.2046 8.93401 46.7814 11.5108 49.96 11.5108Z" fill="#00020C"/>
    <path d="M64.7482 11.5108C67.9268 11.5108 70.5036 8.93401 70.5036 5.7554C70.5036 2.57678 67.9268 0 64.7482 0C61.5696 0 58.9928 2.57678 58.9928 5.7554C58.9928 8.93401 61.5696 11.5108 64.7482 11.5108Z" fill="#00020C"/>
    <path d="M35.2518 26.2989C38.4305 26.2989 41.0072 23.7221 41.0072 20.5435C41.0072 17.3649 38.4305 14.7881 35.2518 14.7881C32.0732 14.7881 29.4965 17.3649 29.4965 20.5435C29.4965 23.7221 32.0732 26.2989 35.2518 26.2989Z" fill="#00020C"/>
    <path d="M20.5436 26.2989C23.7222 26.2989 26.299 23.7221 26.299 20.5435C26.299 17.3649 23.7222 14.7881 20.5436 14.7881C17.365 14.7881 14.7882 17.3649 14.7882 20.5435C14.7882 23.7221 17.365 26.2989 20.5436 26.2989Z" fill="#00020C"/>
    <path d="M49.96 26.2989C53.1386 26.2989 55.7154 23.7221 55.7154 20.5435C55.7154 17.3649 53.1386 14.7881 49.96 14.7881C46.7814 14.7881 44.2046 17.3649 44.2046 20.5435C44.2046 23.7221 46.7814 26.2989 49.96 26.2989Z" fill="#00020C"/>
    <path d="M64.7482 26.2989C67.9268 26.2989 70.5036 23.7221 70.5036 20.5435C70.5036 17.3649 67.9268 14.7881 64.7482 14.7881C61.5696 14.7881 58.9928 17.3649 58.9928 20.5435C58.9928 23.7221 61.5696 26.2989 64.7482 26.2989Z" fill="#00020C"/>
    <path d="M79.4564 26.2989C82.635 26.2989 85.2118 23.7221 85.2118 20.5435C85.2118 17.3649 82.635 14.7881 79.4564 14.7881C76.2778 14.7881 73.701 17.3649 73.701 20.5435C73.701 23.7221 76.2778 26.2989 79.4564 26.2989Z" fill="#00020C"/>
    <path d="M64.7482 100C67.9268 100 70.5036 97.4233 70.5036 94.2447C70.5036 91.066 67.9268 88.4893 64.7482 88.4893C61.5696 88.4893 58.9928 91.066 58.9928 94.2447C58.9928 97.4233 61.5696 100 64.7482 100Z" fill="#00020C"/>
    <path d="M49.96 100C53.1386 100 55.7154 97.4233 55.7154 94.2447C55.7154 91.066 53.1386 88.4893 49.96 88.4893C46.7814 88.4893 44.2046 91.066 44.2046 94.2447C44.2046 97.4233 46.7814 100 49.96 100Z" fill="#00020C"/>
    <path d="M35.2518 100C38.4305 100 41.0072 97.4233 41.0072 94.2447C41.0072 91.066 38.4305 88.4893 35.2518 88.4893C32.0732 88.4893 29.4965 91.066 29.4965 94.2447C29.4965 97.4233 32.0732 100 35.2518 100Z" fill="#00020C"/>
    <path d="M64.7482 85.2117C67.9268 85.2117 70.5036 82.6349 70.5036 79.4563C70.5036 76.2777 67.9268 73.7009 64.7482 73.7009C61.5696 73.7009 58.9928 76.2777 58.9928 79.4563C58.9928 82.6349 61.5696 85.2117 64.7482 85.2117Z" fill="#00020C"/>
    <path d="M79.4564 85.2117C82.635 85.2117 85.2118 82.6349 85.2118 79.4563C85.2118 76.2777 82.635 73.7009 79.4564 73.7009C76.2778 73.7009 73.701 76.2777 73.701 79.4563C73.701 82.6349 76.2778 85.2117 79.4564 85.2117Z" fill="#00020C"/>
    <path d="M49.96 85.2117C53.1386 85.2117 55.7154 82.6349 55.7154 79.4563C55.7154 76.2777 53.1386 73.7009 49.96 73.7009C46.7814 73.7009 44.2046 76.2777 44.2046 79.4563C44.2046 82.6349 46.7814 85.2117 49.96 85.2117Z" fill="#00020C"/>
    <path d="M35.2518 85.2117C38.4305 85.2117 41.0072 82.6349 41.0072 79.4563C41.0072 76.2777 38.4305 73.7009 35.2518 73.7009C32.0732 73.7009 29.4965 76.2777 29.4965 79.4563C29.4965 82.6349 32.0732 85.2117 35.2518 85.2117Z" fill="#00020C"/>
    <path d="M20.5436 85.2117C23.7222 85.2117 26.299 82.6349 26.299 79.4563C26.299 76.2777 23.7222 73.7009 20.5436 73.7009C17.365 73.7009 14.7882 76.2777 14.7882 79.4563C14.7882 82.6349 17.365 85.2117 20.5436 85.2117Z" fill="#00020C"/>
    <path d="M35.2518 41.0071C38.4305 41.0071 41.0072 38.4304 41.0072 35.2517C41.0072 32.0731 38.4305 29.4963 35.2518 29.4963C32.0732 29.4963 29.4965 32.0731 29.4965 35.2517C29.4965 38.4304 32.0732 41.0071 35.2518 41.0071Z" fill="#00020C"/>
    <path d="M20.5436 41.0071C23.7222 41.0071 26.299 38.4304 26.299 35.2517C26.299 32.0731 23.7222 29.4963 20.5436 29.4963C17.365 29.4963 14.7882 32.0731 14.7882 35.2517C14.7882 38.4304 17.365 41.0071 20.5436 41.0071Z" fill="#00020C"/>
    <path d="M5.75538 41.0071C8.934 41.0071 11.5108 38.4304 11.5108 35.2517C11.5108 32.0731 8.934 29.4963 5.75538 29.4963C2.57676 29.4963 0 32.0731 0 35.2517C0 38.4304 2.57676 41.0071 5.75538 41.0071Z" fill="#00020C"/>
    <path d="M49.96 41.0071C53.1386 41.0071 55.7154 38.4304 55.7154 35.2517C55.7154 32.0731 53.1386 29.4963 49.96 29.4963C46.7814 29.4963 44.2046 32.0731 44.2046 35.2517C44.2046 38.4304 46.7814 41.0071 49.96 41.0071Z" fill="#00020C"/>
    <path d="M64.7482 41.0071C67.9268 41.0071 70.5036 38.4304 70.5036 35.2517C70.5036 32.0731 67.9268 29.4963 64.7482 29.4963C61.5696 29.4963 58.9928 32.0731 58.9928 35.2517C58.9928 38.4304 61.5696 41.0071 64.7482 41.0071Z" fill="#00020C"/>
    <path d="M79.4564 41.0071C82.635 41.0071 85.2118 38.4304 85.2118 35.2517C85.2118 32.0731 82.635 29.4963 79.4564 29.4963C76.2778 29.4963 73.701 32.0731 73.701 35.2517C73.701 38.4304 76.2778 41.0071 79.4564 41.0071Z" fill="#00020C"/>
    <path d="M94.2446 41.0071C97.4232 41.0071 100 38.4304 100 35.2517C100 32.0731 97.4232 29.4963 94.2446 29.4963C91.066 29.4963 88.4893 32.0731 88.4893 35.2517C88.4893 38.4304 91.066 41.0071 94.2446 41.0071Z" fill="#00020C"/>
    <path d="M35.2518 55.7154C38.4305 55.7154 41.0072 53.1386 41.0072 49.96C41.0072 46.7814 38.4305 44.2046 35.2518 44.2046C32.0732 44.2046 29.4965 46.7814 29.4965 49.96C29.4965 53.1386 32.0732 55.7154 35.2518 55.7154Z" fill="#00020C"/>
    <path d="M20.5436 55.7154C23.7222 55.7154 26.299 53.1386 26.299 49.96C26.299 46.7814 23.7222 44.2046 20.5436 44.2046C17.365 44.2046 14.7882 46.7814 14.7882 49.96C14.7882 53.1386 17.365 55.7154 20.5436 55.7154Z" fill="#00020C"/>
    <path d="M5.75538 55.7154C8.934 55.7154 11.5108 53.1386 11.5108 49.96C11.5108 46.7814 8.934 44.2046 5.75538 44.2046C2.57676 44.2046 0 46.7814 0 49.96C0 53.1386 2.57676 55.7154 5.75538 55.7154Z" fill="#00020C"/>
    <path d="M49.96 55.7154C53.1386 55.7154 55.7154 53.1386 55.7154 49.96C55.7154 46.7814 53.1386 44.2046 49.96 44.2046C46.7814 44.2046 44.2046 46.7814 44.2046 49.96C44.2046 53.1386 46.7814 55.7154 49.96 55.7154Z" fill="#00020C"/>
    <path d="M64.7482 55.7154C67.9268 55.7154 70.5036 53.1386 70.5036 49.96C70.5036 46.7814 67.9268 44.2046 64.7482 44.2046C61.5696 44.2046 58.9928 46.7814 58.9928 49.96C58.9928 53.1386 61.5696 55.7154 64.7482 55.7154Z" fill="#00020C"/>
    <path d="M79.4564 55.7154C82.635 55.7154 85.2118 53.1386 85.2118 49.96C85.2118 46.7814 82.635 44.2046 79.4564 44.2046C76.2778 44.2046 73.701 46.7814 73.701 49.96C73.701 53.1386 76.2778 55.7154 79.4564 55.7154Z" fill="#00020C"/>
    <path d="M94.2446 55.7154C97.4232 55.7154 100 53.1386 100 49.96C100 46.7814 97.4232 44.2046 94.2446 44.2046C91.066 44.2046 88.4893 46.7814 88.4893 49.96C88.4893 53.1386 91.066 55.7154 94.2446 55.7154Z" fill="#00020C"/>
    <path d="M35.2518 70.5037C38.4305 70.5037 41.0072 67.9269 41.0072 64.7483C41.0072 61.5697 38.4305 58.9929 35.2518 58.9929C32.0732 58.9929 29.4965 61.5697 29.4965 64.7483C29.4965 67.9269 32.0732 70.5037 35.2518 70.5037Z" fill="#00020C"/>
    <path d="M20.5436 70.5037C23.7222 70.5037 26.299 67.9269 26.299 64.7483C26.299 61.5697 23.7222 58.9929 20.5436 58.9929C17.365 58.9929 14.7882 61.5697 14.7882 64.7483C14.7882 67.9269 17.365 70.5037 20.5436 70.5037Z" fill="#00020C"/>
    <path d="M5.75538 70.5037C8.934 70.5037 11.5108 67.9269 11.5108 64.7483C11.5108 61.5697 8.934 58.9929 5.75538 58.9929C2.57676 58.9929 0 61.5697 0 64.7483C0 67.9269 2.57676 70.5037 5.75538 70.5037Z" fill="#00020C"/>
    <path d="M49.96 70.5037C53.1386 70.5037 55.7154 67.9269 55.7154 64.7483C55.7154 61.5697 53.1386 58.9929 49.96 58.9929C46.7814 58.9929 44.2046 61.5697 44.2046 64.7483C44.2046 67.9269 46.7814 70.5037 49.96 70.5037Z" fill="#00020C"/>
    <path d="M64.7482 70.5037C67.9268 70.5037 70.5036 67.9269 70.5036 64.7483C70.5036 61.5697 67.9268 58.9929 64.7482 58.9929C61.5696 58.9929 58.9928 61.5697 58.9928 64.7483C58.9928 67.9269 61.5696 70.5037 64.7482 70.5037Z" fill="#00020C"/>
    <path d="M79.4564 70.5037C82.635 70.5037 85.2118 67.9269 85.2118 64.7483C85.2118 61.5697 82.635 58.9929 79.4564 58.9929C76.2778 58.9929 73.701 61.5697 73.701 64.7483C73.701 67.9269 76.2778 70.5037 79.4564 70.5037Z" fill="#00020C"/>
    <path d="M94.2446 70.5037C97.4232 70.5037 100 67.9269 100 64.7483C100 61.5697 97.4232 58.9929 94.2446 58.9929C91.066 58.9929 88.4893 61.5697 88.4893 64.7483C88.4893 67.9269 91.066 70.5037 94.2446 70.5037Z" fill="#00020C"/>
</svg>
