<svg width="80" height="80" viewBox="0 0 80 80" fill="none" xmlns="http://www.w3.org/2000/svg">
    <g style="mix-blend-mode:screen">
        <path d="M32.8058 80.0011H18.9928C8.50524 80.0011 0 71.4959 0 61.0082V47.1953H6.97043V61.0082C6.97043 67.595 12.3422 72.9667 18.9289 72.9667H32.7418V80.0011H32.8058Z" fill="url(#paint0_radial_837_12114)"/>
        <path d="M61.0071 80.0011H47.1942V73.0307H61.0071C67.5939 73.0307 72.9656 67.659 72.9656 61.0722V47.1953H79.936V61.0082C79.9999 71.4319 71.4308 80.0011 61.0071 80.0011Z" fill="url(#paint1_radial_837_12114)"/>
        <path d="M80 32.8043H73.0295V18.9914C73.0295 12.4047 67.6578 7.03294 61.0711 7.03294H47.1942V0.0625H61.0071C71.4947 0.0625 80 8.56771 80 19.0553V32.8043Z" fill="url(#paint2_radial_837_12114)"/>
        <path d="M7.03444 32.8058H0.0640869V18.9928C0.0640869 8.50521 8.56925 0 19.0568 0H32.8698V6.9704H19.0568C12.4701 6.9704 7.09845 12.3421 7.09845 18.9288V32.8058H7.03444Z" fill="url(#paint3_radial_837_12114)"/>
    </g>
    <defs>
        <radialGradient id="paint0_radial_837_12114" cx="0" cy="0" r="1" gradientTransform="matrix(14.6974 -21.3065 25.6646 -1.62157 24.5067 63.4308)" gradientUnits="userSpaceOnUse">
            <stop offset="0.0721154" stop-color="#500CBE"/>
            <stop offset="0.3125" stop-color="#FFF67A"/>
            <stop offset="0.625" stop-color="#7AFFF6"/>
            <stop offset="0.918269" stop-color="#0F5EF7"/>
        </radialGradient>
        <radialGradient id="paint1_radial_837_12114" cx="0" cy="0" r="1" gradientTransform="matrix(14.6689 -21.3065 25.6148 -1.62157 71.6533 63.4308)" gradientUnits="userSpaceOnUse">
            <stop offset="0.0721154" stop-color="#500CBE"/>
            <stop offset="0.3125" stop-color="#FFF67A"/>
            <stop offset="0.625" stop-color="#7AFFF6"/>
            <stop offset="0.918269" stop-color="#0F5EF7"/>
        </radialGradient>
        <radialGradient id="paint2_radial_837_12114" cx="0" cy="0" r="1" gradientTransform="matrix(14.6974 -21.265 25.6646 -1.61841 71.7009 16.2664)" gradientUnits="userSpaceOnUse">
            <stop offset="0.0721154" stop-color="#500CBE"/>
            <stop offset="0.3125" stop-color="#FFF67A"/>
            <stop offset="0.625" stop-color="#7AFFF6"/>
            <stop offset="0.918269" stop-color="#0F5EF7"/>
        </radialGradient>
        <radialGradient id="paint3_radial_837_12114" cx="0" cy="0" r="1" gradientTransform="matrix(14.6974 -21.3065 25.6646 -1.62158 24.5707 16.2355)" gradientUnits="userSpaceOnUse">
            <stop offset="0.0721154" stop-color="#500CBE"/>
            <stop offset="0.3125" stop-color="#FFF67A"/>
            <stop offset="0.625" stop-color="#7AFFF6"/>
            <stop offset="0.918269" stop-color="#0F5EF7"/>
        </radialGradient>
    </defs>
</svg>
