<svg width="80" height="80" viewBox="0 0 80 80" fill="none" xmlns="http://www.w3.org/2000/svg">
    <g style="mix-blend-mode:screen">
        <path d="M39.04 80C38.528 80 38.08 79.5618 38.08 79.061C38.08 78.5602 38.528 78.1221 39.04 78.1221C60.608 78.1221 78.144 60.9703 78.144 39.8748C78.144 18.7794 60.608 1.62753 39.04 1.62753C18.56 1.62753 1.85602 17.9656 1.85602 37.9969C1.85602 58.0282 18.56 74.3662 39.04 74.3662C58.496 74.3662 74.304 58.9046 74.304 39.8748C74.304 20.8451 58.496 5.3834 39.04 5.3834C20.672 5.3834 5.69602 20.0313 5.69602 38.0595C5.69602 56.0876 20.672 70.7355 39.04 70.7355C56.384 70.7355 70.464 56.9014 70.464 39.9374C70.464 22.9734 56.384 9.13927 39.04 9.13927C22.72 9.13927 9.47199 22.097 9.47199 38.0595C9.47199 54.0219 22.72 66.9797 39.04 66.9797C54.272 66.9797 66.688 54.8357 66.688 39.9374C66.688 25.0391 54.272 12.8951 39.04 12.8951C24.832 12.8951 13.312 24.2253 13.312 38.0595C13.312 51.9562 24.832 63.2238 39.04 63.2238C52.16 63.2238 62.848 52.77 62.848 39.8748C62.848 26.9797 52.16 16.5258 39.04 16.5258C26.944 16.5258 17.088 26.1659 17.088 37.9969C17.088 49.8279 26.944 59.4679 39.04 59.4679C50.112 59.4679 59.072 50.7042 59.072 39.8748C59.072 29.0454 50.112 20.2817 39.04 20.2817C29.056 20.2817 20.928 28.2316 20.928 37.9969C20.928 47.7621 29.056 55.7121 39.04 55.7121C48 55.7121 55.232 48.5759 55.232 39.8748C55.232 31.1737 47.936 24.0376 39.04 24.0376C31.168 24.0376 24.704 30.2973 24.704 38.0595C24.704 45.759 31.104 52.0814 39.04 52.0814C45.888 52.0814 51.456 46.6354 51.456 39.9374C51.456 33.2394 45.888 27.7934 39.04 27.7934C33.28 27.7934 28.544 32.4257 28.544 38.0595C28.544 43.6933 33.28 48.3255 39.04 48.3255C43.776 48.3255 47.616 44.5696 47.616 39.9374C47.616 35.3052 43.776 31.5493 39.04 31.5493C35.328 31.5493 32.384 34.4914 32.384 38.1221C32.384 41.7528 35.392 44.6949 39.04 44.6949C41.664 44.6949 43.84 42.5665 43.84 40C43.84 37.4335 41.728 35.3052 39.04 35.3052C37.44 35.3052 36.16 36.5571 36.16 38.1221C36.16 39.687 37.44 40.939 39.04 40.939C39.552 40.939 40 40.5008 40 40C40 39.4992 39.552 39.0611 39.04 39.0611C38.528 39.0611 38.08 38.6229 38.08 38.1221C38.08 37.6213 38.528 37.1831 39.04 37.1831C40.576 37.1831 41.856 38.4351 41.856 39.9374C41.856 41.4397 40.576 42.6917 39.04 42.6917C36.416 42.6917 34.304 40.626 34.304 38.0595C34.304 35.493 36.416 33.4272 39.04 33.4272C42.688 33.4272 45.696 36.3693 45.696 39.9374C45.696 43.5055 42.688 46.4476 39.04 46.4476C34.304 46.4476 30.464 42.6917 30.464 38.0595C30.464 33.4272 34.304 29.6714 39.04 29.6714C44.8 29.6714 49.536 34.241 49.536 39.9374C49.536 45.5712 44.864 50.2035 39.04 50.2035C32.192 50.2035 26.688 44.7575 26.688 38.1221C26.688 31.4241 32.256 26.0407 39.04 26.0407C46.912 26.0407 53.312 32.3005 53.312 40C53.312 47.6996 46.912 53.9593 39.04 53.9593C30.144 53.9593 22.848 46.8858 22.848 38.1221C22.848 29.421 30.08 22.2848 39.04 22.2848C49.024 22.2848 57.152 30.2348 57.152 40C57.152 49.7653 48.96 57.59 39.04 57.59C28.032 57.59 19.072 48.8263 19.072 37.9969C19.072 27.1675 28.032 18.4038 39.04 18.4038C51.136 18.4038 60.928 28.0438 60.928 39.8122C60.928 51.5806 51.072 61.3459 39.04 61.3459C25.92 61.3459 15.232 50.892 15.232 38.0595C15.232 25.2269 25.92 14.7731 39.04 14.7731C53.184 14.7731 64.768 26.0407 64.768 39.9374C64.768 53.8341 53.248 65.1017 39.04 65.1017C23.808 65.1017 11.456 52.9577 11.456 38.0595C11.456 23.1612 23.872 11.0172 39.04 11.0172C55.296 11.0172 68.544 23.975 68.544 39.9374C68.544 55.8998 55.296 68.8576 39.04 68.8576C21.696 68.8576 7.61602 55.0861 7.61602 38.1221C7.61602 21.1581 21.696 7.38653 39.04 7.38653C57.408 7.38653 72.384 22.0344 72.384 40C72.384 57.9656 57.408 72.6135 39.04 72.6135C19.584 72.6135 3.77602 57.1518 3.77602 38.1221C3.77602 19.0924 19.584 3.63067 39.04 3.63067C59.52 3.63067 76.16 19.9061 76.16 40C76.16 60.0939 59.52 76.3693 39.04 76.3693C17.536 76.3693 0 59.2175 0 38.1847C0 17.0892 17.536 0 39.04 0C61.632 0 80 17.9656 80 40.0626C80 62.1596 61.568 80 39.04 80Z" fill="url(#paint0_radial_832_9890)"/>
    </g>
    <defs>
        <radialGradient id="paint0_radial_832_9890" cx="0" cy="0" r="1" gradientTransform="matrix(35.8411 -51.958 62.5856 -3.95437 59.7619 39.5918)" gradientUnits="userSpaceOnUse">
            <stop offset="0.0721154" stop-color="#500CBE"/>
            <stop offset="0.3125" stop-color="#FFF67A"/>
            <stop offset="0.625" stop-color="#7AFFF6"/>
            <stop offset="0.918269" stop-color="#0F5EF7"/>
        </radialGradient>
    </defs>
</svg>
