<svg width="155" height="48" viewBox="0 0 155 48" fill="none" xmlns="http://www.w3.org/2000/svg">
    <g clip-path="url(#clip0_826_9815)">
        <path d="M74.2964 19.3024C74.2611 21.1924 73.4387 23.3826 71.7586 25.236C69.0405 28.2345 64.5012 28.4277 61.5856 25.6345C59.3554 23.4979 58.4489 20.8343 58.6925 17.7851C58.8766 15.4806 59.7958 13.4898 61.4481 11.8555C63.5624 9.76414 66.567 9.14469 69.1943 10.2787C70.9866 11.0523 72.2452 12.4031 73.1478 14.0987C73.9118 15.5342 74.3077 17.0692 74.2964 19.3024ZM59.838 18.4996C59.8537 19.686 59.9864 20.655 60.3238 21.5846C60.9748 23.3785 62.0316 24.8624 63.7489 25.7779C66.1718 27.0695 69.1529 26.457 71.0017 24.3222C72.3229 22.7966 72.993 21.0052 73.0628 19.0066C73.1451 16.6499 72.4476 14.5459 70.7981 12.818C68.3347 10.2375 64.5715 10.2368 62.13 12.8177C60.5748 14.4618 59.8882 16.4613 59.838 18.4996Z" fill="#7AFFF6"/>
        <path d="M143.269 19.0529C143.269 19.1905 143.269 19.3122 143.269 19.434C143.269 22.0043 143.265 24.5747 143.276 27.145C143.277 27.4178 143.206 27.5136 142.93 27.4896C142.655 27.4658 142.376 27.4844 142.079 27.4844V9.86719H143.259V17.8742H153.814V9.87036H154.997V27.4641H153.827V19.0529H143.269Z" fill="#7AFFF6"/>
        <path d="M120.711 17.9023V19.0146C119.293 19.0146 117.889 19.0146 116.486 19.0146C115.081 19.0146 113.677 19.0146 112.251 19.0146V26.3233H122.167C122.167 26.6838 122.172 27.0201 122.16 27.3559C122.159 27.3997 122.078 27.4563 122.022 27.4785C121.968 27.5 121.9 27.4854 121.838 27.4854C118.342 27.4855 114.846 27.4855 111.351 27.4855H111.049V9.875H121.931V10.9884H112.253V17.9023H120.711Z" fill="#7AFFF6"/>
        <path d="M90.8643 27.6247H89.5149L84.0232 19.9155L78.5412 27.6247C78.5412 27.6247 77.5218 27.6248 77.138 27.6248C77.5196 27.0881 83.3395 18.9585 83.3395 18.9585L76.9622 10.0379L78.3161 10.0354L84.0149 18.0062L89.6778 10.0354L91.0341 10.0352C90.6238 10.6107 84.6691 18.9432 84.6691 18.9432L90.8643 27.6247Z" fill="#7AFFF6"/>
        <path d="M137.723 23.0221C138.052 23.1889 138.372 23.3507 138.773 23.5534C138.484 24.012 138.249 24.482 137.926 24.8821C136.666 26.4441 134.997 27.311 133.023 27.5587C130.025 27.9348 127.764 26.6418 126.123 24.2502C124.073 21.2617 123.709 18.0269 125.114 14.6643C125.961 12.637 127.363 11.0747 129.447 10.2586C131.911 9.29353 135.221 9.52401 137.358 12.0189C137.579 12.2766 137.777 12.5556 137.965 12.8383C138.119 13.0686 138.241 13.3195 138.392 13.5884C138.058 13.7914 137.744 13.9825 137.407 14.1878C137.332 14.0565 137.263 13.9329 137.192 13.8102C135.958 11.6803 134.044 10.7996 131.659 10.9461C128.955 11.1121 127.234 12.7187 126.238 15.0888C124.919 18.2257 125.284 21.2408 127.345 23.9677C128.587 25.6118 130.268 26.5557 132.39 26.444C134.7 26.3225 136.496 25.3103 137.594 23.2113C137.613 23.1748 137.631 23.1378 137.653 23.1026C137.663 23.0854 137.679 23.0716 137.723 23.0221Z" fill="#7AFFF6"/>
        <path d="M108.053 9.87109V10.9865H101.964V27.4552H100.754V11.0064H94.6474V9.87109H108.053Z" fill="#7AFFF6"/>
        <path d="M135.869 35.789C135.526 36.5881 134.755 38.3823 134.755 38.3823L134.266 38.3821L132.029 33.0962L132.532 33.0859C132.532 33.0859 134.467 37.6426 134.532 37.7844C134.775 37.2159 135.537 35.3624 135.537 35.3624L134.619 33.1509H135.089L135.87 34.9848L136.656 33.1516L137.127 33.1519L136.213 35.359C136.213 35.359 136.949 37.1311 137.234 37.7999C137.543 37.0534 139.233 33.086 139.233 33.086L139.738 33.0885L137.497 38.3821L136.985 38.3822C136.985 38.3822 135.916 35.8858 135.869 35.789Z" fill="#7AFFF6"/>
        <path d="M66.5913 37.5122V33.0859H67.109V38.3817L66.594 38.3817C66.594 38.3817 64.4136 35.6235 63.4126 34.3629C63.3509 34.2851 63.2839 34.2115 63.1679 34.0756V38.387H62.6354V33.0885L63.089 33.0883C63.089 33.0883 66.4769 37.3749 66.5913 37.5122Z" fill="#7AFFF6"/>
        <path d="M72.8646 37.5122V33.0859H73.3823V38.3817L72.8673 38.3817C72.8673 38.3817 70.6868 35.6235 69.6859 34.3629C69.6241 34.2851 69.5571 34.2115 69.4411 34.0756V38.387H68.9086V33.0885L69.3623 33.0883C69.3623 33.0883 72.7502 37.3749 72.8646 37.5122Z" fill="#7AFFF6"/>
        <path d="M146.043 33.0859L148.568 33.0882C149.187 33.1232 149.758 33.7802 149.866 34.4553C149.985 35.1963 149.658 35.9143 149.06 36.2202C148.96 36.2712 148.855 36.3121 148.716 36.3743L150.002 38.3816L149.441 38.3818L148.198 36.4408L146.564 36.4315V38.3991H146.043V33.0859ZM146.578 33.5193V35.977C147.152 35.977 147.708 35.9842 148.262 35.9751C148.889 35.9648 149.342 35.475 149.365 34.8C149.388 34.1424 148.921 33.5524 148.316 33.5248C147.75 33.4991 147.182 33.5193 146.578 33.5193Z" fill="#7AFFF6"/>
        <path d="M118.681 33.0078C119.567 33.0227 120.208 33.4077 120.692 34.0693C121.464 35.1238 121.411 36.5788 120.575 37.5652C119.557 38.7675 117.831 38.7573 116.83 37.543C115.503 35.9341 116.34 33.4173 118.328 33.0462C118.459 33.0217 118.594 33.0169 118.681 33.0078ZM116.716 35.8164C116.733 35.9315 116.741 36.1514 116.799 36.3571C117.018 37.1281 117.454 37.72 118.27 37.9215C118.966 38.0935 119.584 37.91 120.075 37.3789C120.807 36.5876 120.914 35.3672 120.347 34.45C119.721 33.4389 118.443 33.1766 117.564 33.8958C116.996 34.361 116.733 34.9839 116.716 35.8164Z" fill="#7AFFF6"/>
        <path d="M74.7976 35.7341C74.8354 34.1826 76.0121 32.9485 77.4588 33.0185C78.4516 33.0664 79.1257 33.6167 79.5585 34.4782C80.0802 35.5167 79.9219 36.7552 79.177 37.6002C77.8782 39.0737 75.6228 38.5804 74.9757 36.6731C74.8745 36.3748 74.7976 36.1173 74.7976 35.7341ZM79.3425 35.5963C79.3425 35.3598 79.2523 35.0569 79.117 34.7419C78.8273 34.0677 78.3289 33.6046 77.5704 33.5134C76.8159 33.4226 76.2116 33.7126 75.7833 34.3346C75.3064 35.0272 75.2096 35.7862 75.4909 36.5752C75.901 37.7252 77.0395 38.2969 78.0582 37.8317C78.9236 37.4366 79.2873 36.686 79.3425 35.5963Z" fill="#7AFFF6"/>
        <path d="M104.672 35.8978V37.9452H107.721V38.3905H104.15V33.0703H107.65V33.5026H104.682V35.4387H107.273V35.8978H104.672Z" fill="#7AFFF6"/>
        <path d="M114.671 34.0431C114.124 33.5397 113.49 33.4296 112.807 33.5083C112.444 33.5502 112.123 33.6782 111.937 34.02C111.671 34.5094 111.851 35.0459 112.38 35.2363C112.795 35.3859 113.234 35.4702 113.661 35.5896C113.88 35.6507 114.099 35.713 114.309 35.796C114.923 36.0378 115.183 36.404 115.186 37.0052C115.189 37.619 114.893 38.0492 114.303 38.2907C113.325 38.6905 111.882 38.4163 111.1 37.6729C111.176 37.5457 111.254 37.4154 111.346 37.263C112 37.8454 112.753 38.0636 113.592 37.9671C113.803 37.943 114.023 37.884 114.207 37.7834C114.777 37.4723 114.795 36.6784 114.225 36.3707C113.895 36.1924 113.514 36.1044 113.151 35.9894C112.817 35.8835 112.473 35.8098 112.142 35.6967C111.643 35.5264 111.305 35.2047 111.283 34.6449C111.259 34.0765 111.462 33.6146 111.968 33.3172C112.842 32.8035 114.132 32.9411 114.911 33.6438C114.838 33.7661 114.761 33.8931 114.671 34.0431Z" fill="#7AFFF6"/>
        <path d="M151.427 33.0703H154.927V33.4946H151.95V35.4379H154.543V35.8987H151.945V37.942H155V38.3903H151.427V33.0703Z" fill="#7AFFF6"/>
        <path d="M90.5237 38.3816H89.9832L89.2883 36.7306L86.8697 36.7299L86.1656 38.3816L85.6282 38.3815L87.8466 33.0859L88.3277 33.0859L90.5237 38.3816ZM89.1595 36.3095C88.8001 35.4291 88.4549 34.5837 88.0834 33.674C87.705 34.5891 87.3545 35.4365 86.9935 36.3095H89.1595Z" fill="#7AFFF6"/>
        <path d="M85.4299 33.093C85.2708 33.4777 83.2457 38.3815 83.2457 38.3815L82.7215 38.3816C82.7215 38.3816 80.5462 33.1541 80.5228 33.0858L81.035 33.082C81.035 33.082 82.9097 37.5778 82.9828 37.7446C83.2733 37.0341 84.5891 33.8454 84.8995 33.0822L85.4299 33.093Z" fill="#7AFFF6"/>
        <path d="M102.927 33.093C102.768 33.4777 100.743 38.3815 100.743 38.3815L100.219 38.3816C100.219 38.3816 98.0434 33.1541 98.0201 33.0858L98.5322 33.082C98.5322 33.082 100.407 37.5778 100.48 37.7446C100.771 37.0341 102.086 33.8454 102.397 33.0822L102.927 33.093Z" fill="#7AFFF6"/>
        <path d="M122.676 33.0742H126.173V33.5077H123.209V35.48H125.704V35.9198H123.187V38.3995H122.676V33.0742Z" fill="#7AFFF6"/>
        <path d="M93.1313 38.3988H92.603V33.528H90.6892V33.082H95.0114V33.517H93.1313V38.3988Z" fill="#7AFFF6"/>
        <path d="M128.915 33.5107H127.008V33.082H131.349V33.5082H129.453V38.3859H128.915V33.5107Z" fill="#7AFFF6"/>
        <path d="M60.3414 33.0742H60.8306V38.3912H60.3414V33.0742Z" fill="#7AFFF6"/>
        <path d="M96.28 33.0742H96.7771V38.3914H96.28V33.0742Z" fill="#7AFFF6"/>
        <path d="M144.809 38.3934H144.269L143.574 36.7423L141.155 36.7416L140.451 38.3934L139.914 38.3933L142.132 33.0977L142.613 33.0977L144.809 38.3934ZM143.445 36.3213C143.085 35.4408 142.74 34.5954 142.369 33.6857C141.99 34.6008 141.64 35.4482 141.279 36.3213H143.445Z" fill="#7AFFF6"/>
        <path d="M-9.15527e-05 22.4858C0.0581543 21.9661 0.108885 21.4455 0.17586 20.9269C0.629411 17.4154 1.82455 14.1731 3.74467 11.198C5.48434 8.50257 7.68339 6.24628 10.307 4.39958C10.3739 4.35251 10.4448 4.31117 10.5382 4.25161C19.437 16.2865 28.3314 28.3155 37.2461 40.372C37.432 40.247 37.5816 40.1614 37.7144 40.055C41.9414 36.6636 44.6191 32.3345 45.4183 26.9626C46.3809 20.4929 44.5714 14.8044 40.1712 9.98111C36.8763 6.36942 32.7349 4.23266 27.9106 3.46569C23.391 2.74717 19.0611 3.42195 14.9466 5.43048C14.4835 5.65655 14.0371 5.9167 13.5468 6.18047C13.3708 5.93908 13.1924 5.69441 12.9855 5.41073C13.5496 5.10872 14.0753 4.80619 14.6188 4.53995C16.9574 3.39432 19.4186 2.65302 22.0114 2.37424C26.1419 1.93013 30.1126 2.53504 33.8873 4.27721C38.2764 6.30292 41.6385 9.45009 43.9898 13.6644C45.2704 15.9598 46.0795 18.4261 46.4019 21.0266C47.0598 26.3333 45.969 31.2579 42.9951 35.7345C41.7169 37.6587 40.149 39.3205 38.3411 40.7585C38.2119 40.8613 38.087 40.9698 37.9621 41.078C37.932 41.104 37.9101 41.1395 37.857 41.2037C38.0535 41.4621 38.24 41.7331 38.4598 41.9739C38.502 42.0202 38.709 41.9871 38.7821 41.9239C39.6018 41.2148 40.4579 40.5391 41.2128 39.7654C43.8239 37.0896 45.7193 33.9674 46.7357 30.3663C48.6413 23.6149 47.7236 17.2453 43.7799 11.4251C39.9945 5.83841 34.6606 2.54379 27.9945 1.49488C23.3384 0.762236 18.83 1.40184 14.53 3.36298C13.8735 3.6624 12.9023 4.15308 12.2661 4.49498L12.0775 4.22486C11.951 4.00264 11.7913 3.7993 11.6187 3.54757C11.8954 3.38627 12.1466 3.23069 12.406 3.09C14.7821 1.80106 17.2892 0.871868 19.9578 0.41074C20.8625 0.254401 21.7752 0.119751 22.6924 0.059417C25.3411 -0.114829 26.6918 0.118929 27.2534 0.183149C32.2062 0.749522 36.5888 2.64008 40.3915 5.85378C42.8434 7.92584 44.8065 10.3961 46.2571 13.2573C47.8804 16.459 48.7624 19.8487 48.8263 23.452C48.8898 27.0361 48.2418 30.4664 46.7481 33.7304C45.1675 37.1843 42.9238 40.1291 39.9514 42.5106C39.4921 42.8787 39.0292 43.2425 38.5672 43.6073C38.5356 43.6323 38.498 43.6497 38.4117 43.7016C33.6246 37.2489 28.8391 30.7982 24.0066 24.2842C23.732 24.6583 23.51 24.9394 23.3191 25.24C23.2844 25.2946 23.3551 25.4446 23.4131 25.5246C24.51 27.0369 25.6122 28.5453 26.7134 30.0544C28.4901 32.489 30.267 34.9236 32.0435 37.3583C32.0795 37.4076 32.1129 37.4588 32.1715 37.5441C31.9222 37.7147 31.6814 37.8796 31.4136 38.0628C29.0215 34.7891 26.6494 31.5428 24.2507 28.26C23.6664 29.0568 23.119 29.8045 22.5704 30.5512C21.5134 31.9897 20.4561 33.4279 19.3979 34.8654C19.3184 34.9734 19.2334 35.0778 19.1453 35.1789C18.9246 35.4324 18.7331 35.4745 18.537 35.318C18.3171 35.1425 18.2912 34.9342 18.4762 34.6702C19.0389 33.8675 19.6026 33.0654 20.174 32.2689C21.2627 30.7514 22.3536 29.2355 23.4532 27.726C23.5905 27.5374 23.6095 27.3931 23.4709 27.2054C23.2219 26.8679 22.9875 26.5197 22.7158 26.1315C22.4942 26.4244 22.3064 26.6655 22.1262 26.9121C21.2011 28.1788 20.2784 29.4471 19.3533 30.7138C19.2743 30.8219 19.1794 30.9185 19.0999 31.0263C18.9481 31.2323 18.7614 31.2492 18.5577 31.1236C18.3409 30.99 18.2798 30.7539 18.4252 30.5333C18.7542 30.0338 19.0946 29.5415 19.4389 29.0523C20.2465 27.9045 21.0532 26.7561 21.8748 25.6183C22.0318 25.4009 22.0476 25.2548 21.883 25.0281C18.6629 20.5933 15.4516 16.1521 12.2391 11.7118C12.1617 11.6048 12.0907 11.4931 11.9914 11.3462C12.242 11.1844 12.4714 11.0363 12.7298 10.8695C16.0458 15.4007 19.3409 19.9033 22.6899 24.4796C22.9239 24.1392 23.1377 23.8681 23.2976 23.5683C23.3395 23.4898 23.2395 23.3041 23.1622 23.1986C21.735 21.25 20.3074 19.3016 18.8677 17.3622C16.5296 14.2126 14.1829 11.0694 11.8392 7.92398C11.7602 7.81793 11.6751 7.71638 11.5597 7.57096C11.2425 7.81681 10.9315 8.03494 10.6462 8.28261C6.9875 11.4587 4.59962 15.4003 3.75153 20.1709C2.63202 26.4682 4.14857 32.1374 8.25364 37.0513C11.6103 41.0693 15.9544 43.4568 21.1166 44.2832C26.0802 45.0779 30.783 44.2322 35.1762 41.7619C35.2385 41.7269 35.3346 41.6893 35.4 41.656C35.4319 41.6726 35.452 41.7082 35.452 41.7082L35.8811 42.4394C35.8811 42.4394 35.5973 42.6118 35.2761 42.7868C33.2402 43.8965 31.0874 44.6896 28.8057 45.116C24.1615 45.9839 19.662 45.5029 15.3539 43.5549C10.4067 41.3178 6.75669 37.7259 4.44419 32.8222C3.02728 29.8176 2.38347 26.6332 2.49522 23.3055C2.70332 17.1091 5.18391 11.9737 9.75662 7.81628C10.1307 7.47622 10.5195 7.15238 10.8997 6.81903C10.9291 6.79329 10.9446 6.75188 10.9789 6.69867C10.7706 6.42323 10.5604 6.14521 10.3193 5.82633C9.78478 6.27929 9.26395 6.69981 8.76606 7.14584C4.91281 10.5977 2.45722 14.8584 1.53472 19.9413C0.475923 25.7752 1.55324 31.2288 4.78238 36.2184C7.14196 39.8644 10.3021 42.6374 14.2343 44.5001C17.3743 45.9875 20.682 46.7601 24.1752 46.7784C28.5369 46.8012 32.5995 45.759 36.3591 43.5549C36.6315 43.3952 36.7451 43.3563 36.7451 43.3563C36.8679 43.5686 37.2278 44.0832 37.3996 44.3291C37.0784 44.5217 36.7867 44.7098 36.4832 44.8764C33.8425 46.3255 31.0418 47.31 28.0531 47.7338C23.2688 48.4123 18.6493 47.8212 14.2455 45.8225C8.91177 43.4017 4.92797 39.5578 2.3435 34.3017C1.03791 31.6465 0.264566 28.8363 0.0518636 25.8793C0.0461745 25.8002 0.0177369 25.7227 -9.15527e-05 25.6445C-9.15527e-05 24.5916 -9.15527e-05 23.5387 -9.15527e-05 22.4858Z" fill="#7AFFF6"/>
        <path d="M26.0731 21.2315C26.3557 21.615 26.6356 21.9949 26.9491 22.4204C27.3105 21.8996 27.6462 21.4224 27.9749 20.9406C28.7541 19.7986 29.5295 18.6539 30.3078 17.5113C30.4832 17.2538 30.7361 17.19 30.9647 17.3387C31.1906 17.4856 31.2266 17.6961 31.0401 17.9792C29.9563 19.6246 28.873 21.2706 27.7718 22.9043C27.6108 23.1432 27.6135 23.2908 27.78 23.5196C30.9563 27.8833 34.1238 32.2533 37.2931 36.6221C37.3288 36.6712 37.3632 36.7213 37.4183 36.7994C37.1781 36.9685 36.9451 37.1324 36.6715 37.3249C30.19 28.435 23.7173 19.5571 17.2153 10.639C17.4793 10.4539 17.7013 10.2983 17.9595 10.1172C20.4686 13.5388 22.9562 16.9312 25.4768 20.3686C25.8837 19.8054 26.2675 19.2851 26.64 18.7567C27.7576 17.1713 28.8695 15.5819 29.9875 13.9967C30.1179 13.8118 30.2687 13.6407 30.4163 13.4686C30.568 13.2917 30.7284 13.1602 30.9641 13.3624C31.1854 13.5524 31.2234 13.7523 31.0495 14.0129C30.7231 14.5019 30.3947 14.9896 30.0598 15.4728C28.7667 17.3381 27.4706 19.2013 26.1761 21.0656C26.1415 21.1153 26.112 21.1685 26.0731 21.2315Z" fill="#7AFFF6"/>
    </g>
    <defs>
        <clipPath id="clip0_826_9815">
            <rect width="155" height="48" fill="white"/>
        </clipPath>
    </defs>
</svg>
