<svg width="101" height="100" viewBox="0 0 101 100" fill="none" xmlns="http://www.w3.org/2000/svg">
    <path d="M100.9 45.7822V44.5773H100.298V40.963H99.6955V38.5535H99.0931V36.1439H98.4907V34.3367H97.8883V31.9272H97.2858V30.7223H96.6834V29.5175H96.081V28.3127H95.4786V27.7103H94.8762V27.1078H95.4786V26.5054H94.8762V25.903H94.2738V24.6982H93.6713V24.0958H93.0689V22.8909H92.4665V22.2885H91.8641V21.0837H91.2617V20.4813H90.6593V19.8789H90.0568V18.674H89.4544V18.0716H88.852V17.4692H88.2496V16.8668H87.6472V16.2644H87.0448V15.662H86.4424V15.0595H85.8399V14.4571H85.2375V13.8547H84.6351V13.2523H84.0327V12.6499H83.4303V12.0475H82.8279V11.445H82.2254V10.8426H81.0206V10.2402H80.4182V9.63779H79.2134V9.03538H78.611V8.43296H77.4061V7.83055H76.8037V7.22813H75.5989V6.62571H74.394V6.0233H73.1892V5.42088H72.5868V4.81918H70.1773V4.21677H69.5749V3.61435H67.7676V3.01208H65.9614V2.40966H64.1541V1.80725H63.5517V2.40966H62.9493V1.80725H61.7444V1.20483H58.1301V0.602416H57.5277V1.20483H56.9253V0.602416H53.3109V0H52.7085V0.602416H52.1061V0H51.5037V0.602416H49.0942V0H48.4917V0.602416H44.275V1.20483H40.0582V1.80725H38.8534V2.40966H35.8414V3.01208H34.6366V3.61449H32.8294V4.21691H31.0221V4.81933H29.8173V5.42174H28.6124V6.02416H27.4076V6.62657H26.8052V7.22899H25.6004V7.8314H24.3955V8.43382H23.7931V9.03623H22.5883V9.63865H21.9859V10.2411H20.781V10.8435H20.1786V11.4459H19.5762V12.0483H18.9738V12.6507H18.3714V13.2531H17.1665V13.8556H16.5641V15.0604H15.3593V15.6628H14.7569V16.8676H13.5521V18.0725H12.9496V18.6749H12.3472V19.2773H11.7448V19.8797H11.1424V21.0845H10.54V21.687H9.93756V22.8918H9.33514V24.0966H8.73273V24.699H8.13031V25.3015H7.5279V26.5063H6.92548V27.7111H6.32406V28.916H5.72165V30.1208H5.11923V31.928H4.51696V33.1329H3.91454V35.5424H3.31213V36.7472H2.70971V37.3496H3.31213V37.952H2.70971V39.7593H2.1073V42.7712H1.50488V43.3736H2.1073V43.9761H1.50488V51.2048H0.902466V51.8072H1.50488V57.2288H2.1073V60.2407H2.70971V63.2526H3.31213V65.0599H3.91454V66.8671H4.51696V68.072H5.11938V69.8792H5.72179V71.084H6.32421V72.2889H6.92662V73.4937H7.52904V74.6985H8.13145V75.9034H8.73387V77.1082H9.33629V77.7106H9.9387V78.313H10.5411V78.9155H11.1435V80.1203H11.7459V80.7227H12.3484V81.3251H12.9508V82.5299H13.5532V83.1324H14.1556V83.7348H14.758V84.3372H15.3604V84.9396H15.9624V85.542H16.5648V86.1444H17.1673V86.7469H17.7697V87.3493H18.3721V87.9517H19.5769V88.5541H20.1793V89.1565H20.7818V89.7589H21.9866V90.3614H22.589V90.9638H23.1914V91.5662H24.3962V92.1686H24.9987V92.771H26.2035V93.3734H27.4083V93.9758H28.0107V94.5783H29.818V95.1807H31.0228V95.7831H32.2277V96.3855H34.0349V96.9879H35.2397V97.5903H37.6493V98.1928H39.4565V98.7952H42.4684V99.3976H46.0828V100H46.6852V99.3976H47.2876V100H47.89V99.3976H48.4925V100H49.0949V99.3976H49.6973V100H53.914V99.3976H54.5165V100H55.7213V99.3976H59.3356V98.7952H62.95V98.1928H64.7572V97.5903H66.5645V96.9879H68.3717V96.3855H69.5766V95.7831H71.3838V95.1807H72.5887V94.5783H73.7935V93.9758H74.9983V93.3734H76.2031V92.771H77.408V92.1686H78.0104V91.5662H78.6128V90.9638H79.8176V90.3614H81.0225V89.7589H81.6249V89.1565H82.2273V88.5541H82.8297V87.9517H83.4321V87.3493H84.0346V86.7469H85.2394V86.1444H85.8418V84.9396H87.0466V83.7348H88.2515V82.5299H88.8539V81.9275H89.4563V81.3251H90.0587V80.7227H90.6611V79.5179H91.2635V78.9155H91.866V78.313H92.4684V77.1082H93.0708V76.5058H93.6732V75.301H94.2756V74.0961H94.878V73.4937H95.4804V72.2889H96.0829V70.4816H96.6853V69.2768H97.2877V68.072H97.8901V66.2647H98.4925V64.4565H99.0949V61.4445H99.6974V60.2397H100.3V59.0349H99.6974V58.4325H100.3V55.4205H100.902V54.2157H100.3V53.6133H100.902V51.806H100.3V51.2036H100.902V49.3964H100.3V48.794H100.902V46.3844H100.3V45.782H100.9V45.7822ZM98.4908 48.1918H97.8884V48.7942H98.4908V55.4207H97.8884V56.0231H98.4908V56.6255H97.8884V60.2398H97.286V62.6494H96.6836V64.4566H96.0812V66.2639H95.4787V68.6734H94.8763V69.2758H94.2739V70.4806H93.6715V71.6855H93.0691V73.4927H92.4667V74.0951H91.8642V75.3H91.2618V75.9024H90.6594V76.5048H90.057V77.7096H89.4546V78.9145H88.8522V79.5169H88.2497V80.1193H87.6473V80.7217H87.0449V81.3241H86.4425V81.9265H85.8401V83.1314H85.2377V83.7338H84.0328V84.9386H82.828V85.541H82.2256V86.1434H81.6232V86.7459H81.0208V87.3483H80.4183V87.9507H79.2135V88.5531H78.6111V89.1555H78.0087V89.7579H76.8038V90.3604H75.599V90.9628H74.9966V91.5652H73.7918V92.1676H72.5869V92.77H71.3821V93.3724H69.5749V93.9748H68.9724V94.5773H67.1652V95.1797H65.3579V95.7821H64.7555V95.1797H64.1531V96.3845H63.5507V95.7821H62.9483V96.3845H60.5388V96.9869H56.9244V97.5893H56.322V96.9869H55.7196V97.5893H47.8885V96.9869H47.286V97.5893H46.0812V96.9869H45.4788V97.5893H44.8764V96.9869H41.8644V96.3845H38.8525V95.7821H37.0463V95.1797H35.2392V94.5773H34.0343V93.9748H32.2271V93.3724H30.4198V92.77H29.8174V92.1676H28.0102V91.5652H27.4078V90.9628H26.8053V90.3604H25.6005V89.7579H24.9981V89.1555H23.7933V88.5531H22.5884V87.9507H21.986V87.3483H21.3836V86.7459H20.1788V86.1434H19.5764V84.9386H18.3715V84.3362H17.7691V83.7338H17.1667V82.5289H15.9624V81.9265H15.36V81.3241H14.7576V80.1193H14.1552V79.5169H13.5528V78.9145H12.9503V78.312H12.3479V77.1072H11.7455V76.5048H11.1431V75.3H10.5407V74.6975H9.93827V72.8903H9.33586V72.2879H8.73344V71.083H8.13103V69.8782H7.52861V68.6734H6.9262V67.4686H6.32406V66.8661H6.92648V66.2637H6.32406V65.0589H5.72165V63.2516H5.11923V60.8421H4.51696V58.4326H3.91454V54.2158H3.31213V53.6134H3.91454V52.4086H3.31213V51.8062H3.91454V51.2038H3.31213V50.6013H3.91454V49.9989H3.31213V49.3965H3.91454V48.7941H3.31213V47.5893H3.91454V44.5773H4.51696V43.9749H3.91454V42.7701H4.51696V42.1677H3.91454V41.5653H4.51696V39.1557H5.11938V36.7462H5.72179V34.3367H6.32421V33.1319H6.92662V32.5294H7.52904V30.7222H8.13145V28.915H8.73387V27.7101H9.33629V27.1077H9.9387V25.9029H10.5411V24.698H11.1435V24.0956H11.7459V22.8908H12.3484V22.2884H12.9508V21.686H13.5532V20.4811H14.1556V19.8787H14.758V19.2763H15.3604V18.6739H15.9624V17.4691H17.1673V16.8666H17.7697V15.6618H18.9745V15.0594H19.5769V14.457H20.1793V13.8546H20.7818V13.2521H21.3842V12.6497H22.589V12.0473H23.1914V11.4449H23.7938V10.8425H24.9987V10.2401H25.6011V9.63765H26.8059V9.03524H28.0107V8.43282H28.6132V7.8304H30.4204V7.22799H31.0228V6.62557H32.2277V6.02316H34.6372V5.42074H35.2396V4.81918H38.2515V4.21677H40.0588V3.61435H43.0707V3.01208H43.6731V3.61449H44.2755V3.01208H46.6851V2.40966H47.2875V3.01208H49.0947V2.40966H50.902V3.01208H51.5044V2.40966H52.1068V3.01208H52.7092V2.40966H53.3116V3.01208H53.914V2.40966H54.5165V3.01208H58.7332V3.61449H62.3476V4.21691H64.1548V4.81933H66.5644V5.42174H67.7692V6.02416H69.5764V6.62657H70.7813V7.22899H71.9861V7.8314H73.1909V8.43382H74.3958V9.03623H75.6006V9.63865H76.203V10.2411H77.4078V10.8435H78.0102V11.4459H79.2151V12.0483H79.8175V12.6507H80.4199V13.2531H81.0223V13.8556H82.2272V14.458H82.8296V15.0604H83.432V15.6628H84.0344V16.2652H84.6368V16.8676H85.2392V17.4701H85.8417V18.0725H86.4441V18.6749H87.0465V19.2773H87.6489V19.8797H88.2513V21.0845H88.8537V21.687H89.4561V22.2894H90.0586V23.4942H90.661V24.0966H91.2634V25.3015H91.8658V26.5063H92.4682V27.1087H93.0706V28.3135H93.6731V28.916H94.2755V31.3255H94.8779V32.5303H95.4803V33.7351H96.0827V36.1447H96.6851V37.3495H97.2876V40.3614H97.89V43.9758H98.4924V48.1918H98.4908Z" fill="#00020C"/>
    <path d="M87.0452 31.3244H85.8405V31.9268H84.0332V32.5292H83.4308V33.1317H82.226V33.7341H81.0213V34.3365H79.8165V34.9389H78.0092V35.5412H77.4068V36.1436H76.2021V36.746H74.3949V37.3484H73.7924V37.9508H72.5878V38.5532H71.3829V39.1557H70.1781V39.7581H67.7686V40.3604H66.5637V39.7581H65.9613V36.746H66.5637V36.1436H67.1662V35.5412H67.7686V34.9389H68.3709V33.7341H69.5757V32.5292H70.7805V31.9268H71.3829V30.7221H71.9854V30.1197H73.19V28.9149H74.3949V28.3125H74.9973V27.7101H75.5997V26.5052H76.8045V25.903H77.4068V25.3005H76.8045V24.0957H74.9973V25.3005H74.3949V25.903H73.7924V26.5052H72.5878V27.7101H71.9854V28.3125H71.3829V28.9149H70.1781V30.1197H68.9733V30.7221H68.3709V31.9268H67.7686V32.5292H67.1662V33.1317H66.5637V33.7341H65.3589V34.9389H64.1541V35.5412H63.5518V36.746H62.9494V37.3484H61.7446V37.9508H61.1422V39.1557H60.5397V39.7581H59.9373V40.3604H59.3349V40.9628H58.1302V41.5652H57.5278V42.77H56.323V43.3724H55.7206V43.9748H53.311V43.3724H52.7086V42.77H52.1062V42.1676H52.7086V41.5652H52.1062V39.1557H52.7086V38.5532H52.1062V36.746H52.7086V36.1436H52.1062V34.9389H52.7086V34.3365H52.1062V31.9268H51.5038V31.3244H50.9014V31.9268H49.6967V32.5292H50.299V33.1317H49.6967V33.7341H50.299V34.3365H49.6967V34.9389H50.299V36.1436H49.6967V36.746H50.299V37.3484H49.6967V37.9508H50.299V38.5532H49.6967V39.7581H50.299V40.3604H49.6967V40.9628H50.299V41.5652H49.6967V42.1676H50.299V43.3724H49.6967V43.9748H50.299V44.5771H49.6967V45.1795H50.299V45.7819H49.6967V46.9868H50.299V47.5892H49.6967V48.1916H48.4918V48.794H46.0822V49.3963H45.4799V48.794H44.2751V49.3963H43.6727V48.794H42.4678V49.3963H41.8654V48.794H39.4559V49.3963H38.8535V48.794H37.6487V49.3963H37.0462V48.794H34.6367V49.3963H34.0343V48.794H31.6248V49.3963H31.0224V48.794H29.8175V49.3963H29.2151V48.794H28.0103V49.3963H27.4079V48.794H26.2032V49.3963H24.9984V50.6011H25.6008V51.2035H37.6487V51.806H38.8535V53.0108H39.4559V53.6131H38.8535V54.8179H38.2511V55.4203H37.0462V56.0227H36.444V56.6251H34.6367V57.2276H34.0343V57.83H32.8295V58.4323H31.0224V59.0347H29.8175V59.6371H29.2151V60.2395H28.0103V60.8419H26.2032V61.4443H25.6008V62.0467H24.3959V62.6492H22.5888V63.2514H21.9864V63.8538H20.7816V64.4563H19.5768V65.0587H17.7696V65.6611H17.1672V66.2635H15.36V67.4682H14.7576V68.673H17.1672V68.0706H18.3719V67.4682H19.5768V66.8659H20.7816V66.2635H21.9864V65.6611H23.1911V65.0587H23.7935V64.4563H25.6008V63.8538H26.2032V63.2514H28.0103V62.6492H29.2151V62.0467H30.4199V61.4443H31.0224V60.8419H32.8295V60.2395H35.8415V60.8419H36.444V63.2514H35.8415V63.8538H35.2391V64.4563H34.6367V65.0587H34.0343V66.2635H32.8295V66.8659H32.2271V67.4682H31.6248V68.673H30.4199V69.2754H29.8175V69.8779H29.2151V71.0827H28.6127V71.685H27.4079V72.8898H26.2032V73.4922H25.6008V74.697H24.9984V75.2995H25.6008V75.9019H27.4079V74.697H28.6127V73.4922H29.8175V72.2874H31.0224V71.0827H32.2271V70.4803H32.8295V69.2754H34.0343V68.673H34.6367V67.4682H35.8415V66.2635H37.0462V65.6611H37.6487V64.4563H38.2511V63.8538H39.4559V62.6492H40.6607V61.4443H41.8654V60.8419H42.4678V59.6371H43.6727V59.0347H44.2751V57.83H45.4799V56.6251H46.6846V56.0227H47.287V56.6251H47.8894V56.0227H48.4918V56.6251H49.6967V60.2395H50.299V60.8419H49.6967V61.4443H50.299V62.0467H49.6967V62.6492H50.299V63.2514H49.6967V63.8538H50.299V65.0587H49.6967V66.2635H50.299V66.8659H49.6967V67.4682H50.299V68.673H52.1062V65.6611H52.7086V65.0587H52.1062V63.8538H52.7086V63.2514H52.1062V60.8419H52.7086V60.2395H52.1062V57.2276H52.7086V56.6251H52.1062V54.8179H52.7086V54.2155H52.1062V53.6131H52.7086V52.4084H53.311V51.806H53.9134V51.2035H56.9254V51.806H57.5278V51.2035H62.9494V51.806H63.5518V51.2035H76.8045V49.3963H76.2021V48.794H74.9973V49.3963H74.3949V48.794H71.3829V49.3963H70.7805V48.794H68.9733V49.3963H68.3709V48.794H64.1541V48.1916H62.9494V46.3844H63.5518V45.1795H64.1541V44.5771H65.3589V43.9748H66.5637V43.3724H67.7686V42.77H68.9733V42.1676H70.1781V41.5652H71.3829V40.9628H72.5878V40.3604H73.7924V39.7581H74.9973V39.1557H76.2021V38.5532H77.4068V37.9508H78.6116V37.3484H79.8165V36.746H81.0213V36.1436H82.226V35.5412H83.4308V34.9389H84.6357V34.3365H85.8405V33.7341H87.0452V33.1317H87.6476V32.5292H87.0452V31.3244Z" fill="#00020C"/>
</svg>
