<svg width="162" height="100" viewBox="0 0 162 100" fill="none" xmlns="http://www.w3.org/2000/svg">
    <path d="M68.5589 27.1438H67.8448V27.8579H68.5589V27.1438Z" fill="#00020C"/>
    <path d="M57.1325 21.4292H56.4185V22.1433H57.1325V21.4292Z" fill="#00020C"/>
    <path d="M74.9864 20.7151H75.7005V19.2864H74.9864V20.0008H74.2721V21.4293H74.9864V20.7151Z" fill="#00020C"/>
    <path d="M152.829 40.0008V39.2866H152.115V38.5723H152.829V39.2866H153.543V37.8579H152.829V37.1436H153.543V35.715H152.829V35.0007H152.115V35.715H151.401V36.4292H149.973V37.1434H149.259V37.8576H149.973V38.5719H151.401V40.7148H152.115V40.0006H152.829V40.0008ZM150.687 37.8579V37.1436H152.115V37.8579H150.687Z" fill="#00020C"/>
    <path d="M153.543 62.8591H152.829V63.5732H153.543V62.8591Z" fill="#00020C"/>
    <path d="M69.9872 26.4294H69.2731V27.1435H69.9872V26.4294Z" fill="#00020C"/>
    <path d="M76.4146 22.1438H75.7006V22.8579H76.4146V22.1438Z" fill="#00020C"/>
    <path d="M155.686 66.4304H154.972V67.1445H155.686V66.4304Z" fill="#00020C"/>
    <path d="M77.1288 20.0007H76.4147V20.7148H77.1288V20.0007Z" fill="#00020C"/>
    <path d="M77.1288 21.4292H76.4147V22.1433H77.1288V21.4292Z" fill="#00020C"/>
    <path d="M59.2749 21.4292H58.5608V22.1433H59.2749V21.4292Z" fill="#00020C"/>
    <path d="M149.973 36.43V35.7155H151.401V35.0013H152.115V34.287H150.687V33.5726H151.401V32.8584H149.973V32.1441H149.258V32.8584H147.83V32.1441H148.544V30.7155H147.83V31.4297H147.116V32.1441H145.688V30.0012H144.259V30.7155H144.973V31.4297H144.259V32.1441H144.973V32.8584H144.259V34.287H144.973V33.5726H145.688V32.8584H147.116V33.5726H148.544V34.287H149.258V33.5726H149.973V35.0013H148.544V34.287H147.116V35.0013H147.83V35.7155H148.544V36.43H147.83V35.7155H147.116V37.8584H147.83V37.1442H149.258V36.43H149.973Z" fill="#00020C"/>
    <path d="M66.4163 25.7148H65.7023V26.4289H66.4163V25.7148Z" fill="#00020C"/>
    <path d="M65.7022 24.2866H64.9882V25.7153H65.7022V24.2866Z" fill="#00020C"/>
    <path d="M145.688 35.0007V36.4294H146.402V35.715H147.116V35.0007H145.688Z" fill="#00020C"/>
    <path d="M65.7025 23.5725V22.1438H64.9884V22.858H64.2741V23.5725H63.5601V24.2867H64.9884V23.5725H65.7025Z" fill="#00020C"/>
    <path d="M72.1296 20.0007H71.4155V20.7148H72.1296V20.0007Z" fill="#00020C"/>
    <path d="M145.688 34.2869H144.974V35.0009H145.688V34.2869Z" fill="#00020C"/>
    <path d="M67.8448 25.7153H67.1307V26.4295H68.5589V24.2866H67.8448V25.7153Z" fill="#00020C"/>
    <path d="M72.1296 21.4292H71.4155V22.1433H72.1296V21.4292Z" fill="#00020C"/>
    <path d="M74.2724 18.5718H72.844V19.2858H74.2724V18.5718Z" fill="#00020C"/>
    <path d="M67.1307 24.2866H66.4166V25.0007H67.1307V24.2866Z" fill="#00020C"/>
    <path d="M66.4163 23.572H65.7023V24.2861H66.4163V23.572Z" fill="#00020C"/>
    <path d="M73.5581 22.1438H72.844V22.8579H73.5581V22.1438Z" fill="#00020C"/>
    <path d="M150.687 39.2871H149.973V40.7158H150.687V39.2871Z" fill="#00020C"/>
    <path d="M62.1314 23.5719V22.8574H61.4174V24.2861H62.8457V23.5719H62.1314Z" fill="#00020C"/>
    <path d="M72.844 19.2864H72.1299V20.0005H72.844V19.2864Z" fill="#00020C"/>
    <path d="M74.9862 17.8579H74.2721V18.572H74.9862V17.8579Z" fill="#00020C"/>
    <path d="M63.5599 22.8574H62.8458V23.5715H63.5599V22.8574Z" fill="#00020C"/>
    <path d="M55.7041 20.0007H54.99V20.7148H55.7041V20.0007Z" fill="#00020C"/>
    <path d="M59.9889 22.8574H59.2748V23.5715H59.9889V22.8574Z" fill="#00020C"/>
    <path d="M59.9889 25.001H59.2748V25.7151H59.9889V25.001Z" fill="#00020C"/>
    <path d="M59.2749 23.572H58.5608V24.2861H59.2749V23.572Z" fill="#00020C"/>
    <path d="M57.1325 23.572H56.4185V24.2861H57.1325V23.572Z" fill="#00020C"/>
    <path d="M55.7041 21.4292H54.99V23.5721H55.7041V21.4292Z" fill="#00020C"/>
    <path d="M54.9902 23.572H54.2761V24.2861H54.9902V23.572Z" fill="#00020C"/>
    <path d="M57.1324 23.5725H57.8465V22.858H58.5608V22.1438H57.1324V23.5725Z" fill="#00020C"/>
    <path d="M62.1314 25.7148H61.4174V26.4289H62.1314V25.7148Z" fill="#00020C"/>
    <path d="M67.1307 26.4294H66.4166V27.1435H67.1307V26.4294Z" fill="#00020C"/>
    <path d="M69.2729 23.572H68.5588V24.2861H69.2729V23.572Z" fill="#00020C"/>
    <path d="M60.7032 23.572H59.9891V25.0007H60.7032V23.572Z" fill="#00020C"/>
    <path d="M64.2741 25.001H63.5601V25.7151H64.2741V25.001Z" fill="#00020C"/>
    <path d="M63.5599 24.2866H62.8458V25.0007H63.5599V24.2866Z" fill="#00020C"/>
    <path d="M67.8448 28.5723H67.1307V29.2863H67.8448V28.5723Z" fill="#00020C"/>
    <path d="M62.8455 25.001H62.1315V25.7151H62.8455V25.001Z" fill="#00020C"/>
    <path d="M154.972 47.8586H154.257V48.5727H154.972V47.8586Z" fill="#00020C"/>
    <path d="M53.562 20.0008V19.2864H52.8479V20.7151H54.2763V20.0008H53.562Z" fill="#00020C"/>
    <path d="M54.2757 18.5718H53.5616V19.2858H54.2757V18.5718Z" fill="#00020C"/>
    <path d="M63.5599 27.1438H62.8458V27.8579H63.5599V27.1438Z" fill="#00020C"/>
    <path d="M64.2741 27.8577H63.5601V28.5717H64.2741V27.8577Z" fill="#00020C"/>
    <path d="M54.9902 20.7146H54.2761V21.4287H54.9902V20.7146Z" fill="#00020C"/>
    <path d="M56.4182 20.7146H55.7041V21.4287H56.4182V20.7146Z" fill="#00020C"/>
    <path d="M67.8448 30.0012H67.1307V30.7153H67.8448V30.0012Z" fill="#00020C"/>
    <path d="M161.399 50.0015V49.2873H159.971V47.8586H160.685V47.1444H159.971V46.4302H158.542V45.0015H159.256V44.2872H158.542V42.8586H157.828V42.1443H157.114V41.4301H156.4V40.7159H155.686V39.2872H154.972V38.573H155.686V37.1443H153.543V37.8585H154.258V39.2872H153.543V40.0014H154.258V41.4301H153.543V40.0014H152.829V40.7157H152.115V41.4299H152.829V42.8586H154.972V43.5728H152.829V44.287H154.258V45.0012H155.686V45.7155H154.258V46.4297H155.686V47.1439H156.4V47.8582H155.686V48.5724H156.4V49.2866H155.686V50.0008H156.4V53.5724H155.686V54.2867H156.4V57.1438H155.686V57.858H154.258V58.5723H154.972V59.2865H155.686V58.5723H156.4V59.2865H155.686L155.686 60.0007H154.258V62.1436H153.543V62.8579H154.258V63.5721H153.543V64.2863H152.115V65.0005H152.829V67.1434H154.258V65.7148H155.686V66.429H156.4V62.8574H157.114V64.2861H157.828V63.5718H158.542V62.8576H157.828V61.4289H159.257V60.7147H158.542V60.0005H159.257V59.2863H158.542V58.572H159.257V57.8578H159.971V57.1436H159.257V55.7149H159.971V57.1436H160.685V54.2864H161.399V53.5722H160.685V52.858H159.971V52.1438H160.685V50.7151H159.971V50.0008H161.399V50.0015ZM157.828 44.2872H157.114V43.573H156.4V44.2872H155.686V43.573H156.4V42.8588H157.114L157.114 43.573H157.828L157.828 44.2872ZM159.257 47.8586H158.542V47.1444H159.257V47.8586Z" fill="#00020C"/>
    <path d="M153.543 60.0017H152.829V60.7158H153.543V60.0017Z" fill="#00020C"/>
    <path d="M55.7041 13.5723H54.99V14.2863H55.7041V13.5723Z" fill="#00020C"/>
    <path d="M72.844 20.7146H72.1299V21.4287H72.844V20.7146Z" fill="#00020C"/>
    <path d="M56.4182 19.2864H55.7041V20.0005H56.4182V19.2864Z" fill="#00020C"/>
    <path d="M54.9902 19.2864H54.2761V20.0005H54.9902V19.2864Z" fill="#00020C"/>
    <path d="M58.5605 26.4294H57.8464V27.1435H58.5605V26.4294Z" fill="#00020C"/>
    <path d="M153.543 45.0012H152.829V45.7153H153.543V45.0012Z" fill="#00020C"/>
    <path d="M152.115 42.1445H151.401V42.8586H152.115V42.1445Z" fill="#00020C"/>
    <path d="M137.118 25.001H136.404V25.7151H137.118V25.001Z" fill="#00020C"/>
    <path d="M64.2741 7.14307H63.5601V7.85714H64.2741V7.14307Z" fill="#00020C"/>
    <path d="M138.546 25.7148H137.118V26.4289H138.546V25.7148Z" fill="#00020C"/>
    <path d="M139.26 26.4294H138.546V27.1435H139.26V26.4294Z" fill="#00020C"/>
    <path d="M64.274 8.57189H63.5599V7.85767H62.8458V9.28635H64.274V8.57189Z" fill="#00020C"/>
    <path d="M137.832 29.2866H137.118V30.0007H137.832V29.2866Z" fill="#00020C"/>
    <path d="M136.404 24.2866H135.689V25.0007H136.404V24.2866Z" fill="#00020C"/>
    <path d="M65.7022 8.57129H64.9882V9.28536H65.7022V8.57129Z" fill="#00020C"/>
    <path d="M139.974 30.7155V30.0012H139.26V31.4297H140.688V30.7155H139.974Z" fill="#00020C"/>
    <path d="M134.975 23.5719V24.2861H135.689V22.8574H134.261V23.5719H134.975Z" fill="#00020C"/>
    <path d="M140.688 26.4291H141.403V27.1433H142.831V26.4291H142.117V25.7148H139.974V27.1433H140.688V26.4291Z" fill="#00020C"/>
    <path d="M139.974 27.1438H139.26V27.8579H139.974V27.1438Z" fill="#00020C"/>
    <path d="M65.7022 7.14307H64.9882V7.85714H65.7022V7.14307Z" fill="#00020C"/>
    <path d="M139.26 29.2866H138.546V30.0007H139.26V29.2866Z" fill="#00020C"/>
    <path d="M66.4163 8.57189V9.28635H67.1307V8.57189H67.8447V7.85767H65.7023V8.57189H66.4163Z" fill="#00020C"/>
    <path d="M69.9872 24.2866H69.2731V25.7153H69.9872V24.2866Z" fill="#00020C"/>
    <path d="M56.4182 14.2861H55.7041V15.0002H56.4182V14.2861Z" fill="#00020C"/>
    <path d="M134.261 26.4294H132.833V27.1435H134.261V26.4294Z" fill="#00020C"/>
    <path d="M130.691 25.001H129.976V26.4297H130.691V27.1439H131.405V25.7154H130.691V25.001Z" fill="#00020C"/>
    <path d="M134.975 27.1438H134.261V27.8579H134.975V27.1438Z" fill="#00020C"/>
    <path d="M132.833 25.7148H132.119V26.4289H132.833V25.7148Z" fill="#00020C"/>
    <path d="M132.119 25.001H131.405V25.7151H132.119V25.001Z" fill="#00020C"/>
    <path d="M56.4184 14.2866H57.1325V13.5724H57.8466V12.8579H55.7041V13.5724H56.4184V14.2866Z" fill="#00020C"/>
    <path d="M62.1314 10.0005H61.4174V10.7146H62.1314V10.0005Z" fill="#00020C"/>
    <path d="M132.119 23.572H131.405V24.2861H132.119V23.572Z" fill="#00020C"/>
    <path d="M62.8455 9.28589H62.1315V9.99996H62.8455V9.28589Z" fill="#00020C"/>
    <path d="M132.833 22.8574H132.119V23.5715H132.833V22.8574Z" fill="#00020C"/>
    <path d="M135.69 27.8577H134.975V28.5717H135.69V27.8577Z" fill="#00020C"/>
    <path d="M147.116 33.5725H145.688V34.2866H147.116V33.5725Z" fill="#00020C"/>
    <path d="M131.405 24.2866H130.691V25.0007H131.405V24.2866Z" fill="#00020C"/>
    <path d="M136.404 27.8577V28.5719H135.69V29.2861H137.118V27.8577H136.404Z" fill="#00020C"/>
    <path d="M72.1296 17.8579H71.4155V18.572H72.1296V17.8579Z" fill="#00020C"/>
    <path d="M80.6994 20.7146H79.9854V21.4287H80.6994V20.7146Z" fill="#00020C"/>
    <path d="M81.4135 21.4292H80.6995V22.1433H81.4135V21.4292Z" fill="#00020C"/>
    <path d="M71.4153 18.5718H70.7012V19.2858H71.4153V18.5718Z" fill="#00020C"/>
    <path d="M72.844 14.2861H72.1299V15.0002H72.844V14.2861Z" fill="#00020C"/>
    <path d="M73.5581 15.7151H72.844V16.4292H73.5581V15.7151Z" fill="#00020C"/>
    <path d="M73.5583 17.1436H72.1299V17.8576H73.5583V17.1436Z" fill="#00020C"/>
    <path d="M70.7013 17.1435H69.9872V15.7151H68.5588V17.1435H69.2731V17.858H69.9872V18.5722H70.7013V17.1435Z" fill="#00020C"/>
    <path d="M77.1289 19.286H77.843V20.0005H78.5571V18.5718H77.1289V19.286Z" fill="#00020C"/>
    <path d="M79.2712 17.8579H78.5571V18.572H79.2712V17.8579Z" fill="#00020C"/>
    <path d="M79.2712 21.4292H78.5571V22.8579H79.2712V21.4292Z" fill="#00020C"/>
    <path d="M81.4135 87.1458H80.6995V87.8598H81.4135V87.1458Z" fill="#00020C"/>
    <path d="M82.8421 20.7146H82.1281V21.4287H82.8421V20.7146Z" fill="#00020C"/>
    <path d="M81.4137 19.2864H79.9854V20.0005H81.4137V19.2864Z" fill="#00020C"/>
    <path d="M142.831 31.4297H142.117V32.1438H142.831V31.4297Z" fill="#00020C"/>
    <path d="M55.7041 16.4289H56.4182V17.1431H57.1323V17.8573H56.4182V17.1431H55.7041V17.8573H54.2758V18.5715H54.9898V19.2858H55.7039V18.5715H57.1323V20.0002H56.4182V20.7144H57.1323V21.4287H58.5607V20.7144H57.8466V19.2858H58.5607V18.5715H59.2747V19.2858H58.5607V20.7144H59.2747V20.0002H59.9888V20.7144H59.2747V21.4287H59.9888V22.8574H61.4172V22.1431H62.1313V22.8574H62.8454V21.4287H63.5594V20.7144H64.2735V21.4287H63.5594V22.8574H64.2735V22.1431H64.9876V20.7144H65.7017V22.1431H66.4157V21.4289H67.1298V22.1431H66.4157V22.8574H67.1298V24.286H67.8439V23.5718H68.558V22.8576H67.8439V22.1434H68.558V22.8576H69.9863V22.1434H69.2723V21.4291H70.7006V20.7149H69.2723V20.0007H70.7006V19.2865H69.9866V18.5722H69.2725V19.2865H68.5584V18.5722H69.2725V17.858H68.5584V17.1438H67.8443V16.4289H67.1303V15.7146H68.5586V15.0004H69.987V13.5717H68.5586V14.2859H67.1303V13.5717H67.8443V12.8575H68.5584V11.4288H67.8443V12.143H67.1303V10.0001H66.4162V9.28589H65.7021V10.0001H64.988V10.7143H64.274V10.0001H62.8456V10.7143H62.1315V11.4286H64.274V12.8573H63.5599V12.143H62.1315V11.4288H61.4174V10.7146H60.7034V11.4288H59.9893V12.8575H60.7034V12.1433H61.4174V12.8575H60.7034V14.2862H59.9893V12.8575H59.2752V11.4288H57.8468V12.143H58.5609V13.5717H57.8468V14.2859H57.1327V15.7146H55.7044V15.0004H54.9903V16.4291H54.2762V17.1433H55.7046V16.4289H55.7041ZM67.8448 20.0004H68.5589V21.4291H67.8448V20.0004ZM62.1315 20.0004H61.4174V19.2862H62.1315V20.0004ZM62.1315 18.5718H61.4174V17.8575H62.1315V18.5718ZM67.1307 20.7147H66.4166V20.0004H67.1307V20.7147ZM67.1307 17.8575V18.5718H66.4166V19.286H65.7026V18.5718H66.4166V17.8575H67.1307ZM65.7023 10.7143H66.4164V11.4286H65.7023V10.7143ZM65.7023 12.143H66.4164V12.8573H65.7023V12.143ZM64.9883 14.2859H65.7023V15.0002H64.9883V14.2859ZM64.9883 17.1431H65.7023V17.8573H64.9883V17.1431ZM63.5599 15.7146H64.274V16.4289H63.5599V15.7146ZM63.5599 18.5718H64.274V19.286H64.988V20.0002H64.274V19.286H63.5599V20.0002H62.8458V19.286H63.5599V18.5718ZM61.4174 13.5717H62.1315V12.8575H62.8456V13.5717H62.1315V14.2859H61.4174V13.5717ZM60.7034 15.7146H61.4174V16.4289H60.7034V15.7146ZM60.7034 20.7147H62.1317V21.4289H60.7034V20.7147ZM59.989 17.8575H59.275V17.1433H59.989V17.8575ZM59.989 15.7146V16.4289H59.275V15.7146H59.989ZM58.5609 14.2859H59.275V15.0002H58.5609V14.2859ZM57.8466 15.7146H58.5607V16.4289H57.8466V15.7146ZM57.8466 17.1431H58.5607V17.8573H57.8466V17.1431Z" fill="#00020C"/>
    <path d="M144.259 27.8577H143.545V28.5717H144.259V27.8577Z" fill="#00020C"/>
    <path d="M64.988 9.28589H64.2739V9.99996H64.988V9.28589Z" fill="#00020C"/>
    <path d="M54.2763 17.8576V17.1432H53.562V16.429H52.8479V17.8576H54.2763Z" fill="#00020C"/>
    <path d="M64.988 7.85767H64.2739V8.57174H64.988V7.85767Z" fill="#00020C"/>
    <path d="M142.117 30.7151H141.403V31.4292H142.117V30.7151Z" fill="#00020C"/>
    <path d="M143.545 27.1438H142.831V27.8579H143.545V27.1438Z" fill="#00020C"/>
    <path d="M144.259 32.144H142.831V32.8581H144.259V32.144Z" fill="#00020C"/>
    <path d="M52.8475 17.8579H52.1334V18.572H52.8475V17.8579Z" fill="#00020C"/>
    <path d="M71.4153 15.7151H70.7012V17.1438H71.4153V15.7151Z" fill="#00020C"/>
    <path d="M72.1296 15.0007H71.4155V15.7148H72.1296V15.0007Z" fill="#00020C"/>
    <path d="M52.1331 15.0007H51.4191V15.7148H52.1331V15.0007Z" fill="#00020C"/>
    <path d="M70.7014 15.0007H69.9873V15.7148H70.7014V15.0007Z" fill="#00020C"/>
    <path d="M52.8475 15.7151H52.1334V16.4292H52.8475V15.7151Z" fill="#00020C"/>
    <path d="M67.8448 10.0001V10.7143H68.5589V9.28589H67.1307V10.0001H67.8448Z" fill="#00020C"/>
    <path d="M105.695 10.0005H104.981V10.7146H105.695V10.0005Z" fill="#00020C"/>
    <path d="M104.981 11.4287H104.267V12.1428H104.981V11.4287Z" fill="#00020C"/>
    <path d="M106.409 7.85767H105.695V8.57174H106.409V7.85767Z" fill="#00020C"/>
    <path d="M109.266 15.0007V14.2865H109.98V13.5723H108.552V15.0007H109.266Z" fill="#00020C"/>
    <path d="M110.694 14.2861H109.98V15.0002H110.694V14.2861Z" fill="#00020C"/>
    <path d="M70.7014 22.8574H69.9873V23.5715H70.7014V22.8574Z" fill="#00020C"/>
    <path d="M102.838 12.1433H102.124V12.8574H102.838V12.1433Z" fill="#00020C"/>
    <path d="M103.553 11.4287H102.839V12.1428H103.553V11.4287Z" fill="#00020C"/>
    <path d="M103.553 8.57129H102.839V9.28536H103.553V8.57129Z" fill="#00020C"/>
    <path d="M105.695 14.2862V12.1433H104.981V13.572H104.267V14.2862H105.695Z" fill="#00020C"/>
    <path d="M104.267 12.8579H103.552V13.572H104.267V12.8579Z" fill="#00020C"/>
    <path d="M112.837 14.2861H111.408V15.7148H112.837V14.2861Z" fill="#00020C"/>
    <path d="M114.265 14.2861H113.551V15.0002H114.265V14.2861Z" fill="#00020C"/>
    <path d="M112.837 11.4287H111.408V12.1428H112.837V11.4287Z" fill="#00020C"/>
    <path d="M112.836 8.57129H112.122V9.28536H112.836V8.57129Z" fill="#00020C"/>
    <path d="M107.837 12.1433H107.123V12.8574H107.837V12.1433Z" fill="#00020C"/>
    <path d="M114.265 12.8579H113.551V13.572H114.265V12.8579Z" fill="#00020C"/>
    <path d="M115.693 14.2861H114.979V15.0002H115.693V14.2861Z" fill="#00020C"/>
    <path d="M112.836 12.8579H112.122V13.572H112.836V12.8579Z" fill="#00020C"/>
    <path d="M108.552 11.4287H107.838V12.1428H108.552V11.4287Z" fill="#00020C"/>
    <path d="M107.837 8.57129H107.123V9.28536H107.837V8.57129Z" fill="#00020C"/>
    <path d="M101.41 9.28589H100.696V9.99996H101.41V9.28589Z" fill="#00020C"/>
    <path d="M109.98 12.1433H109.266V12.8574H109.98V12.1433Z" fill="#00020C"/>
    <path d="M116.407 11.4287H115.693V12.8574H116.407V11.4287Z" fill="#00020C"/>
    <path d="M92.1261 10.7141H91.412V11.4282H92.1261V10.7141Z" fill="#00020C"/>
    <path d="M89.9835 7.14307H89.2694V7.85714H89.9835V7.14307Z" fill="#00020C"/>
    <path d="M91.4117 8.57129H90.6976V9.99997H91.4117V8.57129Z" fill="#00020C"/>
    <path d="M92.8402 7.85767H92.1261V8.57174H92.8402V7.85767Z" fill="#00020C"/>
    <path d="M88.5551 10.7141H87.1267V11.4282H88.5551V10.7141Z" fill="#00020C"/>
    <path d="M88.5551 9.28589H87.1267V9.99996H88.5551V9.28589Z" fill="#00020C"/>
    <path d="M86.413 11.4287H85.699V12.1428H86.413V11.4287Z" fill="#00020C"/>
    <path d="M87.8412 12.1433H86.4128V12.8574H87.8412V12.1433Z" fill="#00020C"/>
    <path d="M99.9815 7.85767H99.2675V8.57174H99.9815V7.85767Z" fill="#00020C"/>
    <path d="M87.1268 8.57129H86.4127V9.28536H87.1268V8.57129Z" fill="#00020C"/>
    <path d="M89.9835 9.28589H89.2694V9.99996H89.9835V9.28589Z" fill="#00020C"/>
    <path d="M93.5544 10.0005H92.8403V10.7146H93.5544V10.0005Z" fill="#00020C"/>
    <path d="M97.8395 12.1433H96.4111V12.8574H97.8395V12.1433Z" fill="#00020C"/>
    <path d="M99.2679 12.8579H97.8395V13.572H99.2679V12.8579Z" fill="#00020C"/>
    <path d="M97.8391 8.57129H97.125V9.28536H97.8391V8.57129Z" fill="#00020C"/>
    <path d="M99.2675 11.4287H98.5535V12.1428H99.2675V11.4287Z" fill="#00020C"/>
    <path d="M99.2675 10.0005H98.5535V10.7146H99.2675V10.0005Z" fill="#00020C"/>
    <path d="M94.2685 11.4287H93.5544V12.1428H94.2685V11.4287Z" fill="#00020C"/>
    <path d="M94.2685 8.57129H93.5544V9.28536H94.2685V8.57129Z" fill="#00020C"/>
    <path d="M96.4111 10.7141H95.697V11.4282H96.4111V10.7141Z" fill="#00020C"/>
    <path d="M97.8391 10.7141H97.125V11.4282H97.8391V10.7141Z" fill="#00020C"/>
    <path d="M95.6967 10.0005H94.9827V10.7146H95.6967V10.0005Z" fill="#00020C"/>
    <path d="M92.8402 11.4287H92.1261V12.8574H92.8402V11.4287Z" fill="#00020C"/>
    <path d="M117.122 14.2861H116.408V15.0002H117.122V14.2861Z" fill="#00020C"/>
    <path d="M140.688 20.0007H139.974V20.7148H140.688V20.0007Z" fill="#00020C"/>
    <path d="M138.546 20.7146H137.832V21.4287H138.546V20.7146Z" fill="#00020C"/>
    <path d="M142.831 22.1438H142.117V22.8579H142.831V22.1438Z" fill="#00020C"/>
    <path d="M144.259 23.572H143.545V24.2861H144.259V23.572Z" fill="#00020C"/>
    <path d="M137.118 20.7146H136.404V21.4287H137.118V20.7146Z" fill="#00020C"/>
    <path d="M134.975 19.2864H134.261V20.0005H134.975V19.2864Z" fill="#00020C"/>
    <path d="M137.118 19.2864H136.404V20.0005H137.118V19.2864Z" fill="#00020C"/>
    <path d="M135.69 18.5718H134.975V19.2858H135.69V18.5718Z" fill="#00020C"/>
    <path d="M137.118 22.1438H136.404V23.5725H137.118V22.1438Z" fill="#00020C"/>
    <path d="M147.116 25.7148H146.402V26.4289H147.116V25.7148Z" fill="#00020C"/>
    <path d="M135.69 20.7146H134.975V21.4287H135.69V20.7146Z" fill="#00020C"/>
    <path d="M152.829 30.0012H152.115V30.7153H152.829V30.0012Z" fill="#00020C"/>
    <path d="M154.971 35.7153H154.257V36.4294H154.971V35.7153Z" fill="#00020C"/>
    <path d="M155.686 34.2869H154.972V35.0009H155.686V34.2869Z" fill="#00020C"/>
    <path d="M154.971 32.8579H154.257V33.572H154.971V32.8579Z" fill="#00020C"/>
    <path d="M157.114 35.7153H156.4V36.4294H157.114V35.7153Z" fill="#00020C"/>
    <path d="M148.544 27.1438H147.83V27.8579H148.544V27.1438Z" fill="#00020C"/>
    <path d="M149.972 28.5723H149.258V29.2863H149.972V28.5723Z" fill="#00020C"/>
    <path d="M150.687 29.2866H149.973V30.0007H150.687V29.2866Z" fill="#00020C"/>
    <path d="M152.115 31.4297H151.401V32.1438H152.115V31.4297Z" fill="#00020C"/>
    <path d="M152.829 32.144H152.115V32.8581H152.829V32.144Z" fill="#00020C"/>
    <path d="M142.831 23.572H142.117V24.2861H142.831V23.572Z" fill="#00020C"/>
    <path d="M119.978 10.7141H119.264V11.4282H119.978V10.7141Z" fill="#00020C"/>
    <path d="M122.12 17.1436H121.406V17.8576H122.12V17.1436Z" fill="#00020C"/>
    <path d="M123.549 17.1436H122.835V17.8576H123.549V17.1436Z" fill="#00020C"/>
    <path d="M122.12 15.0007H121.406V15.7148H122.12V15.0007Z" fill="#00020C"/>
    <path d="M122.835 15.7151H122.12V17.1438H122.835V15.7151Z" fill="#00020C"/>
    <path d="M119.264 17.1435V15.7151H118.55V16.4293H117.836V17.1435H119.264Z" fill="#00020C"/>
    <path d="M119.978 13.5723H119.264V14.2863H119.978V13.5723Z" fill="#00020C"/>
    <path d="M117.836 15.0007H117.121V16.4294H117.836V15.0007Z" fill="#00020C"/>
    <path d="M123.549 14.2861H122.835V15.0002H123.549V14.2861Z" fill="#00020C"/>
    <path d="M119.978 15.0007H119.264V15.7148H119.978V15.0007Z" fill="#00020C"/>
    <path d="M118.55 12.8579H117.836V13.572H118.55V12.8579Z" fill="#00020C"/>
    <path d="M124.263 15.7151H123.549V16.4292H124.263V15.7151Z" fill="#00020C"/>
    <path d="M131.405 18.5718H130.691V20.0005H131.405V18.5718Z" fill="#00020C"/>
    <path d="M131.405 15.7151H130.691V16.4292H131.405V15.7151Z" fill="#00020C"/>
    <path d="M132.833 20.7146H130.691V21.4287H132.833V20.7146Z" fill="#00020C"/>
    <path d="M132.833 19.2864H132.119V20.0005H132.833V19.2864Z" fill="#00020C"/>
    <path d="M130.69 17.1436H129.976V17.8576H130.69V17.1436Z" fill="#00020C"/>
    <path d="M124.977 14.2861H124.263V15.0002H124.977V14.2861Z" fill="#00020C"/>
    <path d="M124.263 12.8579H123.549V13.572H124.263V12.8579Z" fill="#00020C"/>
    <path d="M132.833 17.1436H132.119V17.8576H132.833V17.1436Z" fill="#00020C"/>
    <path d="M129.976 19.2864H129.262V20.7151H129.976V19.2864Z" fill="#00020C"/>
    <path d="M129.262 15.0007H128.548V15.7148H129.262V15.0007Z" fill="#00020C"/>
    <path d="M108.552 12.8579H107.838V13.572H108.552V12.8579Z" fill="#00020C"/>
    <path d="M79.2713 12.8579H77.8429V13.572H79.2713V12.8579Z" fill="#00020C"/>
    <path d="M68.5589 7.14307H67.8448V7.85714H68.5589V7.14307Z" fill="#00020C"/>
    <path d="M64.988 6.42847H64.2739V7.14254H64.988V6.42847Z" fill="#00020C"/>
    <path d="M74.9862 11.4287H74.2721V12.1428H74.9862V11.4287Z" fill="#00020C"/>
    <path d="M67.8448 5.71484H67.1307V7.14353H67.8448V5.71484Z" fill="#00020C"/>
    <path d="M77.1288 13.5723H76.4147V14.2863H77.1288V13.5723Z" fill="#00020C"/>
    <path d="M86.413 10.0005H85.699V10.7146H86.413V10.0005Z" fill="#00020C"/>
    <path d="M62.8455 7.14307H62.1315V7.85714H62.8455V7.14307Z" fill="#00020C"/>
    <path d="M74.9865 12.8579H73.5581V13.572H74.9865V12.8579Z" fill="#00020C"/>
    <path d="M75.7005 12.1433H74.9865V12.8574H75.7005V12.1433Z" fill="#00020C"/>
    <path d="M73.5581 13.5723H72.844V14.2863H73.5581V13.5723Z" fill="#00020C"/>
    <path d="M55.7041 25.7148H54.99V26.4289H55.7041V25.7148Z" fill="#00020C"/>
    <path d="M54.2757 13.5723H53.5616V14.2863H54.2757V13.5723Z" fill="#00020C"/>
    <path d="M62.8455 5.71484H62.1315V6.42892H62.8455V5.71484Z" fill="#00020C"/>
    <path d="M54.2757 15.0007H53.5616V15.7148H54.2757V15.0007Z" fill="#00020C"/>
    <path d="M54.9902 14.2861H54.2761V15.0002H54.9902V14.2861Z" fill="#00020C"/>
    <path d="M52.8475 12.8579H52.1334V13.572H52.8475V12.8579Z" fill="#00020C"/>
    <path d="M53.562 14.2861H52.8479V15.0002H53.562V14.2861Z" fill="#00020C"/>
    <path d="M62.1314 6.42847H61.4174V7.14254H62.1314V6.42847Z" fill="#00020C"/>
    <path d="M62.1314 8.57129H61.4174V9.28536H62.1314V8.57129Z" fill="#00020C"/>
    <path d="M59.9889 10.7141H59.2748V11.4282H59.9889V10.7141Z" fill="#00020C"/>
    <path d="M55.7045 12.1433H54.2761V12.8574H55.7045V12.1433Z" fill="#00020C"/>
    <path d="M61.4172 9.28589H59.2748V9.99996H61.4172V9.28589Z" fill="#00020C"/>
    <path d="M80.6997 16.429H79.2714V17.143H80.6997V16.429Z" fill="#00020C"/>
    <path d="M78.5573 15.0007H77.1289V15.7148H78.5573V15.0007Z" fill="#00020C"/>
    <path d="M75.7005 16.429H74.9865V17.143H75.7005V16.429Z" fill="#00020C"/>
    <path d="M78.5573 16.429H77.1289V17.143H78.5573V16.429Z" fill="#00020C"/>
    <path d="M79.2712 15.7151H78.5571V16.4292H79.2712V15.7151Z" fill="#00020C"/>
    <path d="M54.2757 10.7141H53.5616V11.4282H54.2757V10.7141Z" fill="#00020C"/>
    <path d="M75.7006 18.5722H76.4146V17.858H77.1289V17.1436H75.7006V18.5722Z" fill="#00020C"/>
    <path d="M74.2722 16.429H73.5581V17.143H74.2722V16.429Z" fill="#00020C"/>
    <path d="M74.9865 15.7148V15.0004H74.2722V14.2861H73.5581V15.7148H74.9865Z" fill="#00020C"/>
    <path d="M75.7005 15.7148H76.4146V14.2861H74.9865V15.0004H75.7005V15.7148Z" fill="#00020C"/>
    <path d="M121.406 18.5718H120.692V19.2858H121.406V18.5718Z" fill="#00020C"/>
    <path d="M77.1288 15.7151H76.4147V16.4292H77.1288V15.7151Z" fill="#00020C"/>
    <path d="M82.1279 12.1433H81.4138V13.572H82.1279V12.1433Z" fill="#00020C"/>
    <path d="M82.8421 13.5723H82.1281V14.2863H82.8421V13.5723Z" fill="#00020C"/>
    <path d="M85.6988 12.8579H84.2704V13.5724H84.9845V14.2866H85.6988V12.8579Z" fill="#00020C"/>
    <path d="M79.9855 13.5723H79.2714V14.2865H78.5571V15.0007H79.9855V13.5723Z" fill="#00020C"/>
    <path d="M81.4137 17.858H79.9854V18.5722H82.1278V17.858H82.8419V17.1436H81.4137V17.858Z" fill="#00020C"/>
    <path d="M81.4135 14.2861H80.6995V15.0002H81.4135V14.2861Z" fill="#00020C"/>
    <path d="M84.2704 15.7151H83.5563V16.4292H84.2704V15.7151Z" fill="#00020C"/>
    <path d="M83.556 16.429H82.8419V17.143H83.556V16.429Z" fill="#00020C"/>
    <path d="M84.2703 15.7148H84.9844V14.2861H82.8419V15.0004H84.2703V15.7148Z" fill="#00020C"/>
    <path d="M82.128 16.4294V15.7152H82.8421V15.0007H81.4139V16.4294H82.128Z" fill="#00020C"/>
    <path d="M80.6994 15.0007H79.9854V15.7148H80.6994V15.0007Z" fill="#00020C"/>
    <path d="M77.8431 12.1433H76.4147V12.8574H77.8431V12.1433Z" fill="#00020C"/>
    <path d="M79.9854 6.42847H79.2714V7.14254H79.9854V6.42847Z" fill="#00020C"/>
    <path d="M75.7006 11.4292H77.1289V10.7147H76.4146V10.0005H75.7006V11.4292Z" fill="#00020C"/>
    <path d="M79.2712 8.57129H78.5571V9.28536H79.2712V8.57129Z" fill="#00020C"/>
    <path d="M75.7005 7.85767H74.9865V8.57174H75.7005V7.85767Z" fill="#00020C"/>
    <path d="M72.844 10.7141H72.1299V11.4282H72.844V10.7141Z" fill="#00020C"/>
    <path d="M77.1288 9.28589H76.4147V9.99996H77.1288V9.28589Z" fill="#00020C"/>
    <path d="M71.4153 7.85767H70.7012V8.57174H71.4153V7.85767Z" fill="#00020C"/>
    <path d="M74.9862 9.28589H74.2721V9.99996H74.9862V9.28589Z" fill="#00020C"/>
    <path d="M72.1296 10.0005H71.4155V10.7146H72.1296V10.0005Z" fill="#00020C"/>
    <path d="M72.844 8.57129H72.1299V9.28536H72.844V8.57129Z" fill="#00020C"/>
    <path d="M72.844 6.42847H72.1299V7.14254H72.844V6.42847Z" fill="#00020C"/>
    <path d="M79.2712 11.4287H78.5571V12.1428H79.2712V11.4287Z" fill="#00020C"/>
    <path d="M84.2703 10.7147V10.0005H82.8419V11.4292H83.5562V10.7147H84.2703Z" fill="#00020C"/>
    <path d="M83.556 12.1433H82.8419V12.8574H83.556V12.1433Z" fill="#00020C"/>
    <path d="M79.9854 10.0005H79.2714V10.7146H79.9854V10.0005Z" fill="#00020C"/>
    <path d="M84.2704 11.4287H83.5563V12.1428H84.2704V11.4287Z" fill="#00020C"/>
    <path d="M85.6985 8.57129H84.9844V9.28536H85.6985V8.57129Z" fill="#00020C"/>
    <path d="M82.8421 7.14307H82.1281V7.85714H82.8421V7.14307Z" fill="#00020C"/>
    <path d="M81.4135 9.28589H80.6995V9.99996H81.4135V9.28589Z" fill="#00020C"/>
    <path d="M82.128 7.85767H81.4139V8.57174H82.128V7.85767Z" fill="#00020C"/>
    <path d="M80.6994 11.4287H79.9854V12.8574H80.6994V11.4287Z" fill="#00020C"/>
    <path d="M82.128 10.7141H81.4139V11.4282H82.128V10.7141Z" fill="#00020C"/>
    <path d="M67.1307 3.57178H66.4166V4.28585H67.1307V3.57178Z" fill="#00020C"/>
    <path d="M59.9889 5.00024H59.2748V5.71432H59.9889V5.00024Z" fill="#00020C"/>
    <path d="M60.7032 7.14307H59.9891V8.57175H60.7032V7.14307Z" fill="#00020C"/>
    <path d="M61.4174 2.85742H60.7034V3.5715H61.4174V2.85742Z" fill="#00020C"/>
    <path d="M61.4174 4.28564H60.7034V4.99972H61.4174V4.28564Z" fill="#00020C"/>
    <path d="M59.2749 7.85767H58.5608V8.57174H59.2749V7.85767Z" fill="#00020C"/>
    <path d="M64.988 5.00024H64.2739V5.71432H64.988V5.00024Z" fill="#00020C"/>
    <path d="M55.7041 10.7141H54.99V11.4282H55.7041V10.7141Z" fill="#00020C"/>
    <path d="M57.1325 11.4287H56.4185V12.1428H57.1325V11.4287Z" fill="#00020C"/>
    <path d="M57.1325 10.0005H55.7041V10.7146H57.1325V10.0005Z" fill="#00020C"/>
    <path d="M57.1325 8.57129H56.4185V9.28536H57.1325V8.57129Z" fill="#00020C"/>
    <path d="M58.5605 10.0005H57.8464V10.7146H58.5605V10.0005Z" fill="#00020C"/>
    <path d="M72.844 12.1433H72.1299V12.8574H72.844V12.1433Z" fill="#00020C"/>
    <path d="M69.9872 10.0005H69.2731V10.7146H69.9872V10.0005Z" fill="#00020C"/>
    <path d="M68.5589 2.85742H67.8448V3.5715H68.5589V2.85742Z" fill="#00020C"/>
    <path d="M64.2741 4.28564H63.5601V4.99972H64.2741V4.28564Z" fill="#00020C"/>
    <path d="M71.4153 10.7141H70.7012V11.4282H71.4153V10.7141Z" fill="#00020C"/>
    <path d="M71.4153 12.1433H70.7012V14.2862H71.4153V12.1433Z" fill="#00020C"/>
    <path d="M69.9872 11.4287H69.2731V12.8574H69.9872V11.4287Z" fill="#00020C"/>
    <path d="M65.7022 2.85742H64.9882V3.5715H65.7022V2.85742Z" fill="#00020C"/>
    <path d="M54.9902 8.57129H54.2761V9.28536H54.9902V8.57129Z" fill="#00020C"/>
    <path d="M66.4163 4.28564H65.7023V6.42855H66.4163V4.28564Z" fill="#00020C"/>
    <path d="M66.4163 0H65.7023V0.714076H66.4163V0Z" fill="#00020C"/>
    <path d="M104.981 18.5718H104.267V20.0005H104.981V18.5718Z" fill="#00020C"/>
    <path d="M91.412 15.7151V16.4293H92.1261V17.1435H92.8401V15.7151H91.412Z" fill="#00020C"/>
    <path d="M91.4117 15.0007H90.6976V15.7148H91.4117V15.0007Z" fill="#00020C"/>
    <path d="M87.1267 17.1435H87.841V16.4293H88.5551V15.7151H87.1267V17.1435Z" fill="#00020C"/>
    <path d="M89.9838 15.0007H88.5554V15.7148H89.9838V15.0007Z" fill="#00020C"/>
    <path d="M95.6969 16.429H94.2686V17.143H95.6969V16.429Z" fill="#00020C"/>
    <path d="M90.6978 13.5723H89.2694V14.2863H90.6978V13.5723Z" fill="#00020C"/>
    <path d="M84.9845 20.7146H84.2704V21.4287H84.9845V20.7146Z" fill="#00020C"/>
    <path d="M85.6985 20.0007H84.9844V20.7148H85.6985V20.0007Z" fill="#00020C"/>
    <path d="M87.1268 17.1436H86.4127V18.5722H87.1268V17.1436Z" fill="#00020C"/>
    <path d="M94.2685 15.7151H93.5544V16.4292H94.2685V15.7151Z" fill="#00020C"/>
    <path d="M101.41 17.1436H100.696V17.8576H101.41V17.1436Z" fill="#00020C"/>
    <path d="M84.9845 19.2864H84.2704V20.0005H84.9845V19.2864Z" fill="#00020C"/>
    <path d="M92.8402 18.5718H92.1261V19.2858H92.8402V18.5718Z" fill="#00020C"/>
    <path d="M89.9838 20.0005H91.4121V19.286H90.6978V18.5718H89.9838V20.0005Z" fill="#00020C"/>
    <path d="M99.2675 17.1436H98.5535V17.8576H99.2675V17.1436Z" fill="#00020C"/>
    <path d="M97.8391 19.2864H97.125V20.7151H97.8391V19.2864Z" fill="#00020C"/>
    <path d="M90.6978 15.7151H89.9838V16.4292H90.6978V15.7151Z" fill="#00020C"/>
    <path d="M91.4119 17.858V17.1436H90.6976V18.5722H92.126V17.858H91.4119Z" fill="#00020C"/>
    <path d="M89.2695 17.1432H88.5554V17.8576H89.9838V16.429H89.2695V17.1432Z" fill="#00020C"/>
    <path d="M86.413 18.5718H85.699V19.2858H86.413V18.5718Z" fill="#00020C"/>
    <path d="M92.8403 18.5722H93.5546V17.858H94.2687V17.1436H92.8403V18.5722Z" fill="#00020C"/>
    <path d="M97.125 18.5721H97.8393V19.2864H98.5534V17.8579H97.125V18.5721Z" fill="#00020C"/>
    <path d="M97.8391 14.2861H97.125V15.0002H97.8391V14.2861Z" fill="#00020C"/>
    <path d="M98.5535 15.0007H97.8395V15.7148H98.5535V15.0007Z" fill="#00020C"/>
    <path d="M97.1254 13.5723H95.697V14.2863H97.1254V13.5723Z" fill="#00020C"/>
    <path d="M95.6969 12.8579H93.5544V13.572H95.6969V12.8579Z" fill="#00020C"/>
    <path d="M82.8421 19.2864H82.1281V20.0005H82.8421V19.2864Z" fill="#00020C"/>
    <path d="M99.9818 14.2861H98.5535V15.0002H99.9818V14.2861Z" fill="#00020C"/>
    <path d="M95.6969 15.0007H94.2686V15.7148H95.6969V15.0007Z" fill="#00020C"/>
    <path d="M102.838 13.5723H101.41V14.2863H102.838V13.5723Z" fill="#00020C"/>
    <path d="M101.41 12.8579H100.696V13.572H101.41V12.8579Z" fill="#00020C"/>
    <path d="M101.41 12.1429V11.4287H99.9818V12.8572H100.696V12.1429H101.41Z" fill="#00020C"/>
    <path d="M97.1252 15.7151H95.697V16.4293H96.4111V17.1435H98.5536V16.4293H97.1252V15.7151Z" fill="#00020C"/>
    <path d="M88.5551 13.5723H87.1267V14.2863H88.5551V13.5723Z" fill="#00020C"/>
    <path d="M86.413 15.0007H85.699V16.4294H86.413V15.0007Z" fill="#00020C"/>
    <path d="M87.1268 14.2861H86.4127V15.0002H87.1268V14.2861Z" fill="#00020C"/>
    <path d="M84.2703 18.5718H82.8419V19.2858H84.2703V18.5718Z" fill="#00020C"/>
    <path d="M84.9845 17.1432H84.2704V18.5719H84.9845V17.8576H85.6988V16.429H84.9845V17.1432Z" fill="#00020C"/>
    <path d="M92.8404 13.5723H91.412V14.2863H92.8404V13.5723Z" fill="#00020C"/>
    <path d="M89.2695 12.8579H88.5554V13.572H89.2695V12.8579Z" fill="#00020C"/>
    <path d="M91.4117 12.1433H90.6976V13.572H91.4117V12.1433Z" fill="#00020C"/>
    <path d="M94.2687 14.2861H92.8403V15.0002H94.2687V14.2861Z" fill="#00020C"/>
    <path d="M89.9835 11.4287H89.2694V12.8574H89.9835V11.4287Z" fill="#00020C"/>
    <path d="M107.123 17.1436H106.409V17.8576H107.123V17.1436Z" fill="#00020C"/>
    <path d="M115.693 22.1438H114.979V22.8579H115.693V22.1438Z" fill="#00020C"/>
    <path d="M113.551 21.4292V20.0007H112.837V20.715H110.694V21.4292H113.551Z" fill="#00020C"/>
    <path d="M118.55 23.572H117.836V24.2861H118.55V23.572Z" fill="#00020C"/>
    <path d="M114.979 21.4292H114.265V22.1433H114.979V21.4292Z" fill="#00020C"/>
    <path d="M122.12 22.8574H121.406V23.5715H122.12V22.8574Z" fill="#00020C"/>
    <path d="M116.407 21.4292H115.693V22.1433H116.407V21.4292Z" fill="#00020C"/>
    <path d="M112.836 17.8579H112.122V18.572H112.836V17.8579Z" fill="#00020C"/>
    <path d="M112.836 19.2864H112.122V20.0005H112.836V19.2864Z" fill="#00020C"/>
    <path d="M122.835 23.572H122.12V24.2861H122.835V23.572Z" fill="#00020C"/>
    <path d="M114.265 18.5718H113.551V19.2858H114.265V18.5718Z" fill="#00020C"/>
    <path d="M114.265 22.1438H112.837V22.8579H114.265V22.1438Z" fill="#00020C"/>
    <path d="M130.691 27.8583V28.5725H132.119V27.1438H131.405V27.8583H130.691Z" fill="#00020C"/>
    <path d="M129.976 26.4294H129.262V27.1435H129.976V26.4294Z" fill="#00020C"/>
    <path d="M130.69 28.5723H129.976V29.2863H130.69V28.5723Z" fill="#00020C"/>
    <path d="M134.261 27.8577H133.547V28.5717H134.261V27.8577Z" fill="#00020C"/>
    <path d="M129.262 25.001H128.548V25.7151H129.262V25.001Z" fill="#00020C"/>
    <path d="M124.263 22.8574H123.549V23.5715H124.263V22.8574Z" fill="#00020C"/>
    <path d="M126.406 25.7148H124.977V26.4289H126.406V25.7148Z" fill="#00020C"/>
    <path d="M124.977 24.2866H124.263V25.0007H124.977V24.2866Z" fill="#00020C"/>
    <path d="M124.263 25.001H122.835V25.7151H124.263V25.001Z" fill="#00020C"/>
    <path d="M127.12 24.2866V25.0008H126.405V25.7153H127.834V25.0008H128.548V24.2866H127.12Z" fill="#00020C"/>
    <path d="M105.695 20.715H106.409V21.4292H107.123V20.0007H105.695V20.715Z" fill="#00020C"/>
    <path d="M103.553 20.7146H102.839V21.4287H103.553V20.7146Z" fill="#00020C"/>
    <path d="M104.267 20.0007H103.552V20.7148H104.267V20.0007Z" fill="#00020C"/>
    <path d="M104.981 17.1436H104.267V17.8576H104.981V17.1436Z" fill="#00020C"/>
    <path d="M149.972 30.7151H149.258V31.4292H149.972V30.7151Z" fill="#00020C"/>
    <path d="M102.838 19.286V18.5718H101.41V19.286H102.124V20.0005H103.552V19.286H102.838Z" fill="#00020C"/>
    <path d="M104.981 20.7146H104.267V21.4287H104.981V20.7146Z" fill="#00020C"/>
    <path d="M99.9815 18.5718H99.2675V19.2858H99.9815V18.5718Z" fill="#00020C"/>
    <path d="M100.696 19.2864H99.9818V20.0005H100.696V19.2864Z" fill="#00020C"/>
    <path d="M101.41 20.0007H100.696V21.4294H101.41V20.0007Z" fill="#00020C"/>
    <path d="M104.267 17.8579H103.552V18.572H104.267V17.8579Z" fill="#00020C"/>
    <path d="M110.694 20.0007H109.98V20.7148H110.694V20.0007Z" fill="#00020C"/>
    <path d="M108.552 20.0007H107.838V21.4294H108.552V20.0007Z" fill="#00020C"/>
    <path d="M106.409 21.4292H105.695V22.1433H106.409V21.4292Z" fill="#00020C"/>
    <path d="M100.696 17.8579H99.9818V18.572H100.696V17.8579Z" fill="#00020C"/>
    <path d="M110.694 21.4292H109.98V22.1433H110.694V21.4292Z" fill="#00020C"/>
    <path d="M109.266 21.4292H108.552V22.1433H109.266V21.4292Z" fill="#00020C"/>
    <path d="M107.837 18.5718H107.123V20.0005H107.837V18.5718Z" fill="#00020C"/>
    <path d="M101.41 14.2861H100.696V15.0002H101.41V14.2861Z" fill="#00020C"/>
    <path d="M107.837 16.429H107.123V17.143H107.837V16.429Z" fill="#00020C"/>
    <path d="M106.409 16.429H105.695V17.143H106.409V16.429Z" fill="#00020C"/>
    <path d="M106.409 17.8579H105.695V19.2866H106.409V17.8579Z" fill="#00020C"/>
    <path d="M145.688 25.7148H144.974V26.4289H145.688V25.7148Z" fill="#00020C"/>
    <path d="M126.405 20.7146H125.691V21.4287H126.405V20.7146Z" fill="#00020C"/>
    <path d="M127.119 21.4292H126.405V22.1433H127.119V21.4292Z" fill="#00020C"/>
    <path d="M158.542 41.4299H157.828V42.144H158.542V41.4299Z" fill="#00020C"/>
    <path d="M126.405 22.1438H125.691V22.8579H126.405V22.1438Z" fill="#00020C"/>
    <path d="M127.119 17.8579H126.405V18.572H127.119V17.8579Z" fill="#00020C"/>
    <path d="M127.119 20.0007H126.405V20.7148H127.119V20.0007Z" fill="#00020C"/>
    <path d="M125.691 22.8574H124.977V24.2861H126.405V23.5719H125.691V22.8574Z" fill="#00020C"/>
    <path d="M157.114 40.001H156.4V40.7151H157.114V40.001Z" fill="#00020C"/>
    <path d="M125.692 22.1437V21.4292H124.263V22.8579H124.977V22.1437H125.692Z" fill="#00020C"/>
    <path d="M158.542 40.001H157.828V40.7151H158.542V40.001Z" fill="#00020C"/>
    <path d="M124.977 17.1436H124.263V17.8576H124.977V17.1436Z" fill="#00020C"/>
    <path d="M127.834 17.1436H127.12V17.8576H127.834V17.1436Z" fill="#00020C"/>
    <path d="M127.834 19.2864H127.12V20.0005H127.834V19.2864Z" fill="#00020C"/>
    <path d="M125.691 17.8579H124.977V18.572H125.691V17.8579Z" fill="#00020C"/>
    <path d="M125.691 16.429H124.977V17.143H125.691V16.429Z" fill="#00020C"/>
    <path d="M126.405 15.7151H125.691V16.4292H126.405V15.7151Z" fill="#00020C"/>
    <path d="M126.405 18.5718H125.691V20.0005H126.405V18.5718Z" fill="#00020C"/>
    <path d="M129.976 21.4292H128.548V22.8579H129.976V21.4292Z" fill="#00020C"/>
    <path d="M156.4 38.5728H155.686V39.2868H156.4V38.5728Z" fill="#00020C"/>
    <path d="M130.69 22.8574H129.976V23.5715H130.69V22.8574Z" fill="#00020C"/>
    <path d="M128.548 17.8579H127.834V19.2866H128.548V17.8579Z" fill="#00020C"/>
    <path d="M128.548 20.0007H127.834V21.4294H128.548V20.0007Z" fill="#00020C"/>
    <path d="M139.26 25.001H138.546V25.7151H139.26V25.001Z" fill="#00020C"/>
    <path d="M127.119 22.8574H126.405V23.5715H127.119V22.8574Z" fill="#00020C"/>
    <path d="M143.545 25.001H142.831V25.7151H143.545V25.001Z" fill="#00020C"/>
    <path d="M140.688 22.8574H139.974V23.5715H140.688V22.8574Z" fill="#00020C"/>
    <path d="M141.402 23.572H140.688V24.2861H141.402V23.572Z" fill="#00020C"/>
    <path d="M144.259 25.7148H143.545V26.4289H144.259V25.7148Z" fill="#00020C"/>
    <path d="M148.544 28.5723H147.83V30.001H148.544V28.5723Z" fill="#00020C"/>
    <path d="M133.547 28.5723H132.833V29.2863H133.547V28.5723Z" fill="#00020C"/>
    <path d="M137.832 24.2866H137.118V25.0007H137.832V24.2866Z" fill="#00020C"/>
    <path d="M144.973 26.4294H144.259V27.1435H144.973V26.4294Z" fill="#00020C"/>
    <path d="M140.689 24.2866H139.26V25.0007H140.689V24.2866Z" fill="#00020C"/>
    <path d="M128.548 22.8574H127.834V23.5715H128.548V22.8574Z" fill="#00020C"/>
    <path d="M154.258 34.2869H152.829V35.0009H154.258V34.2869Z" fill="#00020C"/>
    <path d="M152.829 33.5725H152.115V34.2866H152.829V33.5725Z" fill="#00020C"/>
    <path d="M127.834 22.1438H127.12V22.8579H127.834V22.1438Z" fill="#00020C"/>
    <path d="M157.114 37.8582H156.4V38.5722H157.114V37.8582Z" fill="#00020C"/>
    <path d="M150.687 31.4297H149.973V32.1438H150.687V31.4297Z" fill="#00020C"/>
    <path d="M134.261 20.7146H133.547V22.1433H132.833V22.8575H134.261V20.7146Z" fill="#00020C"/>
    <path d="M132.119 22.1438H131.405V22.8579H132.119V22.1438Z" fill="#00020C"/>
    <path d="M128.548 23.572V24.2863H129.262V25.0005H129.976V23.572H128.548Z" fill="#00020C"/>
    <path d="M138.546 22.8574H137.832V24.2861H138.546V22.8574Z" fill="#00020C"/>
    <path d="M109.98 17.858V17.1436H107.838V18.5722H108.552V17.858H109.98Z" fill="#00020C"/>
    <path d="M110.694 15.7151H109.266V16.4292H110.694V15.7151Z" fill="#00020C"/>
    <path d="M111.408 16.429H110.694V17.143H111.408V16.429Z" fill="#00020C"/>
    <path d="M114.979 19.2864H114.265V20.7151H115.693V20.0008H114.979V19.2864Z" fill="#00020C"/>
    <path d="M109.98 18.5721H110.694V20.0008H111.408V17.8579H109.98V18.5721Z" fill="#00020C"/>
    <path d="M109.98 19.2864H109.266V20.0005H109.98V19.2864Z" fill="#00020C"/>
    <path d="M115.693 17.8579H114.265V18.572H115.693V17.8579Z" fill="#00020C"/>
    <path d="M112.836 16.429H112.122V17.143H112.836V16.429Z" fill="#00020C"/>
    <path d="M109.266 18.5718H108.552V19.2858H109.266V18.5718Z" fill="#00020C"/>
    <path d="M114.979 15.7151H113.551V16.4293H114.265V17.1435H114.979V15.7151Z" fill="#00020C"/>
    <path d="M114.265 17.1436H112.837V17.8576H114.265V17.1436Z" fill="#00020C"/>
    <path d="M112.123 17.1436H111.408V17.8576H112.123V17.1436Z" fill="#00020C"/>
    <path d="M104.267 15.0007H102.839V15.7148H104.267V15.0007Z" fill="#00020C"/>
    <path d="M103.553 17.1436H102.839V17.8576H103.553V17.1436Z" fill="#00020C"/>
    <path d="M102.838 15.7151H101.41V17.1438H102.838V15.7151Z" fill="#00020C"/>
    <path d="M99.9818 15.7151H98.5535V16.4292H99.9818V15.7151Z" fill="#00020C"/>
    <path d="M100.696 16.429H99.9818V17.143H100.696V16.429Z" fill="#00020C"/>
    <path d="M104.981 15.7151H104.267V16.4292H104.981V15.7151Z" fill="#00020C"/>
    <path d="M107.123 14.2861V15.0004H104.981V15.7148H107.837V14.2861H107.123Z" fill="#00020C"/>
    <path d="M159.971 43.5728H159.257V44.2868H159.971V43.5728Z" fill="#00020C"/>
    <path d="M104.267 16.429H103.552V17.143H104.267V16.429Z" fill="#00020C"/>
    <path d="M100.696 15.0007H99.9818V15.7148H100.696V15.0007Z" fill="#00020C"/>
    <path d="M108.552 15.7151H107.838V16.4292H108.552V15.7151Z" fill="#00020C"/>
    <path d="M124.977 20.0007H124.263V20.7148H124.977V20.0007Z" fill="#00020C"/>
    <path d="M123.549 21.4292H122.12V22.8579H123.549V21.4292Z" fill="#00020C"/>
    <path d="M157.828 40.7156H157.114V41.4297H157.828V40.7156Z" fill="#00020C"/>
    <path d="M121.406 20.715V20.0007H119.978V21.4292H120.692V20.715H121.406Z" fill="#00020C"/>
    <path d="M121.406 21.4292H120.692V22.8579H121.406V21.4292Z" fill="#00020C"/>
    <path d="M159.971 45.0012H159.257V45.7153H159.971V45.0012Z" fill="#00020C"/>
    <path d="M122.12 20.7146H121.406V21.4287H122.12V20.7146Z" fill="#00020C"/>
    <path d="M123.549 19.286V20.0005H124.263V18.5718H122.12V20.0005H122.835V19.286H123.549Z" fill="#00020C"/>
    <path d="M124.263 20.7146H123.549V21.4287H124.263V20.7146Z" fill="#00020C"/>
    <path d="M123.549 20.0007H122.835V20.7148H123.549V20.0007Z" fill="#00020C"/>
    <path d="M116.407 18.5718H115.693V20.0005H116.407V18.5718Z" fill="#00020C"/>
    <path d="M119.264 22.8579H118.55V23.5723H119.978V21.4292H119.264V22.8579Z" fill="#00020C"/>
    <path d="M117.122 20.0007H116.408V21.4294H117.122V20.0007Z" fill="#00020C"/>
    <path d="M117.836 17.858H117.122V17.1436H116.408V18.5722H117.836V17.858Z" fill="#00020C"/>
    <path d="M120.692 17.1436H119.978V17.8576H120.692V17.1436Z" fill="#00020C"/>
    <path d="M116.407 15.7151H115.693V17.1438H116.407V15.7151Z" fill="#00020C"/>
    <path d="M118.55 19.2864H117.121V20.0005H118.55V19.2864Z" fill="#00020C"/>
    <path d="M119.978 17.8579H118.55V18.5721H119.264V20.0008H119.978V17.8579Z" fill="#00020C"/>
    <path d="M118.55 20.7146H117.836V21.4287H118.55V20.7146Z" fill="#00020C"/>
    <path d="M117.836 21.4292H117.121V23.5721H117.836V21.4292Z" fill="#00020C"/>
    <path d="M119.264 20.0007H118.55V20.7148H119.264V20.0007Z" fill="#00020C"/>
    <path d="M89.9835 87.1458H89.2694V87.8598H89.9835V87.1458Z" fill="#00020C"/>
    <path d="M49.9907 84.2883H49.2766V85.0024H49.9907V84.2883Z" fill="#00020C"/>
    <path d="M45.7058 83.5737H44.9917V85.0024H45.7058V83.5737Z" fill="#00020C"/>
    <path d="M42.1351 82.8594H41.421V83.5734H42.1351V82.8594Z" fill="#00020C"/>
    <path d="M34.9935 81.4309H34.2794V82.145H34.9935V81.4309Z" fill="#00020C"/>
    <path d="M24.9956 77.1453H24.2815V77.8593H24.9956V77.1453Z" fill="#00020C"/>
    <path d="M90.6978 84.2883H89.9838V85.0024H90.6978V84.2883Z" fill="#00020C"/>
    <path d="M1.42843 45.7156H0.714355V46.4297H1.42843V45.7156Z" fill="#00020C"/>
    <path d="M17.1396 72.145H16.4255V72.8591H17.1396V72.145Z" fill="#00020C"/>
    <path d="M76.4146 87.1458H75.7006V87.8598H76.4146V87.1458Z" fill="#00020C"/>
    <path d="M90.6978 82.1455H89.9838V82.8596H90.6978V82.1455Z" fill="#00020C"/>
    <path d="M74.9862 87.8601H74.2721V88.5742H74.9862V87.8601Z" fill="#00020C"/>
    <path d="M7.8558 39.2871H7.14172V40.0012H7.8558V39.2871Z" fill="#00020C"/>
    <path d="M12.8547 68.5732H12.1406V69.2873H12.8547V68.5732Z" fill="#00020C"/>
    <path d="M2.85681 41.4299V42.8586H3.57089V42.1444H4.28496V41.4299H2.85681Z" fill="#00020C"/>
    <path d="M9.99808 40.001H8.5697V40.7151H9.99808V40.001Z" fill="#00020C"/>
    <path d="M7.8558 37.1443H7.14172V37.8584H7.8558V37.1443Z" fill="#00020C"/>
    <path d="M7.14144 37.8582H6.42737V39.2868H7.14144V37.8582Z" fill="#00020C"/>
    <path d="M6.42721 49.2869H5.71313V50.0009H6.42721V49.2869Z" fill="#00020C"/>
    <path d="M12.1408 67.8594H11.4268V68.5735H12.1408V67.8594Z" fill="#00020C"/>
    <path d="M9.28378 43.5728H8.5697V44.2868H9.28378V43.5728Z" fill="#00020C"/>
    <path d="M8.56979 42.8584H7.85571V43.5725H8.56979V42.8584Z" fill="#00020C"/>
    <path d="M50.705 85.0022H49.991V85.7163H50.705V85.0022Z" fill="#00020C"/>
    <path d="M141.402 28.5723H140.688V29.2863H141.402V28.5723Z" fill="#00020C"/>
    <path d="M12.1408 74.2878H11.4268V75.0019H12.1408V74.2878Z" fill="#00020C"/>
    <path d="M142.831 27.8577H141.403V28.5717H142.831V27.8577Z" fill="#00020C"/>
    <path d="M140.688 27.8577H139.974V28.5717H140.688V27.8577Z" fill="#00020C"/>
    <path d="M139.26 27.8577H138.546V28.5717H139.26V27.8577Z" fill="#00020C"/>
    <path d="M4.99887 40.7156H4.28479V41.4297H4.99887V40.7156Z" fill="#00020C"/>
    <path d="M143.545 28.5723H142.831V29.2863H143.545V28.5723Z" fill="#00020C"/>
    <path d="M138.546 27.1438H137.118V27.8579H138.546V27.1438Z" fill="#00020C"/>
    <path d="M136.404 27.1438H135.69V27.8579H136.404V27.1438Z" fill="#00020C"/>
    <path d="M141.402 27.1438H140.688V27.8579H141.402V27.1438Z" fill="#00020C"/>
    <path d="M139.974 28.5723H139.26V29.2863H139.974V28.5723Z" fill="#00020C"/>
    <path d="M49.2767 85.0022H48.5626V85.7163H49.2767V85.0022Z" fill="#00020C"/>
    <path d="M144.259 29.2866H143.545V30.0007H144.259V29.2866Z" fill="#00020C"/>
    <path d="M97.1252 81.4309H96.4111V82.145H97.1252V81.4309Z" fill="#00020C"/>
    <path d="M145.688 29.2867V27.1438H144.973V28.5725H144.259V29.2867H145.688Z" fill="#00020C"/>
    <path d="M143.545 30.0012H142.831V31.4297H144.259V30.7155H143.545V30.0012Z" fill="#00020C"/>
    <path d="M5.71347 40.0013H6.42754V39.2871H4.99939V40.7158H5.71347V40.0013Z" fill="#00020C"/>
    <path d="M95.6967 81.4309H94.9827V82.145H95.6967V81.4309Z" fill="#00020C"/>
    <path d="M140.688 29.2866H139.974V30.0007H140.688V29.2866Z" fill="#00020C"/>
    <path d="M142.831 29.2866H141.403V30.0007H142.831V29.2866Z" fill="#00020C"/>
    <path d="M141.402 30.0012H140.688V30.7153H141.402V30.0012Z" fill="#00020C"/>
    <path d="M49.2767 15.0007H48.5626V15.7148H49.2767V15.0007Z" fill="#00020C"/>
    <path d="M22.1389 74.2878H21.4248V75.0019H22.1389V74.2878Z" fill="#00020C"/>
    <path d="M34.9935 80.0027H34.2794V80.7168H34.9935V80.0027Z" fill="#00020C"/>
    <path d="M1.42843 47.144H0.714355V47.8581H1.42843V47.144Z" fill="#00020C"/>
    <path d="M24.2813 75.717H23.5673V76.4311H24.2813V75.717Z" fill="#00020C"/>
    <path d="M9.28378 37.8582H8.5697V39.2868H9.28378V37.8582Z" fill="#00020C"/>
    <path d="M15.7116 70.0022H14.9976V70.7163H15.7116V70.0022Z" fill="#00020C"/>
    <path d="M2.14242 63.5737H1.42834V64.2878H2.14242V63.5737Z" fill="#00020C"/>
    <path d="M5.71347 37.1443H4.99939V38.573H5.71347V37.1443Z" fill="#00020C"/>
    <path d="M7.14144 34.2869H6.42737V35.0009H7.14144V34.2869Z" fill="#00020C"/>
    <path d="M5.71347 35.7153H4.99939V36.4294H5.71347V35.7153Z" fill="#00020C"/>
    <path d="M53.562 22.8574H52.8479V23.5715H53.562V22.8574Z" fill="#00020C"/>
    <path d="M52.1331 23.572H51.4191V24.2861H52.1331V23.572Z" fill="#00020C"/>
    <path d="M51.4193 12.1433H50.7052V12.8574H51.4193V12.1433Z" fill="#00020C"/>
    <path d="M52.8475 21.4292H52.1334V22.1433H52.8475V21.4292Z" fill="#00020C"/>
    <path d="M135.69 26.4294H134.975V27.1435H135.69V26.4294Z" fill="#00020C"/>
    <path d="M9.28378 73.5735H8.5697V74.2876H9.28378V73.5735Z" fill="#00020C"/>
    <path d="M51.4193 13.5723H50.7052V14.2863H51.4193V13.5723Z" fill="#00020C"/>
    <path d="M51.4193 21.4292H50.7052V22.1433H51.4193V21.4292Z" fill="#00020C"/>
    <path d="M50.705 22.1438H49.991V22.8579H50.705V22.1438Z" fill="#00020C"/>
    <path d="M51.4193 18.5718H50.7052V20.7147H51.4193V18.5718Z" fill="#00020C"/>
    <path d="M51.4193 16.429H50.7052V17.8576H51.4193V16.429Z" fill="#00020C"/>
    <path d="M32.1372 77.8599H31.4231V78.5739H32.1372V77.8599Z" fill="#00020C"/>
    <path d="M22.1389 81.4309H21.4248V82.145H22.1389V81.4309Z" fill="#00020C"/>
    <path d="M9.99826 72.145H9.28418V72.8591H9.99826V72.145Z" fill="#00020C"/>
    <path d="M7.14144 70.0022H6.42737V71.4309H7.14144V70.0022Z" fill="#00020C"/>
    <path d="M14.997 77.1453H14.283V77.8593H14.997V77.1453Z" fill="#00020C"/>
    <path d="M14.283 76.4307H13.569V77.1447H14.283V76.4307Z" fill="#00020C"/>
    <path d="M10.7124 74.2878H9.99829V75.0019H10.7124V74.2878Z" fill="#00020C"/>
    <path d="M2.14242 61.4302H1.42834V62.1442H2.14242V61.4302Z" fill="#00020C"/>
    <path d="M1.42843 60.7163H0.714355V61.4304H1.42843V60.7163Z" fill="#00020C"/>
    <path d="M4.99887 66.4304H4.28479V67.1445H4.99887V66.4304Z" fill="#00020C"/>
    <path d="M4.28519 65.7166H2.85681V66.4306H4.28519V65.7166Z" fill="#00020C"/>
    <path d="M22.8529 82.1455H22.1388V82.8596H22.8529V82.1455Z" fill="#00020C"/>
    <path d="M89.9835 92.8596H89.2694V93.5737H89.9835V92.8596Z" fill="#00020C"/>
    <path d="M108.552 90.7168H107.838V91.4309H108.552V90.7168Z" fill="#00020C"/>
    <path d="M94.2685 93.5742H93.5544V94.2883H94.2685V93.5742Z" fill="#00020C"/>
    <path d="M74.9862 93.5742H74.2721V94.2883H74.9862V93.5742Z" fill="#00020C"/>
    <path d="M29.2804 85.0022H28.5663V85.7163H29.2804V85.0022Z" fill="#00020C"/>
    <path d="M73.5581 92.8596H72.844V93.5737H73.5581V92.8596Z" fill="#00020C"/>
    <path d="M46.42 90.0032H45.7059V90.7172H46.42V90.0032Z" fill="#00020C"/>
    <path d="M19.2821 80.7163H18.568V81.4304H19.2821V80.7163Z" fill="#00020C"/>
    <path d="M39.9926 87.8601H39.2786V88.5742H39.9926V87.8601Z" fill="#00020C"/>
    <path d="M50.705 90.7168H49.991V91.4309H50.705V90.7168Z" fill="#00020C"/>
    <path d="M137.118 30.7151H136.404V31.4292H137.118V30.7151Z" fill="#00020C"/>
    <path d="M134.261 30.7151H133.547V31.4292H134.261V30.7151Z" fill="#00020C"/>
    <path d="M127.834 27.1438H127.12V27.8579H127.834V27.1438Z" fill="#00020C"/>
    <path d="M137.118 32.8579H136.404V33.572H137.118V32.8579Z" fill="#00020C"/>
    <path d="M129.262 29.2866H128.548V30.0007H129.262V29.2866Z" fill="#00020C"/>
    <path d="M128.548 26.4294H127.834V27.1435H128.548V26.4294Z" fill="#00020C"/>
    <path d="M132.119 30.0012H131.405V30.7153H132.119V30.0012Z" fill="#00020C"/>
    <path d="M143.545 35.7153H142.831V36.4294H143.545V35.7153Z" fill="#00020C"/>
    <path d="M139.26 33.5725H138.546V34.2866H139.26V33.5725Z" fill="#00020C"/>
    <path d="M144.259 35.0007H143.545V35.7148H144.259V35.0007Z" fill="#00020C"/>
    <path d="M139.26 32.144H138.546V32.8581H139.26V32.144Z" fill="#00020C"/>
    <path d="M127.834 28.5723H127.12V29.2863H127.834V28.5723Z" fill="#00020C"/>
    <path d="M119.264 26.4294H118.55V27.1435H119.264V26.4294Z" fill="#00020C"/>
    <path d="M115.693 23.572H114.265V24.2861H115.693V23.572Z" fill="#00020C"/>
    <path d="M119.978 25.001H119.264V25.7151H119.978V25.001Z" fill="#00020C"/>
    <path d="M145.688 37.1443H144.974V37.8584H145.688V37.1443Z" fill="#00020C"/>
    <path d="M117.122 24.2866H116.408V25.0007H117.122V24.2866Z" fill="#00020C"/>
    <path d="M116.407 25.001H115.693V25.7151H116.407V25.001Z" fill="#00020C"/>
    <path d="M124.977 29.2866H124.263V30.0007H124.977V29.2866Z" fill="#00020C"/>
    <path d="M121.406 24.2866H119.978V25.0007H121.406V24.2866Z" fill="#00020C"/>
    <path d="M126.405 27.1438H125.691V27.8579H126.405V27.1438Z" fill="#00020C"/>
    <path d="M123.549 27.1438H122.835V27.8579H123.549V27.1438Z" fill="#00020C"/>
    <path d="M122.12 25.001H121.406V26.4297H122.12V25.001Z" fill="#00020C"/>
    <path d="M143.545 33.5725H142.831V34.2866H143.545V33.5725Z" fill="#00020C"/>
    <path d="M141.403 35.0008H142.117V33.5721H142.831V32.8579H141.403V35.0008Z" fill="#00020C"/>
    <path d="M140.688 32.144H139.974V32.8581H140.688V32.144Z" fill="#00020C"/>
    <path d="M151.401 40.7156H150.687V41.4297H151.401V40.7156Z" fill="#00020C"/>
    <path d="M148.544 37.8582H147.83V38.5722H148.544V37.8582Z" fill="#00020C"/>
    <path d="M149.972 38.5728H149.258V39.2868H149.972V38.5728Z" fill="#00020C"/>
    <path d="M134.976 29.2866H133.547V30.0007H134.976V29.2866Z" fill="#00020C"/>
    <path d="M136.404 30.0012H134.975V30.7153H136.404V30.0012Z" fill="#00020C"/>
    <path d="M141.402 31.4297H140.688V32.1438H141.402V31.4297Z" fill="#00020C"/>
    <path d="M138.546 30.0012H137.832V31.4299H138.546V30.0012Z" fill="#00020C"/>
    <path d="M154.971 67.1448H154.257V67.8588H154.971V67.1448Z" fill="#00020C"/>
    <path d="M153.543 67.8594H152.829V68.5735H153.543V67.8594Z" fill="#00020C"/>
    <path d="M155.686 69.2876H154.972V70.0017H155.686V69.2876Z" fill="#00020C"/>
    <path d="M148.544 39.2871H147.83V40.0012H148.544V39.2871Z" fill="#00020C"/>
    <path d="M154.258 68.5732H153.544V69.2873H154.258V68.5732Z" fill="#00020C"/>
    <path d="M159.971 58.5728H159.257V59.2868H159.971V58.5728Z" fill="#00020C"/>
    <path d="M152.829 62.1445H152.115V62.8586H152.829V62.1445Z" fill="#00020C"/>
    <path d="M155.686 56.4299H154.972V57.144H155.686V56.4299Z" fill="#00020C"/>
    <path d="M156.4 67.1448H155.686V67.8588H156.4V67.1448Z" fill="#00020C"/>
    <path d="M153.543 61.4302H152.829V62.1442H153.543V61.4302Z" fill="#00020C"/>
    <path d="M144.973 36.4297H144.259V37.1438H144.973V36.4297Z" fill="#00020C"/>
    <path d="M89.2697 18.5718H87.8413V19.2858H89.2697V18.5718Z" fill="#00020C"/>
    <path d="M88.5554 20.0007H87.8413V20.7148H88.5554V20.0007Z" fill="#00020C"/>
    <path d="M84.9845 22.1438H84.2704V22.8579H84.9845V22.1438Z" fill="#00020C"/>
    <path d="M87.8408 87.1458H87.1267V87.8598H87.8408V87.1458Z" fill="#00020C"/>
    <path d="M114.979 25.7148H114.265V26.4289H114.979V25.7148Z" fill="#00020C"/>
    <path d="M111.408 87.1453H110.694V87.8595H109.98V86.4309H109.266V87.1451H108.552V85.0022H107.838V87.1451H107.124V85.7164H105.695V84.2877H104.981V85.7164H104.267V84.2877H103.553V85.0019H102.839V84.2877H100.697V83.5735H99.9825V84.2877H99.2685V83.5735H98.5544V82.1448H97.8403V83.5735H97.1262V82.8593H96.4122V82.145H95.6981V82.8593H94.984V82.145H94.2699V81.4308H92.8416V80.7166H92.1275V81.4308H90.6991V82.145H91.4132V82.8593H90.6991V84.2879H91.4132V85.0022H90.6991V85.7164H91.4132V86.4306H92.1272V85.7164H92.8413V88.5735H91.4129V87.8593H90.6989V88.5735H85.6987V87.8593H84.2703V88.5735H84.9844V89.2878H84.2703V88.5735H83.5563V89.2878H82.8422V87.8591H82.1281V89.2878H81.414V88.5735H78.5575V87.8593H77.8434V89.288H77.1294V87.8593H76.4153V88.5735H74.9864V89.2878H73.5581V88.5735H69.9872V87.8593H69.2731V88.5735H68.5591V87.8593H67.845V87.1451H67.1309V88.5738H64.9885V87.1451H64.2744V88.5738H63.5603V87.1451H62.8462V87.8593H62.1322V87.1451H61.4181V87.8593H60.704V88.5735H59.9899V87.1449H59.2759V87.8591H58.5618V86.4304H57.8477V87.1446H54.9912V85.7159H54.2771V86.4302H53.563V87.1444H51.4206V86.4302H49.9922V85.7159H49.2781V86.4302H48.564V85.7159H47.1357V85.0017H46.4216V85.7159H44.9932V85.0017H44.2791V84.2875H41.4226V83.5733H39.9942V84.2875H39.2801V82.8588H37.8518V83.573H37.1377V82.8588H36.4236V81.4301H35.7095V82.8588H34.2811V82.1446H33.5671V81.4303H32.853V80.7161H32.1389V81.4303H30.7105V80.7161H31.4246V80.0019H30.7105V79.2877H29.9965V80.7163H29.2824V80.0021H28.5683V78.5734H27.1399V79.2877H27.854V80.0019H27.1399V79.2877H26.4259V80.0019H25.7118V78.5732H27.1402V77.859H24.9977V78.5732H24.2836V77.859H22.8553V75.7161H22.1412V77.1447H21.4271V75.7161H19.2846V75.0018H18.5706V72.8589H17.8565V73.5732H17.1424V74.2874H16.4283V72.8587H15.7143V71.43H15.0002V72.1442H14.2861V70.0013H12.1437V69.2871H11.4296V68.5729H10.0012V67.8586H10.7153V67.1444H9.2869V66.4302H10.7153V65.716H8.57282V66.4302H7.85875V65.716H8.57282V65.0017H9.2869V64.2875H7.14444V63.5733H8.57282V62.8591H6.43037V63.5733H5.71629V62.8591H6.43037V62.1448H7.85875V61.4306H5.71629V60.0019H4.99922V59.2877H5.71329V57.859H4.99922V50.716H5.71329V50.0018H4.99922V49.2876H5.71329V48.5734H4.99922V47.8591H7.14168V47.1449H6.4276V46.4307H7.14168V44.2878H7.85575V43.5735H7.14168V42.1449H8.57006V40.7162H7.85598V41.4304H7.14191V40.0017H6.42783V40.7159H5.71376V41.4302H4.99922V42.1444H4.28514V43.5731H4.99922V44.2873H4.28514V43.5731H2.14246V44.2873H2.85653V45.0015H3.57061V45.7158H2.14246V46.43H1.42838V47.1442H2.85676V47.8584H2.14246V48.5727H0.714075V52.1443H0V52.8585H0.714075V56.4301H1.42815V57.1443H0.714075V57.8585H1.42815V58.5728H0.714075V59.287H1.42815V60.0012H2.14223V61.4299H2.8563V64.287H3.57038V65.0013H4.28445V65.7155H4.99853V66.4297H5.7126V67.8584H4.99922V68.5726H7.14168V70.0013H8.57006V70.7156H7.85598V71.4298H10.7125V72.8585H9.99844V73.5727H10.7125V74.2869H11.4266V73.5727H12.1407V72.8585H12.8547V73.5727H12.1407V74.2869H12.8547V75.0011H12.1407V75.7154H14.2831V76.4296H15.7115V78.5725H16.4256V77.8583H17.1397V78.5725H18.568V80.0012H19.9964V80.7154H21.4248V80.0012H22.1389V81.4299H22.8529V82.1441H23.567V81.4299H24.2811V82.1441H23.567V82.8583H25.7095V82.1441H26.4236V82.8583H25.7095V83.5726H27.1379V85.0013H27.8519V83.5726H28.566V82.8583H29.2801V83.5726H28.566V84.2868H29.9944V85.7155H30.7085V84.2868H31.4225V85.7155H32.1366V86.4297H33.565V85.001H34.2791V86.4297H35.7075V87.1439H37.8499V87.8582H38.564V87.1439H39.9924V87.8582H40.7064V88.5724H41.4205V89.2866H42.1346V88.5724H42.8487V89.2866H43.5627V88.5724H44.2768V89.2866H44.9909V90.0008H45.705V89.2866H47.1334V90.0008H48.5617V90.7151H49.9901V90.0008H50.7042V90.7151H52.8466V91.4293H54.9891V90.7151H55.7032V91.4293H57.1316V92.858H57.8456V92.1438H58.5597V91.4295H59.2738V92.1438H60.7022V91.4295H61.4162V92.1438H62.8446V92.858H63.5587V92.1438H64.2728V93.5724H64.9868V92.1438H65.7009V92.858H66.415V92.1438H67.1291V92.858H70.6999V93.5722H71.414V92.858H72.8424V92.1438H73.5564V92.858H76.413V93.5722H77.1271V92.1435H77.8411V92.8577H86.411V92.1435H87.125V93.5722H87.8391V92.1435H88.5532V92.8577H89.2673V92.1435H89.9813V92.8577H94.2662V92.1435H93.5522V91.4293H94.2662V92.1435H94.9803V92.8577H95.6944V92.1435H97.1228V92.8577H96.4087V93.572H94.9803V94.2862H94.2662V95.0004H92.1238V95.7146H91.4097V96.4289H92.1238V97.1431H92.8379V97.8573H92.1238V98.5716H92.8379V99.2858H93.5519V100H94.266V99.2858H94.9801V98.5716H95.6942V97.8573H96.4082V97.1456H97.1223V97.8599H98.5507V97.1456H97.8366V96.4314H99.9791V95.7172H100.693V94.2885H101.407V95.7172H102.121V93.5743H104.264V92.8601H106.406V90.7171H107.835V90.0029H109.263V89.2887H109.977V88.5745H112.12V85.7173H111.405V87.1453H111.408ZM5.71329 42.1442H6.42737V42.8584H5.71329V42.1442ZM4.99922 45.0013H5.71329V45.7155H4.99922V45.0013ZM4.99922 46.43H5.71329V47.1442H4.99922V46.43ZM2.14246 50.0013H1.42838V49.2871H2.14246V50.0013ZM7.14168 67.8591H6.4276V67.1449H7.14168V67.8591ZM10.7125 70.002H9.99844V69.2878H10.7125V70.002ZM13.569 72.1449H12.855V71.4307H13.569V72.1449ZM17.854 75.7165H17.1399V75.0023H17.854V75.7165ZM19.9964 79.2879H19.2823V78.5737H19.9964V79.2879ZM43.5634 85.7169H42.8494V85.0026H43.5634V85.7169ZM57.1325 88.574H56.4184V87.8598H57.1325V88.574ZM92.8402 82.8595V82.1453H93.5542V82.8595H92.8402ZM94.9826 86.4311H94.2686V87.1453H94.9826V87.8595H93.5542V86.4309H94.2683V85.7166H94.9824V86.4311H94.9826ZM97.1251 87.8598H96.411V88.574H95.6969V87.8598H96.411V87.1455H97.1251V87.8598ZM102.124 85.7169H101.41V85.0026H102.124V85.7169ZM105.695 92.1456H104.981V91.4314H105.695V92.1456Z" fill="#00020C"/>
    <path d="M87.8408 21.4292H87.1267V22.1433H87.8408V21.4292Z" fill="#00020C"/>
    <path d="M54.2757 22.1438H53.5616V22.8579H54.2757V22.1438Z" fill="#00020C"/>
    <path d="M147.116 30.7151H146.402V31.4292H147.116V30.7151Z" fill="#00020C"/>
    <path d="M134.975 25.7148H134.261V26.4289H134.975V25.7148Z" fill="#00020C"/>
    <path d="M87.1268 20.0007H86.4127V20.7148H87.1268V20.0007Z" fill="#00020C"/>
    <path d="M87.8408 23.572H87.1267V24.2861H87.8408V23.572Z" fill="#00020C"/>
    <path d="M137.118 26.4294H136.404V27.1435H137.118V26.4294Z" fill="#00020C"/>
    <path d="M134.975 24.2866H134.261V25.0007H134.975V24.2866Z" fill="#00020C"/>
    <path d="M134.261 23.572H133.547V24.2861H134.261V23.572Z" fill="#00020C"/>
    <path d="M136.404 25.7148H135.69V26.4289H136.404V25.7148Z" fill="#00020C"/>
    <path d="M135.69 25.001H134.975V25.7151H135.69V25.001Z" fill="#00020C"/>
    <path d="M134.261 25.001H132.833V25.7151H134.261V25.001Z" fill="#00020C"/>
    <path d="M147.83 30.0012H147.116V30.7153H147.83V30.0012Z" fill="#00020C"/>
    <path d="M147.116 30.001V28.5723H146.402V29.2865H145.688V30.001H147.116Z" fill="#00020C"/>
    <path d="M138.546 28.5723H137.832V29.2863H138.546V28.5723Z" fill="#00020C"/>
    <path d="M132.833 24.2866H132.119V25.0007H132.833V24.2866Z" fill="#00020C"/>
    <path d="M8.56979 45.0012H7.85571V45.7153H8.56979V45.0012Z" fill="#00020C"/>
    <path d="M104.981 22.8574H104.267V23.5715H104.981V22.8574Z" fill="#00020C"/>
    <path d="M104.267 25.001H103.552V25.7151H104.267V25.001Z" fill="#00020C"/>
    <path d="M103.553 22.1438H102.839V22.8579H103.553V22.1438Z" fill="#00020C"/>
    <path d="M98.5535 22.8579H99.9818V22.1437H99.2675V21.4292H98.5535V22.8579Z" fill="#00020C"/>
    <path d="M107.123 22.8574H105.695V23.5715H107.123V22.8574Z" fill="#00020C"/>
    <path d="M102.124 82.8594H101.41V83.5734H102.124V82.8594Z" fill="#00020C"/>
    <path d="M112.122 22.8574H110.694V23.5715H112.122V22.8574Z" fill="#00020C"/>
    <path d="M109.266 22.8574H108.552V23.5715H109.266V22.8574Z" fill="#00020C"/>
    <path d="M113.551 23.572H112.837V24.2861H113.551V23.572Z" fill="#00020C"/>
    <path d="M110.694 23.572H109.98V24.2861H110.694V23.572Z" fill="#00020C"/>
    <path d="M94.9826 22.8574H94.2686V23.5715H94.9826V22.8574Z" fill="#00020C"/>
    <path d="M93.5544 20.0007H92.8403V21.4294H93.5544V20.0007Z" fill="#00020C"/>
    <path d="M94.9826 18.5718H94.2686V20.7147H94.9826V18.5718Z" fill="#00020C"/>
    <path d="M90.6978 21.4292H89.9838V22.1433H90.6978V21.4292Z" fill="#00020C"/>
    <path d="M91.4117 20.7146H90.6976V21.4287H91.4117V20.7146Z" fill="#00020C"/>
    <path d="M92.1261 23.572H91.412V24.2861H92.1261V23.572Z" fill="#00020C"/>
    <path d="M97.8391 22.8574H97.125V23.5715H97.8391V22.8574Z" fill="#00020C"/>
    <path d="M99.2675 20.0007H98.5535V20.7148H99.2675V20.0007Z" fill="#00020C"/>
    <path d="M99.9815 20.7146H99.2675V21.4287H99.9815V20.7146Z" fill="#00020C"/>
    <path d="M96.4111 20.0007H95.697V21.4294H96.4111V20.0007Z" fill="#00020C"/>
    <path d="M96.4111 17.8579H95.697V19.2866H96.4111V17.8579Z" fill="#00020C"/>
</svg>
