<svg width="108" height="100" viewBox="0 0 108 100" fill="none" xmlns="http://www.w3.org/2000/svg">
    <path d="M41.0289 46.1546C43.8313 47.753 44.7921 51.3495 43.1907 54.1467C41.5894 56.944 37.9863 57.903 35.1839 56.3046L23.7341 49.5912C18.0492 46.2345 11.0032 50.79 11.7238 57.3436L11.884 58.8621C12.6046 65.1759 9.88226 71.4097 4.83794 75.1661C-6.37165 83.5578 3.71694 100.981 16.608 95.466C22.453 92.9885 29.1788 93.7078 34.3031 97.544L35.5042 98.4231C40.7887 102.339 48.3151 98.5031 48.235 91.9495L48.155 78.6826C48.155 75.4058 50.7972 72.8483 54 72.8483C57.2027 72.8483 59.845 75.4857 59.845 78.6826L59.7649 91.9495C59.6849 98.5031 67.2113 102.339 72.4958 98.4231L73.6969 97.544C78.8213 93.7877 85.547 92.9885 91.392 95.466C104.283 100.981 114.372 83.5578 103.162 75.1661C98.0377 71.3298 95.3954 65.1759 96.1161 58.8621L96.2761 57.3436C96.9968 50.79 89.9507 46.2345 84.2659 49.5912L72.8161 56.3046C70.0137 57.903 66.4106 56.944 64.8092 54.1467C63.2079 51.3495 64.1687 47.753 66.9711 46.1546L78.581 39.601C84.346 36.3243 83.8655 28.0124 77.8604 25.375L76.4993 24.7357C70.6543 22.1782 66.5707 16.7435 65.8501 10.4297C64.2487 -3.47658 43.9914 -3.47658 42.39 10.4297C41.6694 16.7435 37.5859 22.1782 31.7409 24.7357L30.3798 25.375C24.3746 28.0124 23.8942 36.4042 29.6592 39.601L41.0289 46.1546Z" fill="#00020C"/>
</svg>
