<svg width="98" height="100" viewBox="0 0 98 100" fill="none" xmlns="http://www.w3.org/2000/svg">
    <path d="M47.824 100C47.1968 100 46.648 99.4523 46.648 98.8263C46.648 98.2003 47.1968 97.6526 47.824 97.6526C74.2448 97.6526 95.7264 76.2128 95.7264 49.8435C95.7264 23.4742 74.2448 2.03441 47.824 2.03441C22.736 2.03441 2.27362 22.457 2.27362 47.4961C2.27362 72.5352 22.736 92.9577 47.824 92.9577C71.6576 92.9577 91.0224 73.6307 91.0224 49.8435C91.0224 26.0564 71.6576 6.72925 47.824 6.72925C25.3232 6.72925 6.97762 25.0391 6.97762 47.5743C6.97762 70.1095 25.3232 88.4194 47.824 88.4194C69.0704 88.4194 86.3184 71.1268 86.3184 49.9217C86.3184 28.7167 69.0704 11.4241 47.824 11.4241C27.832 11.4241 11.6032 27.6213 11.6032 47.5743C11.6032 67.5274 27.832 83.7246 47.824 83.7246C66.4832 83.7246 81.6928 68.5446 81.6928 49.9217C81.6928 31.2989 66.4832 16.1189 47.824 16.1189C30.4192 16.1189 16.3072 30.2817 16.3072 47.5743C16.3072 64.9452 30.4192 79.0297 47.824 79.0297C63.896 79.0297 76.9888 65.9625 76.9888 49.8435C76.9888 33.7246 63.896 20.6573 47.824 20.6573C33.0064 20.6573 20.9328 32.7074 20.9328 47.4961C20.9328 62.2848 33.0064 74.3349 47.824 74.3349C61.3872 74.3349 72.3632 63.3803 72.3632 49.8435C72.3632 36.3067 61.3872 25.3521 47.824 25.3521C35.5936 25.3521 25.6368 35.2895 25.6368 47.4961C25.6368 59.7027 35.5936 69.6401 47.824 69.6401C58.8 69.6401 67.6592 60.7199 67.6592 49.8435C67.6592 38.9671 58.7216 30.047 47.824 30.047C38.1808 30.047 30.2624 37.8717 30.2624 47.5743C30.2624 57.1987 38.1024 65.1017 47.824 65.1017C56.2128 65.1017 63.0336 58.2942 63.0336 49.9217C63.0336 41.5493 56.2128 34.7418 47.824 34.7418C40.768 34.7418 34.9664 40.5321 34.9664 47.5743C34.9664 54.6166 40.768 60.4069 47.824 60.4069C53.6256 60.4069 58.3296 55.712 58.3296 49.9217C58.3296 44.1315 53.6256 39.4366 47.824 39.4366C43.2768 39.4366 39.6704 43.1143 39.6704 47.6526C39.6704 52.1909 43.3552 55.8686 47.824 55.8686C51.0384 55.8686 53.704 53.2082 53.704 50C53.704 46.7919 51.1168 44.1315 47.824 44.1315C45.864 44.1315 44.296 45.6964 44.296 47.6526C44.296 49.6088 45.864 51.1737 47.824 51.1737C48.4512 51.1737 49 50.626 49 50C49 49.374 48.4512 48.8263 47.824 48.8263C47.1968 48.8263 46.648 48.2786 46.648 47.6526C46.648 47.0266 47.1968 46.4789 47.824 46.4789C49.7056 46.4789 51.2736 48.0438 51.2736 49.9217C51.2736 51.7997 49.7056 53.3646 47.824 53.3646C44.6096 53.3646 42.0224 50.7825 42.0224 47.5743C42.0224 44.3662 44.6096 41.7841 47.824 41.7841C52.2928 41.7841 55.9776 45.4617 55.9776 49.9217C55.9776 54.3818 52.2928 58.0595 47.824 58.0595C42.0224 58.0595 37.3184 53.3646 37.3184 47.5743C37.3184 41.784 42.0224 37.0892 47.824 37.0892C54.88 37.0892 60.6816 42.8012 60.6816 49.9217C60.6816 56.964 54.9584 62.7543 47.824 62.7543C39.4352 62.7543 32.6928 55.9468 32.6928 47.6526C32.6928 39.2801 39.5136 32.5508 47.824 32.5508C57.4672 32.5508 65.3072 40.3756 65.3072 50C65.3072 59.6244 57.4672 67.4492 47.824 67.4492C36.9264 67.4492 27.9888 58.6072 27.9888 47.6526C27.9888 36.7762 36.848 27.856 47.824 27.856C60.0544 27.856 70.0112 37.7934 70.0112 50C70.0112 62.2066 59.976 71.9875 47.824 71.9875C34.3392 71.9875 23.3632 61.0329 23.3632 47.4961C23.3632 33.9593 34.3392 23.0047 47.824 23.0047C62.6416 23.0047 74.6368 35.0548 74.6368 49.7652C74.6368 64.4757 62.5632 76.6823 47.824 76.6823C31.752 76.6823 18.6592 63.615 18.6592 47.5743C18.6592 31.5336 31.752 18.4663 47.824 18.4663C65.1504 18.4663 79.3408 32.5509 79.3408 49.9217C79.3408 67.2926 65.2288 81.3772 47.824 81.3772C29.1648 81.3772 14.0336 66.1972 14.0336 47.5743C14.0336 28.9515 29.2432 13.7715 47.824 13.7715C67.7376 13.7715 83.9664 29.9687 83.9664 49.9217C83.9664 69.8748 67.7376 86.072 47.824 86.072C26.5776 86.072 9.32962 68.8576 9.32962 47.6526C9.32962 26.4476 26.5776 9.23317 47.824 9.23317C70.3248 9.23317 88.6704 27.5431 88.6704 50C88.6704 72.457 70.3248 90.7668 47.824 90.7668C23.9904 90.7668 4.62562 71.4398 4.62562 47.6526C4.62562 23.8654 23.9904 4.53833 47.824 4.53833C72.912 4.53833 93.296 24.8827 93.296 50C93.296 75.1174 72.912 95.4617 47.824 95.4617C21.4816 95.4617 0 74.0219 0 47.7308C0 21.3615 21.4816 0 47.824 0C75.4992 0 98 22.457 98 50.0783C98 77.6995 75.4208 100 47.824 100Z" fill="#00020C"/>
</svg>
