<svg width="108" height="108" viewBox="0 0 108 108" fill="none" xmlns="http://www.w3.org/2000/svg">
    <path d="M54 104C81.6142 104 104 81.6142 104 54C104 26.3858 81.6142 4 54 4C26.3858 4 4 26.3858 4 54C4 81.6142 26.3858 104 54 104Z" stroke="#00020C" stroke-width="7" stroke-miterlimit="10"/>
    <path d="M54 4.08472V104" stroke="#00020C" stroke-width="7" stroke-miterlimit="10"/>
    <path d="M54 104C67.8071 104 79 81.6142 79 54C79 26.3858 67.8071 4 54 4C40.1929 4 29 26.3858 29 54C29 81.6142 40.1929 104 54 104Z" stroke="#00020C" stroke-width="7" stroke-miterlimit="10"/>
    <path d="M4.08472 54H104" stroke="#00020C" stroke-width="7" stroke-miterlimit="10"/>
</svg>
