<svg width="100" height="100" viewBox="0 0 100 100" fill="none" xmlns="http://www.w3.org/2000/svg">
    <path fill-rule="evenodd" clip-rule="evenodd" d="M90.2634 80.3042V76.5412H100V23.4588H90.2634V19.6957H99.8404C98.8827 8.64691 89.6249 0 78.3719 0H21.6281C10.3751 0 1.11733 8.64691 0.159627 19.6957H9.73664V23.4588H0V76.5412H9.73664V80.3042H0.159627C1.11733 91.3531 10.3751 100 21.6281 100H78.3719C89.6249 100 98.8827 91.3531 99.8404 80.3042H90.2634ZM50.1197 69.2554C39.5052 69.2554 30.8859 60.6085 30.8859 49.96C30.8859 39.3115 39.5052 30.6645 50.1197 30.6645C60.7342 30.6645 69.3536 39.3115 69.3536 49.96C69.3536 60.6085 60.6544 69.2554 50.1197 69.2554Z" fill="#00020C"/>
</svg>
