<svg width="100" height="100" viewBox="0 0 100 100" fill="none" xmlns="http://www.w3.org/2000/svg">
    <path d="M41.6428 0.0536821C20.1285 3.09285 3.09295 20.0482 0.133727 41.5623C-0.346147 45.1613 2.45312 48.3605 6.13216 48.3605H42.5226C45.8818 48.3605 48.5211 45.6412 48.5211 42.3621V5.97208C48.4411 2.37307 45.2419 -0.426186 41.6428 0.0536821Z" fill="#00020C"/>
    <path d="M0.0536828 58.3576C3.09289 79.8717 20.0485 96.907 41.5628 99.8662C45.1619 100.346 48.3611 97.5469 48.3611 93.8679V57.4778C48.3611 54.1188 45.6418 51.4795 42.3626 51.4795H5.97215C2.3731 51.5595 -0.426192 54.7586 0.0536828 58.3576Z" fill="#00020C"/>
    <path d="M58.3585 99.9464C79.8729 96.9072 96.9084 79.9519 99.8676 58.4378C100.348 54.8388 97.5482 51.6396 93.8692 51.6396H57.4787C54.1196 51.6396 51.4803 54.3589 51.4803 57.638V94.028C51.5603 97.627 54.7595 100.426 58.3585 99.9464Z" fill="#00020C"/>
    <path d="M51.5602 6.05209V42.4421C51.5602 45.8012 54.2795 48.4405 57.5587 48.4405H93.9492C97.5482 48.4405 100.427 45.2413 99.9476 41.6423C96.9084 20.1282 79.9528 3.09293 58.4384 0.133743C54.7594 -0.426104 51.5602 2.3731 51.5602 6.05209Z" fill="#00020C"/>
</svg>
