<svg width="153" height="26" viewBox="0 0 153 26" fill="none" xmlns="http://www.w3.org/2000/svg">
    <g clip-path="url(#clip0_860_12449)">
        <path d="M4.60158 14.8768C4.84354 15.7612 5.22285 16.5779 5.73952 17.326C6.24529 18.0624 6.8594 18.7182 7.56106 19.2711C8.25946 19.8206 9.04027 20.2474 9.90667 20.5528C10.778 20.859 11.6953 21.0138 12.6189 21.0103C14.0453 21.0103 15.2899 20.7113 16.3539 20.1175C17.4168 19.5226 18.2684 18.8453 18.9045 18.0814H24.0532C23.5623 19.1269 22.9259 20.0977 22.163 20.9648C21.3894 21.8497 20.5011 22.6271 19.5215 23.2766C18.5217 23.9389 17.4322 24.4548 16.2863 24.8087C15.1177 25.1753 13.8953 25.3581 12.62 25.3581C10.8893 25.3581 9.25476 25.0221 7.72166 24.3512C6.22474 23.7057 4.86432 22.7814 3.713 21.6273C2.56425 20.4674 1.6451 19.1009 1.00393 17.5996C0.33276 16.0465 -0.00901988 14.3711 0.000180946 12.6791C0.000180946 10.94 0.333003 9.30021 1.00287 7.75866C1.64375 6.25666 2.56333 4.88965 3.713 3.72992C4.8654 2.57745 6.22557 1.65358 7.72166 1.00712C9.26634 0.333552 10.9348 -0.00943354 12.62 0.00019734C14.3506 0.00019734 15.9831 0.33619 17.5172 1.00712C19.014 1.65286 20.3743 2.57722 21.5259 3.73098C22.6754 4.89066 23.5953 6.25722 24.237 7.75866C24.9048 9.30021 25.2397 10.939 25.2397 12.6791C25.2397 13.0764 25.2239 13.4568 25.1933 13.8224C25.1616 14.189 25.1172 14.5408 25.0559 14.8747H4.60053L4.60158 14.8768ZM20.6352 10.528C20.3955 9.65064 20.0189 8.81662 19.5194 8.05661C19.0268 7.3031 18.411 6.63771 17.6979 6.08821C16.9876 5.5414 16.1961 5.10897 15.3523 4.80658C14.4745 4.49711 13.5496 4.34266 12.6189 4.35013C11.6937 4.34693 10.7754 4.50975 9.90772 4.83088C9.05692 5.14364 8.25828 5.58321 7.53887 6.1347C6.8288 6.67919 6.21306 7.33669 5.71627 8.08091C5.21383 8.83129 4.83698 9.65851 4.60053 10.5301H20.6352V10.528ZM26.01 3.02201L29.1068 0.00125392L38.3096 9.56752L47.5103 0.00125392L50.6061 3.02201L41.3177 12.6791L50.6103 22.3363L47.5124 25.3581L38.3096 15.7918L29.1089 25.3581L26.0121 22.3373L35.3026 12.6791L26.01 3.02201ZM53.2993 12.0378C53.2993 10.3895 53.6099 8.8332 54.2333 7.36772C54.8359 5.93273 55.7098 4.62756 56.8072 3.52389C57.9042 2.42339 59.2037 1.54545 60.6341 0.93844C62.1025 0.31112 63.6841 -0.0082125 65.2809 0.00019734C66.9218 0.00019734 68.4686 0.314001 69.9277 0.93844C71.3581 1.54548 72.6576 2.42341 73.7547 3.52389C74.8513 4.62836 75.7248 5.93378 76.3275 7.36878C76.9522 8.84567 77.27 10.4342 77.2615 12.0378V24.6238H72.5238V11.8075C72.5297 10.8327 72.3355 9.86718 71.9532 8.97055C71.5888 8.10893 71.0635 7.32469 70.4053 6.65981C69.7449 5.99907 68.9641 5.47079 68.1052 5.10347C67.2134 4.71963 66.2518 4.52464 65.2809 4.53081C64.2782 4.53081 63.3368 4.72311 62.4567 5.10347C61.5755 5.4849 60.8084 6.00368 60.1565 6.65981C59.4976 7.32425 58.9718 8.10859 58.6076 8.97055C58.2251 9.86751 58.0309 10.8334 58.037 11.8085V24.6238H53.2993V12.0378ZM85.1404 14.8768C85.3834 15.7612 85.7616 16.5779 86.2783 17.326C86.7841 18.0624 87.3982 18.7182 88.0999 19.2711C88.7993 19.8206 89.5801 20.2474 90.4465 20.5528C91.3175 20.8589 92.2345 21.0137 93.1577 21.0103C94.5841 21.0103 95.8298 20.7113 96.8938 20.1175C97.9556 19.5226 98.8072 18.8453 99.4444 18.0814H104.593C104.102 19.127 103.465 20.0978 102.702 20.9648C101.928 21.8497 101.04 22.6272 100.06 23.2766C99.0608 23.9388 97.9717 24.4547 96.8261 24.8087C95.6565 25.1753 94.4351 25.3581 93.1598 25.3581C91.4281 25.3581 89.7946 25.0221 88.2615 24.3512C86.7646 23.7057 85.4042 22.7814 84.2528 21.6273C83.1034 20.4676 82.1835 19.1011 81.5417 17.5996C80.8713 16.0463 80.5302 14.3709 80.54 12.6791C80.54 10.94 80.8729 9.30021 81.5417 7.75866C82.183 6.25695 83.1029 4.8903 84.2528 3.73098C85.4052 2.57813 86.7653 1.6539 88.2615 1.00712C89.8059 0.333696 91.474 -0.00928606 93.1588 0.00019734C94.8894 0.00019734 96.5219 0.33619 98.0571 1.00712C99.5538 1.65288 100.914 2.57724 102.066 3.73098C103.215 4.89078 104.134 6.25733 104.776 7.75866C105.444 9.30021 105.779 10.939 105.779 12.6791C105.779 13.0764 105.764 13.4568 105.732 13.8224C105.701 14.189 105.657 14.5408 105.595 14.8747H85.1414L85.1404 14.8768ZM101.175 10.528C100.935 9.65065 100.559 8.81662 100.059 8.05661C99.5667 7.30307 98.9509 6.63766 98.2377 6.08821C97.5271 5.54134 96.7353 5.10892 95.8911 4.80658C95.0133 4.49711 94.0884 4.34266 93.1577 4.35013C92.2325 4.34693 91.3142 4.50975 90.4465 4.83088C89.5957 5.14361 88.7971 5.58318 88.0777 6.1347C87.368 6.67929 86.7526 7.33678 86.2561 8.08091C85.7537 8.83128 85.3768 9.6585 85.1404 10.5301H101.175V10.528ZM119.077 25.357C116.313 25.357 113.922 24.7083 111.902 23.4119C109.882 22.1144 108.463 20.3372 107.643 18.0793H112.699C113.337 19.0556 114.226 19.8121 115.364 20.3457C116.511 20.8821 117.764 21.1557 119.031 21.1466C120.61 21.1466 121.832 20.8655 122.698 20.2992C123.563 19.735 123.996 18.9647 123.996 17.9885C123.996 17.195 123.683 16.5864 123.062 16.1585C122.439 15.7305 121.398 15.3798 119.941 15.1061L116.388 14.4193C113.593 13.9006 111.558 13.0775 110.283 11.9469C109.007 10.8196 108.368 9.29281 108.368 7.36984C108.368 6.30269 108.604 5.31796 109.074 4.41775C109.552 3.50815 110.22 2.71212 111.033 2.08377C111.868 1.42869 112.862 0.916251 114.017 0.550675C115.17 0.185099 116.446 0.00125392 117.844 0.00125392C120.424 0.00125392 122.657 0.619353 124.54 1.85555C126.423 3.09175 127.744 4.80869 128.505 7.00426H123.448C122.931 6.1199 122.18 5.43313 121.193 4.94499C120.205 4.45685 119.103 4.21172 117.89 4.21172C116.432 4.21172 115.3 4.47904 114.495 5.01261C113.69 5.54724 113.289 6.30163 113.289 7.27791C113.289 7.97948 113.599 8.5437 114.223 8.97161C114.844 9.39847 115.869 9.74925 117.297 10.0229L120.851 10.7097C123.614 11.2285 125.65 12.0758 126.956 13.2508C128.26 14.4246 128.914 15.9736 128.914 17.8955C128.914 18.9943 128.67 19.9938 128.185 20.893C127.683 21.8129 126.992 22.6165 126.158 23.2513C125.292 23.9222 124.252 24.441 123.037 24.8066C121.826 25.1742 120.505 25.356 119.077 25.356V25.357ZM142.31 25.357C139.546 25.357 137.154 24.7083 135.135 23.4119C133.114 22.1144 131.696 20.3372 130.875 18.0793H135.931C136.57 19.0556 137.458 19.8121 138.596 20.3457C139.744 20.882 140.996 21.1556 142.263 21.1466C143.843 21.1466 145.064 20.8655 145.93 20.2992C146.795 19.735 147.228 18.9647 147.228 17.9885C147.228 17.195 146.915 16.5864 146.294 16.1585C145.671 15.7305 144.631 15.3798 143.173 15.1061L139.62 14.4193C136.825 13.9006 134.79 13.0775 133.515 11.9469C132.24 10.8196 131.601 9.29281 131.601 7.36984C131.601 6.30269 131.836 5.31796 132.307 4.41775C132.785 3.5082 133.452 2.71216 134.265 2.08377C135.1 1.42869 136.094 0.916251 137.249 0.550675C138.403 0.185099 139.679 0.00125392 141.076 0.00125392C143.656 0.00125392 145.889 0.619353 147.772 1.85555C149.656 3.09175 150.976 4.80869 151.737 7.00426H146.681C146.164 6.1199 145.412 5.43313 144.425 4.94499C143.438 4.45685 142.336 4.21172 141.122 4.21172C139.664 4.21172 138.534 4.47904 137.728 5.01261C136.923 5.54724 136.521 6.30163 136.521 7.27791C136.521 7.97948 136.831 8.5437 137.455 8.97161C138.077 9.39847 139.102 9.74925 140.529 10.0229L144.084 10.7097C146.846 11.2285 148.882 12.0758 150.188 13.2508C151.492 14.4246 152.146 15.9736 152.146 17.8955C152.146 18.9943 151.904 19.9938 151.417 20.893C150.915 21.8129 150.224 22.6165 149.39 23.2513C148.525 23.9222 147.484 24.441 146.269 24.8066C145.058 25.1742 143.737 25.356 142.31 25.356V25.357Z" fill="#F8FAFF" fill-opacity="0.8"/>
    </g>
    <defs>
        <clipPath id="clip0_860_12449">
            <rect width="152.147" height="25.3579" fill="white"/>
        </clipPath>
    </defs>
</svg>

