<svg width="112" height="100" viewBox="0 0 112 100" fill="none" xmlns="http://www.w3.org/2000/svg">
    <path d="M84.8407 100H27.1991C20.1171 100 14.3799 94.2878 14.3799 87.2368C14.3799 80.1858 20.1171 74.4736 27.1991 74.4736H84.8407C91.9227 74.4736 97.6599 80.1858 97.6599 87.2368C97.6599 94.2878 91.9227 100 84.8407 100Z" fill="#00020C"/>
    <path d="M99.2735 75.0983C94.8809 75.0983 90.5779 72.7777 88.1575 68.7613L59.3816 19.1366C55.8854 13.0674 57.9472 5.21316 64.0431 1.73229C70.1389 -1.74858 78.0277 0.304239 81.5238 6.37345L110.3 55.9981C113.796 62.0673 111.734 69.9216 105.638 73.4025C103.576 74.5628 101.425 75.0983 99.2735 75.0983Z" fill="#00020C"/>
    <path d="M12.7663 75.0984C10.6148 75.0984 8.37373 74.5629 6.40154 73.4026C0.305696 69.9217 -1.84579 62.0675 1.74 55.9982L30.516 6.37356C34.0121 0.304352 41.9009 -1.83772 47.9968 1.7324C54.0926 5.21327 56.244 13.0675 52.6582 19.1367L23.8823 68.7614C21.5515 72.7778 17.2485 75.0984 12.7663 75.0984Z" fill="#00020C"/>
</svg>
