<svg width="28" height="28" viewBox="0 0 28 28" fill="none" xmlns="http://www.w3.org/2000/svg">
    <path d="M16.34 0.015031C22.364 0.865998 27.134 5.6135 27.9626 11.6374C28.0969 12.6452 27.3131 13.5409 26.283 13.5409H16.0937C15.1531 13.5409 14.4141 12.7795 14.4141 11.8614V1.67218C14.4365 0.664458 15.3323 -0.119332 16.34 0.015031Z" fill="#1C1E25"/>
    <path d="M27.985 16.3399C27.134 22.3639 22.3864 27.1338 16.3624 27.9623C15.3547 28.0967 14.4589 27.3129 14.4589 26.2828V16.0936C14.4589 15.1531 15.2203 14.4141 16.1385 14.4141H26.3278C27.3355 14.4365 28.1193 15.3322 27.985 16.3399Z" fill="#1C1E25"/>
    <path d="M11.6596 27.9849C5.6356 27.1339 0.865654 22.3864 0.0370712 16.3625C-0.0972939 15.3547 0.686501 14.459 1.71663 14.459H11.906C12.8465 14.459 13.5855 15.2204 13.5855 16.1385V26.3277C13.5631 27.3355 12.6674 28.1192 11.6596 27.9849Z" fill="#1C1E25"/>
    <path d="M13.5631 1.69473V11.8839C13.5631 12.8245 12.8017 13.5635 11.8836 13.5635H1.69423C0.686495 13.5635 -0.119694 12.6677 0.0146713 11.66C0.865648 5.63605 5.61321 0.866167 11.6372 0.0375944C12.6674 -0.119163 13.5631 0.664614 13.5631 1.69473Z" fill="#1C1E25"/>
</svg>
