<svg width="100" height="100" viewBox="0 0 100 100" fill="none" xmlns="http://www.w3.org/2000/svg">
    <path d="M0 59.6323V83.773C0 86.0911 2.79998 87.2901 4.47998 85.6115L28.6399 61.4708C30.3199 59.7922 29.12 56.9944 26.8 56.9944H2.55996C1.11996 56.9944 0 58.1135 0 59.6323Z" fill="#00020C"/>
    <path d="M28.6399 38.5292L4.47998 14.3885C2.79998 12.7098 0 13.9089 0 16.227V40.3677C0 41.8066 1.19994 43.0056 2.63994 43.0056H26.8C29.12 43.0056 30.2399 40.2078 28.6399 38.5292Z" fill="#00020C"/>
    <path d="M40.3199 0.0800781H16.1599C13.8399 0.0800781 12.6399 2.87783 14.3199 4.55649L38.4799 28.6972C40.1599 30.3758 42.9599 29.1768 42.9599 26.8586V2.71797C42.9599 1.19919 41.8399 0.0800781 40.3199 0.0800781Z" fill="#00020C"/>
    <path d="M56.96 2.63789V26.7786C56.96 29.0967 59.7599 30.2958 61.4399 28.6171L85.6 4.47642C87.28 2.79777 86.08 0 83.76 0H59.6C58.08 0.0799361 56.96 1.19904 56.96 2.63789Z" fill="#00020C"/>
    <path d="M71.28 61.4708L95.4399 85.6115C97.1199 87.2901 99.9199 86.0911 99.9199 83.773V59.6323C99.9199 58.1934 98.72 56.9944 97.28 56.9944H73.1199C70.7999 56.9944 69.68 59.7922 71.28 61.4708Z" fill="#00020C"/>
    <path d="M100 40.3677V16.227C100 13.9089 97.2 12.7098 95.52 14.3885L71.36 38.5292C69.68 40.2078 70.8801 43.0056 73.2001 43.0056H97.36C98.8 43.0056 100 41.8865 100 40.3677Z" fill="#00020C"/>
    <path d="M56.96 73.2215V97.3622C56.96 98.8011 58.16 100 59.6 100H83.76C86.08 100 87.28 97.2024 85.6 95.5237L61.4399 71.383C59.7599 69.7043 56.96 70.8234 56.96 73.2215Z" fill="#00020C"/>
    <path d="M38.4798 71.3029L14.3198 95.4436C12.6398 97.1223 13.8398 99.92 16.1598 99.92H40.3198C41.7598 99.92 42.9598 98.721 42.9598 97.2821V73.1415C42.9598 70.8233 40.1598 69.7042 38.4798 71.3029Z" fill="#00020C"/>
</svg>
