<svg width="97" height="104" viewBox="0 0 97 104" fill="none" xmlns="http://www.w3.org/2000/svg">
    <path d="M48.4611 102C62.235 102 73.401 90.7983 73.401 76.9804C73.401 63.1625 62.235 51.9609 48.4611 51.9609C34.6872 51.9609 23.5212 63.1625 23.5212 76.9804C23.5212 90.7983 34.6872 102 48.4611 102Z" stroke="#00020C" stroke-width="4" stroke-miterlimit="10"/>
    <path d="M48.4611 52.0389C62.235 52.0389 73.401 40.8374 73.401 27.0195C73.401 13.2016 62.235 2 48.4611 2C34.6872 2 23.5212 13.2016 23.5212 27.0195C23.5212 40.8374 34.6872 52.0389 48.4611 52.0389Z" stroke="#00020C" stroke-width="4" stroke-miterlimit="10"/>
    <path d="M70.0602 64.5097C83.8341 64.5097 95 53.3081 95 39.4902C95 25.6723 83.8341 14.4707 70.0602 14.4707C56.2863 14.4707 45.1204 25.6723 45.1204 39.4902C45.1204 53.3081 56.2863 64.5097 70.0602 64.5097Z" stroke="#00020C" stroke-width="4" stroke-miterlimit="10"/>
    <path d="M26.9398 89.5292C40.7137 89.5292 51.8797 78.3276 51.8797 64.5097C51.8797 50.6918 40.7137 39.4902 26.9398 39.4902C13.1659 39.4902 2 50.6918 2 64.5097C2 78.3276 13.1659 89.5292 26.9398 89.5292Z" stroke="#00020C" stroke-width="4" stroke-miterlimit="10"/>
    <path d="M26.9398 64.5097C40.7137 64.5097 51.8797 53.3081 51.8797 39.4902C51.8797 25.6723 40.7137 14.4707 26.9398 14.4707C13.1659 14.4707 2 25.6723 2 39.4902C2 53.3081 13.1659 64.5097 26.9398 64.5097Z" stroke="#00020C" stroke-width="4" stroke-miterlimit="10"/>
    <path d="M70.0602 89.5292C83.8341 89.5292 95 78.3276 95 64.5097C95 50.6918 83.8341 39.4902 70.0602 39.4902C56.2863 39.4902 45.1204 50.6918 45.1204 64.5097C45.1204 78.3276 56.2863 89.5292 70.0602 89.5292Z" stroke="#00020C" stroke-width="4" stroke-miterlimit="10"/>
</svg>
