<svg width="298" height="298" viewBox="0 0 298 298" fill="none" xmlns="http://www.w3.org/2000/svg">
    <g style="mix-blend-mode:screen">
        <path fill-rule="evenodd" clip-rule="evenodd" d="M297.989 112.023V110.903H296.868V106.422H295.748V105.301H296.868V103.061H295.748V97.4599H294.627V94.0991H293.507V89.6183H292.386V87.378H291.266V85.1376H290.145V84.0172H289.025V81.7768H287.905V79.5364H286.784V78.416H285.664V77.2956H284.543V75.0552H283.423V73.9348H282.302V72.8144H281.182V71.694H280.062V70.5736H278.941V69.4532H277.821V68.3328H275.58V67.2124H274.46V66.092H273.339V64.9715H272.219V63.8512H271.098V62.7308H269.978V60.4904H268.858V59.37H267.737V58.2496H266.617V57.1291H265.496V56.0087H264.376V54.8883H262.135V53.7679H261.015V52.6475H259.895V51.5271H258.774V50.4067H257.654V48.1663H255.413V45.926H254.293V44.8055H253.172V43.6851H252.052V42.5647H250.931V41.4443H248.691V40.3239H247.571V39.2035H246.45V38.0831H245.33V36.9627H244.209V35.8423H243.089V34.7219H241.968V32.4815H240.848V31.3611H239.728V30.2407H238.607V29.1203H237.487V27.9999H235.246V26.8795H234.126V25.7591H233.005V24.6387H231.885V23.5183H230.764V22.3979H229.644V21.2775H228.524V19.0371H227.403V17.9167H226.283V16.7963H225.162V15.6759H224.042V14.5555H222.921V13.4351H220.681V12.3147H219.561V11.1943H218.44V10.0739H217.32V8.95345H213.959V7.83304H212.838V6.71264H210.598V5.59223H208.357V4.47183H204.997V3.36121H200.516V2.24081H197.155V1.1204H196.034V2.24081H194.914V1.1204H188.193V0H185.952V1.1204H184.832V0H182.591V1.1204H170.269V2.24081H168.028V1.1204H166.908V2.24081H164.667V3.36121H159.066V4.48162H155.705V5.60202H151.224V6.72243H147.863V7.84283H144.502V8.96324H141.141V10.0836H137.781V11.204H135.54V12.3245H133.3V13.4449H132.179V14.5653H128.818V15.6857H126.578V16.8061H123.217V17.9265H120.977V19.0469H119.856V20.1673H117.616V21.2877H115.375V22.4081H113.135V23.5285H110.894V24.6489H109.774V25.7693H107.533V26.8897H105.293V28.0101H104.173V29.1305H101.932V30.2509H100.812V31.3713H98.5712V32.4917H96.3307V33.6121H95.2103V34.7325H94.0899V35.853H91.8494V36.9734H89.609V38.0938H88.4885V39.2142H87.3681V40.3346H86.2477V41.455H84.0072V42.5754H82.8868V43.6958H80.6463V44.8162H79.5259V45.9366H78.4055V47.057H77.285V48.1774H75.0446V49.2978H73.9241V50.4182H72.8037V51.5386H71.6833V52.659H70.5628V53.7794H68.3224V54.8998H67.2019V57.1402H64.9615V58.2606H63.8411V59.381H62.7206V60.5014H61.6002V61.6218H60.4797V63.8622H59.3593V64.9826H57.1189V66.103H55.9984V67.2234H54.878V69.4638H53.7576V70.5842H52.6371V71.7046H51.5167V72.825H50.3962V73.9454H49.2758V75.0658H48.1554V77.3062H47.0349V78.4266H45.9145V79.547H44.7941V80.6674H43.6736V82.9078H42.5532V84.0282H41.4327V85.1486H40.3123V87.389H39.1919V88.5094H38.0714V89.6298H36.951V91.8702H35.8306V94.1106H33.5901V97.4714H32.4697V98.5918H31.3492V99.7122H30.2288V101.953H29.1084V104.193H27.9879V105.313H26.8675V107.554H25.7471V108.674H24.6266V110.915H23.5062V112.035H22.3857V114.275H21.2653V116.516H20.1449V119.877H19.0244V120.997H17.904V123.237H16.7836V124.358H15.6836V127.718H14.5631V129.959H13.4427V132.199H12.3223V133.32H11.2018V134.44H12.3223V135.56H11.2018V137.801H10.0814V141.162H8.96094V143.402H7.84051V146.763H6.72007V149.003H5.59963V153.484H4.47919V156.845H3.35876V161.326H2.23832V166.927H1.12044V173.648H0V192.692H1.12044V193.812H0V194.933H1.12044V199.413H2.24087V203.894H3.36131V207.255H4.48175V209.495H5.60218V211.736H6.72262V213.976H7.84306V216.216H8.9635V218.457H10.0839V219.577H11.2044V220.698H12.3248V222.938H14.5653V225.178H15.6857V226.299H16.8061V227.419H17.9266V228.54H20.167V229.66H21.2874V230.78H22.4079V231.901H23.5283V233.021H24.6488V234.142H25.7692V235.262H26.8896V237.502H28.0101V238.623H29.1305V239.743H30.2509V240.864H31.3714V241.984H33.6118V244.224H35.8523V245.345H36.9727V246.465H38.0931V247.586H39.2136V249.826H40.334V250.946H42.5745V253.187H43.6949V254.307H44.8153V255.428H45.9358V256.548H48.1762V257.668H49.2967V258.789H50.4171V259.909H51.5375V261.03H52.658V262.15H53.7784V264.39H56.0189V266.631H57.1393V267.751H58.2597V268.872H60.5002V271.112H62.7406V272.232H63.8611V273.353H64.9815V274.473H66.1019V276.714H68.3424V278.954H70.5828V281.194H71.7033V282.315H73.9437V284.555H75.0642V285.676H77.3046V286.796H78.425V287.916H80.6655V289.037H81.7859V290.157H84.0264V291.278H86.2668V292.398H88.5073V293.518H91.8682V294.639H95.229V295.759H98.5899V296.88H107.552V298H108.673V296.88H109.793V298H115.394V296.88H116.515V298H118.755V296.88H119.876V298H120.996V296.88H127.717V295.759H128.838V296.88H129.958V295.759H134.439V294.639H140.041V293.518H143.401V292.398H146.762V291.278H150.123V290.157H153.484V289.037H156.845V287.916H159.085V286.796H161.326V285.676H164.687V284.555H166.927V283.435H169.168V282.314H171.408V281.194H172.529V280.074H173.649V281.194H174.769V280.074H175.89V278.953H178.13V277.833H180.371V276.712H182.611V275.592H183.732V274.471H185.972V273.351H188.213V272.231H190.453V271.11H191.573V269.99H193.814V268.869H196.054V267.749H197.175V266.629H199.415V265.508H200.536V264.388H202.776V263.267H203.897V262.147H205.017V261.027H207.257V259.906H208.378V258.786H210.618V257.665H211.739V256.545H212.859V255.425H215.1V254.304H216.22V253.184H217.34V252.063H219.581V249.823H221.821V248.703H222.942V247.582H224.062V246.462H226.303V245.341H227.423V244.221H228.544V243.101H229.664V240.86H228.544V241.981H227.423V243.101H225.183V244.221H224.062V245.342H222.942V246.462H221.821V247.583H219.581V248.703H218.46V249.823H217.34V250.944H216.22V252.064H213.979V253.185H212.859V254.305H211.738V255.425H209.498V256.546H208.377V257.666H207.257V258.787H205.017V259.907H203.896V261.027H201.656V262.148H200.535V263.268H199.415V264.389H197.174V265.509H196.054V266.63H193.813V267.75H192.693V268.87H189.332V269.991H188.212V271.111H185.971V272.232H183.731V273.352H182.61V274.472H180.37V275.593H178.129V276.713H175.889V277.834H174.769V278.954H171.408V280.074H169.167V281.195H166.927V282.315H164.686V283.436H162.446V284.556H159.085V285.676H156.845V286.797H153.484V287.917H151.243V289.038H147.882V290.158H143.393V291.278H141.152V292.399H134.431V293.519H132.191V294.64H131.07V293.519H129.95V294.64H123.228V295.76H122.108V294.64H120.988V295.76H115.386V294.64H114.266V295.76H106.424V294.64H105.304V295.76H103.063V294.64H97.4618V293.519H95.2214V292.399H90.7405V291.278H88.5V290.158H86.2596V289.038H84.0191V287.917H81.7787V286.797H80.6583V285.676H79.5378V282.316H88.5V283.436H89.6205V282.316H90.7409V283.436H98.5827V284.556H99.7031V283.436H109.785V282.316H110.906V283.436H112.026V282.316H118.748V281.195H123.228V280.075H127.709V278.954H131.07V277.834H134.431V276.714H138.912V275.593H141.152V274.473H144.513V273.352H146.754V272.232H148.994V271.112H152.355V269.991H154.596V268.871H156.836V267.75H159.076V266.63H161.317V265.51H162.437V264.389H165.798V263.269H166.919V262.148H170.28V261.028H171.4V259.908H173.64V258.787H175.881V257.667H177.001V256.546H179.242V255.426H180.362V254.305H182.603V253.185H184.843V252.065H185.964V250.944H188.204V249.824H189.324V248.703H191.565V247.583H192.685V246.463H193.806V245.342H196.046V244.222H197.167V243.101H198.287V241.981H199.408V240.861H201.648V239.74H202.768V238.62H205.009V236.379H207.249V235.259H208.37V234.139H210.61V233.018H211.731V231.898H212.851V230.777H213.972V229.657H215.092V228.537H216.212V227.416H213.972V228.537H212.851V229.657H210.611V231.897H208.371V233.018H206.13V235.258H203.89V236.379H202.769V237.499H201.649V238.619H199.408V239.74H198.288V240.86H197.168V241.981H194.927V243.101H193.807V244.221H192.686V245.342H191.566V246.462H189.325V247.583H187.085V248.703H185.964V249.823H183.724V250.944H182.604V252.064H181.483V253.185H179.243V254.305H177.002V255.425H175.882V256.546H172.521V258.786H169.16V259.907H168.04V261.027H165.799V262.147H163.559V263.268H161.318V264.388H159.078V265.509H156.837V266.629H154.597V267.749H152.356V268.87H150.116V269.99H146.755V271.111H144.515V272.231H142.274V273.352H138.913V274.472H135.552V275.592H132.192V276.713H127.711V277.833H124.35V278.954H119.869V280.074H115.388V281.194H114.268V280.074H113.147V281.194H103.065V282.315H101.944V281.194H100.824V282.315H98.5835V281.194H96.3431V282.315H95.2227V281.194H94.1022V282.315H92.9818V281.194H87.3805V280.074H86.26V281.194H85.1396V280.074H82.8991V278.954H78.4182V277.833H76.1778V276.713H72.8169V275.592H71.6965V274.472H68.3356V272.232H66.0951V271.111H67.2156V269.991H66.0951V268.87H68.3356V267.75H69.456V268.87H71.6965V267.75H72.8169V268.87H77.2978V269.991H78.4182V268.87H79.5387V269.991H91.8614V268.87H92.9818V269.991H94.1022V268.87H101.944V267.75H106.425V266.63H107.545V267.75H108.666V266.63H112.027V265.509H116.508V264.389H119.868V263.268H123.229V262.148H125.47V261.027H128.831V259.907H132.192V258.787H133.312V257.666H136.673V256.546H140.034V255.425H142.274V254.305H144.515V253.185H145.635V252.064H148.996V250.944H150.116V249.823H152.357V248.703H154.597V247.583H156.838V246.462H157.958V245.342H160.199V244.221H162.439V243.101H164.68V241.981H165.8V240.86H168.04V239.74H170.281V238.619H171.401V237.499H172.522V236.379H174.762V235.258H175.883V234.138H178.123V233.017H179.243V231.897H181.484V230.777H182.604V229.656H183.725V228.536H184.845V227.415H187.086V226.295H188.206V225.175H189.327V224.054H191.567V222.934H192.687V221.813H193.808V220.693H196.048V219.572H197.169V218.452H198.289V217.332H200.53V215.091H201.65V212.851H200.53V213.971H199.409V215.092H198.289V216.212H197.168V217.333H196.048V218.453H193.807V219.573H192.687V220.694H190.447V221.814H189.326V222.935H188.206V224.055H187.085V225.175H184.845V226.296H183.724V227.416H182.604V228.537H180.364V229.657H179.243V230.777H178.123V231.898H175.882V233.018H173.642V235.259H171.401V236.379H169.161V237.499H168.04V238.62H165.8V239.74H164.68V240.861H162.439V241.981H161.319V243.101H157.958V244.222H156.837V245.342H154.597V246.463H152.356V247.583H151.236V248.703H148.996V249.824H146.755V250.944H144.515V252.065H142.274V253.185H138.913V254.305H137.793V255.426H134.432V256.546H132.192V257.667H128.831V258.787H126.59V259.908H123.229V261.028H119.868V262.148H116.508V263.269H112.027V264.389H109.786V265.51H101.944V266.63H97.4635V267.75H94.1026V266.63H92.9822V267.75H76.1782V266.63H70.5769V265.51H67.216V264.389H62.7351V262.149H61.6147V261.028H60.4942V256.548H62.7347V255.427H64.9751V256.548H66.0956V255.427H70.5765V256.548H71.6969V255.427H76.1778V256.548H77.2982V255.427H82.8996V254.307H84.02V255.427H85.1404V254.307H91.8618V253.186H96.3427V252.066H99.7036V250.946H104.184V249.825H107.545V248.705H110.906V247.584H113.147V246.464H117.628V245.344H118.748V244.223H122.109V243.103H124.349V241.982H126.59V240.862H128.83V239.741H132.191V238.621H133.312V237.501H135.552V236.38H138.913V234.14H142.274V233.019H143.394V231.899H146.755V230.779H147.876V229.658H148.996V228.538H151.236V227.417H153.477V226.297H154.597V225.177H156.838V224.056H157.958V222.936H160.199V221.815H161.319V220.695H163.56V219.575H164.68V218.454H166.92V217.334H168.041V216.213H169.161V215.093H171.402V213.973H172.522V212.852H173.643V211.732H175.883V210.611H177.003V209.491H178.124V208.371H179.244V207.25H181.485V206.13H182.605V205.009H183.726V203.889H184.846V202.769H187.087V200.528H188.207V199.408H185.967V200.528H184.846V201.649H183.726V202.769H182.605V203.889H180.365V205.01H179.244V206.13H178.124V207.251H175.883V208.371H174.763V209.491H173.643V210.612H172.522V211.732H170.282V212.853H169.161V213.973H168.041V215.093H166.92V216.214H164.68V217.334H163.56V218.455H161.319V219.575H160.199V220.695H157.958V221.816H156.838V222.936H154.597V224.057H153.477V225.177H151.236V226.298H148.996V227.418H147.876V228.538H145.635V229.659H143.395V230.779H142.274V231.9H140.034V233.02H137.793V234.14H135.553V235.261H133.312V236.381H132.192V237.502H128.831V238.622H127.711V239.742H124.35V240.863H122.109V241.983H119.869V243.104H116.508V244.224H114.268V245.344H112.027V246.465H107.545V247.585H105.304V248.706H100.823V249.826H97.4622V250.946H92.9814V252.067H86.26V253.187H77.2978V254.308H73.9369V253.187H72.8165V254.308H70.576V253.187H69.4556V254.308H66.0947V253.187H60.4934V252.067H59.3729V250.946H58.2525V243.105H59.3729V241.984H64.9743V240.864H66.0947V241.984H67.2151V240.864H68.3356V241.984H69.456V240.864H73.9369V239.744H79.5382V238.623H84.0191V237.503H88.5V236.382H92.9809V235.262H95.2214V234.142H98.5823V233.021H101.943V231.901H104.184V230.78H106.424V229.66H109.785V228.54H112.025V227.419H114.266V226.299H116.506V225.178H118.747V224.058H120.987V222.938H123.228V221.817H125.468V220.697H126.589V219.576H128.829V218.456H131.069V217.336H133.31V216.215H134.43V215.095H136.671V213.974H138.911V212.854H140.032V211.734H142.272V210.613H143.393V209.493H145.633V208.372H146.753V207.252H148.994V206.131H150.114V205.011H152.355V203.891H153.475V202.77H155.716V200.53H157.956V199.41H159.076V198.289H161.317V197.169H162.437V196.048H163.558V194.928H165.798V192.687H168.039V191.567H169.159V190.447H170.28V189.326H171.4V188.206H173.64V184.845H172.52V185.965H171.4V187.086H170.279V188.206H169.159V189.327H168.038V190.447H165.798V191.568H164.677V192.688H163.557V193.808H162.437V194.929H160.196V196.049H159.076V197.17H157.955V198.29H155.715V199.41H154.594V200.531H153.474V201.651H152.353V202.772H150.113V203.892H148.993V205.012H146.752V206.133H145.632V207.253H143.391V208.374H142.271V209.494H140.03V210.614H138.91V211.735H136.669V212.855H134.429V213.976H133.309V215.096H131.068V216.216H128.828V217.337H126.587V218.457H125.467V219.578H123.226V220.698H120.986V221.818H118.745V222.939H116.505V224.059H114.265V225.18H112.024V226.3H109.784V227.42H107.543V228.541H104.182V229.661H101.942V230.782H99.7014V231.902H96.3405V233.022H92.9797V234.143H89.6188V235.263H85.1379V236.384H80.657V237.504H76.1761V238.625H70.5747V239.745H60.4925V238.625H58.2521V236.384H57.1316V234.144H58.2521V225.182H59.3725V219.581H60.4929V215.1H61.6134V210.619H62.7338V207.258H63.8543V205.018H64.9747V200.537H66.0951V197.176H67.2156V194.936H68.336V191.575H69.4564V189.335H70.5769V187.094H71.6973V184.854H72.8177V182.614H73.9382V180.373H75.0586V178.133H76.1791V175.892H77.2995V173.652H78.4199V171.412H79.5404V170.291H80.6608V168.051H81.7812V165.811H82.9017V163.57H84.0221V162.45H85.1426V160.209H86.263V159.089H87.3834V156.849H88.5039V155.728H89.6243V153.488H90.7447V151.247H91.8652V150.127H92.9856V149.007H94.106V146.766H95.2265V145.646H96.3469V143.405H97.4674V142.285H98.5878V140.045H100.828V137.804H101.949V136.684H103.069V135.563H104.19V133.323H106.43V131.083H107.55V129.962H108.671V127.722H110.911V125.481H112.032V124.361H113.152V123.241H114.273V122.12H115.393V121H116.514V119.879H117.634V118.759H118.754V117.639H119.875V116.518H120.995V115.398H122.116V114.277H123.236V113.157H125.477V110.917H127.717V108.676H129.957V107.556H131.078V106.435H132.198V105.315H133.319V104.195H135.559V103.074H136.68V101.954H138.92V100.833H140.041V99.713H141.161V98.5926H142.281V97.4722H144.522V96.3518H145.642V95.2314H146.763V94.111H149.003V92.9906H151.244V91.8702H152.364V90.7498H153.485V89.6294H155.725V88.509H156.845V87.3886H159.086V86.2682H161.326V85.1478H162.447V84.0274H164.687V82.907H166.928V81.7866H168.048V80.6662H170.289V79.5458H172.529V78.4254H174.769V77.305H175.89V76.1845H179.251V75.0641H180.371V73.9437H183.732V72.8233H185.973V71.7029H188.213V70.5825H190.453V69.4621H192.694V68.3417H196.055V67.2213H199.416V66.1009H201.656V64.9805H205.017V63.8601H208.378V62.7397H212.859V61.6193H216.22V60.4989H221.821V59.3785H227.422V58.2581H228.543V59.3785H230.783V58.2581H237.505V59.3785H238.625V61.6189H239.745V64.9796H238.625V66.1H239.745V67.2205H238.625V72.8216H237.505V75.062H238.625V76.1824H237.505V79.5432H236.384V84.024H235.264V88.5047H234.143V91.8655H233.023V95.2263H231.902V98.5871H230.782V100.827H229.661V104.188H228.541V106.429H227.421V108.669H226.3V112.03H225.18V113.15H224.059V116.511H222.939V117.631H221.818V120.992H220.698V123.233H219.578V125.473H218.457V126.593H217.337V128.834H216.216V131.074H215.096V132.195H213.975V134.435H212.855V136.675H211.734V137.796H210.614V140.036H209.494V141.157H208.373V143.397H207.253V144.517H206.132V146.758H205.012V147.878H203.891V150.118H202.771V151.239H201.651V153.479H200.53V154.6H199.41V156.84H198.289V157.96H197.169V159.081H196.048V160.201H194.928V162.442H193.807V163.562H192.687V164.682H191.567V165.803H190.446V166.923H189.326V168.044H188.205V170.284H183.724V169.164H182.604V162.443H181.484V161.322H180.363V165.803H181.484V166.923H180.363V169.164H181.484V172.524H180.363V173.645H181.484V178.126H192.686V179.246H193.807V180.366H194.927V189.328H196.048V190.449H194.927V191.569H196.048V192.69H197.168V191.569H199.408V192.69H201.649V191.569H203.889V192.69H205.01V191.569H206.13V192.69H208.371V198.291H209.491V199.411H208.371V200.532H209.491V206.133H216.212V205.012H217.333V206.133H220.694V207.253H221.814V208.374H222.935V219.576H226.295V220.696H228.536V219.576H233.017V220.696H234.137V219.576H235.258V221.816H236.378V227.417H237.499V229.658H236.378V230.778H237.499V231.899H236.378V233.019H237.499V234.139H245.34V233.019H246.461V234.139H247.581V233.019H249.822V234.139H250.942V233.019H254.303V230.779H252.063V231.899H250.942V230.779H249.822V231.899H248.701V230.779H247.581V231.899H246.46V230.779H245.34V229.658H244.219V227.418H245.34V226.298H246.46V224.057H248.701V221.817H249.821V220.696H250.942V218.456H252.062V217.336H253.183V216.215H254.303V213.975H255.423V212.854H256.544V211.734H257.664V210.614H258.785V208.373H259.905V206.133H261.026V205.012H262.146V203.892H263.266V201.652H264.387V200.531H265.507V198.291H266.628V197.17H267.748V194.93H268.869V193.81H269.989V191.569H271.11V189.329H272.23V188.208H273.35V185.968H274.471V183.728H275.591V181.487H276.712V180.367H277.832V178.126H278.953V175.886H280.073V173.646H281.193V171.405H282.314V169.165H283.434V166.925H284.555V163.564H285.675V161.323H286.796V157.963H287.916V155.722H289.037V152.361H290.157V150.121H291.277V145.64H292.398V142.279H293.518V138.919H294.639V137.798H293.518V136.678H294.639V132.197H295.759V127.716H296.88V126.596H295.759V125.476H296.88V117.634H298V116.514H296.88V112.033H297.989V112.023ZM254.299 53.7713H257.66V54.8917H258.78V57.1321H254.299L254.299 53.7713ZM245.337 47.0502V48.1706H248.697V50.411H249.818V52.6514H250.938V53.7718H249.818V56.0121H247.577V57.1326H245.337V56.0121H243.096V54.8917H241.976V52.6514H240.856V49.2906H241.976V48.1702H243.096V47.0498L245.337 47.0502ZM239.735 40.3286H240.856V39.2082H241.976V40.3286H244.216V42.569H243.096V43.6894H241.976V42.569H240.855V41.4486H239.735V40.3286H239.735ZM15.6836 218.444H12.3227V217.324H11.2022V216.204H10.0818V213.963H8.96137V211.723H7.84093V209.482H6.72049V207.242H5.60006V205.002H4.47962V200.521H3.35918V197.16H2.23875V196.04H3.35918V194.919H2.23875V184.837H1.12044V183.717H2.24087V181.477H1.12044V180.356H2.24087V173.635H3.36131V172.515H2.24087V171.395H3.36131V165.794H4.48175V160.192H5.60218V155.712H6.72262V152.351H7.84306V148.99H8.9635V145.629H10.0839V143.389H11.2044V140.028H12.3248V137.788H13.4452V134.427H14.5657V131.066H15.6861V129.946H16.8066V127.705H17.927V124.344H19.0474V123.224H20.1679V120.984H21.2883V118.743H22.4087V116.503H23.5292V114.263H24.6496V113.142H25.77V110.902H26.8905V108.661H28.0109V107.541H29.1314V105.301H30.2518V104.18H31.3722V101.94H32.4927V99.6994H33.6131V98.579H34.7335V97.4586H35.854V95.2182H36.9744V92.9779H38.0948V91.8574H39.2153V90.737H40.3357V88.4967H41.4562V87.3763H42.5766V85.1359H43.697V84.0155H44.8175V82.8951H45.9379V81.7747H47.0583V79.5343H48.1788V78.4139H49.2992V77.2935H50.4197V76.173H51.5401V73.9327H53.7805V71.6923H54.901V70.5719H56.0214V69.4515H57.1419V67.2111H59.3823V66.0907H60.5027V64.9703H61.6232V63.8499H62.7436V61.6095H64.9841V59.3691H67.2245V58.2487H68.3449V57.1283H69.4654V56.0079H70.5858V54.8875H71.7063V53.7671H72.8267V52.6467H75.0671V50.4063H77.3076V49.2859H78.428V48.1655H80.6685V45.9251H82.9089V44.8047H84.0294V43.6843H86.2698V42.5639H87.3902V41.4435H88.5107V40.3231H90.7511V39.2027H91.8716V38.0823H94.112V36.9619H95.2324V35.8415H97.4729V34.7211H98.5933V33.6007H100.834V32.4802H101.954V31.3598H104.195V30.2394H105.315V29.119H107.556V27.9986H109.796V26.8782H110.916V25.7578H113.157V24.6374H115.397V23.517H117.638V22.3966H119.878V21.2762H120.999V20.1558H123.239V19.0354H126.6V17.915H127.72V16.7946H131.081V15.6742H133.322V14.5538H135.562V13.4334H137.803V12.313H141.164V11.1926H143.404V10.0722H147.885V8.95174H150.125V7.83134H153.486V6.71093H157.967V5.59053H163.568V4.47013H168.049V3.36121H174.771V2.24081H175.891V3.36121H177.012V2.24081H179.252V3.36121H180.372V2.24081H181.493V3.36121H182.613V2.24081H187.094V3.36121H188.215V2.24081H189.335V3.36121H190.456V2.24081H191.576V3.36121H197.177V4.48162H201.658V5.60202H206.139V6.72243H208.38V7.84283H210.62V8.96324H212.86V10.0836H213.981V11.204H216.221V12.3245H217.342V14.5648H218.462V15.6852H216.222V16.8056H215.101V15.6852H213.981V16.8056H212.86V15.6852H208.38V14.5648H206.139V15.6852H205.019V14.5648H189.335V15.6852H188.215V14.5648H185.974V15.6852H181.493V16.8056H174.772V17.9261H170.291V19.0465H165.81V20.1669H162.449V21.2873H160.209V22.4077H156.848V23.5281H153.487V24.6485H151.247V25.7689H147.886V26.8893H145.645V28.0097H143.405V29.1301H141.164V30.2505H138.924V31.3709H136.684V32.4913H134.443V33.6117H132.203V34.7321H129.962V35.8525H127.722V36.9729H125.481V38.0933H124.361V39.2137H122.12V40.3341H121V41.4546H117.639V42.575H116.519V43.6954H115.398V44.8158H113.158V45.9362H112.037V47.0566H110.917V48.177H107.556V49.2974H106.436V50.4178H105.315V51.5382H103.075V52.6586H101.954V53.779H99.7138V54.8994H98.5933V56.0198H97.4729V57.1402H96.3525V58.2606H94.112V59.381H92.9916V60.5014H91.8711V61.6218H90.7507V62.7422H88.5103V63.8627H87.3898V64.983H86.2694V66.1034H85.1489V67.2239H82.9085V68.3443H81.7881V69.4647H80.6676V70.5851H79.5472V71.7055H78.4268V72.8259H77.3063V73.9463H76.1859V75.0667H75.0654V76.1871H73.945V77.3075H72.8246V78.4279H71.7041V79.5483H70.5837V80.6687H69.4633V82.9091H67.2228V85.1495H66.1024V86.2699H64.9819V87.3903H63.8615V88.5107H62.7411V89.6311H61.6206V90.7515H60.5002V92.9919H59.3797V94.1123H58.2593V95.2327H57.1389V96.3531H56.0184V98.5935H54.898V100.834H52.6575V103.074H51.5371V105.315H50.4167V106.435H49.2962V107.555H48.1758V109.796H47.0554V110.916H45.9349V113.157H44.8145V114.277H43.6941V116.517H42.5736V118.758H41.4532V119.878H40.3327V122.119H39.2123V123.239H38.0919V125.479H36.9714V127.72H35.851V129.96H34.7306V131.081H33.6101V134.441H31.3697V137.802H30.2492V140.043H29.1288V142.283H28.0084V145.644H26.8879V146.764H25.7675V150.125H24.6471V152.365H23.5266V155.726H22.4062V157.966H21.2857V161.327H20.1653V165.808H19.0449V169.169H17.9244V171.409H16.804V172.53H17.9244V173.65H16.804V177.011H15.6836V182.612H14.5631V184.852H15.6836V185.973H14.5631V191.574H13.4427V192.694H14.5631V193.815H13.4427V194.935H14.5631V196.056H13.4427V198.296H14.5631V199.416H13.4427V201.657H14.5631V202.777H13.4427V203.897H14.5631V205.018H13.4427V206.138H14.5631V210.619H15.6836V218.444ZM29.1267 224.046H28.0062V225.166H29.1267V230.767H25.7658V229.647H24.6454V228.526H23.5249V227.406H22.4045V225.166H21.284V222.925H20.1636V219.564H19.0432V217.324H17.9227V212.843H16.8023V207.242H15.6836V206.122H16.804V205.001H15.6836V189.318H16.804V182.597H17.9244V181.477H16.804V180.356H17.9244V176.995H19.0449V171.394H20.1653V168.033H21.2857V164.673H22.4062V161.312H23.5266V160.191H24.6471V159.071H23.5266V157.951H24.6471V154.59H25.7675V152.35H26.8879V150.109H28.0084V146.748H29.1288V144.508H30.2492V142.268H31.3697V140.027H32.4901V137.787H33.6105V135.546H34.731V133.306H35.8514V131.066H36.9719V129.945H38.0923V127.705H39.2127V125.464H40.3332V123.224H41.4536V122.104H42.574V119.863H43.6945V118.743H44.8149V116.503H45.9354V114.262H47.0558V113.142H48.1762V110.901H49.2967V109.781H50.4171V107.541H51.5375V106.42H52.658V105.3H53.7784V103.059H54.8988V101.939H56.0193V99.6986H57.1397V98.5782H58.2602V97.4578H59.3806V95.2174H61.621V92.977H62.7415V90.7366H64.9819V88.4962H66.1024V87.3758H67.2228V86.2554H68.3432V85.135H69.4637V84.0146H70.5841V82.8942H71.7046V80.6538H73.945V78.4134H76.1854V76.173H77.3059V75.0526H79.5463V72.8123H81.7868V71.6919H82.9072V69.4515H85.1477V68.3311H86.2681V67.2107H87.3885V66.0903H89.629V64.9698H90.7494V63.8495H91.8699V62.729H92.9903V61.6086H94.1107V60.4882H96.3512V59.3678H97.4716V58.2474H99.7121V56.007H101.953V54.8866H103.073V53.7662H105.313V52.6458H106.434V51.5254H108.674V50.405H109.795V49.2846H112.035V48.1642H113.156V47.0438H115.396V45.9234H116.516V44.803H118.757V43.6826H120.997V42.5622H122.118V41.4418H124.358V40.3214H126.599V39.201H127.719V38.0806H129.96V36.9602H132.2V35.8398H134.441V34.7193H135.561V33.5989H138.922V32.4785H141.162V31.3581H143.403V30.2377H145.643V29.1173H147.884V27.9969H150.124V26.8765H153.485V25.7561H155.725V24.6357H159.086V23.5153H162.447V22.3949H164.688V21.2745H169.169V20.1541H173.649V19.0337H179.251V17.9133H184.852V16.7929H197.175V15.6725H198.295V16.7929H200.536V15.6725H201.656V16.7929H208.377V17.9133H209.498V16.7929H210.618V17.9133H213.979V19.0337H218.46V20.1541H221.821V21.2745H222.941V22.3949H226.302V23.5153H227.423V24.6357H228.543V25.7561H229.664V26.8765H230.784V29.1169H229.664V30.2373H228.543V29.1169H227.423V30.2373H225.182V29.1169H224.062V30.2373H222.941V29.1169H217.34V27.9965H215.1V29.1169H213.979V27.9965H210.618V29.1169H209.498V27.9965H208.377V29.1169H207.257V27.9965H206.137V29.1169H205.016V27.9965H203.896V29.1169H196.054V30.2373H191.573V31.3577H185.963V32.4781H182.602V33.5985H177.001V34.7189H174.76V35.8393H171.399V36.9597H169.159V38.0801H165.798V39.2005H163.557V40.3209H160.197V41.4414H157.956V42.5618H154.595V43.6822H153.475V44.8026H151.234V45.923H150.114V47.0434H146.753V48.1638H144.513V49.2842H143.392V50.4046H141.152V51.525H138.911V52.6454H136.671V53.7658H135.55V54.8862H133.31V56.0066H131.069V57.127H129.949V58.2474H127.709V59.3678H125.468V60.4882H124.348V61.6086H123.227V62.729H120.987V63.8495H119.866V64.9698H118.746V66.0903H116.505V67.2107H114.265V68.3311H113.145V69.4515H112.024V70.5719H109.784V71.6923H108.663V72.8127H107.543V73.9331H105.302V76.1735H103.062V77.2939H101.941V78.4143H100.821V79.5347H99.7006V80.6551H98.5801V81.7755H96.3397V84.0159H94.0992V85.1363H92.9788V86.2567H91.8584V87.3771H90.7379V88.4975H89.6175V89.6179H88.4971V90.7383H87.3766V91.8587H86.2562V92.9791H85.1357V94.0995H84.0153V95.2199H82.8949V96.3403H81.7744V97.4607H80.654V98.5811H79.5336V100.822H78.4131V101.942H77.2927V103.062H76.1722V104.183H75.0518V105.303H73.9314V107.544H72.8109V108.664H71.6905V109.784H70.5701V112.025H69.4496V113.145H68.3292V114.266H67.2088V116.506H66.0883V117.626H64.9679V118.747H63.8474V120.987H62.727V122.108H61.6066V124.348H60.4861V125.468H59.3657V127.709H58.2453V128.829H57.1248V131.069H56.0044V133.31H54.884V134.43H53.7635V136.671H52.6431V138.911H51.5226V140.031H50.4022V142.272H49.2818V144.512H48.1613V146.753H47.0409V148.993H45.9205V151.233H44.8V152.354H43.6796V155.715H42.5591V156.835H41.4387V160.196H40.3183V162.436H39.1978V164.677H38.0774V168.037H36.957V169.158H35.8365V173.638H34.7161V176.999H33.5956V180.36H32.4752V184.841H31.3548V189.322H30.2343V191.562H29.1139V192.682H30.2343V193.803H29.1139V201.644H27.9935V220.688H29.1139V224.046H29.1267ZM42.5698 245.33H40.3293V244.21H39.2089V240.849H42.5698V245.33ZM42.5698 210.603V218.444H41.4494V219.565H42.5698V220.685H41.4494V226.286H42.5698V227.407H41.4494V228.527H42.5698V229.648H41.4494V231.888H42.5698V233.008H41.4494V234.129H42.5698V235.249H41.4494V236.37H39.2089V237.49H38.0885V236.37H35.848V235.249H33.6076V231.888H32.4871V230.768H31.3667V229.648H32.4871V228.527H31.3667V225.166H30.2463V224.046H31.3667V222.926H30.2463V216.204H29.1258V215.084H30.2463V213.963H29.1258V211.723H30.2463V209.482H29.1258V208.362H30.2463V207.242H29.1258V206.121H30.2463V199.4H31.3667V192.679H32.4871V187.078H33.6076V182.597H34.728V180.357H35.8484V175.876H36.9689V173.635H38.0893V170.275H39.2098V166.914H40.3302V164.674H41.4506V162.433H42.5711V159.072H43.6915V156.832H44.8119V155.712H45.9324V153.471H47.0528V150.11H48.1732V147.87H49.2937V146.75H50.4141V144.509H51.5346V142.269H52.655V140.028H53.7754V138.908H54.8959V136.668H56.0163V134.427H57.1367V133.307H58.2572V131.067H59.3776V128.826H60.4981V127.706H61.6185V125.465H62.7389V124.345H63.8594V122.105H64.9798V120.984H66.1002V119.864H67.2207V117.623H68.3411V116.503H69.4615V115.383H70.582V113.142H71.7024V112.022H72.8229V109.781H73.9433V108.661H75.0637V107.541H76.1842V106.42H77.3046V105.3H78.425V103.059H79.5455V101.939H80.6659V100.819H81.7864V99.6981H82.9068V97.4578H85.1472V95.2174H87.3877V92.977H88.5081V91.8566H89.6286V90.7362H90.749V89.6158H92.9894V87.3754H94.1099V86.255H96.3503V85.1346H97.4708V84.0142H98.5912V82.8938H99.7116V81.7734H100.832V80.653H103.073V78.4126H105.313V77.2922H106.433V76.1718H107.554V75.0514H108.674V73.931H109.795V72.8106H112.035V71.6902H113.156V70.5697H115.396V69.4493H116.516V68.3289H118.757V67.2085H119.877V66.0881H120.998V64.9677H123.238V63.8473H124.359V62.7269H126.599V61.6065H127.72V60.4861H129.96V59.3657H132.2V58.2453H133.321V57.1249H134.441V56.0045H136.682V54.8841H138.922V53.7637H141.163V52.6433H142.283V51.5229H144.524V50.4025H146.764V49.2821H149.004V48.1617H151.245V47.0412H153.485V45.9208H155.726V44.8004H157.966V43.68H159.087V42.5596H160.207V43.68H161.328V42.5596H162.448V41.4392H165.809V40.3188H168.049V39.1984H171.41V38.078H173.651V36.9576H174.771V38.078H175.892V36.9576H177.012V35.8372H180.373V34.7168H185.974V33.5964H187.095V32.476H188.215V33.5964H190.456V32.476H194.936V31.3556H200.538V30.2352H201.658V31.3556H202.779V30.2352H203.899V31.3556H205.02V30.2352H219.583V31.3556H226.304V32.476H230.785V33.5964H233.026V34.7168H234.146V35.8372H235.267V36.9576H236.387V41.4384H235.267V42.5588H227.425V41.4384H226.304V42.5588H215.102V43.6792H213.981V42.5588H212.861V43.6792H206.14V44.7996H201.659V45.92H198.298V47.0404H193.817V48.1608H190.456V49.2812H187.095V50.4016H183.734V51.522H181.494V52.6424H178.133V53.7628H175.892V54.8832H173.652V56.0036H170.291V57.124H168.051V58.2445H165.81V59.3649H163.57V60.4853H161.329V61.6057H160.209V62.7261H156.848V63.8465H155.728V64.9669H153.487V66.0873H152.367V67.2077H149.006V68.3281H147.885V69.4485H146.765V70.5689H144.524V71.6893H142.284V72.8097H141.164V73.9301H138.923V75.0505H137.803V76.1709H135.562V77.2913H134.442V78.4117H132.201V79.5321H131.081V80.6525H129.96V81.7729H127.72V82.8934H126.6V84.0138H124.359V85.1342H123.239V86.2546H122.118V87.375H119.878V89.6154H117.637V90.7358H116.517V91.8562H114.276V94.0965H112.036V95.217H110.916V96.3374H109.795V97.4578H108.675V98.5782H107.554V99.6986H106.434V100.819H105.313V101.939H104.193V103.06H101.953V105.3H100.832V106.421H99.7116V107.541H98.5912V108.661H97.4708V109.782H96.3503V110.902H95.2299V112.023H94.1095V114.263H91.869V116.503H90.7486V117.624H89.6281V118.744H88.5077V119.865H87.3873V122.105H86.2668V123.225H85.1464V124.346H84.026V126.586H82.9055V127.707H81.7851V128.827H80.6646V131.067H79.5442V132.188H78.4238V133.308H77.3033V135.549H76.1829V136.669H75.0625V138.909H73.942V140.03H72.8216V142.27H71.7011V144.511H70.5807V145.631H69.4603V146.751H68.3398V148.992H67.2194V151.232H66.099V153.472H64.9785V155.713H63.8581V156.833H62.7376V159.074H61.6172V161.314H60.4968V163.554H59.3763V164.675H58.2559V168.036H57.1355V170.276H56.015V172.516H54.8946V174.757H53.7742V178.118H52.6537V180.358H51.5333V182.598H50.4128V185.959H49.2924V188.199H48.172V192.68H47.0515V196.041H45.9311V198.281H44.8107V199.402H45.9311V200.522H44.8107V203.883H43.6902V205.003H44.8107V206.124H43.6902V210.605H42.5698V210.603ZM51.532 250.931V249.811H48.1711V247.57H47.0507V243.09H48.1711V241.969H53.7725V243.09H54.8929V244.21H56.0133V249.811H54.8929V250.931L51.532 250.931ZM57.1333 256.532H56.0129V258.773H53.7725V257.652H52.652V255.412H54.8925V254.291H56.0129V255.412H57.1333V256.532ZM238.615 52.6509V54.8913H237.495V56.0117H231.893V57.1321H224.052V58.2525H222.931V57.1321H221.811V58.2525H217.33V59.3729H213.969V60.4933H209.488V61.6137H206.127V62.7342H201.646V63.8546H199.406V64.975H196.045V66.0954H193.805V67.2158H190.444V68.3362H188.203V69.4566H185.963V70.577H183.722V71.6974H181.482V72.8178H179.241V73.9382H177.001V75.0586H174.76V76.179H172.52V77.2994H170.28V78.4198H168.039V79.5402H166.919V80.6606H164.678V81.781H162.438V82.9014H161.317V84.0218H159.077V85.1422H156.836V86.2627H155.716V87.3831H153.476V88.5035H152.355V89.6239H150.115V90.7443H148.994V91.8647H146.754V92.9851H145.633V94.1055H144.513V95.2259H142.272V96.3463H141.152V97.4667H140.032V98.5871H137.791V99.7075H136.671V100.828H135.55V101.948H133.31V103.069H132.189V104.189H129.949V106.43H127.709V107.55H126.588V108.67H125.468V109.791H124.347V110.911H123.227V112.032H120.986V114.272H119.866V115.392H117.625V117.633H115.385V119.873H113.145V122.113H112.024V123.234H110.904V124.354H109.783V125.475H108.663V126.595H107.542V127.716H106.422V129.956H105.301V131.076H104.181V132.197H103.061V133.317H101.94V134.438H100.82V136.678H99.6993V137.798H98.5789V138.919H97.4584V140.039H96.338V142.279H95.2176V143.4H94.0971V145.64H92.9767V146.761H91.8562V149.001H90.7358V150.121H89.6154V151.242H88.4949V153.482H87.3745V155.723H86.2541V156.843H85.1336V159.083H84.0132V160.204H82.8927V162.444H81.7723V164.685H80.6519V165.805H79.5314V166.925H78.411V170.286H77.2906V171.407H76.1701V173.647H75.0497V175.887H73.9293V178.128H72.8088V180.368H71.6884V182.609H70.5679V184.849H69.4475V187.089H68.3271V189.33H67.2066V192.69H66.0862V194.931H64.9658V198.292H63.8453V200.532H62.7249V205.013H61.6044V207.253H60.484V211.734H59.3636V216.215H58.2431V220.695H57.1227V221.816H58.2431V222.936H57.1227V226.297H56.0023V227.417H57.1227V228.538H56.0023V236.379H54.8818V238.62H53.7614V239.74H52.6409V238.62H51.5205V239.74H48.1596V238.62H45.9192V237.499H44.7987V235.259H43.6783V234.139H44.7987V233.018H43.6783V216.204H44.7987V209.483H45.9192V202.762H47.0396V199.401H48.1601V194.92H49.2805V191.559H50.4009V188.198H51.5214V185.958H52.6418V182.597H53.7622V180.357H54.8827V175.876H56.0031V174.755H57.1236V172.515H58.244V170.275H59.3644V168.034H60.4849V164.674H61.6053V163.553H62.7257V161.313H63.8462V159.072H64.9666V156.832H66.087V154.592H67.2075V153.471H68.3279V151.231H69.4484V148.99H70.5688V147.87H71.6892V145.63H72.8097V144.509H73.9301V142.269H75.0505V140.028H76.171V138.908H77.2914V137.788H78.4118V135.547H79.5323V133.307H80.6527V132.186H81.7732V129.946H84.0136V127.706H85.134V126.585H86.2545V124.345H87.3749V123.225H88.4954V122.104H89.6158V119.864H91.8562V117.623H92.9767V116.503H94.0971V115.383H95.2176V114.262H96.338V112.022H98.5784V109.781H99.6989V108.661H100.819V107.541H101.94V106.42H103.06V105.3H104.181V104.179H105.301V103.059H106.422V101.939H107.542V100.818H108.662V99.6977H110.903V98.5773H112.023V96.3369H114.264V95.2165H115.384V94.0961H116.505V92.9757H117.625V91.8553H119.865V90.7349H120.986V89.6145H122.106V88.4941H123.227V87.3737H124.347V86.2533H126.588V85.1329H127.708V84.0125H129.949V82.8921H131.069V81.7717H132.189V80.6513H134.43V79.5309H136.67V78.4105H137.791V77.2901H138.911V76.1696H141.152V75.0492H142.272V73.9288H144.513V72.8084H146.753V71.688H147.873V70.5676H150.114V69.4472H152.354V68.3268H153.475V67.2064H155.715V66.086H156.836V64.9656H159.076V63.8452H162.437V62.7248H163.557V61.6044H165.798V60.484H168.038V59.3636H170.279V58.2432H172.519V57.1228H175.88V56.0024H178.12V54.882H180.361V53.7616H183.722V52.6411H187.083V51.5207H189.323V50.4003H192.684V49.2799H197.165V48.1595H200.526V47.0391H205.007V45.9187H210.608V44.7983H211.729V45.9187H212.849V44.7983H220.691V43.6779H221.811V44.7983H222.932V43.6779H224.052V44.7983H225.172V43.6779H226.293V44.7983H227.413V43.6779H228.534V44.7983H231.895V43.6779H233.015V44.7983H236.376V45.9187H237.496V47.0391H238.617V49.2795H239.737V50.3999H238.617V51.5203H239.737V52.6407H238.615V52.6509ZM201.647 183.717H200.526V184.838H198.286V183.717H197.165V181.477H196.045V180.357H197.165V179.236H196.045V175.875H190.444V174.755H189.323V173.635H188.203V172.514H189.323V170.274H190.444V169.153H191.564V166.913H193.805V164.673H194.925V163.552H196.045V162.432H197.166V160.191H199.406V157.951H200.527V156.831H201.647V154.59H202.768V153.47H203.888V151.23H205.008V150.109H206.129V147.869H207.249V146.748H208.37V145.628H209.49V143.388H210.611V141.147H211.731V140.027H212.851V138.906H213.972V136.666H215.092V134.426H216.213V132.185H217.333V131.065H218.454V128.824H219.574V126.584H220.695V124.344H221.815V123.223H222.935V119.862H224.056V118.742H225.176V115.381H227.417V110.9H228.537V108.66H229.658V106.42H230.778V103.059H231.899V100.819H233.019V97.4578H234.139V95.2174H235.26V90.7366H236.38V87.3758H237.501V82.8951H238.621V78.4143H239.742V73.9335H240.862V72.8131H239.742V71.6927H240.862V64.9715H241.982V63.8512H240.862V61.6108H241.982V59.3704H244.223V58.25H245.343V59.3704H246.464V58.25H248.704V59.3704H250.945V60.4908H252.065V61.6112H253.186V62.7316H252.065V63.852H253.186V82.8959H252.065V84.0163H253.186V85.1367H252.065V90.7379H250.945V96.3391H249.824V99.6999H248.704V104.181H247.583V107.541H246.463V110.902H245.342V113.143H244.222V116.503H243.102V118.744H241.981V120.984H240.861V124.345H239.74V126.585H238.62V128.826H237.499V131.066H236.379V133.306H235.259V135.547H234.138V137.787H233.018V140.028H231.897V141.148H230.777V143.388H229.656V145.629H228.536V147.869H227.415V148.99H226.295V151.23H225.175V152.35H224.054V154.591H222.934V156.831H221.813V157.952H220.693V159.072H219.572V161.312H218.452V162.433H217.332V164.673H216.211V165.794H215.091V168.034H213.97V169.154H212.85V170.275H211.729V172.515H210.609V173.635H209.488V174.756H208.368V176.996H207.248V178.117H206.127V179.237H205.007V180.357H203.886V181.478H202.766V182.598H201.645V183.717H201.647ZM216.21 196.04V198.281H211.729V197.16H210.609V191.559H209.488V189.319H203.887V188.198H202.766V184.837H203.887V183.717H205.007V182.597H206.128V180.356H207.248V179.236H208.368V178.115H209.489V176.995H210.609V174.755H212.85V172.514H213.97V170.274H215.091V169.153H216.211V168.033H217.332V165.793H218.452V164.672H219.572V162.432H220.693V161.311H221.813V159.071H222.934V157.951H224.054V156.83H225.175V155.71H226.295V152.349H227.415V151.229H228.536V148.988H229.656V147.868H230.777V145.628H231.897V143.387H233.018V141.147H234.138V140.026H235.259V137.786H236.379V135.546H237.499V133.305H238.62V131.065H239.74V128.824H240.861V126.584H241.981V124.344H243.102V120.983H244.222V118.742H245.342V115.382H246.463V113.141H247.583V109.781H248.704V107.54H249.824V103.059H250.945V98.5786H252.065V95.2178H253.186V89.6166H254.306V81.7751H255.426V61.6112H261.028V62.7316H263.268V66.0924H264.389V68.3328H265.509V72.8135H266.629V79.5347H267.75V80.6551H266.629V81.7755H267.75V82.8959H266.629V84.0163H267.75V87.3771H266.629V88.4975H267.75V90.7379H266.629V91.8583H267.75V92.9787H266.629V100.82H265.509V107.541H264.389V110.902H263.268V112.023H264.389V113.143H263.268V115.383H262.148V118.744H261.027V122.105H259.907V125.466H258.786V128.827H257.666V131.067H256.546V134.428H255.425V136.668H254.305V138.908H253.184V141.149H252.064V143.389H250.943V145.63H249.823V147.87H248.703V151.231H247.582V152.351H246.462V154.592H245.341V156.832H244.221V157.952H243.1V160.193H241.98V162.433H240.859V163.554H239.739V165.794H238.619V168.034H237.498V169.155H236.378V171.395H235.257V172.516H234.137V174.756H233.016V175.876H231.896V176.997H230.776V179.237H229.655V180.357H228.535V182.598H226.294V184.838H225.174V187.079H224.053V188.199H222.933V189.319H221.812V190.44H220.692V192.68H219.572V193.801H218.451V194.921H217.331V196.041H216.21V196.04ZM295.748 113.143H294.628V114.264H295.748V115.384H294.628V117.625H295.748V119.865H294.628V128.827H293.507V133.308H292.387V138.909H291.266V143.39H290.146V146.75H289.025V150.111H287.905V152.352H286.785V155.712H285.664V159.073H284.544V162.434H283.423V164.674H282.303V166.915H281.182V169.155H280.062V171.396H278.942V173.636H277.821V175.876H276.701V178.117H275.58V180.357H274.46V181.477H273.339V183.718H272.219V185.958H271.098V188.199H269.978V189.319H268.858V191.559H267.737V193.8H266.617V194.92H265.496V196.041H264.376V198.281H263.255V200.521H262.135V201.642H261.015V203.882H259.894V205.003H258.774V206.123H257.653V208.363H256.533V209.484H255.412V211.724H254.292V212.845H253.171V213.965H252.051V216.205H250.931V217.326H249.81V218.446H248.69V220.687H247.569V221.807H245.329V224.047H244.208V225.168H243.088V226.288H239.727V224.048H238.607V222.927H237.486V220.687H238.607V219.567H237.486V217.326H231.885V216.206H230.764V212.845H231.885V211.725H233.005V209.484H234.126V208.364H235.246V207.243H236.367V206.123H237.487V203.883H238.607V202.762H239.728V201.642H240.848V199.401H243.089V196.041H241.968V197.161H240.848V198.281H239.728V199.402H238.607V200.522H237.487V202.763H236.366V203.883H235.246V205.003H234.125V207.244H233.005V208.364H231.884V209.485H230.764V210.605H229.644V211.725H228.523V212.846H227.403V211.725H225.162V210.605H224.042V209.485H225.162V208.364H224.042V203.883H218.44V202.763H217.32V198.282H218.44V197.162H219.561V194.921H220.681V193.801H221.802V192.681H222.922V190.44H224.043V189.32H225.163V188.199H227.404V184.839H228.524V183.718H229.644V182.598H230.765V180.357H231.885V179.237H233.006V178.117H234.126V175.876H235.247V174.756H236.367V172.516H237.487V171.395H238.608V169.155H239.728V168.034H240.849V165.794H241.969V163.554H243.09V162.433H244.21V160.193H245.331V157.952H246.451V156.832H247.571V154.592H248.692V152.351H249.812V151.231H250.933V147.87H252.053V145.63H253.174V143.389H254.294V141.149H255.414V140.028H256.535V135.548H257.655V133.307H258.776V132.187H259.896V127.706H261.017V124.345H262.137V120.985H263.258V117.624H264.378V115.383H265.498V110.903H266.619V107.542H267.739V106.421H266.619V104.181H267.739V98.5799H268.86V89.6179H269.98V88.4975H268.86V86.2571H269.98V85.1367H268.86V82.8963H269.98V81.7759H268.86V76.1748H267.739V75.0543H268.86V72.814H267.739V68.3332H268.86V67.2128H272.221V69.4532H273.341V70.5736H274.461V71.694H275.582V75.0548H276.702V77.2952H277.823V80.6559H278.943V84.0167H280.064V90.7379H281.184V100.82H282.305V101.94H281.184V109.782H280.064V110.902H281.184V112.023H280.064V117.624H278.943V122.105H277.823V128.826H276.702V131.066H275.582V134.427H274.461V137.788H273.341V141.148H272.221V143.389H271.1V146.75H269.98V148.99H268.859V151.23H267.739V154.591H266.618V156.832H265.498V159.072H264.378V161.312H263.257V162.433H262.137V164.673H261.016V168.034H259.896V169.154H258.775V171.395H257.655V173.635H256.534V174.755H255.414V176.996H254.294V179.236H253.173V180.357H252.053V182.597H250.932V183.717H249.812V185.958H248.691V187.078H247.571V189.319H246.451V190.439H245.33V191.559H244.21V193.8H243.089V196.04H245.33V193.8H246.45V192.679H247.571V190.439H248.691V189.319H249.811V187.078H250.932V185.958H252.052V184.837H253.173V182.597H254.293V180.357H255.414V179.236H256.534V176.996H257.655V174.755H258.775V173.635H259.895V171.395H261.016V169.154H262.136V166.914H263.257V164.674H264.377V162.433H265.498V161.313H266.618V159.072H267.738V155.712H268.859V154.591H269.979V151.23H271.1V148.99H272.22V146.75H273.341V143.389H274.461V140.028H275.581V136.667H276.702V134.427H277.822V131.066H278.943V126.585H280.063V120.984H281.184V116.504H282.304V108.663H283.425V107.542H282.304V106.422H283.425V97.4599H282.304V96.3395H283.425V94.0991H282.304V92.9787H283.425V91.8583H282.304V85.1371H281.184V81.7764H282.304V79.536H284.545V80.6564H285.665V81.7768H286.785V84.0172H287.906V85.1376H289.026V87.378H290.147V89.6183H291.267V92.9791H292.388V96.3399H293.508V101.941H294.628V110.903H295.749V113.143H295.748Z" fill="url(#paint0_radial_941_3883)"/>
    </g>
    <defs>
        <radialGradient id="paint0_radial_941_3883" cx="0" cy="0" r="1" gradientTransform="matrix(133.508 -193.544 233.131 -14.73 222.613 147.48)" gradientUnits="userSpaceOnUse">
            <stop offset="0.0721154" stop-color="#500CBE"/>
            <stop offset="0.3125" stop-color="#FFF67A"/>
            <stop offset="0.625" stop-color="#7AFFF6"/>
            <stop offset="0.918269" stop-color="#0F5EF7"/>
        </radialGradient>
    </defs>
</svg>
