<svg width="100" height="100" viewBox="0 0 100 100" fill="none" xmlns="http://www.w3.org/2000/svg">
    <path d="M41.0072 100H23.741C10.6315 100 0 89.3686 0 76.2591V58.9929H8.71304V76.2591C8.71304 84.4925 15.4277 91.2071 23.6611 91.2071H40.9273V100H41.0072Z" fill="#00020C"/>
    <path d="M76.259 100H58.9928V91.2871H76.259C84.4924 91.2871 91.207 84.5725 91.207 76.3391V58.9929H99.92V76.2591C99.9999 89.2887 89.2885 100 76.259 100Z" fill="#00020C"/>
    <path d="M100 41.0071H91.287V23.7409C91.287 15.5075 84.5723 8.79288 76.3389 8.79288H58.9928V0.079834H76.259C89.3685 0.079834 100 10.7113 100 23.8209V41.0071Z" fill="#00020C"/>
    <path d="M8.79302 41.0072H0.0800781V23.741C0.0800781 10.6315 10.7115 0 23.821 0H41.0872V8.713H23.821C15.5876 8.713 8.87304 15.4276 8.87304 23.6611V41.0072H8.79302Z" fill="#00020C"/>
</svg>
