<svg width="159" height="50" viewBox="0 0 159 50" fill="none" xmlns="http://www.w3.org/2000/svg">
    <g clip-path="url(#clip0_860_12519)">
        <path d="M75.839 19.7432C75.8029 21.6766 74.9634 23.917 73.2484 25.813C70.4739 28.8803 65.8404 29.078 62.8643 26.2206C60.5878 24.035 59.6624 21.3102 59.9111 18.191C60.099 15.8336 61.0373 13.7971 62.7239 12.1252C64.8821 9.98589 67.9491 9.35221 70.631 10.5123C72.4604 11.3036 73.7451 12.6854 74.6664 14.42C75.4464 15.8884 75.8504 17.4587 75.839 19.7432ZM61.0803 18.922C61.0964 20.1355 61.2319 21.1268 61.5763 22.0778C62.2408 23.9128 63.3195 25.4309 65.0725 26.3673C67.5457 27.6886 70.5886 27.062 72.4758 24.8782C73.8245 23.3176 74.5085 21.4851 74.5797 19.4405C74.6638 17.0297 73.9517 14.8774 72.2681 13.1099C69.7535 10.4701 65.9121 10.4694 63.42 13.1096C61.8324 14.7914 61.1316 16.8369 61.0803 18.922Z" fill="#F8FAFF" fill-opacity="0.8"/>
        <path d="M146.244 19.4904C146.244 19.6311 146.244 19.7557 146.244 19.8802C146.244 22.5096 146.24 25.1389 146.25 27.7682C146.252 28.0474 146.18 28.1453 145.897 28.1208C145.617 28.0964 145.332 28.1155 145.029 28.1155V10.0938H146.233V18.2847H157.008V10.097H158.215V28.0947H157.021V19.4904H146.244Z" fill="#F8FAFF" fill-opacity="0.8"/>
        <path d="M123.217 18.3113V19.449C121.769 19.449 120.337 19.449 118.904 19.449C117.47 19.449 116.037 19.449 114.581 19.449V26.9256H124.703C124.703 27.2944 124.708 27.6384 124.696 27.9818C124.695 28.0267 124.612 28.0846 124.555 28.1073C124.5 28.1292 124.43 28.1143 124.367 28.1143C120.799 28.1145 117.231 28.1144 113.662 28.1144H113.355V10.0996H124.463V11.2386H114.583V18.3113H123.217Z" fill="#F8FAFF" fill-opacity="0.8"/>
        <path d="M92.751 28.261H91.3736L85.768 20.3748L80.1721 28.261C80.1721 28.261 79.1316 28.2611 78.7398 28.2611C79.1294 27.7121 85.0701 19.3958 85.0701 19.3958L78.5604 10.2704L79.9424 10.2679L85.7595 18.4216L91.54 10.2679L92.9244 10.2676C92.5056 10.8563 86.4272 19.3801 86.4272 19.3801L92.751 28.261Z" fill="#F8FAFF" fill-opacity="0.8"/>
        <path d="M140.582 23.5499C140.919 23.7206 141.245 23.886 141.654 24.0934C141.36 24.5625 141.119 25.0434 140.79 25.4527C139.503 27.0505 137.8 27.9373 135.785 28.1907C132.724 28.5754 130.417 27.2528 128.742 24.8062C126.649 21.7491 126.278 18.44 127.712 15.0002C128.577 12.9264 130.007 11.3282 132.134 10.4934C134.65 9.50616 138.028 9.74193 140.21 12.2941C140.436 12.5577 140.638 12.8431 140.83 13.1324C140.986 13.368 141.111 13.6245 141.266 13.8996C140.925 14.1073 140.604 14.3028 140.26 14.5128C140.184 14.3784 140.113 14.252 140.04 14.1265C138.781 11.9477 136.827 11.0468 134.393 11.1966C131.632 11.3665 129.876 13.0099 128.859 15.4345C127.513 18.6434 127.886 21.7277 129.989 24.5173C131.257 26.1991 132.973 27.1646 135.139 27.0505C137.497 26.9261 139.33 25.8907 140.451 23.7435C140.47 23.7061 140.489 23.6683 140.511 23.6322C140.521 23.6147 140.538 23.6006 140.582 23.5499Z" fill="#F8FAFF" fill-opacity="0.8"/>
        <path d="M110.296 10.0996V11.2407H104.081V28.0875H102.846V11.261H96.6127V10.0996H110.296Z" fill="#F8FAFF" fill-opacity="0.8"/>
        <path d="M138.69 36.6108C138.34 37.4283 137.553 39.2636 137.553 39.2636L137.054 39.2635L134.771 33.8562L135.283 33.8457C135.283 33.8457 137.259 38.507 137.325 38.652C137.573 38.0705 138.351 36.1745 138.351 36.1745L137.414 33.9121H137.894L138.691 35.7882L139.493 33.9129L139.974 33.9131L139.041 36.1709C139.041 36.1709 139.793 37.9838 140.083 38.6679C140.398 37.9043 142.124 33.8458 142.124 33.8458L142.639 33.8483L140.352 39.2635L139.829 39.2636C139.829 39.2636 138.738 36.7098 138.69 36.6108Z" fill="#F8FAFF" fill-opacity="0.8"/>
        <path d="M67.9742 38.3736V33.8457H68.5026V39.263L67.977 39.263C67.977 39.263 65.7512 36.4415 64.7295 35.1519C64.6665 35.0724 64.5981 34.9971 64.4796 34.8581V39.2684H63.9361V33.8484L64.3992 33.8481C64.3992 33.8481 67.8574 38.2332 67.9742 38.3736Z" fill="#F8FAFF" fill-opacity="0.8"/>
        <path d="M74.3774 38.3736V33.8457H74.9059V39.263L74.3802 39.263C74.3802 39.263 72.1545 36.4415 71.1327 35.1519C71.0697 35.0724 71.0014 34.9971 70.8829 34.8581V39.2684H70.3394V33.8484L70.8024 33.8481C70.8024 33.8481 74.2607 38.2332 74.3774 38.3736Z" fill="#F8FAFF" fill-opacity="0.8"/>
        <path d="M149.076 33.8457L151.652 33.848C152.284 33.8838 152.867 34.5559 152.978 35.2465C153.099 36.0045 152.765 36.739 152.155 37.052C152.053 37.1041 151.946 37.1459 151.803 37.2095L153.117 39.263L152.544 39.2632L151.275 37.2776L149.607 37.2681V39.2808H149.076V33.8457ZM149.622 34.289V36.8031C150.208 36.8031 150.774 36.8105 151.341 36.8012C151.98 36.7907 152.442 36.2896 152.466 35.5991C152.489 34.9264 152.013 34.3229 151.395 34.2947C150.818 34.2683 150.238 34.289 149.622 34.289Z" fill="#F8FAFF" fill-opacity="0.8"/>
        <path d="M121.145 33.7676C122.05 33.7828 122.704 34.1766 123.198 34.8534C123.986 35.9322 123.932 37.4206 123.079 38.4296C122.039 39.6595 120.278 39.6491 119.255 38.4069C117.901 36.7611 118.756 34.1864 120.784 33.8068C120.918 33.7818 121.056 33.7769 121.145 33.7676ZM119.14 36.6407C119.157 36.7584 119.165 36.9834 119.224 37.1938C119.448 37.9825 119.893 38.5879 120.725 38.7941C121.436 38.97 122.067 38.7823 122.568 38.2391C123.315 37.4296 123.425 36.1812 122.845 35.2429C122.207 34.2086 120.903 33.9403 120.005 34.676C119.425 35.1519 119.157 35.7891 119.14 36.6407Z" fill="#F8FAFF" fill-opacity="0.8"/>
        <path d="M76.3509 36.5563C76.3895 34.9692 77.5907 33.7068 79.0674 33.7783C80.0808 33.8274 80.7689 34.3903 81.2106 35.2715C81.7432 36.3339 81.5816 37.6009 80.8213 38.4653C79.4955 39.9725 77.1933 39.468 76.5327 37.5169C76.4294 37.2117 76.3509 36.9483 76.3509 36.5563ZM80.9902 36.4153C80.9902 36.1734 80.8981 35.8635 80.76 35.5413C80.4642 34.8516 79.9555 34.3779 79.1813 34.2846C78.4111 34.1917 77.7943 34.4884 77.3571 35.1247C76.8702 35.8332 76.7714 36.6096 77.0586 37.4167C77.4773 38.5931 78.6394 39.1779 79.6792 38.7021C80.5625 38.2979 80.9338 37.53 80.9902 36.4153Z" fill="#F8FAFF" fill-opacity="0.8"/>
        <path d="M106.846 36.7244V38.8188H109.957V39.2743H106.312V33.832H109.885V34.2743H106.855V36.2548H109.501V36.7244H106.846Z" fill="#F8FAFF" fill-opacity="0.8"/>
        <path d="M117.052 34.8266C116.494 34.3117 115.846 34.199 115.15 34.2795C114.779 34.3224 114.451 34.4534 114.262 34.803C113.99 35.3037 114.174 35.8524 114.713 36.0472C115.138 36.2003 115.586 36.2865 116.021 36.4087C116.244 36.4711 116.468 36.5349 116.683 36.6198C117.309 36.8672 117.575 37.2418 117.578 37.8567C117.581 38.4846 117.279 38.9247 116.676 39.1718C115.678 39.5807 114.205 39.3002 113.407 38.5398C113.485 38.4097 113.564 38.2764 113.658 38.1205C114.326 38.7163 115.095 38.9395 115.951 38.8408C116.166 38.8161 116.391 38.7557 116.579 38.6528C117.16 38.3346 117.179 37.5225 116.597 37.2077C116.26 37.0253 115.871 36.9353 115.501 36.8176C115.16 36.7092 114.808 36.6339 114.47 36.5182C113.961 36.344 113.617 36.0149 113.593 35.4423C113.57 34.8608 113.777 34.3883 114.293 34.0841C115.186 33.5586 116.502 33.6993 117.297 34.4182C117.222 34.5432 117.144 34.6732 117.052 34.8266Z" fill="#F8FAFF" fill-opacity="0.8"/>
        <path d="M154.571 33.832H158.143V34.2661H155.105V36.254H157.752V36.7253H155.099V38.8156H158.217V39.2742H154.571V33.832Z" fill="#F8FAFF" fill-opacity="0.8"/>
        <path d="M92.4035 39.263H91.8518L91.1424 37.574L88.6737 37.5733L87.955 39.263L87.4064 39.2629L89.6709 33.8457L90.162 33.8457L92.4035 39.263ZM91.011 37.1433C90.6441 36.2427 90.2917 35.3778 89.9126 34.4473C89.5263 35.3834 89.1686 36.2502 88.8 37.1433H91.011Z" fill="#F8FAFF" fill-opacity="0.8"/>
        <path d="M87.2037 33.8531C87.0413 34.2466 84.9742 39.263 84.9742 39.263L84.4391 39.2631C84.4391 39.2631 82.2186 33.9155 82.1947 33.8456L82.7176 33.8418C82.7176 33.8418 84.6312 38.4408 84.7058 38.6114C85.0023 37.8846 86.3455 34.6227 86.6623 33.842L87.2037 33.8531Z" fill="#F8FAFF" fill-opacity="0.8"/>
        <path d="M105.064 33.8531C104.902 34.2466 102.835 39.263 102.835 39.263L102.3 39.2631C102.3 39.2631 100.079 33.9155 100.055 33.8456L100.578 33.8418C100.578 33.8418 102.492 38.4408 102.566 38.6114C102.863 37.8846 104.206 34.6227 104.523 33.842L105.064 33.8531Z" fill="#F8FAFF" fill-opacity="0.8"/>
        <path d="M125.223 33.834H128.793V34.2774H125.767V36.295H128.314V36.7449H125.745V39.2816H125.223V33.834Z" fill="#F8FAFF" fill-opacity="0.8"/>
        <path d="M95.065 39.2807H94.5257V34.298H92.5722V33.8418H96.9841V34.2867H95.065V39.2807Z" fill="#F8FAFF" fill-opacity="0.8"/>
        <path d="M131.591 34.2823H129.645V33.8438H134.076V34.2797H132.14V39.2694H131.591V34.2823Z" fill="#F8FAFF" fill-opacity="0.8"/>
        <path d="M61.5945 33.8359H62.0939V39.275H61.5945V33.8359Z" fill="#F8FAFF" fill-opacity="0.8"/>
        <path d="M98.2791 33.834H98.7864V39.2733H98.2791V33.834Z" fill="#F8FAFF" fill-opacity="0.8"/>
        <path d="M147.816 39.2747H147.264L146.555 37.5857L144.086 37.585L143.367 39.2747L142.819 39.2746L145.083 33.8574L145.574 33.8574L147.816 39.2747ZM146.423 37.155C146.056 36.2544 145.704 35.3895 145.325 34.459C144.939 35.3951 144.581 36.262 144.212 37.155H146.423Z" fill="#F8FAFF" fill-opacity="0.8"/>
        <path d="M8.39233e-05 23.0022C0.059539 22.4706 0.111322 21.938 0.179688 21.4075C0.642655 17.8153 1.86261 14.4986 3.82259 11.4552C5.59837 8.69788 7.84308 6.38979 10.5212 4.50069C10.5894 4.45254 10.6618 4.41025 10.7572 4.34932C19.8407 16.6606 28.9197 28.9657 38.0196 41.299C38.2093 41.1712 38.362 41.0837 38.4975 40.9747C42.8123 37.5055 45.5456 33.077 46.3614 27.5818C47.344 20.9636 45.4969 15.1444 41.0054 10.2104C37.6421 6.51575 33.4147 4.32994 28.4902 3.54535C23.8768 2.81034 19.457 3.50061 15.2571 5.55525C14.7844 5.78651 14.3287 6.05264 13.8283 6.32247C13.6486 6.07554 13.4665 5.82525 13.2553 5.53505C13.8311 5.22611 14.3676 4.91663 14.9224 4.64428C17.3096 3.47235 19.8219 2.71403 22.4686 2.42885C26.6848 1.97454 30.7379 2.59333 34.591 4.37551C39.0712 6.44773 42.5032 9.66716 44.9032 13.9783C46.2104 16.3263 47.0363 18.8492 47.3654 21.5095C48.037 26.938 46.9235 31.9757 43.8879 36.5551C42.5831 38.5234 40.9827 40.2234 39.1373 41.6944C39.0053 41.7996 38.8779 41.9106 38.7504 42.0212C38.7197 42.0479 38.6973 42.0841 38.6431 42.1498C38.8437 42.4142 39.0341 42.6914 39.2584 42.9378C39.3015 42.9851 39.5128 42.9512 39.5874 42.8866C40.4241 42.1612 41.298 41.47 42.0686 40.6786C44.7339 37.9412 46.6687 34.7474 47.7062 31.0636C49.6513 24.1572 48.7146 17.6414 44.689 11.6875C40.8249 5.97255 35.3803 2.60229 28.5759 1.52929C23.8231 0.779827 19.2211 1.43412 14.8318 3.44028C14.1617 3.74658 13.1703 4.24853 12.521 4.59828L12.3284 4.32196C12.1993 4.09464 12.0362 3.88663 11.8601 3.62911C12.1425 3.46411 12.399 3.30496 12.6637 3.16104C15.0891 1.8425 17.6483 0.891976 20.3723 0.42026C21.2958 0.260332 22.2275 0.12259 23.1636 0.0608709C25.8674 -0.117376 27.2461 0.121749 27.8193 0.187444C32.875 0.766821 37.3486 2.70079 41.2303 5.98827C43.733 8.10791 45.7369 10.6349 47.2176 13.5618C48.8746 16.837 49.775 20.3046 49.8401 23.9905C49.905 27.657 49.2435 31.166 47.7188 34.5049C46.1054 38.0382 43.8151 41.0505 40.781 43.4868C40.3121 43.8633 39.8396 44.2354 39.3681 44.6086C39.3358 44.6342 39.2974 44.652 39.2093 44.7051C34.3228 38.1042 29.4379 31.5054 24.5051 24.8419C24.2248 25.2245 23.9983 25.5121 23.8034 25.8196C23.768 25.8754 23.8401 26.0289 23.8993 26.1108C25.019 27.6578 26.1441 29.2008 27.2682 30.7446C29.0818 33.2351 30.8955 35.7255 32.709 38.2161C32.7457 38.2666 32.7797 38.3189 32.8396 38.4062C32.5851 38.5808 32.3393 38.7494 32.0659 38.9368C29.6242 35.588 27.2028 32.2671 24.7543 28.909C24.1579 29.7241 23.5991 30.4889 23.0391 31.2527C21.9602 32.7242 20.881 34.1955 19.8007 35.666C19.7196 35.7765 19.6329 35.8833 19.543 35.9867C19.3177 36.246 19.1222 36.2891 18.922 36.129C18.6975 35.9495 18.6711 35.7363 18.86 35.4663C19.4344 34.6452 20.0098 33.8247 20.593 33.0099C21.7043 31.4576 22.8178 29.9069 23.9403 28.3627C24.0805 28.1698 24.0998 28.0222 23.9584 27.8301C23.7042 27.4849 23.4649 27.1287 23.1875 26.7315C22.9613 27.0312 22.7696 27.2778 22.5858 27.5301C21.6414 28.8258 20.6995 30.1234 19.7552 31.4191C19.6746 31.5297 19.5777 31.6284 19.4966 31.7388C19.3417 31.9495 19.1511 31.9668 18.9431 31.8383C18.7219 31.7016 18.6595 31.4601 18.8078 31.2344C19.1437 30.7235 19.4912 30.2199 19.8426 29.7194C20.667 28.5453 21.4905 27.3705 22.3291 26.2066C22.4894 25.9842 22.5055 25.8347 22.3375 25.6028C19.0505 21.0662 15.7726 16.523 12.4933 11.9808C12.4143 11.8713 12.3419 11.7571 12.2405 11.6068C12.4963 11.4413 12.7305 11.2897 12.9942 11.1191C16.3791 15.7544 19.7426 20.3604 23.1612 25.0417C23.3999 24.6935 23.6182 24.4162 23.7815 24.1095C23.8243 24.0292 23.7222 23.8392 23.6433 23.7313C22.1864 21.7379 20.7292 19.7449 19.2596 17.7609C16.873 14.539 14.4775 11.3237 12.0852 8.10601C12.0045 7.99752 11.9176 7.89365 11.7998 7.74489C11.4761 7.99638 11.1586 8.21951 10.8674 8.47287C7.13274 11.7219 4.69529 15.754 3.82959 20.6341C2.68684 27.076 4.23487 32.8754 8.42516 37.9021C11.8515 42.0123 16.2858 44.4546 21.5551 45.3001C26.6218 46.113 31.4223 45.2479 35.9067 42.7209C35.9702 42.6851 36.0683 42.6465 36.1351 42.6125C36.1676 42.6295 36.1882 42.6659 36.1882 42.6659L36.6262 43.414C36.6262 43.414 36.3365 43.5902 36.0087 43.7693C33.9304 44.9045 31.7329 45.7158 29.4039 46.152C24.6633 47.0398 20.0703 46.5478 15.6728 44.555C10.6229 42.2665 6.89714 38.5922 4.53663 33.5759C3.09031 30.5023 2.43313 27.2448 2.5472 23.8407C2.75961 17.5021 5.29171 12.2487 9.95935 7.99584C10.3411 7.64797 10.738 7.31669 11.1262 6.97569C11.1561 6.94936 11.172 6.907 11.207 6.85256C10.9944 6.57081 10.7798 6.28639 10.5337 5.9602C9.98809 6.42356 9.45645 6.85373 8.94823 7.31C5.01498 10.8412 2.50841 15.1996 1.56676 20.3992C0.485981 26.3671 1.58566 31.9459 4.88184 37.0501C7.29041 40.7798 10.5162 43.6164 14.53 45.5219C17.7351 47.0435 21.1115 47.8339 24.6773 47.8525C29.1295 47.8759 33.2764 46.8097 37.1142 44.555C37.3922 44.3917 37.5081 44.3518 37.5081 44.3518C37.6334 44.569 38.0008 45.0954 38.1762 45.347C37.8483 45.544 37.5506 45.7365 37.2408 45.9069C34.5453 47.3893 31.6864 48.3963 28.6357 48.8299C23.752 49.5239 19.0366 48.9193 14.5414 46.8747C9.09696 44.3983 5.03046 40.4662 2.39233 35.0894C1.05963 32.3732 0.270236 29.4985 0.0531177 26.4736C0.0473105 26.3926 0.0182825 26.3134 8.39233e-05 26.2334C8.39233e-05 25.1563 8.39233e-05 24.0792 8.39233e-05 23.0022Z" fill="#F8FAFF" fill-opacity="0.8"/>
        <path d="M26.6147 21.7172C26.9031 22.1094 27.1889 22.4981 27.5089 22.9333C27.8778 22.4006 28.2204 21.9125 28.556 21.4196C29.3514 20.2513 30.1428 19.0804 30.9373 17.9116C31.1163 17.6482 31.3746 17.5829 31.6079 17.735C31.8384 17.8853 31.8752 18.1006 31.6848 18.3902C30.5785 20.0734 29.4728 21.7571 28.3486 23.4284C28.1843 23.6727 28.1871 23.8238 28.3571 24.0578C31.5993 28.5217 34.8326 32.992 38.0677 37.4611C38.1041 37.5114 38.1392 37.5626 38.1955 37.6426C37.9503 37.8155 37.7124 37.9832 37.4332 38.1801C30.8171 29.086 24.21 20.0043 17.573 10.8815C17.8425 10.6921 18.0691 10.5329 18.3327 10.3477C20.8938 13.8478 23.4331 17.3181 26.006 20.8344C26.4214 20.2583 26.8132 19.726 27.1934 19.1856C28.3342 17.5637 29.4692 15.9378 30.6104 14.3162C30.7435 14.1271 30.8974 13.952 31.0481 13.776C31.203 13.5951 31.3667 13.4605 31.6072 13.6674C31.8331 13.8618 31.8719 14.0663 31.6944 14.3328C31.3613 14.833 31.0261 15.332 30.6841 15.8262C29.3642 17.7344 28.0412 19.6403 26.7198 21.5474C26.6845 21.5983 26.6544 21.6528 26.6147 21.7172Z" fill="#F8FAFF" fill-opacity="0.8"/>
    </g>
    <defs>
        <clipPath id="clip0_860_12519">
            <rect width="158.218" height="49.1021" fill="white"/>
        </clipPath>
    </defs>
</svg>
