<svg width="160" height="55" viewBox="0 0 160 55" fill="none" xmlns="http://www.w3.org/2000/svg">
    <g clip-path="url(#clip0_860_12491)">
        <path d="M37.0769 31.1795C39.5347 28.8768 41.064 25.6422 41.064 22.0598C41.064 17.4573 38.5395 13.4284 34.7648 11.2131L19.7341 1.82143C17.0843 0.260438 13.8157 -0.405924 10.3709 0.252416C4.31113 1.41042 0.00140381 6.67792 0.00140381 12.6876V34.7124C0.00140381 35.0154 0.333067 35.2086 0.607629 35.0664L9.47363 30.4604C9.74221 30.321 9.9098 30.0488 9.9098 29.7525V12.6575C9.9098 11.8858 10.2124 11.1142 10.8174 10.5254C11.9101 9.46211 13.5694 9.37687 14.8791 10.1919L36.4844 23.7317L36.4847 23.7313C37.7698 24.6045 38.6105 26.0544 38.6105 27.6953C38.6102 29.0663 38.0197 30.3001 37.0769 31.1795Z" fill="#F8FAFF" fill-opacity="0.8"/>
        <path d="M29.7351 19.5034L29.5115 19.3633C29.5463 19.3824 29.6266 19.4291 29.7351 19.5034Z" fill="#F8FAFF" fill-opacity="0.8"/>
        <path d="M38.6108 27.6947C38.6108 29.0677 38.0204 30.3007 37.0761 31.1793C36.2643 31.939 35.3527 32.599 34.3607 33.1338L11.5651 44.9692C11.5564 44.9734 11.5477 44.9777 11.539 44.984C11.5282 44.9904 11.5173 44.9968 11.5065 45.001C11.4956 45.0053 11.4852 45.0123 11.4739 45.018C4.99544 48.2596 1.92947 53.0345 0.274384 54.5583C0.146216 52.1054 0.00012207 47.6452 0.00012207 47.6452C0.00012207 42.8725 2.71554 38.7151 6.72465 36.559L29.453 24.7512C29.453 24.7512 29.6549 24.6515 29.9175 24.4456C29.9653 24.4095 30.0152 24.3671 30.0673 24.3225C30.1194 24.278 30.1736 24.2292 30.2236 24.1782C30.6837 23.7326 31.1721 23.0153 31.1547 22.0009C31.133 20.6554 30.2084 19.8384 29.7504 19.5137L36.4836 23.7326C37.7686 24.6048 38.6108 26.0542 38.6108 27.6947Z" fill="#F8FAFF" fill-opacity="0.8"/>
        <path d="M11.0061 10.3555C10.9422 10.4096 10.8783 10.4658 10.8165 10.526C10.2105 11.1137 9.90949 11.886 9.90949 12.6583V29.7532C9.90949 30.0495 9.74171 30.3215 9.47313 30.4611L0.656803 35.04C0.393165 35.177 0.0872706 34.9498 0.151789 34.6658C1.56398 28.4518 8.0826 12.4903 11.0061 10.3555Z" fill="#F8FAFF" fill-opacity="0.8"/>
        <path d="M29.7351 19.5034L29.5115 19.3633C29.5463 19.3824 29.6266 19.4291 29.7351 19.5034Z" fill="#F8FAFF" fill-opacity="0.8"/>
        <path d="M38.6108 27.6947C38.6108 29.0677 38.0204 30.3007 37.0761 31.1793C36.2643 31.939 35.3527 32.599 34.3607 33.1338L11.5651 44.9692C11.5564 44.9734 11.5477 44.9777 11.539 44.984C11.5282 44.9904 11.5173 44.9968 11.5065 45.001C11.4956 45.0053 11.4852 45.0123 11.4739 45.018C5.23963 48.1447 2.20079 52.7073 0.274384 54.5583C0.101103 51.9758 0.00012207 47.6452 0.00012207 47.6452C0.00012207 42.8725 2.71554 38.7151 6.72465 36.559L29.453 24.7512C29.453 24.7512 29.6549 24.6515 29.9175 24.4456C29.9653 24.4074 30.0152 24.3671 30.0673 24.3225C30.1194 24.278 30.1715 24.2292 30.2236 24.1782C30.6837 23.7326 31.1721 23.0153 31.1547 22.0009C31.133 20.6554 30.2084 19.8384 29.7504 19.5137L36.4836 23.7326C37.7686 24.6048 38.6108 26.0542 38.6108 27.6947Z" fill="#F8FAFF" fill-opacity="0.8"/>
        <path d="M11.0069 10.3555C10.943 10.4096 10.8791 10.4658 10.8173 10.526C10.2112 11.1137 9.91031 11.886 9.91031 12.6583V29.7754C9.91031 30.0579 9.75082 30.3173 9.49567 30.4498L0.624423 35.0573C0.375968 35.1863 0.0844344 34.9718 0.147184 34.7037C1.59241 28.5282 7.37792 13.339 11.0069 10.3555Z" fill="#F8FAFF" fill-opacity="0.8"/>
        <path d="M60.1797 19.9521C61.4872 19.9521 62.6118 19.7529 63.5539 19.354C64.4957 18.9556 65.2231 18.3747 65.7366 17.6118C66.2495 16.8491 66.5064 15.9109 66.5064 14.7975C66.5064 13.7119 66.2428 12.7976 65.7154 12.0554C65.1883 11.3131 64.4431 10.7428 63.4801 10.3439C62.5169 9.94554 61.3606 9.74609 60.0111 9.74609H55.0131V23.6221L58.0919 23.6014V19.9521L60.1797 19.9521ZM60.0954 12.5296C60.7703 12.5296 61.3503 12.6121 61.8351 12.7769C62.3202 12.9418 62.6925 13.1927 62.953 13.5296C63.213 13.8664 63.3429 14.2892 63.3429 14.7975C63.3429 15.3335 63.213 15.7768 62.953 16.1272C62.6925 16.478 62.3235 16.7392 61.8457 16.9109C61.3675 17.0828 60.7839 17.1685 60.0954 17.1685H58.0919V12.5296L60.0954 12.5296Z" fill="#F8FAFF" fill-opacity="0.8"/>
        <path d="M78.8009 20.8385H72.179V9.74609H69.1002V21.0448C69.1002 21.8281 69.3111 22.454 69.7327 22.9211C70.1546 23.3886 70.8504 23.6221 71.8206 23.6221H78.8009V20.8385Z" fill="#F8FAFF" fill-opacity="0.8"/>
        <path d="M83.7664 20.7952L89.5047 20.7807L90.3359 23.6225H93.4782L89.7245 11.7051C89.4852 10.9495 89.0813 10.3892 88.5119 10.0249C87.9425 9.66082 87.313 9.47852 86.6245 9.47852C85.9635 9.47852 85.3449 9.66082 84.7688 10.0249C84.1921 10.3892 83.7844 10.9495 83.5456 11.7051L79.7916 23.6225H82.9339L83.7664 20.7952ZM86.1817 12.5918C86.266 12.317 86.4205 12.1793 86.6456 12.1793C86.8702 12.1793 87.0252 12.317 87.1096 12.5918L88.7197 18.0968H84.5609L86.1817 12.5918Z" fill="#F8FAFF" fill-opacity="0.8"/>
        <path d="M97.6753 19.1994C97.758 19.2565 97.8436 19.3008 97.9283 19.3492V23.6221H101.007V19.3364C101.085 19.2914 101.164 19.2517 101.239 19.1994C101.787 18.8215 102.223 18.2683 102.547 17.5397L106.005 9.74609H102.673L99.784 16.715C99.7278 16.8388 99.6785 16.9386 99.6365 17.014C99.5942 17.0896 99.538 17.1274 99.4678 17.1274C99.3971 17.1274 99.3445 17.0932 99.3095 17.0243C99.2744 16.9555 99.2215 16.8526 99.1514 16.715L96.2412 9.74609H92.9302L96.3467 17.5397C96.684 18.2683 97.1268 18.8215 97.6753 19.1994Z" fill="#F8FAFF" fill-opacity="0.8"/>
        <path d="M107.26 23.602C107.548 23.7669 107.861 23.8496 108.198 23.8496C108.536 23.8496 108.845 23.7669 109.126 23.602C109.407 23.4371 109.629 23.2175 109.791 22.9422C109.952 22.6674 110.033 22.3651 110.033 22.035C110.033 21.6916 109.952 21.3855 109.791 21.1175C109.629 20.8495 109.407 20.6329 109.126 20.468C108.845 20.3031 108.536 20.2207 108.198 20.2207C107.861 20.2207 107.548 20.3031 107.26 20.468C106.971 20.6329 106.746 20.8495 106.585 21.1175C106.423 21.3855 106.342 21.6916 106.342 22.035C106.342 22.3651 106.423 22.6674 106.585 22.9422C106.746 23.2175 106.971 23.4371 107.26 23.602Z" fill="#F8FAFF" fill-opacity="0.8"/>
        <path d="M62.2361 31.615C61.3291 31.2716 60.278 31.0996 59.0832 31.0996H55.0131V44.8724H56.3628V40.6251H59.1255C60.278 40.6251 61.3044 40.4569 62.2044 40.1201C63.1039 39.7832 63.8177 39.2611 64.3448 38.5531C64.8722 37.8451 65.1357 36.9415 65.1357 35.8417C65.1357 34.7696 64.8791 33.8829 64.366 33.1819C63.8525 32.481 63.1428 31.9586 62.2361 31.615ZM63.1217 37.8829C62.707 38.4053 62.1518 38.7868 61.4558 39.0273C60.7597 39.2679 59.976 39.3881 59.1044 39.3881H56.3628V32.3365H59.1044C60.018 32.3365 60.8232 32.4604 61.5189 32.7077C62.215 32.955 62.7596 33.3365 63.1534 33.8521C63.5469 34.3675 63.744 35.0308 63.744 35.8417C63.744 36.6803 63.5363 37.3608 63.1217 37.8829Z" fill="#F8FAFF" fill-opacity="0.8"/>
        <path d="M74.6041 31.2967C74.2103 31.0284 73.7464 30.8945 73.2123 30.8945C72.6919 30.8945 72.2316 31.0284 71.8311 31.2967C71.4303 31.5647 71.1384 31.9805 70.9558 32.544L66.9911 44.8736H68.3618L69.5748 41.0375L76.8506 41.0194L78.0626 44.8736H79.4335L75.4688 32.544C75.2859 31.9805 74.9976 31.5647 74.6041 31.2967ZM69.9591 39.8222L72.1367 32.9358C72.3053 32.3723 72.6641 32.0904 73.2123 32.0904C73.7606 32.0904 74.126 32.3723 74.3088 32.9358L76.4742 39.8222H69.9591Z" fill="#F8FAFF" fill-opacity="0.8"/>
        <path d="M90.6946 40.4395C90.315 39.8488 89.8686 39.3917 89.3554 39.0684C89.2127 38.9787 89.0555 38.9044 88.8895 38.8396C89.3591 38.7619 89.7918 38.6393 90.1781 38.4603C90.8596 38.1441 91.3906 37.6973 91.7702 37.12C92.1498 36.5426 92.3396 35.8623 92.3396 35.0787C92.3396 34.1715 92.1145 33.4225 91.6648 32.8315C91.2145 32.2405 90.6103 31.8041 89.8511 31.5222C89.0919 31.2406 88.2411 31.0996 87.2993 31.0996H82.8495V44.8724H84.1782L84.1875 39.3468H86.4138C87.1866 39.3468 87.8089 39.491 88.2801 39.7797C88.7509 40.0684 89.155 40.4637 89.4926 40.9652C89.8299 41.4672 90.1603 42.041 90.4837 42.687L91.6013 44.8724H93.0565L91.8546 42.5014C91.4608 41.7178 91.0742 41.0308 90.6946 40.4395ZM84.1895 38.1302L84.1993 32.3365H87.2993C87.9742 32.3365 88.589 32.4364 89.1445 32.6356C89.7 32.835 90.1427 33.1406 90.4731 33.5531C90.8034 33.9653 90.9687 34.5087 90.9687 35.1818C90.9687 35.8417 90.807 36.388 90.4837 36.8209C90.1603 37.2541 89.7208 37.5806 89.1656 37.8005C88.6101 38.0206 87.9742 38.1302 87.2573 38.1302H84.1895Z" fill="#F8FAFF" fill-opacity="0.8"/>
        <path d="M99.1087 31.0996H94.6378V32.3365H99.1087V44.8724H100.458V32.3365H104.95V31.0996H100.458H99.1087Z" fill="#F8FAFF" fill-opacity="0.8"/>
        <path d="M117.688 43.4304C117.688 43.6092 117.657 43.7466 117.593 43.8426C117.53 43.939 117.435 43.9871 117.309 43.9871C117.168 43.9871 117.056 43.9425 116.971 43.853C116.887 43.7637 116.789 43.616 116.676 43.4097L110.835 31.9255C110.652 31.5682 110.434 31.3068 110.181 31.1419C109.928 30.977 109.597 30.8945 109.19 30.8945C108.866 30.8945 108.574 30.9634 108.315 31.1008C108.054 31.2382 107.854 31.4409 107.713 31.7089C107.573 31.9769 107.502 32.3037 107.502 32.6882V44.8736H108.789V32.6057C108.789 32.3861 108.827 32.2213 108.905 32.1111C108.982 32.0011 109.098 31.9459 109.253 31.9459C109.379 31.9459 109.481 31.9873 109.559 32.0697C109.636 32.1521 109.717 32.283 109.801 32.4615L115.664 44.0489C115.846 44.4064 116.082 44.6674 116.37 44.8322C116.658 44.9974 116.985 45.0798 117.351 45.0798C117.632 45.0798 117.896 45.0107 118.142 44.8736C118.388 44.7365 118.588 44.537 118.743 44.2755C118.897 44.0146 118.975 43.6916 118.975 43.3066V31.1008H117.688V43.4304Z" fill="#F8FAFF" fill-opacity="0.8"/>
        <path d="M124.71 38.6045H132.302V37.3676H124.71V32.3365H132.682V31.0996H124.71C124.204 31.0996 123.852 31.2163 123.656 31.4501C123.458 31.6838 123.361 32 123.361 32.3986V43.5735C123.361 43.9724 123.458 44.2883 123.656 44.522C123.852 44.7557 124.204 44.8724 124.71 44.8724H132.872V43.6352H124.71V38.6045Z" fill="#F8FAFF" fill-opacity="0.8"/>
        <path d="M144.386 40.4395C144.006 39.8488 143.56 39.3917 143.047 39.0684C142.904 38.9787 142.747 38.9044 142.581 38.8396C143.05 38.7619 143.483 38.6393 143.869 38.4603C144.551 38.1441 145.082 37.6973 145.461 37.12C145.841 36.5426 146.031 35.8623 146.031 35.0787C146.031 34.1715 145.806 33.4225 145.356 32.8315C144.906 32.2405 144.302 31.8041 143.542 31.5222C142.783 31.2406 141.932 31.0996 140.991 31.0996H136.541V44.8724H137.869L137.879 39.3468H140.105C140.878 39.3468 141.5 39.491 141.971 39.7797C142.442 40.0684 142.846 40.4637 143.184 40.9652C143.521 41.4672 143.851 42.041 144.175 42.687L145.293 44.8724H146.748L145.546 42.5014C145.152 41.7178 144.765 41.0308 144.386 40.4395ZM137.881 38.1302L137.891 32.3365H140.991C141.665 32.3365 142.28 32.4364 142.836 32.6356C143.391 32.835 143.834 33.1406 144.164 33.5531C144.495 33.9653 144.66 34.5087 144.66 35.1818C144.66 35.8417 144.498 36.388 144.175 36.8209C143.851 37.2541 143.412 37.5806 142.857 37.8005C142.301 38.0206 141.665 38.1302 140.949 38.1302H137.881Z" fill="#F8FAFF" fill-opacity="0.8"/>
        <path d="M158.662 39.4188C158.395 38.9723 158.044 38.6115 157.608 38.3364C157.172 38.0616 156.687 37.845 156.153 37.6869C155.619 37.5291 155.084 37.395 154.55 37.2848C153.931 37.1477 153.348 36.9964 152.8 36.8312C152.251 36.6663 151.809 36.4225 151.471 36.0993C151.134 35.7766 150.965 35.3127 150.965 34.7075C150.965 34.2267 151.109 33.7971 151.397 33.4189C151.685 33.0412 152.065 32.7457 152.536 32.5324C153.007 32.3194 153.517 32.213 154.065 32.213C154.894 32.213 155.615 32.3917 156.227 32.749C156.838 33.1065 157.299 33.6219 157.608 34.2953L158.726 33.7179C158.332 32.8108 157.717 32.1237 156.88 31.6563C156.044 31.1891 155.12 30.9551 154.107 30.9551C153.292 30.9551 152.543 31.12 151.862 31.45C151.179 31.7798 150.635 32.2301 150.227 32.8004C149.819 33.371 149.615 34.0205 149.615 34.7489C149.615 35.4365 149.749 35.9997 150.016 36.4397C150.283 36.8796 150.641 37.2369 151.092 37.5117C151.542 37.7868 152.034 38.0034 152.568 38.1612C153.102 38.3193 153.636 38.4534 154.171 38.5634C154.789 38.6869 155.369 38.8281 155.911 38.9859C156.452 39.144 156.887 39.3848 157.218 39.7075C157.548 40.0308 157.713 40.5012 157.713 41.12C157.713 41.6837 157.562 42.1645 157.26 42.5631C156.958 42.962 156.55 43.2641 156.037 43.4703C155.524 43.6765 154.944 43.7797 154.297 43.7797C153.397 43.7797 152.613 43.5941 151.946 43.223C151.278 42.8518 150.789 42.3297 150.48 41.656L149.341 42.2127C149.735 43.1198 150.382 43.8178 151.282 44.3054C152.181 44.7935 153.186 45.0373 154.297 45.0373C155.197 45.0373 156.005 44.8724 156.722 44.5426C157.439 44.2126 158.009 43.7557 158.431 43.1713C158.852 42.5874 159.063 41.9033 159.063 41.12C159.063 40.4326 158.929 39.8656 158.662 39.4188Z" fill="#F8FAFF" fill-opacity="0.8"/>
    </g>
    <defs>
        <clipPath id="clip0_860_12491">
            <rect width="159.03" height="54.5692" fill="white"/>
        </clipPath>
    </defs>
</svg>
