<svg width="58" height="42" viewBox="0 0 58 42" fill="none" xmlns="http://www.w3.org/2000/svg">
    <rect x="1" y="1" width="56" height="40" rx="10" stroke="#F8FAFF" stroke-opacity="0.9"/>
    <path d="M24.8705 10.223C25.7605 10.223 26.482 9.50152 26.482 8.61151C26.482 7.7215 25.7605 7 24.8705 7C23.9805 7 23.259 7.7215 23.259 8.61151C23.259 9.50152 23.9805 10.223 24.8705 10.223Z" fill="#F8FAFF" fill-opacity="0.9"/>
    <path d="M28.9888 10.223C29.8788 10.223 30.6003 9.50152 30.6003 8.61151C30.6003 7.7215 29.8788 7 28.9888 7C28.0988 7 27.3773 7.7215 27.3773 8.61151C27.3773 9.50152 28.0988 10.223 28.9888 10.223Z" fill="#F8FAFF" fill-opacity="0.9"/>
    <path d="M33.1295 10.223C34.0195 10.223 34.741 9.50152 34.741 8.61151C34.741 7.7215 34.0195 7 33.1295 7C32.2395 7 31.518 7.7215 31.518 8.61151C31.518 9.50152 32.2395 10.223 33.1295 10.223Z" fill="#F8FAFF" fill-opacity="0.9"/>
    <path d="M24.8705 14.3636C25.7605 14.3636 26.482 13.6421 26.482 12.7521C26.482 11.8621 25.7605 11.1406 24.8705 11.1406C23.9805 11.1406 23.259 11.8621 23.259 12.7521C23.259 13.6421 23.9805 14.3636 24.8705 14.3636Z" fill="#F8FAFF" fill-opacity="0.9"/>
    <path d="M20.7522 14.3636C21.6422 14.3636 22.3637 13.6421 22.3637 12.7521C22.3637 11.8621 21.6422 11.1406 20.7522 11.1406C19.8622 11.1406 19.1407 11.8621 19.1407 12.7521C19.1407 13.6421 19.8622 14.3636 20.7522 14.3636Z" fill="#F8FAFF" fill-opacity="0.9"/>
    <path d="M28.9888 14.3636C29.8788 14.3636 30.6003 13.6421 30.6003 12.7521C30.6003 11.8621 29.8788 11.1406 28.9888 11.1406C28.0988 11.1406 27.3773 11.8621 27.3773 12.7521C27.3773 13.6421 28.0988 14.3636 28.9888 14.3636Z" fill="#F8FAFF" fill-opacity="0.9"/>
    <path d="M33.1295 14.3636C34.0195 14.3636 34.741 13.6421 34.741 12.7521C34.741 11.8621 34.0195 11.1406 33.1295 11.1406C32.2395 11.1406 31.518 11.8621 31.518 12.7521C31.518 13.6421 32.2395 14.3636 33.1295 14.3636Z" fill="#F8FAFF" fill-opacity="0.9"/>
    <path d="M37.2478 14.3636C38.1378 14.3636 38.8593 13.6421 38.8593 12.7521C38.8593 11.8621 38.1378 11.1406 37.2478 11.1406C36.3578 11.1406 35.6363 11.8621 35.6363 12.7521C35.6363 13.6421 36.3578 14.3636 37.2478 14.3636Z" fill="#F8FAFF" fill-opacity="0.9"/>
    <path d="M33.1295 34.9999C34.0195 34.9999 34.741 34.2784 34.741 33.3884C34.741 32.4984 34.0195 31.7769 33.1295 31.7769C32.2395 31.7769 31.518 32.4984 31.518 33.3884C31.518 34.2784 32.2395 34.9999 33.1295 34.9999Z" fill="#F8FAFF" fill-opacity="0.9"/>
    <path d="M28.9888 34.9999C29.8788 34.9999 30.6003 34.2784 30.6003 33.3884C30.6003 32.4984 29.8788 31.7769 28.9888 31.7769C28.0988 31.7769 27.3773 32.4984 27.3773 33.3884C27.3773 34.2784 28.0988 34.9999 28.9888 34.9999Z" fill="#F8FAFF" fill-opacity="0.9"/>
    <path d="M24.8705 34.9999C25.7605 34.9999 26.482 34.2784 26.482 33.3884C26.482 32.4984 25.7605 31.7769 24.8705 31.7769C23.9805 31.7769 23.259 32.4984 23.259 33.3884C23.259 34.2784 23.9805 34.9999 24.8705 34.9999Z" fill="#F8FAFF" fill-opacity="0.9"/>
    <path d="M33.1295 30.8593C34.0195 30.8593 34.741 30.1378 34.741 29.2477C34.741 28.3577 34.0195 27.6362 33.1295 27.6362C32.2395 27.6362 31.518 28.3577 31.518 29.2477C31.518 30.1378 32.2395 30.8593 33.1295 30.8593Z" fill="#F8FAFF" fill-opacity="0.9"/>
    <path d="M37.2478 30.8593C38.1378 30.8593 38.8593 30.1378 38.8593 29.2477C38.8593 28.3577 38.1378 27.6362 37.2478 27.6362C36.3578 27.6362 35.6363 28.3577 35.6363 29.2477C35.6363 30.1378 36.3578 30.8593 37.2478 30.8593Z" fill="#F8FAFF" fill-opacity="0.9"/>
    <path d="M28.9888 30.8593C29.8788 30.8593 30.6003 30.1378 30.6003 29.2477C30.6003 28.3577 29.8788 27.6362 28.9888 27.6362C28.0988 27.6362 27.3773 28.3577 27.3773 29.2477C27.3773 30.1378 28.0988 30.8593 28.9888 30.8593Z" fill="#F8FAFF" fill-opacity="0.9"/>
    <path d="M24.8705 30.8593C25.7605 30.8593 26.482 30.1378 26.482 29.2477C26.482 28.3577 25.7605 27.6362 24.8705 27.6362C23.9805 27.6362 23.259 28.3577 23.259 29.2477C23.259 30.1378 23.9805 30.8593 24.8705 30.8593Z" fill="#F8FAFF" fill-opacity="0.9"/>
    <path d="M20.7522 30.8593C21.6422 30.8593 22.3637 30.1378 22.3637 29.2477C22.3637 28.3577 21.6422 27.6362 20.7522 27.6362C19.8622 27.6362 19.1407 28.3577 19.1407 29.2477C19.1407 30.1378 19.8622 30.8593 20.7522 30.8593Z" fill="#F8FAFF" fill-opacity="0.9"/>
    <path d="M24.8705 18.4818C25.7605 18.4818 26.482 17.7603 26.482 16.8703C26.482 15.9803 25.7605 15.2588 24.8705 15.2588C23.9805 15.2588 23.259 15.9803 23.259 16.8703C23.259 17.7603 23.9805 18.4818 24.8705 18.4818Z" fill="#F8FAFF" fill-opacity="0.9"/>
    <path d="M20.7522 18.4818C21.6422 18.4818 22.3637 17.7603 22.3637 16.8703C22.3637 15.9803 21.6422 15.2588 20.7522 15.2588C19.8622 15.2588 19.1407 15.9803 19.1407 16.8703C19.1407 17.7603 19.8622 18.4818 20.7522 18.4818Z" fill="#F8FAFF" fill-opacity="0.9"/>
    <path d="M16.6115 18.4818C17.5015 18.4818 18.223 17.7603 18.223 16.8703C18.223 15.9803 17.5015 15.2588 16.6115 15.2588C15.7215 15.2588 15 15.9803 15 16.8703C15 17.7603 15.7215 18.4818 16.6115 18.4818Z" fill="#F8FAFF" fill-opacity="0.9"/>
    <path d="M28.9888 18.4818C29.8788 18.4818 30.6003 17.7603 30.6003 16.8703C30.6003 15.9803 29.8788 15.2588 28.9888 15.2588C28.0988 15.2588 27.3773 15.9803 27.3773 16.8703C27.3773 17.7603 28.0988 18.4818 28.9888 18.4818Z" fill="#F8FAFF" fill-opacity="0.9"/>
    <path d="M33.1295 18.4818C34.0195 18.4818 34.741 17.7603 34.741 16.8703C34.741 15.9803 34.0195 15.2588 33.1295 15.2588C32.2395 15.2588 31.518 15.9803 31.518 16.8703C31.518 17.7603 32.2395 18.4818 33.1295 18.4818Z" fill="#F8FAFF" fill-opacity="0.9"/>
    <path d="M37.2478 18.4818C38.1378 18.4818 38.8593 17.7603 38.8593 16.8703C38.8593 15.9803 38.1378 15.2588 37.2478 15.2588C36.3578 15.2588 35.6363 15.9803 35.6363 16.8703C35.6363 17.7603 36.3578 18.4818 37.2478 18.4818Z" fill="#F8FAFF" fill-opacity="0.9"/>
    <path d="M41.3885 18.4818C42.2785 18.4818 43 17.7603 43 16.8703C43 15.9803 42.2785 15.2588 41.3885 15.2588C40.4985 15.2588 39.777 15.9803 39.777 16.8703C39.777 17.7603 40.4985 18.4818 41.3885 18.4818Z" fill="#F8FAFF" fill-opacity="0.9"/>
    <path d="M24.8705 22.6005C25.7605 22.6005 26.482 21.879 26.482 20.989C26.482 20.0989 25.7605 19.3774 24.8705 19.3774C23.9805 19.3774 23.259 20.0989 23.259 20.989C23.259 21.879 23.9805 22.6005 24.8705 22.6005Z" fill="#F8FAFF" fill-opacity="0.9"/>
    <path d="M20.7522 22.6005C21.6422 22.6005 22.3637 21.879 22.3637 20.989C22.3637 20.0989 21.6422 19.3774 20.7522 19.3774C19.8622 19.3774 19.1407 20.0989 19.1407 20.989C19.1407 21.879 19.8622 22.6005 20.7522 22.6005Z" fill="#F8FAFF" fill-opacity="0.9"/>
    <path d="M16.6115 22.6005C17.5015 22.6005 18.223 21.879 18.223 20.989C18.223 20.0989 17.5015 19.3774 16.6115 19.3774C15.7215 19.3774 15 20.0989 15 20.989C15 21.879 15.7215 22.6005 16.6115 22.6005Z" fill="#F8FAFF" fill-opacity="0.9"/>
    <path d="M28.9888 22.6005C29.8788 22.6005 30.6003 21.879 30.6003 20.989C30.6003 20.0989 29.8788 19.3774 28.9888 19.3774C28.0988 19.3774 27.3773 20.0989 27.3773 20.989C27.3773 21.879 28.0988 22.6005 28.9888 22.6005Z" fill="#F8FAFF" fill-opacity="0.9"/>
    <path d="M33.1295 22.6005C34.0195 22.6005 34.741 21.879 34.741 20.989C34.741 20.0989 34.0195 19.3774 33.1295 19.3774C32.2395 19.3774 31.518 20.0989 31.518 20.989C31.518 21.879 32.2395 22.6005 33.1295 22.6005Z" fill="#F8FAFF" fill-opacity="0.9"/>
    <path d="M37.2478 22.6005C38.1378 22.6005 38.8593 21.879 38.8593 20.989C38.8593 20.0989 38.1378 19.3774 37.2478 19.3774C36.3578 19.3774 35.6363 20.0989 35.6363 20.989C35.6363 21.879 36.3578 22.6005 37.2478 22.6005Z" fill="#F8FAFF" fill-opacity="0.9"/>
    <path d="M41.3885 22.6005C42.2785 22.6005 43 21.879 43 20.989C43 20.0989 42.2785 19.3774 41.3885 19.3774C40.4985 19.3774 39.777 20.0989 39.777 20.989C39.777 21.879 40.4985 22.6005 41.3885 22.6005Z" fill="#F8FAFF" fill-opacity="0.9"/>
    <path d="M24.8705 26.7411C25.7605 26.7411 26.482 26.0196 26.482 25.1296C26.482 24.2396 25.7605 23.5181 24.8705 23.5181C23.9805 23.5181 23.259 24.2396 23.259 25.1296C23.259 26.0196 23.9805 26.7411 24.8705 26.7411Z" fill="#F8FAFF" fill-opacity="0.9"/>
    <path d="M20.7522 26.7411C21.6422 26.7411 22.3637 26.0196 22.3637 25.1296C22.3637 24.2396 21.6422 23.5181 20.7522 23.5181C19.8622 23.5181 19.1407 24.2396 19.1407 25.1296C19.1407 26.0196 19.8622 26.7411 20.7522 26.7411Z" fill="#F8FAFF" fill-opacity="0.9"/>
    <path d="M16.6115 26.7411C17.5015 26.7411 18.223 26.0196 18.223 25.1296C18.223 24.2396 17.5015 23.5181 16.6115 23.5181C15.7215 23.5181 15 24.2396 15 25.1296C15 26.0196 15.7215 26.7411 16.6115 26.7411Z" fill="#F8FAFF" fill-opacity="0.9"/>
    <path d="M28.9888 26.7411C29.8788 26.7411 30.6003 26.0196 30.6003 25.1296C30.6003 24.2396 29.8788 23.5181 28.9888 23.5181C28.0988 23.5181 27.3773 24.2396 27.3773 25.1296C27.3773 26.0196 28.0988 26.7411 28.9888 26.7411Z" fill="#F8FAFF" fill-opacity="0.9"/>
    <path d="M33.1295 26.7411C34.0195 26.7411 34.741 26.0196 34.741 25.1296C34.741 24.2396 34.0195 23.5181 33.1295 23.5181C32.2395 23.5181 31.518 24.2396 31.518 25.1296C31.518 26.0196 32.2395 26.7411 33.1295 26.7411Z" fill="#F8FAFF" fill-opacity="0.9"/>
    <path d="M37.2478 26.7411C38.1378 26.7411 38.8593 26.0196 38.8593 25.1296C38.8593 24.2396 38.1378 23.5181 37.2478 23.5181C36.3578 23.5181 35.6363 24.2396 35.6363 25.1296C35.6363 26.0196 36.3578 26.7411 37.2478 26.7411Z" fill="#F8FAFF" fill-opacity="0.9"/>
    <path d="M41.3885 26.7411C42.2785 26.7411 43 26.0196 43 25.1296C43 24.2396 42.2785 23.5181 41.3885 23.5181C40.4985 23.5181 39.777 24.2396 39.777 25.1296C39.777 26.0196 40.4985 26.7411 41.3885 26.7411Z" fill="#F8FAFF" fill-opacity="0.9"/>
</svg>
