<svg width="466" height="129" viewBox="0 0 466 129" fill="none" xmlns="http://www.w3.org/2000/svg">
    <g style="mix-blend-mode:screen">
        <path d="M466 25.0677V10.7386H462.428V8.94709H455.285V10.7386H449.928V12.5294H444.571V14.3208H440.999V16.1123H444.571V17.9038H440.999V16.1123H437.428V14.3208H435.642V16.1123H433.856V17.9038H428.499V19.6946H433.856V21.4861H428.499V23.2775H424.927V21.4861H423.141V19.6946H421.355V21.4861H419.569V23.2775H423.141V25.069H419.569V23.2775H414.212V25.069H417.783V26.8605H414.212V25.069H408.855V23.2775H407.069V26.8598H412.426V28.6506H407.069V30.4421H403.497V28.6506H407.069V26.8598H401.711V28.6506H396.354V30.4421H394.568V32.2336H396.354V34.025H392.782V32.2336H385.639V34.025H382.067V35.8165H385.639V37.6073H382.067V35.8165H373.138V37.6073H369.567V39.3988H374.924V41.1903H369.567V42.9817H365.995V41.1903H358.852V42.9817H357.066V41.1903H355.281V42.9817H353.494V44.7732H351.709V42.9817H349.923V44.7732H348.137V46.564H349.923V48.3555H348.137V50.147H344.565V48.3555H339.208V50.147H342.78V51.9384H339.208V53.7292L333.851 53.7292V55.5207H328.493V57.3122H323.135V55.5207H315.992V57.3122H312.421V59.1037H317.778V57.3122H321.35V59.1037H317.778V60.8945H312.421V62.6859H307.063V64.4774H301.706V66.2689H296.349V68.0604H290.991V69.8511H285.634V71.6426H280.276V69.8511L273.133 69.8511V71.6426H269.562V73.4341L274.919 73.4341V71.6426H278.49V73.4341H274.919V75.2256L269.562 75.2256V77.0171H264.204V78.8078H258.847V80.5993H253.49V78.8078H248.132V80.5993H251.703V82.3908H248.132V84.1823H242.774V85.9731H237.417V87.7645H232.06V89.556H230.274V87.7645H232.06V85.9731H224.917V87.7645H223.131V91.3468H221.345V93.1376H215.987V94.9291H210.63V96.7206H205.273V98.512H199.915V100.304H194.558V102.094H189.201V103.886H183.843V105.677H178.485V107.469H173.128V109.26H169.557V7.16364H167.771V5.37215H162.414V3.58134H167.771V5.37215H169.557V1.78989H158.842V3.58134H160.628V5.37215H158.842V7.16364H155.271V5.37215H158.842V3.58134H153.485V5.37215H148.128V7.16364H149.913V8.9551H148.128V10.7466H146.342V8.9551H148.128V7.16364H142.77V8.9551H144.556V10.7466H142.77V12.5374H139.199V10.7466H142.77V8.9551H137.412V10.7466H135.627V8.9551H133.841V10.7466H132.055V12.5374H133.841V14.3288H132.055V16.1203H126.698V17.9118H121.34V19.7026H115.983V21.4941H110.626V23.2856H105.268V25.077H99.911V26.8685H96.3395V25.077H99.911V23.2856H98.1249V21.4941H96.3388V23.2856H94.5534V25.077H89.1958V26.8685H94.5534V28.6593H89.1958V30.4508H83.8388V32.2422L80.2673 32.2422V34.0337H73.1242V35.8252H71.3388V34.0337H73.1242V32.2422H67.7672V34.0337H69.5527V35.8252H67.7672V37.616H62.4096V39.4075H58.8381V37.616H62.4096V35.8252H58.8381V34.0337H57.052V35.8252H55.2659V37.616H53.4804V39.4075H57.052V41.1989H53.4804V39.4075H51.695V42.9898H48.1235V41.1983H49.9096V39.4068H51.6957V37.6153H53.4811V35.8245H55.2665V34.0331H57.0527V32.2416H58.8387V30.4501H60.6242V28.6586H62.4103V26.8678H64.1957V23.2856H67.7672V21.4941H69.5527V19.7026H71.3388V17.9118H73.1242V16.1203H74.9103V14.3288H76.6957V10.7466H74.9103V7.16429H73.1242V5.37283H69.5527V3.58202H67.7672V1.79053H65.9812V-0.000930786H64.1951V1.79053H62.4096V5.37283H64.1951V3.58202H65.9812V5.37283H64.1951V7.16429H62.4096V8.95577H60.6235V10.7472H58.8381V12.538H57.052V14.3295H55.2659V16.121H53.4804V17.9125H51.695V19.7033H49.9089V21.4947H48.1228V23.2862H46.3374V25.0777H44.5513V26.8692H42.7659V25.0777H44.5513V23.2862H46.3374V21.4947H48.1228V19.7033H49.9089V17.9125H51.695V16.121H53.4804V14.3295H55.2659V12.538H57.052V10.7472H58.8381V8.95577H60.6235V7.16429H62.4096V5.37283H57.052V8.9551H55.2659V10.7466H53.4804V12.5374H51.695V14.3288H49.9089V16.1203H48.1228V17.9118H46.3374V19.7026H44.5513V21.4941H42.7659V23.2856H40.9797V25.077H39.1937V26.8685H37.4082V28.6593H39.1937V30.4508H37.4082V28.6593H35.6228V30.4508H32.0513V34.0331H33.8373V32.2416H35.6235V34.0331H33.8373V35.8245H32.0513V37.6153H30.2658V39.4068H28.4797V41.1983H26.6943V42.9898H24.9082V44.7812H23.1221V46.572H21.3367V48.3635H19.5512V50.155H17.7652V51.9464H15.979V53.7372H14.1936V55.5287H12.4082V53.7372H10.6221V55.5287H12.4075V57.3202H10.6221L10.6214 59.1117H8.83597V60.9025H7.0499V59.1117H5.26447V60.9025H7.0499V62.6939H5.26376V64.4847H3.47836V62.6933H1.69223V64.4847H3.47766V66.2756H1.69159V68.067H0L0.00268555 69.8578H14.1923V68.067H21.3354V69.8578H14.1923V71.6493H21.3354V73.4408H35.6215V71.6493H23.1208V69.8578H35.6215V71.6493H51.6937V73.4408H65.9798V75.2323H80.266V77.0237H90.9846V78.8145H80.2699V80.606H85.6276V82.3975H87.4137V80.606H92.7713V75.2329H98.1283V64.4861H96.3422V73.4421H94.5567V66.2776H92.7713V59.113H82.0567V60.9038H90.9846V62.6953H82.0554V60.9038L67.7692 60.9038V59.113H53.4831V57.3215H55.2686V55.53H58.8401V57.3215H65.9832V55.53H67.7692V59.113L82.0554 59.1123V57.3209L69.5547 57.3209V53.7386H65.9832V51.9478H69.5547V53.7386H76.6978V51.9478L82.0554 51.9478V50.1563H87.413V48.3648H92.7706V46.5733H98.1276V44.7826H101.699V42.9911H98.1276V41.1996H103.485V39.4081H107.057V41.1996H112.414V39.4081H108.842V37.6167H112.414V39.4081H119.557V37.6167H124.914V35.8259H119.557V34.0344H124.914V32.2429H128.486V34.0344H130.272V35.8259H132.058V34.0344H133.844V35.8259H135.63V32.2436H140.987V30.4521H146.344V28.6606H149.916V26.8698H146.344V25.0784H149.916V26.8698H151.702V125.373H153.487V25.0677H151.702V23.2762H155.273V123.581H157.06V127.164H155.273V128.955H158.845V127.164H164.203V128.955H169.56V127.164H165.988V125.373H169.56V123.581H174.917V121.79H180.275V119.998H185.632V121.79H190.989V123.581H192.776V119.999H194.561V118.208H190.989V119.999H187.418V118.208H190.989V116.417H196.347V114.625H201.704V116.417H196.347V118.208H203.49V116.417H207.062V114.625H203.49V112.834H207.062V114.625H214.205V112.834H217.776V111.042H212.419V112.834H208.848V111.042H212.419V109.252H217.776V107.46H223.134V105.669H228.492V107.46H233.848V105.669H230.277V103.877H233.848V100.295H235.635V102.086H239.206V100.295H244.564V98.5034H249.921V96.7119H255.278V94.9204H260.636V93.1289H265.994V91.3382H271.351V89.5467L276.708 89.5467V87.7552H282.066V85.9637H287.423V84.1729H285.637V82.3815H287.423V84.1729H292.78V82.3815H298.138V80.59H303.496V78.7985H308.853V77.0077H314.21V75.2162H315.996V77.0077H314.21V78.7985H319.568V77.0077H317.782V75.2162H319.568V73.4248H324.925V71.6333H330.283V69.8418H335.64V68.051H340.997V66.2595H346.355V64.4681H348.14V66.2595H346.355V68.051H348.14V69.8418H349.926V68.051H351.712V66.2595H349.926V64.4681H351.712V62.6766H357.069V60.8851H362.427V59.0943H367.785V57.3028H373.142V55.5114H378.499V53.7199H380.285V55.5114H378.499V57.3028H383.857V55.5114H382.071V53.7199H383.857V51.9291H385.642V53.7199H383.857V55.5114H389.214V53.7199H387.428V51.9291H389.214V50.1376H391V51.9291H389.214V53.7199H394.571V51.9291H392.786V50.1376H394.571V48.3461H396.357V50.1376H394.571V51.9291H399.929V50.1376H398.143V48.3461H399.929V46.5547H405.286V44.7639H403.501V42.9724H405.286V44.7639H407.072V46.5547H405.286V48.3461H408.858V44.7639H410.643V42.9724H416.001V41.1809H414.214V39.3895H416.001V41.1809H421.358V39.3895H424.929V41.1809H421.358V42.9724H426.715V41.1809H428.501V42.9724H430.287V41.1809H432.073V39.3895H426.716V37.598H424.93V35.8072H426.716V37.598H432.073V35.8072H437.43V34.0157H439.216V35.8072H437.43V37.598H442.787V35.8072H441.001V34.0157H442.787V32.2242H448.144V30.4328H453.501V28.6413H458.859V26.8505H464.216V25.059H466V25.0677ZM46.3394 68.0557H44.5533V66.2642H46.3394V68.0557ZM78.4839 62.6819H80.2693V64.4734H78.4839V62.6819ZM53.4831 53.7259H51.6977V51.9351H53.4831V53.7259ZM64.1977 55.5174H60.6262V53.7259H64.1977V55.5174ZM74.9123 51.9351H71.3408V50.1436H74.9123V51.9351ZM80.2693 50.1443H76.6978V48.3528H80.2693V50.1443ZM85.6269 48.3528H82.0554V46.5613H85.6269V48.3528ZM90.9846 46.5613H87.413V44.7705H90.9846V46.5613ZM96.3415 44.7705H92.77V42.9791H96.3415V44.7705ZM108.842 28.6499H107.056V26.8591H108.842V28.6499ZM117.771 37.606H114.2V35.8152H117.771V37.606ZM133.843 32.2322H130.271V30.4408H128.485V28.6493H130.271V30.4408H133.843V32.2322ZM135.629 12.5294H137.414V14.3208H135.629V12.5294ZM144.558 28.6499H139.201V30.4414H135.629V28.6499H139.201V26.8591H144.558V28.6499ZM153.487 8.94709H151.701V7.15561H153.487V8.94709ZM165.987 94.9231H164.202V93.1316H165.987V94.9231ZM165.987 80.5933H164.202V78.8019H165.987V80.5933ZM165.987 59.0996H164.202V57.3082H165.987V59.0996ZM165.987 41.1883H164.202V39.3968H165.987V41.1883ZM165.987 21.4854H164.202V19.6939H165.987V21.4854ZM228.49 89.5493H226.704V91.3408H224.919V89.5493H226.704V87.7579H228.49V89.5493ZM310.636 68.0557H308.85V66.2642H310.636V68.0557ZM353.495 53.7259H351.71V51.9351H353.495V53.7259ZM353.495 48.3528H351.71V46.5613H353.495V48.3528ZM358.853 46.5613H355.281V44.7705H358.853V46.5613ZM364.21 44.7705H362.424V42.9791H364.21V44.7705ZM380.282 39.3968H376.71V37.6053H380.282V39.3968ZM390.997 35.8145H387.425V34.023H390.997V35.8145ZM401.711 32.2322H398.14V30.4408H401.711V32.2322ZM439.213 25.0677H437.427V23.2762H439.213V25.0677ZM439.213 19.6939H435.642V17.9031H439.213V19.6939ZM449.928 16.1117H446.356V14.3202H449.928V16.1117ZM455.285 14.3208H451.713V12.5294H455.285V14.3208ZM460.642 12.5294H457.071V10.7386H460.642V12.5294Z" fill="url(#paint0_radial_776_12875)"/>
    </g>
    <defs>
        <radialGradient id="paint0_radial_776_12875" cx="0" cy="0" r="1" gradientTransform="matrix(-208.775 83.7538 -364.561 6.37424 117.887 65.135)" gradientUnits="userSpaceOnUse">
            <stop offset="0.0721154" stop-color="#500CBE"/>
            <stop offset="0.3125" stop-color="#FFF67A"/>
            <stop offset="0.625" stop-color="#7AFFF6"/>
            <stop offset="0.918269" stop-color="#0F5EF7"/>
        </radialGradient>
    </defs>
</svg>
