<svg width="101" height="100" viewBox="0 0 101 100" fill="none" xmlns="http://www.w3.org/2000/svg">
    <g style="mix-blend-mode:screen">
        <path fill-rule="evenodd" clip-rule="evenodd" d="M100.898 37.5916V37.2156H100.522V35.712H100.146V35.3361H100.522V34.5843H100.146V32.7047H99.7704V31.5769H99.3944V30.0733H99.0184V29.3215H98.6425V28.5697H98.2665V28.1937H97.8905V27.4419H97.5145V26.6901H97.1385V26.3141H96.7625V25.9381H96.3865V25.1863H96.0106V24.8103H95.6346V24.4344H95.2586V24.0584H94.8826V23.6824H94.5066V23.3064H94.1306V22.9305H93.3788V22.5545H93.0028V22.1785H92.6268V21.8025H92.2508V21.4266H91.8749V21.0506H91.4989V20.2988H91.1229V19.9228H90.7469V19.5468H90.3709V19.1709H89.9949V18.7949H89.6189V18.4189H88.8671V18.0429H88.4911V17.667H88.1151V17.291H87.7392V16.915H87.3632V16.1632H86.6113V15.4114H86.2354V15.0354H85.8594V14.6594H85.4834V14.2835H85.1074V13.9075H84.3556V13.5315H83.9796V13.1555H83.6036V12.7796H83.2276V12.4036H82.8516V12.0276H82.4756V11.6516H82.0997V10.8998H81.7237V10.5239H81.3477V10.1479H80.9717V9.77192H80.5957V9.39594H79.8439V9.01997H79.4679V8.64399H79.0919V8.26802H78.7159V7.89204H78.34V7.51607H77.964V7.14009H77.588V6.38829H77.212V6.01231H76.836V5.63634H76.46V5.26036H76.084V4.88439H75.7081V4.50841H74.9562V4.13244H74.5802V3.75646H74.2042V3.38049H73.8283V3.00451H72.7005V2.62854H72.3245V2.25256H71.5726V1.87659H70.8208V1.50061H69.693V1.12792H68.1893V0.751949H67.0615V0.375975H66.6855V0.751949H66.3096V0.375975H64.0541V0H63.3022V0.375975H62.9263V0H62.1744V0.375975H58.0393V0.751949H57.2875V0.375975H56.9115V0.751949H56.1597V1.12792H54.28V1.5039H53.1522V1.87987H51.6486V2.25585H50.5207V2.63182H49.3929V3.0078H48.2651V3.38377H47.1373V3.75975H46.3855V4.13572H45.6336V4.5117H45.2577V4.88767H44.1298V5.26365H43.378V5.63962H42.2502V6.0156H41.4984V6.39157H41.1224V6.76755H40.3706V7.14352H39.6187V7.5195H38.8669V7.89547H38.1151V8.27144H37.7391V8.64742H36.9873V9.02339H36.2354V9.39937H35.8594V9.77534H35.1076V10.1513H34.7316V10.5273H33.9798V10.9033H33.228V11.2792H32.852V11.6552H32.476V12.0312H31.7242V12.4072H30.9723V12.7831H30.5964V13.1591H30.2204V13.5351H29.8444V13.9111H29.0926V14.287H28.7166V14.663H27.9647V15.039H27.5888V15.415H27.2128V15.7909H26.8368V16.1669H26.085V16.5429H25.709V16.9189H25.333V17.2948H24.957V17.6708H24.581V18.0468H23.8292V18.4228H23.4532V19.1746H22.7014V19.5505H22.3254V19.9265H21.9494V20.3025H21.5734V20.6785H21.1974V21.4303H20.8215V21.8062H20.0696V22.1822H19.6936V22.5582H19.3177V23.31H18.9417V23.686H18.5657V24.062H18.1897V24.4379H17.8137V24.8139H17.4377V25.1899H17.0617V25.9417H16.6858V26.3177H16.3098V26.6936H15.9338V27.0696H15.5578V27.8214H15.1818V28.1974H14.8058V28.5734H14.4298V29.3252H14.0539V29.7011H13.6779V30.0771H13.3019V30.8289H12.9259V31.5807H12.1741V32.7085H11.7981V33.0845H11.4221V33.4605H11.0461V34.2123H10.6701V34.9641H10.2941V35.3401H9.91816V36.0919H9.54217V36.4678H9.16619V37.2196H8.7902V37.5956H8.41422V38.3474H8.03823V39.0992H7.66225V40.227H7.28626V40.603H6.91028V41.3548H6.53429V41.7308H6.16516V42.8586H5.78918V43.6104H5.41319V44.3622H5.03721V44.7381H4.66122V45.1141H5.03721V45.4901H4.66122V46.2419H4.28523V47.3697H3.90925V48.1215H3.53326V49.2493H3.15728V50.0011H2.78129V51.5047H2.40531V52.6325H2.02932V54.1361H1.65334V56.0157H1.27821V58.2711H0.902222V64.6617H1.27821V65.0376H0.902222V65.4136H1.27821V66.9172H1.65419V68.4208H2.03018V69.5486H2.40616V70.3004H2.78215V71.0522H3.15814V71.804H3.53412V72.5558H3.91011V73.3076H4.28609V73.6836H4.66208V74.0596H5.03806V74.8114H5.78989V75.5632H6.16588V75.9392H6.54186V76.3152H6.91785V76.6911H7.66968V77.0671H8.04566V77.4431H8.42165V77.8191H8.79763V78.195H9.17362V78.571H9.5496V78.947H9.92559V79.6988H10.3016V80.0748H10.6776V80.4507H11.0535V80.8267H11.4295V81.2027H12.1814V81.9545H12.9332V82.3305H13.3092V82.7064H13.6852V83.0824H14.0611V83.8342H14.4371V84.2102H15.189V84.962H15.5649V85.338H15.9409V85.714H16.3169V86.0899H17.0687V86.4659H17.4447V86.8419H17.8207V87.2179H18.1967V87.5938H18.5727V87.9698H18.9487V88.7216H19.7005V89.4734H20.0765V89.8494H20.4525V90.2254H21.2043V90.9772H21.9561V91.3531H22.3321V91.7291H22.7081V92.1051H23.0841V92.8569H23.8359V93.6087H24.5877V94.3605H24.9637V94.7365H25.7155V95.4883H26.0915V95.8643H26.8434V96.2402H27.2193V96.6162H27.9712V96.9922H28.3472V97.3682H29.099V97.7442H29.8508V98.1201H30.6026V98.4961H31.7305V98.8721H32.8583V99.248H33.9861V99.624H36.9935V100H37.3695V99.624H37.7455V100H39.6252V99.624H40.0011V100H40.753V99.624H41.129V100H41.5049V99.624H43.7604V99.248H44.1364V99.624H44.5124V99.248H46.0161V98.8721H47.8957V98.4961H49.0235V98.1201H50.1513V97.7442H51.2791V97.3682H52.407V96.9922H53.5348V96.6162H54.2866V96.2402H55.0384V95.8643H56.1662V95.4883H56.9181V95.1123H57.6699V94.7364H58.4217V94.3604H58.7977V93.9844H59.1737V94.3604H59.5497V93.9844H59.9257V93.6084H60.6775V93.2325H61.4293V92.8565H62.1811V92.4805H62.5571V92.1045H63.309V91.7286H64.0608V91.3526H64.8126V90.9766H65.1886V90.6006H65.9404V90.2247H66.6923V89.8487H67.0682V89.4727H67.8201V89.0967H68.1961V88.7208H68.9479V88.3448H69.3239V87.9688H69.6999V87.5928H70.4517V87.2169H70.8277V86.8409H71.5795V86.4649H71.9555V86.0889H72.3315V85.713H73.0833V85.337H73.4593V84.961H73.8353V84.585H74.5871V83.8332H75.3389V83.4573H75.7149V83.0813H76.0909V82.7053H76.8427V82.3293H77.2187V81.9534H77.5947V81.5774H77.9707V80.8256H77.5947V81.2015H77.2187V81.5775H76.4669V81.9535H76.0909V82.3295H75.7149V82.7054H75.3389V83.0814H74.5871V83.4574H74.2111V83.8334H73.8351V84.2094H73.4591V84.5853H72.7073V84.9613H72.3313V85.3373H71.9553V85.7132H71.2035V86.0892H70.8275V86.4652H70.4515V86.8412H69.6997V87.2171H69.3237V87.5931H68.5719V87.9691H68.1959V88.3451H67.8199V88.721H67.0681V89.097H66.6921V89.473H65.9403V89.849H65.5643V90.2249H64.4365V90.6009H64.0605V90.9769H63.3087V91.3529H62.5568V91.7288H62.1809V92.1048H61.429V92.4808H60.6772V92.8568H59.9254V93.2327H59.5494V93.6087H58.4216V93.9847H57.6697V94.3607H56.9179V94.7366H56.1661V95.1126H55.4143V95.4886H54.2864V95.8646H53.5346V96.2405H52.4068V96.6165H51.655V96.9925H50.5272V97.3685H49.0207V97.7444H48.2688V98.1204H46.0133V98.4964H45.2615V98.8724H44.8855V98.4964H44.5095V98.8724H42.2541V99.2483H41.8781V98.8724H41.5021V99.2483H39.6224V98.8724H39.2465V99.2483H36.615V98.8724H36.239V99.2483H35.4872V98.8724H33.6075V98.4964H32.8557V98.1204H31.352V97.7444H30.6002V97.3685H29.8484V96.9925H29.0966V96.6165H28.3447V96.2405H27.9687V95.8646H27.5928V94.7368H30.6002V95.1128H30.9762V94.7368H31.3522V95.1128H33.9837V95.4887H34.3596V95.1128H37.7429V94.7368H38.1189V95.1128H38.4949V94.7368H40.7504V94.3608H42.2541V93.9848H43.7577V93.6089H44.8855V93.2329H46.0133V92.8569H47.517V92.4809H48.2688V92.1049H49.3966V91.729H50.1485V91.353H50.9003V90.977H52.0281V90.6011H52.7799V90.2251H53.5318V89.8491H54.2836V89.4731H55.0354V89.0972H55.4114V88.7212H56.5392V88.3452H56.9152V87.9692H58.043V87.5933H58.419V87.2173H59.1708V86.8413H59.9227V86.4653H60.2986V86.0894H61.0505V85.7134H61.4265V85.3374H62.1783V84.9614H62.9301V84.5855H63.3061V84.2095H64.0579V83.8335H64.4339V83.4575H65.1857V83.0816H65.5617V82.7056H65.9377V82.3296H66.6895V81.9536H67.0655V81.5777H67.4415V81.2017H67.8175V80.8257H68.5693V80.4497H68.9453V80.0738H69.6971V79.322H70.449V78.946H70.825V78.57H71.5768V78.194H71.9528V77.8181H72.3288V77.4421H72.7047V77.0661H73.0807V76.6901H73.4567V76.3142H72.7049V76.6901H72.3289V77.0661H71.5771V77.8179H70.8252V78.1939H70.0734V78.9457H69.3216V79.3217H68.9456V79.6976H68.5696V80.0736H67.8178V80.4496H67.4418V80.8256H67.0658V81.2015H66.314V81.5775H65.938V81.9535H65.562V82.3295H65.186V82.7054H64.4342V83.0814H63.6824V83.4574H63.3064V83.8334H62.5546V84.2094H62.1786V84.5853H61.8026V84.9613H61.0508V85.3373H60.2989V85.7132H59.9229V86.0892H58.7951V86.841H57.6673V87.217H57.2913V87.593H56.5395V87.9689H55.7877V88.3449H55.0359V88.7209H54.284V89.0969H53.5322V89.4728H52.7804V89.8488H52.0285V90.2248H51.2767V90.6008H50.1489V90.9768H49.3971V91.3527H48.6452V91.7287H47.5174V92.1047H46.3896V92.4806H45.2618V92.8566H43.7581V93.2326H42.6303V93.6086H41.1267V93.9845H39.623V94.3605H39.247V93.9845H38.871V94.3605H35.4877V94.7365H35.1118V94.3605H34.7358V94.7365H33.9839V94.3605H33.2321V94.7365H32.8561V94.3605H32.4801V94.7365H32.1042V94.3605H30.2245V93.9845H29.8485V94.3605H29.4725V93.9845H28.7207V93.6086H27.2171V93.2326H26.4652V92.8566H25.3374V92.4806H24.9614V92.1047H23.8336V91.3529H23.0818V90.9769H23.4578V90.6009H23.0818V90.2249H23.8336V89.849H24.2096V90.2249H24.9614V89.849H25.3374V90.2249H26.8411V90.6009H27.2171V90.2249H27.5931V90.6009H31.7282V90.2249H32.1042V90.6009H32.4801V90.2249H35.1116V89.849H36.6153V89.473H36.9913V89.849H37.3672V89.473H38.4951V89.097H39.9987V88.721H41.1265V88.3451H42.2543V87.9691H43.0062V87.5931H44.134V87.2171H45.2618V86.8412H45.6378V86.4652H46.7656V86.0892H47.8934V85.7132H48.6452V85.3373H49.3971V84.9613H49.7731V84.5853H50.9009V84.2094H51.2768V83.8334H52.0287V83.4574H52.7805V83.0814H53.5323V82.7054H53.9083V82.3295H54.6601V81.9535H55.412V81.5775H56.1638V81.2015H56.5398V80.8256H57.2916V80.4496H58.0434V80.0736H58.4194V79.6976H58.7954V79.3217H59.5472V78.9457H59.9232V78.5697H60.6751V78.1937H61.051V77.8178H61.8029V77.4418H62.1789V77.0658H62.5548V76.6898H62.9308V76.3139H63.6827V75.9379H64.0586V75.5619H64.4346V75.186H65.1865V74.81H65.5624V74.434H65.9384V74.058H66.6903V73.682H67.0662V73.3061H67.4422V72.9301H68.1941V72.1783H68.57V71.4265H68.1941V71.8025H67.8181V72.1784H67.4421V72.5544H67.0661V72.9304H66.6901V73.3064H65.9383V73.6823H65.5623V74.0583H64.8105V74.4343H64.4345V74.8103H64.0585V75.1862H63.6825V75.5622H62.9307V75.9382H62.5547V76.3142H62.1787V76.6901H61.4269V77.0661H61.0509V77.4421H60.6749V77.8181H59.9231V78.194H59.1713V78.9458H58.4194V79.3218H57.6676V79.6978H57.2916V80.0738H56.5398V80.4497H56.1638V80.8257H55.412V81.2017H55.036V81.5777H53.9082V81.9536H53.5322V82.3296H52.7804V82.7056H52.0285V83.0816H51.6525V83.4575H50.9007V83.8335H50.1489V84.2095H49.3971V84.5855H48.6452V84.9614H47.5174V85.3374H47.1414V85.7134H46.0136V86.0894H45.2618V86.4653H44.134V86.8413H43.3822V87.2173H42.2543V87.5933H41.1265V87.9692H39.9987V88.3452H38.4951V88.7212H37.7432V89.0972H35.1118V89.4731H33.6081V89.8491H32.4803V89.4731H32.1043V89.8491H26.4654V89.4731H24.5857V89.0972H23.4579V88.7212H21.9543V87.9694H21.5783V87.5934H21.2023V86.0898H21.9541V85.7138H22.706V86.0898H23.0819V85.7138H24.5856V86.0898H24.9616V85.7138H26.4652V86.0898H26.8412V85.7138H28.7209V85.3378H29.0968V85.7138H29.4728V85.3378H31.7283V84.9619H33.232V84.5859H34.3598V84.2099H35.8634V83.8339H36.9913V83.458H38.1191V83.082H38.8709V82.706H40.3746V82.33H40.7505V81.9541H41.8784V81.5781H42.6302V81.2021H43.382V80.8261H44.1338V80.4502H45.2617V80.0742H45.6376V79.6982H46.3895V79.3222H47.5173V78.5704H48.6451V78.1945H49.0211V77.8185H50.1489V77.4425H50.5249V77.0665H50.9009V76.6906H51.6527V76.3146H52.4045V75.9386H52.7805V75.5626H53.5323V75.1867H53.9083V74.8107H54.6601V74.4347H55.0361V74.0587H55.788V73.6828H56.1639V73.3068H56.9158V72.9308H57.2918V72.5548H57.6677V72.1789H58.4196V71.8029H58.7956V71.4269H59.1715V71.0509H59.9234V70.675H60.2994V70.299H60.6753V69.923H61.0513V69.5471H61.8032V69.1711H62.1791V68.7951H62.5551V68.4191H62.9311V68.0432H63.6829V67.2913H64.0589V66.9154H63.3071V67.2913H62.9311V67.6673H62.5551V68.0433H62.1791V68.4193H61.4273V68.7952H61.0513V69.1712H60.6753V69.5472H59.9235V69.9232H59.5475V70.2991H59.1715V70.6751H58.7956V71.0511H58.0437V71.4271H57.6677V71.803H57.2918V72.179H56.9158V72.555H56.1639V72.931H55.788V73.3069H55.0361V73.6829H54.6601V74.0589H53.9083V74.4349H53.5323V74.8108H52.7805V75.1868H52.4045V75.5628H51.6527V75.9388H50.9009V76.3147H50.5249V76.6907H49.7731V77.0667H49.0212V77.4426H48.6452V77.8186H47.8934V78.1946H47.1416V78.5706H46.3898V78.9465H45.6379V79.3225H45.2619V79.6985H44.1341V80.0745H43.7581V80.4505H42.6303V80.8264H41.8785V81.2024H41.1267V81.5784H39.9989V81.9544H39.247V82.3303H38.4952V82.7063H36.9911V83.0823H36.2393V83.4582H34.7355V83.8342H33.6077V84.2102H32.104V84.5862H29.8485V84.9622H26.8411V85.3381H25.7133V84.9622H25.3373V85.3381H24.5855V84.9622H24.2095V85.3381H23.0817V84.9622H21.202V84.5862H20.826V84.2102H20.45V81.5788H20.826V81.2028H22.7057V80.8269H23.0817V81.2028H23.4576V80.8269H23.8336V81.2028H24.2096V80.8269H25.7133V80.4509H27.5929V80.0749H29.0966V79.6989H30.6002V79.323H32.1039V78.947H32.8557V78.571H33.9835V78.195H35.1113V77.8191H35.8632V77.4431H36.615V77.0671H37.7428V76.6911H38.4946V76.3152H39.2465V75.9392H39.9983V75.5632H40.7501V75.1872H41.5019V74.8113H42.2538V74.4353H43.0056V74.0593H43.3816V73.6833H44.1334V73.3074H44.8852V72.9314H45.6371V72.5554H46.0131V72.1794H46.7649V71.8035H47.5167V71.4275H47.8927V71.0515H48.6445V70.6755H49.0205V70.2996H49.7723V69.9236H50.1483V69.5476H50.9002V69.1716H51.2761V68.7957H52.028V68.4197H52.4039V68.0437H53.1558V67.2919H53.9076V66.9159H54.2836V66.54H55.0354V66.164H55.4114V65.788H55.7874V65.412H56.5392V64.6602H57.291V64.2843H57.667V63.9083H58.043V63.5323H58.419V63.1563H59.1708V62.0285H58.7948V62.4045H58.4189V62.7805H58.0429V63.1565H57.6669V63.5325H57.2909V63.9084H56.5391V64.2844H56.1631V64.6604H55.7871V65.0363H55.4111V65.4123H54.6593V65.7883H54.2833V66.1643H53.9073V66.5403H53.1555V66.9162H52.7795V67.2922H52.4035V67.6682H52.0275V68.0442H51.2757V68.4201H50.8997V68.7961H50.1479V69.1721H49.7719V69.548H49.0201V69.924H48.6441V70.3H47.8923V70.676H47.5163V71.0519H46.7645V71.4279H46.0126V71.8039H45.6366V72.1799H44.8848V72.5558H44.133V72.9318H43.3812V73.3078H43.0052V73.6838H42.2533V74.0597H41.5015V74.4357H40.7497V74.8117H39.9979V75.1877H39.246V75.5636H38.4942V75.9396H37.7424V76.3156H36.9905V76.6916H35.8627V77.0675H35.1109V77.4435H34.3591V77.8195H33.2313V78.1955H32.1034V78.5714H30.9756V78.9474H29.472V79.3234H27.9683V79.6994H26.4647V80.0753H24.585V80.4513H21.2017V80.0753H20.4499V79.3235H20.0739V78.5717H20.4499V75.5644H20.8259V73.6848H21.2019V72.1812H21.5779V70.6775H21.9538V69.5498H22.3298V68.798H22.7058V67.2943H23.0818V66.1666H23.4578V65.4148H23.8338V64.287H24.2098V63.5352H24.5857V62.7834H24.9617V62.0316H25.3377V61.2797H25.7137V60.5279H26.0897V59.7761H26.4657V59.0243H26.8417V58.2725H27.2176V57.5207H27.5936V57.1447H27.9696V56.3929H28.3456V55.6411H28.7216V54.8893H29.0976V54.5133H29.4735V53.7615H29.8495V53.3856H30.2255V52.6338H30.6015V52.2578H30.9775V51.506H31.3535V50.7542H31.7295V50.3782H32.1054V50.0022H32.4814V49.2504H32.8574V48.8744H33.2334V48.1226H33.6094V47.7467H33.9854V46.9948H34.7372V46.243H35.1132V45.8671H35.4892V45.4911H35.8652V44.7393H36.617V43.9875H36.993V43.6115H37.369V42.8597H38.1208V42.1079H38.4968V41.7319H38.8728V41.3559H39.2487V40.98H39.6247V40.604H40.0007V40.228H40.3767V39.852H40.7527V39.4761H41.1287V39.1001H41.5047V38.7241H41.8806V38.3481H42.2566V37.9722H43.0085V37.2204H43.7603V36.4686H44.5121V36.0926H44.8881V35.7166H45.2641V35.3406H45.6401V34.9647H46.3919V34.5887H46.7679V34.2127H47.5197V33.8367H47.8957V33.4608H48.2717V33.0848H48.6477V32.7088H49.3995V32.3328H49.7755V31.9569H50.1515V31.5809H50.9033V31.2049H51.6551V30.8289H52.0311V30.453H52.4071V30.077H53.1589V29.701H53.5349V29.325H54.2867V28.9491H55.0386V28.5731H55.4145V28.1971H56.1664V27.8211H56.9182V27.4452H57.2942V27.0692H58.046V26.6932H58.7978V26.3172H59.5497V25.9413H59.9257V25.5653H61.0535V25.1893H61.4295V24.8133H62.5573V24.4374H63.3091V24.0614H64.0609V23.6854H64.8128V23.3094H65.5646V22.9335H66.6924V22.5575H67.8202V22.1815H68.572V21.8055H69.6999V21.4296H70.8277V21.0536H72.3313V20.6776H73.4591V20.3016H75.3388V19.9257H77.2184V19.5497H77.5944V19.9257H78.3462V19.5497H80.6017V19.9257H80.9777V20.6775H81.3537V21.8053H80.9777V22.1812H81.3537V22.5572H80.9777V24.4368H80.6017V25.1886H80.9777V25.5646H80.6017V26.6924H80.2257V28.196H79.8497V29.6996H79.4738V30.8274H79.0978V31.9551H78.7218V33.0829H78.3458V33.8347H77.9698V34.9625H77.5938V35.7143H77.2178V36.4661H76.8419V37.5939H76.4659V37.9699H76.0899V39.0977H75.7139V39.4736H75.3379V40.6014H74.9619V41.3532H74.5859V42.105H74.21V42.481H73.834V43.2328H73.458V43.9846H73.082V44.3606H72.706V45.1124H72.33V45.8642H71.9541V46.2402H71.5781V46.992H71.2021V47.368H70.8261V48.1198H70.4501V48.4957H70.0741V49.2476H69.6981V49.6235H69.3222V50.3753H68.9462V50.7513H68.5702V51.5031H68.1942V51.8791H67.8182V52.6309H67.4422V53.0069H67.0662V53.3828H66.6903V53.7588H66.3143V54.5106H65.9383V54.8866H65.5623V55.2626H65.1863V55.6385H64.8103V56.0145H64.4343V56.3905H64.0584V57.1423H62.5547V56.7663H62.1787V54.5109H61.8027V54.1349H61.4267V55.6385H61.8027V56.0145H61.4267V56.7663H61.8027V57.8941H61.4267V58.2701H61.8027V59.7737H65.562V60.1497H65.938V60.5257H66.314V63.533H66.69V63.909H66.314V64.285H66.69V64.6609H67.066V64.285H67.8178V64.6609H68.5696V64.285H69.3214V64.6609H69.6974V64.285H70.0734V64.6609H70.8252V66.5405H71.2012V66.9165H70.8252V67.2925H71.2012V69.1721H73.4567V68.7961H73.8327V69.1721H74.9605V69.548H75.3365V69.924H75.7125V73.6832H76.8403V74.0592H77.5921V73.6832H79.0958V74.0592H79.4718V73.6832H79.8478V74.435H80.2237V76.3146H80.5997V77.0664H80.2237V77.4424H80.5997V77.8183H80.2237V78.1943H80.5997V78.5703H83.2312V78.1943H83.6072V78.5703H83.9832V78.1943H84.735V78.5703H85.111V78.1943H86.2388V77.4425H85.487V77.8185H85.111V77.4425H84.735V77.8185H84.359V77.4425H83.983V77.8185H83.607V77.4425H83.231V77.0665H82.8551V76.3147H83.231V75.9388H83.607V75.187H84.3589V74.4351H84.7348V74.0592H85.1108V73.3074H85.4868V72.9314H85.8628V72.5554H86.2388V71.8036H86.6148V71.4276H86.9908V71.0517H87.3668V70.6757H87.7427V69.9239H88.1187V69.1721H88.4947V68.7961H88.8707V68.4201H89.2467V67.6683H89.6227V67.2923H89.9986V66.5405H90.3746V66.1646H90.7506V65.4128H91.1266V65.0368H91.5026V64.285H91.8786V63.5332H92.2546V63.1572H92.6305V62.4054H93.0065V61.6536H93.3825V60.9018H93.7585V60.5258H94.1345V59.774H94.5105V59.0222H94.8865V58.2704H95.2624V57.5186H95.6384V56.7668H96.0144V56.015H96.3904V54.8872H96.7664V54.1354H97.1424V53.0076H97.5184V52.2558H97.8943V51.128H98.2703V50.3762H98.6463V48.8726H99.0223V47.7448H99.3983V46.617H99.7743V46.241H99.3983V45.8651H99.7743V44.3615H100.15V42.8578H100.526V42.4819H100.15V42.1059H100.526V39.4745H100.902V39.0985H100.526V37.5949H100.898V37.5916ZM86.2374 18.0441H87.3652V18.42H87.7412V19.1719H86.2375L86.2374 18.0441ZM83.2299 15.7887V16.1646H84.3577V16.9164H84.7337V17.6682H85.1097V18.0442H84.7337V18.796H83.9819V19.172H83.23V18.796H82.4782V18.42H82.1022V17.6682H81.7262V16.5405H82.1022V16.1645H82.4782V15.7885L83.2299 15.7887ZM81.3503 13.5331H81.7262V13.1571H82.1022V13.5331H82.8541V14.2849H82.4781V14.6609H82.1021V14.2849H81.7261V13.9089H81.3501V13.5331H81.3503ZM6.16516 73.3035H5.03735V72.9275H4.66136V72.5516H4.28538V71.7998H3.90939V71.0479H3.53341V70.2961H3.15742V69.5443H2.78144V68.7925H2.40545V67.2889H2.02946V66.1611H1.65348V65.7852H2.02946V65.4092H1.65348V62.026H1.27821V61.65H1.65419V60.8982H1.27821V60.5222H1.65419V58.2669H2.03018V57.891H1.65419V57.515H2.03018V55.6354H2.40616V53.7558H2.78215V52.2522H3.15814V51.1244H3.53412V49.9966H3.91011V48.8689H4.28609V48.1171H4.66208V46.9893H5.03806V46.2375H5.41405V45.1097H5.79003V43.9819H6.16602V43.6059H6.542V42.8541H6.91799V41.7263H7.29398V41.3504H7.66996V40.5986H8.04595V39.8468H8.42193V39.0949H8.79792V38.3431H9.1739V37.9672H9.54989V37.2154H9.92587V36.4636H10.3019V36.0876H10.6778V35.3358H11.0538V34.9598H11.4298V34.208H11.8058V33.4562H12.1818V33.0802H12.5578V32.7042H12.9338V31.9524H13.3097V31.2006H13.6857V30.8246H14.0617V30.4487H14.4377V29.6969H14.8137V29.3209H15.1897V28.5691H15.5657V28.1931H15.9416V27.8171H16.3176V27.4412H16.6936V26.6894H17.0696V26.3134H17.4456V25.9374H17.8216V25.5614H18.1976V24.8096H18.9494V24.0578H19.3254V23.6818H19.7014V23.3059H20.0773V22.5541H20.8292V22.1781H21.2052V21.8021H21.5811V21.4261H21.9571V20.6743H22.709V19.9225H23.4608V19.5465H23.8368V19.1706H24.2128V18.7946H24.5887V18.4186H24.9647V18.0426H25.3407V17.6667H26.0925V16.9149H26.8444V16.5389H27.2203V16.1629H27.9722V15.4111H28.724V15.0351H29.1V14.6592H29.8518V14.2832H30.2278V13.9072H30.6038V13.5312H31.3556V13.1553H31.7316V12.7793H32.4834V12.4033H32.8594V12.0273H33.6112V11.6514H33.9872V11.2754H34.7391V10.8994H35.115V10.5234H35.8669V10.1475H36.2429V9.77149H36.9947V9.39551H37.7465V9.01954H38.1225V8.64356H38.8743V8.26759H39.6262V7.89161H40.378V7.51564H41.1298V7.13966H41.5058V6.76369H42.2576V6.38771H43.3854V6.01174H43.7614V5.63577H44.8892V5.25979H45.6411V4.88382H46.3929V4.50784H47.1447V4.13187H48.2725V3.75589H49.0244V3.37992H50.528V3.00394H51.2799V2.62797H52.4077V2.25199H53.9113V1.87602H55.791V1.50004H57.2946V1.12792H59.5501V0.751949H59.9261V1.12792H60.3021V0.751949H61.0539V1.12792H61.4299V0.751949H61.8059V1.12792H62.1819V0.751949H63.6855V1.12792H64.0615V0.751949H64.4375V1.12792H64.8135V0.751949H65.1895V1.12792H67.0691V1.5039H68.5728V1.87987H70.0764V2.25585H70.8282V2.63182H71.5801V3.0078H72.3319V3.38377H72.7079V3.75975H73.4597V4.13572H73.8357V4.88753H74.2117V5.2635H73.4598V5.63948H73.0839V5.2635H72.7079V5.63948H72.3319V5.2635H70.8282V4.88753H70.0764V5.2635H69.7004V4.88753H64.4375V5.2635H64.0615V4.88753H63.3097V5.2635H61.806V5.63948H59.5505V6.01545H58.0469V6.39143H56.5432V6.7674H55.4154V7.14338H54.6636V7.51935H53.5358V7.89533H52.4079V8.2713H51.6561V8.64728H50.5283V9.02325H49.7765V9.39923H49.0247V9.7752H48.2728V10.1512H47.521V10.5272H46.7692V10.9031H46.0173V11.2791H45.2655V11.6551H44.5137V12.031H43.7619V12.407H43.01V12.783H42.634V13.159H41.8822V13.5349H41.5062V13.9109H40.3784V14.2869H40.0024V14.6629H39.6264V15.0388H38.8746V15.4148H38.4986V15.7908H38.1226V16.1668H36.9948V16.5427H36.6188V16.9187H36.2429V17.2947H35.491V17.6707H35.115V18.0466H34.3632V18.4226H33.9872V18.7986H33.6112V19.1746H33.2353V19.5505H32.4834V19.9265H32.1074V20.3025H31.7315V20.6785H31.3555V21.0544H30.6036V21.4304H30.2277V21.8064H29.8517V22.1824H29.4757V22.5583H28.7239V22.9343H28.3479V23.3103H27.9719V23.6863H27.5959V24.0622H27.2199V24.4382H26.8439V24.8142H26.4679V25.1902H26.092V25.5661H25.716V25.9421H25.34V26.3181H24.964V26.6941H24.588V27.07H24.212V27.8218H23.4602V28.5737H23.0842V28.9496H22.7082V29.3256H22.3323V29.7016H21.9563V30.0776H21.5803V30.4535H21.2043V31.2053H20.8283V31.5813H20.4523V31.9573H20.0763V32.3333H19.7004V33.0851H19.3244V33.8369H18.5725V34.5887H18.1966V35.3405H17.8206V35.7165H17.4446V36.0924H17.0686V36.8442H16.6926V37.2202H16.3166V37.972H15.9406V38.348H15.5647V39.0998H15.1887V39.8516H14.8127V40.2276H14.4367V40.9794H14.0607V41.3554H13.6847V42.1072H13.3087V42.859H12.9328V43.6108H12.5568V43.9868H12.1808V45.1145H11.429V46.2423H11.053V46.9941H10.677V47.7459H10.301V48.8737H9.92502V49.2497H9.54903V50.3775H9.17305V51.1293H8.79706V52.2571H8.42107V53.0089H8.04509V54.1367H7.6691V55.6403H7.29312V56.768H6.91713V57.5199H6.54115V57.8958H6.91713V58.2718H6.54115V59.3996H6.16516V61.2792H5.78918V62.031H6.16516V62.407H5.78918V64.2865H5.41319V64.6625H5.78918V65.0385H5.41319V65.4145H5.78918V65.7904H5.41319V66.5422H5.78918V66.9182H5.41319V67.67H5.78918V68.046H5.41319V68.422H5.78918V68.798H5.41319V69.1739H5.78918V70.6775H6.16516V73.3035ZM10.6763 75.1831H10.3003V75.5591H10.6763V77.4387H9.54846V77.0627H9.17247V76.6867H8.79649V76.3107H8.4205V75.5589H8.04452V74.8071H7.66853V73.6793H7.29255V72.9275H6.91656V71.4239H6.54058V69.5443H6.16516V69.1684H6.54115V68.7924H6.16516V63.5296H6.54115V61.2742H6.91713V60.8982H6.54115V60.5222H6.91713V59.3944H7.29312V57.5149H7.6691V56.3871H8.04509V55.2593H8.42107V54.1315H8.79706V53.7555H9.17305V53.3796H8.79706V53.0036H9.17305V51.8758H9.54903V51.124H9.92502V50.3722H10.301V49.2444H10.677V48.4926H11.053V47.7408H11.429V46.989H11.8049V46.2372H12.1809V45.4854H12.5569V44.7336H12.9329V43.9818H13.3089V43.6058H13.6849V42.854H14.0609V42.1022H14.4368V41.3504H14.8128V40.9744H15.1888V40.2226H15.5648V39.8466H15.9408V39.0948H16.3168V38.343H16.6928V37.967H17.0687V37.2152H17.4447V36.8392H17.8207V36.0874H18.1967V35.7115H18.5727V35.3355H18.9487V34.5837H19.3247V34.2077H19.7006V33.4559H20.0766V33.0799H20.4526V32.7039H20.8286V31.9521H21.5804V31.2003H21.9564V30.4485H22.7082V29.6967H23.0842V29.3207H23.4602V28.9448H23.8362V28.5688H24.2122V28.1928H24.5882V27.8168H24.9642V27.065H25.716V26.3132H26.4678V25.5614H26.8438V25.1855H27.5956V24.4336H28.3474V24.0577H28.7234V23.3059H29.4753V22.9299H29.8512V22.5539H30.2272V22.1779H30.9791V21.802H31.355V21.426H31.731V21.05H32.107V20.674H32.483V20.2981H33.2348V19.9221H33.6108V19.5461H34.3626V18.7943H35.1145V18.4183H35.4905V18.0424H36.2423V17.6664H36.6183V17.2904H37.3701V16.9144H37.7461V16.5385H38.4979V16.1625H38.8739V15.7865H39.6257V15.4105H40.0017V15.0346H40.7535V14.6586H41.5054V14.2826H41.8814V13.9066H42.6332V13.5307H43.385V13.1547H43.761V12.7787H44.5128V12.4027H45.2647V12.0268H46.0165V11.6508H46.3925V11.2748H47.5203V10.8988H48.2721V10.5229H49.0239V10.1469H49.7758V9.77092H50.5276V9.39494H51.2794V9.01897H52.4072V8.64299H53.1591V8.26702H54.2869V7.89104H55.4147V7.51507H56.1665V7.13909H57.6702V6.76312H59.1738V6.38714H61.0535V6.01117H62.9331V5.63519H67.0682V5.25922H67.4442V5.63519H68.1961V5.25922H68.572V5.63519H70.8275V6.01117H71.2035V5.63519H71.5795V6.01117H72.7073V6.38714H74.211V6.76312H75.3388V7.13909H75.7148V7.51507H76.8426V7.89104H77.2186V8.26702H77.5946V8.64299H77.9705V9.01897H78.3465V9.77077H77.9705V10.1467H77.5946V9.77077H77.2186V10.1467H76.4667V9.77077H76.0908V10.1467H75.7148V9.77077H73.8351V9.3948H73.0833V9.77077H72.7073V9.3948H71.5795V9.77077H71.2035V9.3948H70.8275V9.77077H70.4515V9.3948H70.0756V9.77077H69.6996V9.3948H69.3236V9.77077H66.6921V10.1467H65.1885V10.5227H63.3058V10.8987H62.178V11.2747H60.2984V11.6506H59.5465V12.0266H58.4187V12.4026H57.6669V12.7786H56.5391V13.1545H55.7872V13.5305H54.6594V13.9065H53.9076V14.2825H52.7798V14.6584H52.4038V15.0344H51.652V15.4104H51.276V15.7864H50.1482V16.1623H49.3964V16.5383H49.0204V16.9143H48.2685V17.2903H47.5167V17.6662H46.7649V18.0422H46.3889V18.4182H45.6371V18.7942H44.8852V19.1701H44.5093V19.5461H43.7574V19.9221H43.0056V20.2981H42.6296V20.674H42.2536V21.05H41.5018V21.426H41.1258V21.802H40.7498V22.1779H39.998V22.5539H39.2462V22.9299H38.8702V23.3059H38.4942V23.6818H37.7424V24.0578H37.3664V24.4338H36.9904V24.8098H36.2386V25.5616H35.4867V25.9375H35.1108V26.3135H34.7348V26.6895H34.3588V27.0655H33.9828V27.4414H33.231V28.1933H32.4791V28.5692H32.1032V28.9452H31.7272V29.3212H31.3512V29.6972H30.9752V30.0731H30.5992V30.4491H30.2232V30.8251H29.8472V31.201H29.4713V31.577H29.0953V31.953H28.7193V32.329H28.3433V32.7049H27.9673V33.0809H27.5913V33.8327H27.2153V34.2087H26.8394V34.5847H26.4634V34.9607H26.0874V35.3366H25.7114V36.0884H25.3354V36.4644H24.9594V36.8404H24.5835V37.5922H24.2075V37.9682H23.8315V38.3441H23.4555V39.0959H23.0795V39.4719H22.7035V39.8479H22.3275V40.5997H21.9516V40.9757H21.5756V41.7275H21.1996V42.1035H20.8236V42.8553H20.4476V43.2312H20.0716V43.983H19.6956V44.7349H19.3197V45.1108H18.9437V45.8626H18.5677V46.6144H18.1917V46.9904H17.8157V47.7422H17.4397V48.494H17.0637V49.2458H16.6878V49.9976H16.3118V50.7495H15.9358V51.1254H15.5598V52.2532H15.1838V52.6292H14.8078V53.757H14.4318V54.5088H14.0559V55.2606H13.6799V56.3884H13.3039V56.7643H12.9279V58.2679H12.5519V59.3957H12.1759V60.5235H11.7999V62.0271H11.424V63.5307H11.048V64.2825H10.672V64.6585H11.048V65.0345H10.672V67.6659H10.296V74.0565H10.672V75.1831H10.6763ZM15.1874 82.3255H14.4356V81.9495H14.0596V80.8217H15.1874V82.3255ZM15.1874 70.6721V73.3035H14.8114V73.6795H15.1874V74.0555H14.8114V75.935H15.1874V76.311H14.8114V76.687H15.1874V77.063H14.8114V77.8148H15.1874V78.1907H14.8114V78.5667H15.1874V78.9427H14.8114V79.3187H14.0596V79.6946H13.6836V79.3187H12.9318V78.9427H12.1799V77.8149H11.8039V77.4389H11.428V77.063H11.8039V76.687H11.428V75.5592H11.052V75.1832H11.428V74.8073H11.052V72.5517H10.676V72.1757H11.052V71.7998H10.676V71.0479H11.052V70.2961H10.676V69.9202H11.052V69.5442H10.676V69.1682H11.052V66.9128H11.428V64.6574H11.8039V62.7778H12.1799V61.2742H12.5559V60.5224H12.9319V59.0188H13.3079V58.2669H13.6839V57.1392H14.0599V56.0114H14.4358V55.2596H14.8118V54.5078H15.1878V53.38H15.5638V52.6282H15.9398V52.2522H16.3158V51.5004H16.6918V50.3726H17.0677V49.6208H17.4437V49.2448H17.8197V48.493H18.1957V47.7412H18.5717V46.9894H18.9477V46.6134H19.3237V45.8616H19.6996V45.1098H20.0756V44.7339H20.4516V43.9821H20.8276V43.2302H21.2036V42.8543H21.5796V42.1025H21.9556V41.7265H22.3315V40.9747H22.7075V40.5987H23.0835V40.2227H23.4595V39.4709H23.8355V39.0949H24.2115V38.719H24.5875V37.9672H24.9634V37.5912H25.3394V36.8394H25.7154V36.4634H26.0914V36.0874H26.4674V35.7115H26.8434V35.3355H27.2193V34.5837H27.5953V34.2077H27.9713V33.8317H28.3473V33.4558H28.7233V32.7039H29.4751V31.9521H30.2269V31.2003H30.6029V30.8244H30.9789V30.4484H31.3549V30.0724H32.1067V29.3206H32.4827V28.9446H33.2345V28.5687H33.6105V28.1927H33.9865V27.8167H34.3625V27.4407H34.7385V27.0648H35.4903V26.3129H36.2421V25.937H36.6181V25.561H36.9941V25.185H37.3701V24.809H37.7461V24.4331H38.4979V24.0571H38.8739V23.6811H39.6257V23.3052H40.0017V22.9292H40.7535V22.5532H41.1295V22.1772H41.5055V21.8012H42.2573V21.4253H42.6333V21.0493H43.3852V20.6733H43.7611V20.2974H44.513V19.9214H45.2648V19.5454H45.6408V19.1694H46.0168V18.7935H46.7686V18.4175H47.5204V18.0415H48.2723V17.6655H48.6482V17.2896H49.4001V16.9136H50.1519V16.5376H50.9037V16.1616H51.6555V15.7857H52.4074V15.4097H53.1592V15.0337H53.911V14.6577H54.287V14.2818H54.663V14.6577H55.039V14.2818H55.415V13.9058H56.5428V13.5298H57.2946V13.1538H58.4224V12.7779H59.1743V12.4019H59.5502V12.7779H59.9262V12.4019H60.3022V12.0259H61.43V11.6499H63.3097V11.274H63.6857V10.898H64.0616V11.274H64.8135V10.898H66.3171V10.522H68.1968V10.146H68.5728V10.522H68.9487V10.146H69.3247V10.522H69.7007V10.146H74.5878V10.522H76.8433V10.898H78.3469V11.274H79.0988V11.6499H79.4748V12.0259H79.8508V12.4019H80.2267V13.9055H79.8508V14.2815H77.2193V13.9055H76.8433V14.2815H73.084V14.6574H72.708V14.2815H72.332V14.6574H70.0766V15.0334H68.5729V15.4094H67.4451V15.7854H65.9414V16.1613H64.8136V16.5373H63.6858V16.9133H62.558V17.2893H61.8062V17.6652H60.6783V18.0412H59.9265V18.4172H59.1747V18.7932H58.0469V19.1691H57.295V19.5451H56.5432V19.9211H55.7914V20.2971H55.0396V20.673H54.6636V21.049H53.5358V21.425H53.1598V21.801H52.4079V22.1769H52.032V22.5529H50.9042V22.9289H50.5282V23.3049H50.1522V23.6808H49.4004V24.0568H48.6485V24.4328H48.2725V24.8088H47.5207V25.1847H47.1447V25.5607H46.3929V25.9367H46.0169V26.3127H45.2651V26.6886H44.8891V27.0646H44.5131V27.4406H43.7613V27.8166H43.3853V28.1925H42.6335V28.5685H42.2575V28.9445H41.8815V29.3205H41.1297V30.0723H40.3778V30.4482H40.0019V30.8242H39.25V31.576H38.4982V31.952H38.1222V32.328H37.7462V32.7039H37.3702V33.0799H36.9943V33.4559H36.6183V33.8319H36.2423V34.2078H35.8663V34.5838H35.1145V35.3356H34.7385V35.7116H34.3625V36.0876H33.9865V36.4636H33.6105V36.8395H33.2345V37.2155H32.8586V37.5915H32.4826V38.3433H31.7307V39.0951H31.3548V39.4711H30.9788V39.847H30.6028V40.223H30.2268V40.9748H29.8508V41.3508H29.4748V41.7268H29.0989V42.4786H28.7229V42.8546H28.3469V43.2305H27.9709V43.9823H27.5949V44.3583H27.2189V44.7343H26.8429V45.4861H26.4669V45.8621H26.091V46.6139H25.715V46.9898H25.339V47.7417H24.963V48.4935H24.587V48.8694H24.211V49.2454H23.8351V49.9972H23.4591V50.749H23.0831V51.5008H22.7071V52.2526H22.3311V52.6286H21.9551V53.3804H21.5791V54.1322H21.2032V54.884H20.8272V55.26H20.4512V56.3878H20.0752V57.1396H19.6992V57.8914H19.3232V58.6432H18.9472V59.771H18.5713V60.5228H18.1953V61.2746H17.8193V62.4024H17.4433V63.1542H17.0673V64.6578H16.6913V65.7856H16.3153V66.5374H15.9394V66.9134H16.3153V67.2893H15.9394V68.4171H15.5634V68.7931H15.9394V69.1691H15.5634V70.6727H15.1874V70.6721ZM18.1948 84.2051V83.8291H17.067V83.0773H16.691V81.5737H17.067V81.1977H18.9467V81.5737H19.3227V81.9496H19.6986V83.8292H19.3227V84.2052L18.1948 84.2051ZM20.0745 86.0846H19.6985V86.8365H18.9467V86.4605H18.5707V85.7087H19.3225V85.3327H19.6985V85.7087H20.0745V86.0846ZM80.9744 17.6681V18.4199H80.5984V18.7959H78.7188V19.1719H76.0873V19.5478H75.7113V19.1719H75.3354V19.5478H73.8317V19.9238H72.7039V20.2998H71.2002V20.6758H70.0724V21.0517H68.5688V21.4277H67.8169V21.8037H66.6891V22.1797H65.9373V22.5556H64.8095V22.9316H64.0576V23.3076H63.3058V23.6836H62.554V24.0595H61.8022V24.4355H61.0503V24.8115H60.2985V25.1875H59.5467V25.5634H58.7948V25.9394H58.043V26.3154H57.2912V26.6913H56.9152V27.0673H56.1634V27.4433H55.4115V27.8193H55.0356V28.1953H54.2837V28.5712H53.5319V28.9472H53.1559V29.3232H52.4041V29.6992H52.0281V30.0751H51.2763V30.4511H50.9003V30.8271H50.1485V31.203H49.7725V31.579H49.3965V31.955H48.6447V32.331H48.2687V32.707H47.8927V33.0829H47.1409V33.4589H46.7649V33.8349H46.3889V34.2108H45.6371V34.5868H45.2611V34.9628H44.5093V35.7146H43.7574V36.0906H43.3814V36.4666H43.0055V36.8425H42.6295V37.2185H42.2535V37.5945H41.5017V38.3463H41.1257V38.7223H40.3738V39.4741H39.622V40.2259H38.8702V40.9777H38.4942V41.3537H38.1182V41.7296H37.7422V42.1056H37.3662V42.4816H36.9903V42.8576H36.6143V43.6094H36.2383V43.9853H35.8623V44.3613H35.4863V44.7373H35.1103V45.1133H34.7343V45.8651H34.3584V46.241H33.9824V46.617H33.6064V46.993H33.2304V47.7448H32.8544V48.1208H32.4784V48.8726H32.1024V49.2486H31.7265V50.0004H31.3505V50.3763H30.9745V50.7523H30.5985V51.5041H30.2225V52.2559H29.8465V52.6319H29.4705V53.3837H29.0946V53.7597H28.7186V54.5115H28.3426V55.2633H27.9666V55.6393H27.5906V56.0152H27.2146V57.143H26.8386V57.519H26.4627V58.2708H26.0867V59.0226H25.7107V59.7744H25.3347V60.5262H24.9587V61.278H24.5827V62.0298H24.2068V62.7816H23.8308V63.5335H23.4548V64.6612H23.0788V65.413H22.7028V66.5408H22.3268V67.2926H21.9508V68.7962H21.5749V69.548H21.1989V71.0517H20.8229V72.5553H20.4469V74.0589H20.0709V74.4349H20.4469V74.8108H20.0709V75.9386H19.6949V76.3146H20.0709V76.6906H19.6949V79.322H19.3189V80.0738H18.943V80.4497H18.567V80.0738H18.191V80.4497H17.0632V80.0738H16.3113V79.6978H15.9354V78.946H15.5594V78.57H15.9354V78.194H15.5594V72.5517H15.9354V70.2963H16.3113V68.0409H16.6873V66.9131H17.0633V65.4093H17.4393V64.2815H17.8153V63.1538H18.1913V62.402H18.5673V61.2742H18.9432V60.5224H19.3192V59.0188H19.6952V58.6428H20.0712V57.891H20.4472V57.1392H20.8232V56.3874H21.1992V55.2596H21.5751V54.8836H21.9511V54.1318H22.3271V53.38H22.7031V52.6282H23.0791V51.8764H23.4551V51.5004H23.8311V50.7486H24.207V49.9968H24.583V49.6208H24.959V48.869H25.335V48.493H25.711V47.7412H26.087V46.9894H26.4629V46.6134H26.8389V46.2375H27.2149V45.4857H27.5909V44.7339H27.9669V44.3579H28.3429V43.6061H29.0947V42.8543H29.4707V42.4783H29.8467V41.7265H30.2227V41.3505H30.5986V40.9745H30.9746V40.2227H31.7265V39.4709H32.1024V39.0949H32.4784V38.719H32.8544V38.343H33.2304V37.5912H33.9822V36.8394H34.3582V36.4634H34.7342V36.0874H35.1102V35.7115H35.4862V35.3355H35.8622V34.9595H36.2381V34.5835H36.6141V34.2076H36.9901V33.8316H37.3661V33.4556H38.1179V33.0796H38.4939V32.3278H39.2457V31.9519H39.6217V31.5759H39.9977V31.1999H40.3737V30.8239H41.1255V30.448H41.5015V30.072H41.8775V29.696H42.2535V29.32H42.6295V28.9441H43.3813V28.5681H43.7573V28.1921H44.5091V27.8161H44.8851V27.4402H45.2611V27.0642H46.0129V26.6882H46.7647V26.3122H47.1407V25.9363H47.5167V25.5603H48.2685V25.1843H48.6445V24.8083H49.3964V24.4324H50.1482V24.0564H50.5242V23.6804H51.276V23.3044H52.0278V22.9285H52.4038V22.5525H53.1556V22.1765H53.5316V21.8005H54.2834V21.4246H55.4113V21.0486H55.7872V20.6726H56.5391V20.2966H57.2909V19.9207H58.0427V19.5447H58.7946V19.1687H59.9224V18.7927H60.6742V18.4168H61.426V18.0408H62.5538V17.6648H63.6817V17.2888H64.4335V16.9129H65.5613V16.5369H67.065V16.1609H68.1928V15.7849H69.6964V15.409H71.5761V15.033H71.952V15.409H72.328V15.033H74.9595V14.657H75.3355V15.033H75.7115V14.657H76.0875V15.033H76.4634V14.657H76.8394V15.033H77.2154V14.657H77.5914V15.033H78.7192V14.657H79.0952V15.033H80.223V15.409H80.599V15.7849H80.975V16.5367H81.351V16.9127H80.975V17.2887H81.351V17.6647H80.9744V17.6681ZM68.5689 61.6502H68.1929V62.0261H67.4411V61.6502H67.0651V60.8983H66.6891V60.5224H67.0651V60.1464H66.6891V59.0186H64.8095V58.6426H64.4335V58.2667H64.0575V57.8907H64.4335V57.1389H64.8095V56.7629H65.1855V56.0111H65.9373V55.2593H66.3133V54.8833H66.6893V54.5073H67.0652V53.7555H67.8171V53.0037H68.1931V52.6278H68.569V51.8759H68.945V51.5H69.321V50.7482H69.697V50.3722H70.073V49.6204H70.449V49.2444H70.825V48.8684H71.2009V48.1166H71.5769V47.3648H71.9529V46.9888H72.3289V46.6129H72.7049V45.8611H73.0809V45.1093H73.4568V44.3575H73.8328V43.9815H74.2088V43.2297H74.5848V42.4779H74.9608V41.7261H75.3368V41.3501H75.7128V40.2223H76.0888V39.8463H76.4647V38.7185H77.2166V37.2149H77.5926V36.4631H77.9685V35.7113H78.3445V34.5835H78.7205V33.8317H79.0965V32.7039H79.4725V31.9521H79.8485V30.4485H80.2244V29.3207H80.6004V27.8171H80.9764V26.3135H81.3524V24.8099H81.7284V24.4339H81.3524V24.058H81.7284V21.8025H82.1044V21.4266H81.7284V20.6748H82.1044V19.9229H82.8562V19.547H83.2322V19.9229H83.6082V19.547H84.36V19.9229H85.1118V20.2989H85.4878V20.6749H85.8638V21.0509H85.4878V21.4268H85.8638V27.8174H85.4878V28.1934H85.8638V28.5694H85.4878V30.449H85.1118V32.3285H84.7358V33.4563H84.3599V34.9599H83.9839V36.0877H83.6079V37.2155H83.2319V37.9673H82.8559V39.0951H82.4799V39.8469H82.104V40.5987H81.728V41.7265H81.352V42.4783H80.976V43.2301H80.6V43.9819H80.224V44.7337H79.848V45.4855H79.4721V46.2373H79.0961V46.9891H78.7201V47.3651H78.3441V48.1169H77.9681V48.8687H77.5921V49.6205H77.2161V49.9965H76.8401V50.7483H76.4642V51.1243H76.0882V51.8761H75.7122V52.6279H75.3362V53.0039H74.9602V53.3798H74.5842V54.1317H74.2083V54.5076H73.8323V55.2594H73.4563V55.6354H73.0803V56.3872H72.7043V56.7632H72.3283V57.1392H71.9523V57.891H71.5763V58.2669H71.2004V58.6429H70.8244V59.3947H70.4484V59.7707H70.0724V60.1467H69.6964V60.5227H69.3204V60.8986H68.9445V61.2746H68.5685V61.6502H68.5689ZM73.4559 65.7853V66.5371H71.9522V66.1611H71.5762V64.2815H71.2002V63.5297H69.3206V63.1538H68.9446V62.026H69.3206V61.65H69.6966V61.274H70.0726V60.5222H70.4485V60.1462H70.8245V59.7703H71.2005V59.3943H71.5765V58.6425H72.3283V57.8907H72.7043V57.1389H73.0803V56.7629H73.4563V56.3869H73.8323V55.6351H74.2083V55.2591H74.5842V54.5073H74.9602V54.1314H75.3362V53.3796H75.7122V53.0036H76.0882V52.6276H76.4642V52.2516H76.8401V51.1239H77.2161V50.7479H77.5921V49.9961H77.9681V49.6201H78.3441V48.8683H78.7201V48.1165H79.0961V47.3647H79.4721V46.9887H79.848V46.2369H80.224V45.4851H80.6V44.7333H80.976V43.9815H81.352V43.2297H81.728V42.4779H82.104V41.7261H82.4799V40.5983H82.8559V39.8465H83.2319V38.7187H83.6079V37.9669H83.9839V36.8391H84.3599V36.0873H84.7358V34.5837H85.1118V33.0801H85.4878V31.9523H85.8638V30.0727H86.2398V27.4413H86.6158V20.6749H88.4954V21.0509H89.2472V22.1787H89.6232V22.9305H89.9992V24.4341H90.3752V26.6895H90.7512V27.0655H90.3752V27.4414H90.7512V27.8174H90.3752V28.1934H90.7512V29.3212H90.3752V29.6972H90.7512V30.449H90.3752V30.8249H90.7512V31.2009H90.3752V33.8323H89.9992V36.0877H89.6232V37.2155H89.2472V37.5915H89.6232V37.9675H89.2472V38.7193H88.8713V39.847H88.4953V40.9748H88.1193V42.1026H87.7433V43.2304H87.3673V43.9822H86.9913V45.11H86.6153V45.8618H86.2394V46.6136H85.8634V47.3654H85.4874V48.1172H85.1114V48.869H84.7354V49.6208H84.3594V50.7486H83.9834V51.1246H83.6075V51.8764H83.2315V52.6282H82.8555V53.0042H82.4795V53.756H82.1035V54.5078H81.7275V54.8837H81.3515V55.6356H80.9756V56.3874H80.5996V56.7633H80.2236V57.5151H79.8476V57.8911H79.4716V58.6429H79.0956V59.0189H78.7197V59.3949H78.3437V60.1467H77.9677V60.5227H77.5917V61.2745H76.8399V62.0263H76.4639V62.7781H76.0879V63.154H75.7119V63.53H75.3359V63.906H74.9599V64.6578H74.584V65.0338H74.208V65.4098H73.832V65.7857H73.4559V65.7853ZM100.147 37.9676H99.7706V38.3436H100.147V38.7195H99.7706V39.4713H100.147V40.2232H99.7706V43.2305H99.3946V44.7341H99.0186V46.6137H98.6426V48.1173H98.2666V49.2451H97.8906V50.3729H97.5146V51.1247H97.1386V52.2525H96.7627V53.3803H96.3867V54.5081H96.0107V55.2599H95.6347V56.0117H95.2587V56.7635H94.8827V57.5153H94.5068V58.2671H94.1308V59.0189H93.7548V59.7707H93.3788V60.5225H93.0028V60.8985H92.6268V61.6503H92.2508V62.4021H91.8749V63.1539H91.4989V63.5299H91.1229V64.2817H90.7469V65.0335H90.3709V65.4095H89.9949V65.7854H89.6189V66.5373H89.243V67.2891H88.867V67.665H88.491V68.4168H88.115V68.7928H87.739V69.1688H87.363V69.9206H86.987V70.2966H86.6111V71.0484H86.2351V71.4243H85.8591V71.8003H85.4831V72.5521H85.1071V72.9281H84.7311V73.3041H84.3551V74.0559H83.9792V74.4319H83.2273V75.1837H82.8513V75.5596H82.4754V75.9356H81.3475V75.1838H80.9716V74.8078H80.5956V74.056H80.9716V73.6801H80.5956V72.9282H78.7159V72.5523H78.34V71.4245H78.7159V71.0485H79.0919V70.2967H79.4679V69.9207H79.8439V69.5448H80.2199V69.1688H80.5959V68.417H80.9718V68.041H81.3478V67.665H81.7238V66.9132H82.4756V65.7854H82.0997V66.1614H81.7237V66.5374H81.3477V66.9134H80.9717V67.2893H80.5957V68.0411H80.2197V68.4171H79.8438V68.7931H79.4678V69.5449H79.0918V69.9209H78.7158V70.2969H78.3398V70.6728H77.9638V71.0488H77.5878V71.4248H77.2119V71.0488H76.46V70.6728H76.084V70.2969H76.46V69.9209H76.084V68.4173H74.2044V68.0413H73.8284V66.5377H74.2044V66.1617H74.5804V65.4099H74.9564V65.0339H75.3324V64.6579H75.7083V63.9061H76.0843V63.5302H76.4603V63.1542H77.2121V62.0264H77.5881V61.6504H77.9641V61.2745H78.3401V60.5227H78.7161V60.1467H79.0921V59.7707H79.468V59.0189H79.844V58.6429H80.22V57.8911H80.596V57.5151H80.972V56.7633H81.348V56.3874H81.724V55.6356H82.1V54.8837H82.4759V54.5078H82.8519V53.756H83.2279V53.0042H83.6039V52.6282H83.9799V51.8764H84.3559V51.1246H84.7318V50.7486H85.1078V49.6208H85.4838V48.869H85.8598V48.1172H86.2358V47.3654H86.6118V46.9894H86.9878V45.4858H87.3637V44.734H87.7397V44.358H88.1157V42.8544H88.4917V41.7266H88.8677V40.5988H89.2437V39.4711H89.6197V38.7193H89.9956V37.2156H90.3716V36.0879H90.7476V35.7119H90.3716V34.9601H90.7476V33.0805H91.1236V30.0731H91.4996V29.6972H91.1236V28.9453H91.4996V28.5694H91.1236V27.8176H91.4996V27.4416H91.1236V25.562H90.7476V25.186H91.1236V24.4342H90.7476V22.9306H91.1236V22.5546H92.2514V23.3064H92.6274V23.6824H93.0034V24.0584H93.3794V25.1862H93.7554V25.938H94.1313V27.0658H94.5073V28.1935H94.8833V30.449H95.2593V33.8322H95.6353V34.2081H95.2593V36.8395H94.8833V37.2155H95.2593V37.5915H94.8833V39.4711H94.5073V40.9747H94.1313V43.2301H93.7554V43.9819H93.3794V45.1097H93.0034V46.2375H92.6274V47.3652H92.2514V48.1171H91.8754V49.2448H91.4994V49.9966H91.1235V50.7485H90.7475V51.8762H90.3715V52.628H89.9955V53.3798H89.6195V54.1317H89.2435V54.5076H88.8675V55.2594H88.4916V56.3872H88.1156V56.7632H87.7396V57.515H87.3636V58.2668H86.9876V58.6428H86.6116V59.3946H86.2356V60.1464H85.8597V60.5224H85.4837V61.2742H85.1077V61.6502H84.7317V62.402H84.3557V62.7779H83.9797V63.5297H83.6037V63.9057H83.2278V64.2817H82.8518V65.0335H82.4758V65.7853H83.2276V65.0335H83.6036V64.6575H83.9796V63.9057H84.3556V63.5297H84.7316V62.7779H85.1076V62.402H85.4835V62.026H85.8595V61.2742H86.2355V60.5224H86.6115V60.1464H86.9875V59.3946H87.3635V58.6428H87.7394V58.2668H88.1154V57.515H88.4914V56.7632H88.8674V56.0114H89.2434V55.2596H89.6194V54.5078H89.9954V54.1318H90.3713V53.38H90.7473V52.2522H91.1233V51.8762H91.4993V50.7485H91.8753V49.9966H92.2513V49.2448H92.6273V48.1171H93.0032V46.9893H93.3792V45.8615H93.7552V45.1097H94.1312V43.9819H94.5072V42.4783H94.8832V40.5987H95.2592V39.0954H95.6351V36.464H96.0111V36.088H95.6351V35.712H96.0111V32.7047H95.6351V32.3287H96.0111V31.5769H95.6351V31.2009H96.0111V30.8249H95.6351V28.5695H95.2592V27.4417H95.6351V26.6899H96.387V27.0659H96.763V27.4419H97.1389V28.1937H97.5149V28.5697H97.8909V29.3215H98.2669V30.0733H98.6429V31.201H99.0189V32.3288H99.3949V34.2084H99.7708V37.2158H100.147V37.9676H100.147Z" fill="#00020C"/>
    </g>
</svg>
