<svg width="254" height="100" viewBox="0 0 254 100" fill="none" xmlns="http://www.w3.org/2000/svg">
    <path d="M10.076 72.4592H8.63672V73.1842H10.076V72.4592Z" fill="#00020C"/>
    <path d="M207.276 92.7478H203.678V93.4728H207.276V92.7478Z" fill="#00020C"/>
    <path d="M66.2132 94.9216H61.1754V95.6466H66.2132V94.9216Z" fill="#00020C"/>
    <path d="M234.625 76.8069H231.746V77.5319H234.625V76.8069Z" fill="#00020C"/>
    <path d="M61.1751 94.1973H57.5767V94.9222H61.1751V94.1973Z" fill="#00020C"/>
    <path d="M203.678 93.4722H200.079V94.1971H203.678V93.4722Z" fill="#00020C"/>
    <path d="M66.9335 97.0957V96.3707H71.9713V95.6458H66.2136V97.0957H66.9335Z" fill="#00020C"/>
    <path d="M200.08 94.9216H199.36V95.6466H200.08V94.9216Z" fill="#00020C"/>
    <path d="M195.761 94.9216H190.723V95.6466H195.761V94.9216Z" fill="#00020C"/>
    <path d="M227.428 83.3284H226.708V84.0533H227.428V83.3284Z" fill="#00020C"/>
    <path d="M199.359 94.1973H195.761V94.9222H199.359V94.1973Z" fill="#00020C"/>
    <path d="M72.6909 96.3711V97.0961H74.8501V97.8207H75.5696V97.0961H79.168V96.3711H72.6909Z" fill="#00020C"/>
    <path d="M242.542 73.9087H241.102V74.6337H242.542V73.9087Z" fill="#00020C"/>
    <path d="M12.2352 72.4592H10.7959V73.1842H12.2352V72.4592Z" fill="#00020C"/>
    <path d="M28.0692 77.5312H25.1902V78.2562H28.0692V77.5312Z" fill="#00020C"/>
    <path d="M249.739 73.9087H249.019V74.6337H249.739V73.9087Z" fill="#00020C"/>
    <path d="M248.3 73.1836H247.58V73.9086H248.3V73.1836Z" fill="#00020C"/>
    <path d="M228.148 82.6033H227.428V83.3282H228.148V82.6033Z" fill="#00020C"/>
    <path d="M28.7887 78.2556H28.0688V81.8785H28.7887V78.2556Z" fill="#00020C"/>
    <path d="M29.5084 82.6033H28.7886V83.3282H29.5084V82.6033Z" fill="#00020C"/>
    <path d="M57.5769 93.4722H53.2585V94.1971H57.5769V93.4722Z" fill="#00020C"/>
    <path d="M241.103 75.3574H240.383V76.0824H241.103V75.3574Z" fill="#00020C"/>
    <path d="M230.307 26.8098H229.587V27.5348H230.307V26.8098Z" fill="#00020C"/>
    <path d="M41.7434 19.5642H41.0236V20.2892H41.7434V19.5642Z" fill="#00020C"/>
    <path d="M35.2661 18.8398H34.5463V19.5648H35.2661V18.8398Z" fill="#00020C"/>
    <path d="M25.1903 31.1575H24.4705V31.8824H25.1903V31.1575Z" fill="#00020C"/>
    <path d="M46.0614 18.8398H45.3416V19.5648H46.0614V18.8398Z" fill="#00020C"/>
    <path d="M76.2895 6.52148H75.5697V7.24645H76.2895V6.52148Z" fill="#00020C"/>
    <path d="M69.0923 12.3184H68.3724V13.0433H69.0923V12.3184Z" fill="#00020C"/>
    <path d="M64.0542 12.3184H63.3344V13.0433H64.0542V12.3184Z" fill="#00020C"/>
    <path d="M12.9551 36.2292H12.2352V36.9542H12.9551V36.2292Z" fill="#00020C"/>
    <path d="M3.59887 41.302H2.87903V42.027H3.59887V41.302Z" fill="#00020C"/>
    <path d="M3.59887 58.6924H2.87903V59.4173H3.59887V58.6924Z" fill="#00020C"/>
    <path d="M4.31847 59.4167H3.59863V60.1417H4.31847V59.4167Z" fill="#00020C"/>
    <path d="M80.6078 8.69507H79.8879V9.42003H80.6078V8.69507Z" fill="#00020C"/>
    <path d="M7.19738 40.5769H6.47754V41.3019H7.19738V40.5769Z" fill="#00020C"/>
    <path d="M7.19738 36.9543H6.47754V37.6793H7.19738V36.9543Z" fill="#00020C"/>
    <path d="M171.291 6.52148H170.571V7.24645H171.291V6.52148Z" fill="#00020C"/>
    <path d="M175.609 6.52148H174.89V7.24645H175.609V6.52148Z" fill="#00020C"/>
    <path d="M181.367 13.7671H180.647V14.4921H181.367V13.7671Z" fill="#00020C"/>
    <path d="M184.246 13.0427H183.526V13.7677H184.246V13.0427Z" fill="#00020C"/>
    <path d="M251.179 52.1709H250.459V52.8959H251.179V52.1709Z" fill="#00020C"/>
    <path d="M243.262 36.2292H242.542V36.9542H243.262V36.2292Z" fill="#00020C"/>
    <path d="M106.517 0.725098H105.798V1.45006H106.517V0.725098Z" fill="#00020C"/>
    <path d="M222.39 18.8398H221.67V19.5648H222.39V18.8398Z" fill="#00020C"/>
    <path d="M230.307 30.4331H229.587V31.1581H230.307V30.4331Z" fill="#00020C"/>
    <path d="M123.071 0.725098H113.714V1.45006H123.071V0.725098Z" fill="#00020C"/>
    <path d="M113.714 1.44946H110.116V2.17444H113.714V1.44946Z" fill="#00020C"/>
    <path d="M132.427 0H123.07V0.724975H132.427V0Z" fill="#00020C"/>
    <path d="M149.7 0.725098H148.98V1.45006H149.7V0.725098Z" fill="#00020C"/>
    <path d="M2.15954 45.6497H1.4397V46.3746H2.15954V45.6497Z" fill="#00020C"/>
    <path d="M155.458 1.44946H154.738V2.17444H155.458V1.44946Z" fill="#00020C"/>
    <path d="M249.02 70.2855H248.3V71.0105H249.739V69.5605H249.02V70.2855Z" fill="#00020C"/>
    <path d="M180.647 97.8196H179.927V98.5446H180.647V97.8196Z" fill="#00020C"/>
    <path d="M188.564 97.0955H187.844V97.8204H188.564V97.0955Z" fill="#00020C"/>
    <path d="M192.163 96.3711H191.443V97.0961H192.163V96.3711Z" fill="#00020C"/>
    <path d="M172.73 98.5449H172.01V99.2699H172.73V98.5449Z" fill="#00020C"/>
    <path d="M252.618 60.866H251.898V62.3156H252.618V60.866Z" fill="#00020C"/>
    <path d="M251.898 65.9376V67.387H251.178V68.1114H252.618V66.6623H253.338V62.3147H252.618V65.9376H251.898Z" fill="#00020C"/>
    <path d="M207.277 97.8196H206.557V98.5446H207.277V97.8196Z" fill="#00020C"/>
    <path d="M215.194 92.0234H214.474V92.7484H215.194V92.0234Z" fill="#00020C"/>
    <path d="M246.861 75.3574H246.141V76.0824H246.861V75.3574Z" fill="#00020C"/>
    <path d="M222.39 89.8496H221.67V90.5746H222.39V89.8496Z" fill="#00020C"/>
    <path d="M250.459 68.8368H249.739V69.5614H251.179V68.1118H250.459V68.8368Z" fill="#00020C"/>
    <path d="M229.588 83.3284H228.868V84.0533H229.588V83.3284Z" fill="#00020C"/>
    <path d="M251.898 60.1409H251.178V60.8658H251.898V60.1409Z" fill="#00020C"/>
    <path d="M222.39 91.2991H221.67V92.024H222.39V91.2991Z" fill="#00020C"/>
    <path d="M17.9932 77.5312H17.2733V78.2562H17.9932V77.5312Z" fill="#00020C"/>
    <path d="M10.0764 73.908H9.35657V74.6329H10.0764V73.908Z" fill="#00020C"/>
    <path d="M71.9709 97.0955H71.2511V97.8204H71.9709V97.0955Z" fill="#00020C"/>
    <path d="M10.7959 74.6331H10.076V75.358H10.7959V74.6331Z" fill="#00020C"/>
    <path d="M0.719842 61.5903H0V62.3153H0.719842V61.5903Z" fill="#00020C"/>
    <path d="M2.15954 65.2136H1.4397V65.9386H2.15954V65.2136Z" fill="#00020C"/>
    <path d="M2.87914 69.5605H2.1593V70.2855H2.87914V69.5605Z" fill="#00020C"/>
    <path d="M7.91711 73.908H7.19727V74.6329H7.91711V73.908Z" fill="#00020C"/>
    <path d="M249.739 57.967H248.3V58.692H249.739V57.967Z" fill="#00020C"/>
    <path d="M251.179 59.4167H250.459V60.1417H251.179V59.4167Z" fill="#00020C"/>
    <path d="M52.5392 97.8196H51.8193V98.5446H52.5392V97.8196Z" fill="#00020C"/>
    <path d="M65.4939 97.0955H64.774V97.8204H65.4939V97.0955Z" fill="#00020C"/>
    <path d="M62.615 96.3711H61.8951V97.0961H62.615V96.3711Z" fill="#00020C"/>
    <path d="M250.459 58.6924H249.739V59.4173H250.459V58.6924Z" fill="#00020C"/>
    <path d="M60.4557 97.8196H59.7358V98.5446H60.4557V97.8196Z" fill="#00020C"/>
    <path d="M251.898 51.4465H251.178V52.1715H251.898V51.4465Z" fill="#00020C"/>
    <path d="M236.785 35.5049H234.625V36.2299H236.785V35.5049Z" fill="#00020C"/>
    <path d="M234.625 34.7805H231.746V35.5055H234.625V34.7805Z" fill="#00020C"/>
    <path d="M231.747 34.0554H228.868V34.7804H231.747V34.0554Z" fill="#00020C"/>
    <path d="M238.944 36.9542V37.6788H241.103V36.9542H239.663V36.2292H236.785V36.9542H238.944Z" fill="#00020C"/>
    <path d="M2.87903 62.3147V63.0394H3.59887V66.6623H4.31835V62.3147H2.87903Z" fill="#00020C"/>
    <path d="M228.868 29.708H228.148V34.0556H228.868V29.708Z" fill="#00020C"/>
    <path d="M20.1521 36.2292H17.9929V36.9542H20.1521V36.2292Z" fill="#00020C"/>
    <path d="M244.701 38.4031H243.262V39.128H244.701V38.4031Z" fill="#00020C"/>
    <path d="M213.034 20.2883H210.155V21.0133H213.034V20.2883Z" fill="#00020C"/>
    <path d="M28.0692 34.0554H25.1902V34.7804H28.0692V34.0554Z" fill="#00020C"/>
    <path d="M222.39 24.6366V25.3616H223.83V24.6366H223.11V23.9116H220.951V24.6366H222.39Z" fill="#00020C"/>
    <path d="M220.95 23.1873H219.511V23.9122H220.95V23.1873Z" fill="#00020C"/>
    <path d="M224.549 25.3611H223.829V26.0861H224.549V25.3611Z" fill="#00020C"/>
    <path d="M28.7887 29.708H28.0688V34.0556H28.7887V29.708Z" fill="#00020C"/>
    <path d="M8.63671 41.302H7.91687V42.027H8.63671V41.302Z" fill="#00020C"/>
    <path d="M7.91673 42.7513V42.0264H6.47741V42.7513H5.75757V43.4763H7.19725V42.7513H7.91673Z" fill="#00020C"/>
    <path d="M227.428 27.5349H226.708V28.2599H227.428V27.5349Z" fill="#00020C"/>
    <path d="M226.709 26.8098H225.989V27.5348H226.709V26.8098Z" fill="#00020C"/>
    <path d="M5.03808 44.9253H4.31824V45.6503H5.03808V44.9253Z" fill="#00020C"/>
    <path d="M225.27 26.0854H224.55V26.8104H225.27V26.0854Z" fill="#00020C"/>
    <path d="M251.898 44.2002H251.178V44.9252H251.898V44.2002Z" fill="#00020C"/>
    <path d="M246.141 39.1282H244.702V39.8531H246.141V39.1282Z" fill="#00020C"/>
    <path d="M249.02 42.7516H249.739V43.4765H250.459V44.2012H251.179V42.7516H250.459V42.0266H249.739V41.302H248.3V42.0266H249.02V42.7516Z" fill="#00020C"/>
    <path d="M252.618 44.9253H251.898V45.6503H252.618V44.9253Z" fill="#00020C"/>
    <path d="M228.148 28.259H227.428V29.7086H228.148V28.259Z" fill="#00020C"/>
    <path d="M253.338 45.6497H252.618V49.9973H253.338V45.6497Z" fill="#00020C"/>
    <path d="M43.9026 21.0137H41.7434V21.7386H43.9026V21.0137Z" fill="#00020C"/>
    <path d="M71.9713 15.9409H66.2136V16.6659H71.9713V15.9409Z" fill="#00020C"/>
    <path d="M77.0089 15.2166H71.9711V15.9415H77.0089V15.2166Z" fill="#00020C"/>
    <path d="M154.738 5.07275H154.018V5.79773H154.738V5.07275Z" fill="#00020C"/>
    <path d="M61.1751 17.3904H57.5767V18.1154H61.1751V17.3904Z" fill="#00020C"/>
    <path d="M154.018 4.34766H153.298V5.07262H154.018V4.34766Z" fill="#00020C"/>
    <path d="M66.2132 16.666H61.1754V17.391H66.2132V16.666Z" fill="#00020C"/>
    <path d="M79.8878 11.594H79.168V12.319H79.8878V11.594Z" fill="#00020C"/>
    <path d="M153.298 3.62329H151.859V4.34827H153.298V3.62329Z" fill="#00020C"/>
    <path d="M97.8808 7.24645V6.52148H92.8426V7.24645H89.964V7.97106H93.5625V7.24645H97.8808Z" fill="#00020C"/>
    <path d="M53.2583 18.8398H49.6598V19.5648H53.2583V18.8398Z" fill="#00020C"/>
    <path d="M102.919 5.07275H102.199V5.79773H102.919V5.07275Z" fill="#00020C"/>
    <path d="M106.517 2.89893H105.078V3.62389H106.517V2.89893Z" fill="#00020C"/>
    <path d="M151.859 2.89893H150.419V3.62389H151.859V2.89893Z" fill="#00020C"/>
    <path d="M178.488 12.3184H177.768V13.0433H178.488V12.3184Z" fill="#00020C"/>
    <path d="M37.4249 23.1873H35.9856V23.9122H37.4249V23.1873Z" fill="#00020C"/>
    <path d="M174.889 9.42017H172.73V10.1451H174.889V9.42017Z" fill="#00020C"/>
    <path d="M184.965 15.2166H179.927V15.9415H184.965V15.2166Z" fill="#00020C"/>
    <path d="M190.723 16.6661V17.3911H195.761V16.6661H191.443V15.9412H188.564V15.2166H187.844V15.9412H184.966V16.6661H190.723Z" fill="#00020C"/>
    <path d="M35.9856 23.9116H34.5463V24.6366H35.9856V23.9116Z" fill="#00020C"/>
    <path d="M41.743 21.7378H39.5839V22.4628H41.743V21.7378Z" fill="#00020C"/>
    <path d="M39.584 22.4622H37.4248V23.1871H39.584V22.4622Z" fill="#00020C"/>
    <path d="M46.7815 20.2883H43.9025V21.0133H46.7815V20.2883Z" fill="#00020C"/>
    <path d="M29.5084 28.9836H28.7886V29.7086H29.5084V28.9836Z" fill="#00020C"/>
    <path d="M49.6598 19.5648H48.9403V18.8398H48.2204V19.5648H46.7811V20.2894H49.6598V19.5648Z" fill="#00020C"/>
    <path d="M6.47741 52.1709H5.75757V52.8959H6.47741V52.1709Z" fill="#00020C"/>
    <path d="M177.769 11.594H177.049V12.319H177.769V11.594Z" fill="#00020C"/>
    <path d="M243.261 37.6787H241.102V38.4037H243.261V37.6787Z" fill="#00020C"/>
    <path d="M143.223 0.725098H133.866V1.45006H143.223V0.725098Z" fill="#00020C"/>
    <path d="M213.034 91.2991H210.155V92.024H213.034V91.2991Z" fill="#00020C"/>
    <path d="M151.139 1.44946H150.419V2.17444H151.139V1.44946Z" fill="#00020C"/>
    <path d="M109.396 2.17383H106.517V2.8988H109.396V2.17383Z" fill="#00020C"/>
    <path d="M77.7289 12.3184H77.009V13.0433H77.7289V12.3184Z" fill="#00020C"/>
    <path d="M49.6603 18.1147H48.9404V18.8397H49.6603V18.1147Z" fill="#00020C"/>
    <path d="M78.4485 11.594H77.7286V12.319H78.4485V11.594Z" fill="#00020C"/>
    <path d="M179.927 14.4922H179.208V15.2172H179.927V14.4922Z" fill="#00020C"/>
    <path d="M179.208 13.0427H178.488V13.7677H179.208V13.0427Z" fill="#00020C"/>
    <path d="M190.723 95.6458H184.966V96.3707H190.723V95.6458Z" fill="#00020C"/>
    <path d="M167.693 7.24645H164.094V6.52148H159.056V7.24645H163.374V7.97106H167.693V7.24645Z" fill="#00020C"/>
    <path d="M210.156 92.0234H207.277V92.7484H210.156V92.0234Z" fill="#00020C"/>
    <path d="M158.336 5.79712H154.738V6.52209H158.336V5.79712Z" fill="#00020C"/>
    <path d="M225.989 84.7775H225.269V85.5021H224.55V86.227H225.989V85.5021H226.709V84.0525H225.989V84.7775Z" fill="#00020C"/>
    <path d="M5.03808 49.9971H4.31824V50.722H5.03808V49.9971Z" fill="#00020C"/>
    <path d="M4.31847 42.7515H3.59863V43.4764H4.31847V42.7515Z" fill="#00020C"/>
    <path d="M4.31847 45.6497H3.59863V49.9973H4.31847V45.6497Z" fill="#00020C"/>
    <path d="M5.7578 51.4465H5.03796V52.1715H5.7578V51.4465Z" fill="#00020C"/>
    <path d="M7.19738 52.8953H6.47754V53.6202H7.19738V52.8953Z" fill="#00020C"/>
    <path d="M30.2278 26.0854H29.5079V26.8104H30.2278V26.0854Z" fill="#00020C"/>
    <path d="M196.481 15.9409H195.761V16.6659H196.481V15.9409Z" fill="#00020C"/>
    <path d="M5.03808 43.4758H4.31824V44.2008H5.03808V43.4758Z" fill="#00020C"/>
    <path d="M22.3111 35.5049H20.152V36.2299H22.3111V35.5049Z" fill="#00020C"/>
    <path d="M219.511 89.1252H217.352V89.8502H219.511V89.1252Z" fill="#00020C"/>
    <path d="M15.8337 35.5049H15.1139V36.2299H15.8337V35.5049Z" fill="#00020C"/>
    <path d="M5.7578 44.2002H5.03796V44.9252H5.7578V44.2002Z" fill="#00020C"/>
    <path d="M219.511 22.4622H217.352V23.1871H219.511V22.4622Z" fill="#00020C"/>
    <path d="M34.5463 86.9514H33.1069V87.6764H34.5463V86.9514Z" fill="#00020C"/>
    <path d="M20.1521 75.3574H17.9929V76.0824H20.1521V75.3574Z" fill="#00020C"/>
    <path d="M25.1902 76.8069H22.3112V77.5319H25.1902V76.8069Z" fill="#00020C"/>
    <path d="M31.6671 85.5025V84.7779H30.9476V84.053H30.2278V83.3284H29.5079V84.7779H30.2278V85.5025H30.9476V86.2275H32.3869V85.5025H31.6671Z" fill="#00020C"/>
    <path d="M33.1068 86.2263H32.387V86.9513H33.1068V86.2263Z" fill="#00020C"/>
    <path d="M17.9928 74.6331H15.8336V75.358H17.9928V74.6331Z" fill="#00020C"/>
    <path d="M184.966 96.3711H178.488V97.0961H184.966V96.3711Z" fill="#00020C"/>
    <path d="M5.03808 66.6624H4.31824V67.3873H5.03808V66.6624Z" fill="#00020C"/>
    <path d="M7.9166 70.2856V69.5609H7.19712V68.8365H6.47728V68.1118H5.75744V67.3875H5.03796V69.5609H6.47728V71.0103H8.63644V70.2856H7.9166Z" fill="#00020C"/>
    <path d="M5.03808 61.5903H4.31824V62.3153H5.03808V61.5903Z" fill="#00020C"/>
    <path d="M15.8336 73.908H14.3943V74.6329H15.8336V73.908Z" fill="#00020C"/>
    <path d="M10.7959 71.7341H10.076V72.4591H10.7959V71.7341Z" fill="#00020C"/>
    <path d="M10.076 71.0098H8.63672V71.7347H10.076V71.0098Z" fill="#00020C"/>
    <path d="M22.3111 76.0818H20.152V76.8068H22.3111V76.0818Z" fill="#00020C"/>
    <path d="M87.0848 97.8201V97.0955H79.168V97.8201H86.3653V98.545H97.8806V97.8201H87.0848Z" fill="#00020C"/>
    <path d="M9.35656 54.3447H8.63672V55.0697H9.35656V54.3447Z" fill="#00020C"/>
    <path d="M215.193 21.0137H213.034V21.7386H215.193V21.0137Z" fill="#00020C"/>
    <path d="M35.9856 88.4V87.675H34.5463V88.4H35.2661V89.125H37.4249V88.4H35.9856Z" fill="#00020C"/>
    <path d="M210.156 19.5642H207.277V20.2892H210.156V19.5642Z" fill="#00020C"/>
    <path d="M206.557 18.8398H203.678V19.5648H206.557V18.8398Z" fill="#00020C"/>
    <path d="M217.352 21.7378H215.913V22.4628H217.352V21.7378Z" fill="#00020C"/>
    <path d="M39.584 89.1252H37.4248V89.8502H39.584V89.1252Z" fill="#00020C"/>
    <path d="M41.743 90.5746V89.8496H39.5839V90.5746H41.0235V91.2996H43.9022V90.5746H41.743Z" fill="#00020C"/>
    <path d="M53.2583 92.7478H49.6598V93.4728H53.2583V92.7478Z" fill="#00020C"/>
    <path d="M49.6601 92.0234H46.7811V92.7484H49.6601V92.0234Z" fill="#00020C"/>
    <path d="M46.7815 91.2991H43.9025V92.024H46.7815V91.2991Z" fill="#00020C"/>
    <path d="M221.671 22.4622H220.951V23.1871H221.671V22.4622Z" fill="#00020C"/>
    <path d="M210.875 43.4763V42.7513H213.034V42.0264H210.155V42.7513H207.277V43.4763H210.875Z" fill="#00020C"/>
    <path d="M174.17 79.7051H173.45V80.4301H174.17V79.7051Z" fill="#00020C"/>
    <path d="M197.92 77.5312H196.481V78.2562H197.92V77.5312Z" fill="#00020C"/>
    <path d="M86.3652 77.5312H85.6454V78.2562H86.3652V77.5312Z" fill="#00020C"/>
    <path d="M109.396 81.8789H92.8423V82.6039H109.396V81.8789Z" fill="#00020C"/>
    <path d="M84.9259 76.8069H84.2061V77.5319H84.9259V76.8069Z" fill="#00020C"/>
    <path d="M174.89 78.9807H174.17V79.7057H174.89V78.9807Z" fill="#00020C"/>
    <path d="M187.125 76.0818H186.405V76.8068H187.125V76.0818Z" fill="#00020C"/>
    <path d="M192.163 76.0818H191.443V76.8068H192.163V76.0818Z" fill="#00020C"/>
    <path d="M175.609 76.0818H174.89V76.8068H175.609V76.0818Z" fill="#00020C"/>
    <path d="M185.685 76.8069H184.966V78.2565H185.685V76.8069Z" fill="#00020C"/>
    <path d="M174.17 76.0818H173.45V76.8068H174.17V76.0818Z" fill="#00020C"/>
    <path d="M51.0997 68.8362H50.3799V69.5612H51.0997V68.8362Z" fill="#00020C"/>
    <path d="M32.3871 73.1836H31.6672V73.9086H32.3871V73.1836Z" fill="#00020C"/>
    <path d="M20.8718 61.5903H20.152V62.3153H20.8718V61.5903Z" fill="#00020C"/>
    <path d="M20.1521 62.3147H19.4323V63.0397H20.1521V62.3147Z" fill="#00020C"/>
    <path d="M19.4325 63.0398H18.7126V63.7648H19.4325V63.0398Z" fill="#00020C"/>
    <path d="M74.1301 76.8069H73.4103V77.5319H74.1301V76.8069Z" fill="#00020C"/>
    <path d="M77.0092 69.5605H76.2893V70.2855H77.0092V69.5605Z" fill="#00020C"/>
    <path d="M71.2515 76.0818H70.5316V76.8068H71.2515V76.0818Z" fill="#00020C"/>
    <path d="M61.1752 69.5605H59.7358V70.2855H61.1752V69.5605Z" fill="#00020C"/>
    <path d="M62.615 68.8362H61.8951V69.5612H62.615V68.8362Z" fill="#00020C"/>
    <path d="M246.861 60.866H246.141V61.5909H246.861V60.866Z" fill="#00020C"/>
    <path d="M242.542 42.0264H241.102V42.7513H242.542V42.0264Z" fill="#00020C"/>
    <path d="M236.785 39.8525H234.625V40.5775H236.785V39.8525Z" fill="#00020C"/>
    <path d="M233.186 39.8528V40.5778H233.905V39.8528H234.625V39.1282H231.746V39.8528H233.186Z" fill="#00020C"/>
    <path d="M247.581 44.9253H246.861V45.6503H247.581V44.9253Z" fill="#00020C"/>
    <path d="M248.3 45.6497H247.58V46.3746H248.3V45.6497Z" fill="#00020C"/>
    <path d="M246.141 60.1409H244.702V60.8658H246.141V60.1409Z" fill="#00020C"/>
    <path d="M211.595 43.4758H210.875V44.2008H211.595V43.4758Z" fill="#00020C"/>
    <path d="M222.39 38.4031H220.951V39.128H222.39V38.4031Z" fill="#00020C"/>
    <path d="M213.754 42.0266V42.7516H214.473V42.0266H215.193V41.302H213.034V42.0266H213.754Z" fill="#00020C"/>
    <path d="M217.353 40.5769H215.193V41.3019H217.353V40.5769Z" fill="#00020C"/>
    <path d="M248.3 65.938H247.58V66.663H248.3V65.938Z" fill="#00020C"/>
    <path d="M243.981 66.6624H243.262V67.3873H243.981V66.6624Z" fill="#00020C"/>
    <path d="M243.262 65.2136H242.542V65.9386H243.262V65.2136Z" fill="#00020C"/>
    <path d="M16.5535 60.1409H15.8336V60.8658H16.5535V60.1409Z" fill="#00020C"/>
    <path d="M211.595 66.6624H210.875V67.3873H211.595V66.6624Z" fill="#00020C"/>
    <path d="M230.307 71.7341H229.587V72.4591H230.307V71.7341Z" fill="#00020C"/>
    <path d="M241.822 61.5903H241.102V63.0399H241.822V61.5903Z" fill="#00020C"/>
    <path d="M249.02 63.0398H248.3V65.9393H249.02V63.0398Z" fill="#00020C"/>
    <path d="M246.861 62.3153H247.58V63.0403H248.3V61.5903H246.861V62.3153Z" fill="#00020C"/>
    <path d="M209.436 69.5605H208.716V70.2855H209.436V69.5605Z" fill="#00020C"/>
    <path d="M247.581 66.6624H246.861V67.3873H247.581V66.6624Z" fill="#00020C"/>
    <path d="M172.73 78.9807H172.01V79.7057H172.73V78.9807Z" fill="#00020C"/>
    <path d="M9.35656 65.938H8.63672V66.663H9.35656V65.938Z" fill="#00020C"/>
    <path d="M10.0764 66.6624H9.35657V67.3873H10.0764V66.6624Z" fill="#00020C"/>
    <path d="M30.9478 73.908H28.0688V74.6329H30.9478V73.908Z" fill="#00020C"/>
    <path d="M8.63671 65.2143H9.35655V64.4894H8.63671V63.0398H7.91687V65.939H8.63671V65.2143Z" fill="#00020C"/>
    <path d="M23.7503 60.1409H21.5912V60.8658H23.7503V60.1409Z" fill="#00020C"/>
    <path d="M25.1902 72.4591H23.7505V71.7341H23.031V72.4591H22.3112V73.1841H25.1902V72.4591Z" fill="#00020C"/>
    <path d="M28.0692 73.1836H25.1902V73.9086H28.0692V73.1836Z" fill="#00020C"/>
    <path d="M36.7054 63.0398H33.1069V63.7648H36.7054V63.0398Z" fill="#00020C"/>
    <path d="M15.8337 64.4885H15.1139V65.2135H15.8337V64.4885Z" fill="#00020C"/>
    <path d="M20.1521 71.0098H17.9929V71.7347H20.1521V71.0098Z" fill="#00020C"/>
    <path d="M17.9928 70.2856H15.8336V71.0106H17.9928V70.2856Z" fill="#00020C"/>
    <path d="M15.8336 69.5605H14.3943V70.2855H15.8336V69.5605Z" fill="#00020C"/>
    <path d="M186.405 68.1118H179.208V68.8368H186.405V68.1118Z" fill="#00020C"/>
    <path d="M179.208 68.8362H168.412V69.5612H179.208V68.8362Z" fill="#00020C"/>
    <path d="M187.844 68.1118H187.125V68.8368H187.844V68.1118Z" fill="#00020C"/>
    <path d="M49.6599 65.9382V66.6632H50.3797V65.2136H45.3416V65.9382H49.6599Z" fill="#00020C"/>
    <path d="M89.2444 69.5605H88.5245V70.2855H89.2444V69.5605Z" fill="#00020C"/>
    <path d="M201.518 66.6632H207.276V65.9382H210.875V65.2136H206.557V65.9382H200.799V66.6632H195.041V67.3882H201.518V66.6632Z" fill="#00020C"/>
    <path d="M61.8951 67.3875V68.1121H65.4936V68.837H66.2135V68.1121H69.0921V67.3875H61.8951Z" fill="#00020C"/>
    <path d="M82.7668 69.5608V70.2858H83.4863V69.5608H88.5244V68.8362H77.7286V69.5608H82.7668Z" fill="#00020C"/>
    <path d="M56.1373 65.938H51.0995V66.663H56.1373V65.938Z" fill="#00020C"/>
    <path d="M56.8572 66.6624V67.3873H60.4557V68.1119H61.1751V67.3873H61.895V66.6624H56.8572Z" fill="#00020C"/>
    <path d="M22.3111 71.7341H20.152V72.4591H22.3111V71.7341Z" fill="#00020C"/>
    <path d="M187.844 79.7053V78.9807H187.125V79.7053H184.966V80.4303H192.882V79.7053H187.844Z" fill="#00020C"/>
    <path d="M228.148 73.9082V73.1836H227.428V73.9082H225.989V74.6332H228.868V73.9082H228.148Z" fill="#00020C"/>
    <path d="M222.39 75.3574H218.792V76.0824H222.39V75.3574Z" fill="#00020C"/>
    <path d="M195.761 78.9806V78.2556H195.042V78.9806H192.882V79.7052H199.36V78.9806H195.761Z" fill="#00020C"/>
    <path d="M204.398 78.2556H199.36V78.9806H204.398V78.2556Z" fill="#00020C"/>
    <path d="M51.8189 77.5312H46.7811V78.2562H51.8189V77.5312Z" fill="#00020C"/>
    <path d="M10.7959 64.4885H10.076V65.2135H10.7959V64.4885Z" fill="#00020C"/>
    <path d="M15.1141 66.6624H14.3943V67.3873H15.1141V66.6624Z" fill="#00020C"/>
    <path d="M231.747 73.1836H228.868V73.9086H231.747V73.1836Z" fill="#00020C"/>
    <path d="M233.905 72.4591H231.746V73.1841H234.625V72.4591H236.785V71.7341H233.905V72.4591Z" fill="#00020C"/>
    <path d="M210.155 77.5312H205.117V78.2562H210.155V77.5312Z" fill="#00020C"/>
    <path d="M115.873 82.6039V81.8789H110.116V82.6039H115.154V83.3288H141.063V82.6039H115.873Z" fill="#00020C"/>
    <path d="M70.5317 79.7053V78.9807H69.8118V79.7053H64.774V80.4303H71.971V79.7053H70.5317Z" fill="#00020C"/>
    <path d="M80.6077 79.7051V80.4301H71.9711V81.155H81.3272V79.7051H80.6077Z" fill="#00020C"/>
    <path d="M57.5769 78.2556H52.5391V78.9806H57.5769V78.2556Z" fill="#00020C"/>
    <path d="M64.7736 78.9807H57.5767V79.7057H64.7736V78.9807Z" fill="#00020C"/>
    <path d="M184.966 80.4294H177.049V81.1544H184.966V80.4294Z" fill="#00020C"/>
    <path d="M163.374 81.8789H147.54V82.6039H163.374V81.8789Z" fill="#00020C"/>
    <path d="M176.329 79.7051H175.609V81.1547H176.329V79.7051Z" fill="#00020C"/>
    <path d="M147.541 82.6033H146.821V83.3282H147.541V82.6033Z" fill="#00020C"/>
    <path d="M146.821 81.8789H141.063V82.6039H146.821V81.8789Z" fill="#00020C"/>
    <path d="M71.9709 46.374H66.9331V47.099H71.9709V46.374Z" fill="#00020C"/>
    <path d="M60.4557 60.866H59.7358V61.5909H60.4557V60.866Z" fill="#00020C"/>
    <path d="M47.501 44.2002H46.7811V44.9252H47.501V44.2002Z" fill="#00020C"/>
    <path d="M53.2589 58.6924H52.5391V59.4173H53.2589V58.6924Z" fill="#00020C"/>
    <path d="M47.501 59.4167H46.7811V60.1417H47.501V59.4167Z" fill="#00020C"/>
    <path d="M47.501 46.374H46.7811V47.099H47.501V46.374Z" fill="#00020C"/>
    <path d="M105.797 52.1709H105.078V52.8959H105.797V52.1709Z" fill="#00020C"/>
    <path d="M109.396 64.4885H108.676V65.2135H109.396V64.4885Z" fill="#00020C"/>
    <path d="M32.3871 39.8525H31.6672V40.5775H32.3871V39.8525Z" fill="#00020C"/>
    <path d="M64.0542 60.1409H63.3344V60.8658H64.0542V60.1409Z" fill="#00020C"/>
    <path d="M60.4557 58.6924H59.7358V59.4173H60.4557V58.6924Z" fill="#00020C"/>
    <path d="M93.5621 49.9971H92.8423V50.722H93.5621V49.9971Z" fill="#00020C"/>
    <path d="M206.557 61.5903H200.799V62.3153H206.557V61.5903Z" fill="#00020C"/>
    <path d="M230.307 57.2429H227.428V57.9679H230.307V57.2429Z" fill="#00020C"/>
    <path d="M195.041 63.7643V62.3147H194.321V63.0397H186.405V63.7643H179.208V64.4892H188.564V63.7643H195.041Z" fill="#00020C"/>
    <path d="M227.429 57.967H224.55V58.692H227.429V57.967Z" fill="#00020C"/>
    <path d="M207.996 60.1409H207.277V60.8658H206.557V61.5904H211.595V60.8658H207.996V60.1409Z" fill="#00020C"/>
    <path d="M111.555 51.4465H110.835V52.1715H111.555V51.4465Z" fill="#00020C"/>
    <path d="M223.83 58.6924H220.231V59.4173H223.83V58.6924Z" fill="#00020C"/>
    <path d="M25.91 54.3447H25.1902V55.0697H25.91V54.3447Z" fill="#00020C"/>
    <path d="M246.141 51.4465H244.702V52.1715H246.141V51.4465Z" fill="#00020C"/>
    <path d="M22.311 52.8953H21.5912V53.6202H22.311V52.8953Z" fill="#00020C"/>
    <path d="M17.2734 52.1709H16.5536V52.8959H17.2734V52.1709Z" fill="#00020C"/>
    <path d="M29.5084 40.5769H28.7886V41.3019H29.5084V40.5769Z" fill="#00020C"/>
    <path d="M233.186 52.8953H232.466V53.6202H233.186V52.8953Z" fill="#00020C"/>
    <path d="M236.785 42.0264H236.065V42.7513H236.785V42.0264Z" fill="#00020C"/>
    <path d="M234.626 53.6196H233.906V54.3446H234.626V53.6196Z" fill="#00020C"/>
    <path d="M225.27 55.7935H224.55V56.5184H225.27V55.7935Z" fill="#00020C"/>
    <path d="M229.588 40.5769H228.868V41.3019H229.588V40.5769Z" fill="#00020C"/>
    <path d="M231.747 54.3447H231.027V55.0697H231.747V54.3447Z" fill="#00020C"/>
    <path d="M252.618 49.9969H251.898V45.6493H251.179V44.9246H250.459V44.1999H249.739V43.4751H249.019V42.7504H248.299V42.0264H247.579V39.8526H246.14V40.5773H246.86V41.3021H246.14V40.5773H244.701V39.8526H243.261V39.1279H241.102V38.4032H238.943V37.6784H236.784V36.9537H234.625V36.229H231.746V35.5043H228.867V34.7796H227.427V29.7076H226.708V28.9829H225.988V28.2581H225.268V27.5334H224.548V26.8087H223.828V26.084H222.389V25.3592H220.95V24.6345H219.51V23.9098H217.351V23.1851H215.192V22.4604H213.033V21.7356H210.154V21.0109H207.275V20.2862H203.676V19.5615H200.078V18.8367H203.676V18.112H200.078V17.3873H195.76V18.112H199.358V18.8367H195.76V18.112H190.722V17.3873H184.964V16.6626H179.926V15.9378H179.206V15.2131H178.487V13.764H177.767V13.0393H177.047V12.3146H176.327V11.5899H177.047V10.8651H176.327V9.41607H175.607V10.1408H174.887V10.8655H175.607V11.5902H174.887V10.8655H172.728V10.1444H170.569V9.41971H172.728V8.69499H170.569V7.97026H167.69V8.69499H169.849V9.41971H166.97V8.69499H163.372V7.97026H158.334V7.24554H154.735V6.52082H154.016V5.7961H153.296V5.07137H151.856V4.34666H150.417V3.62193H147.538V2.8972H150.417V2.17248H147.538V1.44775H143.22V2.17248H146.818V2.8972H142.5V2.17248H114.431V2.8972H109.393V3.62193H106.514V4.34666H105.075V3.62193H103.636V4.34666H102.916V5.07137H103.636V5.7961H102.916V6.52082H102.196V7.24554H99.3171V6.52082H102.196V5.7961H101.476V5.07137H100.756V5.7961H97.8775V6.52082H98.5973V7.96991H93.5595V8.69462H89.961V9.41935H87.082V8.69462H89.2412V7.96991H86.3622V8.69462H84.203V9.41935H86.3622V10.1441H84.203V10.8688H82.7637V10.1444H84.203V9.41935L82.0439 9.41971V10.1444H80.6045V10.8692H79.8847V11.5939H80.6045V12.3186H79.8847V13.0433H79.1649V12.3186H78.445V13.0433H77.7252V13.7681H77.0053V15.2171H77.7252V14.4924H78.445V15.2171H77.7252V15.9419H77.0053V16.6666H71.9675V17.3913H66.2099V18.116H61.1721V18.8407H57.5736V18.116H53.2553V18.8407H56.8538V19.5655H53.2553V20.2902H49.6568V21.0149H46.7778V21.7396H43.8988V22.4644H41.7397V23.1891H39.5805V23.9138H37.4213V24.6385H35.982V25.3633H34.5427V24.6385H33.1034V25.3633H31.6641V26.088H30.9442V26.8127H30.2244V27.5374H29.5045V28.9865H30.2244V29.7112H29.5045V34.7832H28.0652V35.5079H25.1862V34.7832H23.027V35.5079H24.4664V36.2326H22.3072V36.9574H20.148V37.6821H17.9889V36.9574H16.5496V36.2326H15.8297V37.6817H17.269V38.4064H15.8297V39.1312H14.3904V38.4064H15.8297V37.6817H12.9507V38.4064H12.2309V39.1312H10.0717V39.8559H9.35188V40.5806H8.63204V41.3053H9.35188V42.0264H8.63204V42.7511H7.9122V43.4759H7.19236V44.2006H6.47252V44.9253H5.75268V45.65H5.03284V49.9977H5.75268V51.4467H6.47252V52.1714H7.19236V52.8962H7.9122V54.3453H8.63204V53.6205H9.35188V54.3453H10.7912V55.07H11.511V57.2438H10.7912V57.9685H10.0714V57.2438H10.7912V55.07H9.35188V55.7947H10.0717V56.5194H9.35188V57.2442H8.63204V57.9689H9.35188V58.6936H8.63204V57.9689H7.19272V58.6936H6.47288V59.4183H7.19272V60.143H6.47288V59.4183H5.75304V60.143H5.0332V61.5921H5.75304V62.3168H5.0332V65.9397H5.75304V67.3888H6.47288V68.1135H7.19272V68.8383H7.91256V69.563H8.6324V70.2877H10.0717V71.0124H10.7916V71.7371H12.2309V72.4619H13.6702V73.1866H12.9504V73.9113H14.3897V73.1866H15.829V73.9113H17.9882V74.636H20.1473V75.3608H22.3065V76.0855H25.1855V76.8102H28.0645V77.5349H29.5038V82.6069H30.2236V83.3316H30.9435V84.0564H31.6633V84.7811H32.3832V85.5058H33.103V86.2305H34.5423V86.9552H35.9816V87.68H37.421V88.4047H39.5801V89.1294H41.7393V89.8541H43.8984V90.5789H46.7774V91.3036H49.6565V92.0283H53.2549V92.753H57.5732V93.4778H61.8916V94.2025H66.9294V94.9272H72.687V95.6519H79.1645V96.3766H87.8011V97.1014H99.3164V98.5505H97.8771V99.2752H115.15V99.9999H141.06V99.2752H159.772V98.5505H170.568V97.8257H159.053V98.5505H158.333V97.8257H157.613V98.5505H140.34V99.2752H116.59V98.5505H100.036V97.8257H157.617V97.101H158.336V97.8257H159.056V97.101H169.132V96.3763H176.329V97.101H170.572V97.8257H178.488V97.101H177.769V96.3763H177.049V95.6516H184.246V94.9268H190.723V94.2021H195.042V93.4774H199.36V92.7527H203.678V92.0279H207.277V91.3032H210.156V90.5785H213.035V89.8538H215.194V89.1291H215.914V89.8538H215.194V90.5785H213.035V91.3032H215.914V90.5785H217.353V89.8538H216.633V89.1291H217.353V88.4043H219.512V87.6796H220.232V88.4043H219.512V89.1291H220.951V88.4043H222.391V87.6796H221.671V86.9549H222.391V86.2301H223.111V86.9549H222.391V87.6796H223.111V88.4043H223.83V86.9552H224.55V86.2305H223.83V85.5058H224.55V84.7811H225.27V84.0564H225.99V83.3316H226.71V82.6069H227.43V81.8822H228.149V82.6069H228.869V78.2593H231.028V77.5346H228.869V76.8099H231.748V76.0851H234.627V75.3604H235.347V76.0851H234.627V76.8099H236.067V75.3608H236.786V74.636H237.506V75.3608H236.786V76.0855H239.665V75.3608H240.385V74.636H239.665V73.9084H241.105V73.1837H242.544V73.9084H244.703V73.1837H243.264V72.459H244.703V71.7342H245.423V72.459H244.703V73.1837H246.143V72.459H247.582V71.7342H248.302V71.0095H247.582V70.2848H248.302V69.5601H249.022V68.8353H249.741V68.1106H250.461V67.3859H251.181V65.9368H251.901V62.3139H251.181V61.5892H250.461V60.1401H249.741V59.4154H248.302V58.6907H247.582V57.966H246.143V57.2412H245.423V55.0674H246.143V57.2412H247.582V57.966H248.302V56.5169H246.863V55.7921H247.583V55.0674H246.863V54.3427H247.583V53.618H248.302V54.3427H247.583V55.0674H249.022V54.3427H249.742V53.618H250.462V52.8933H249.742V52.1685H250.462V51.4438H251.181V50.7191H251.901V51.4438H252.621V49.9969H252.618ZM244.701 42.7511H245.421V43.4759H244.701V42.7511ZM228.868 36.9544V37.6792H223.83V36.9544H228.868ZM108.676 5.79682H109.396V5.07211H112.994V4.34738H120.191V3.62266H122.351V4.34738H123.07V3.62266H136.745V4.34738H143.942V5.07211H148.26V5.79682H149.699V6.52155H150.419V7.24627H149.699V7.971H148.98V7.24627H149.699V6.52155H147.54V7.24627H143.222V7.971H147.54V8.69571H143.942V9.42044H137.464V8.69571H143.222V7.971H136.745V7.24627H136.025V7.971H134.585V8.69571H136.025V9.42044H136.745V10.1452H120.191V9.42044H112.994V8.69571H109.396V7.971H113.714V7.24627H108.676V5.79682ZM149.7 10.1444V10.8692H147.541V11.5939H143.222V12.3186H141.063V11.5939H142.503V10.8692H147.54V10.1444H149.7ZM107.237 5.79682H107.957V6.52155H107.237V5.79682ZM107.237 7.24627H107.957V7.971H107.237V7.24627ZM84.2063 12.3182H84.9261V13.043H84.2063V12.3182ZM82.767 13.043H83.4868V13.7677H82.767V13.043ZM81.3273 10.8692H82.0471V11.5939H81.3273V10.8692ZM81.3273 13.7673H82.0471V15.9411H82.767V14.492H84.2063V13.7673H86.3654V13.0426H85.6456V12.3179H86.3654V11.5932H89.2444V10.8684H92.8429V10.1444H97.1612V9.41971H106.517V10.1444H109.396V10.8692H114.434V11.5939H140.344V12.3186H134.586V13.0433H143.942V12.3186H148.261V11.5939H150.42V10.8692H159.056V10.1444H150.42V9.41971H159.776V10.1444H164.094V10.8692H159.056V11.5939H162.655V12.3186H163.375V11.5939H164.094V12.3186H167.693V11.5939H164.814V10.8692H167.693V11.5939H170.572V12.3186H172.731V13.0433H174.17V13.7681H175.61V15.9419H174.89V16.6666H174.17V15.9419H171.291V16.6666H169.852V17.3913H172.011V16.6666H173.45V17.3913H172.011V18.116H169.852V18.8407H166.973V19.5655H162.654V20.2902H157.617V21.0149H151.139V21.7396H143.222V21.0149H150.419V20.2902H148.98V19.5655H148.26V20.2902H136.745V21.0149H142.503V21.7396H140.343V22.4644H116.593V21.7396H105.797V21.0149H99.32V20.2902H94.2822V19.5655H90.6838V18.8407H94.2822V18.116H90.6838V17.3913H87.0853V18.116H89.9643V18.8407H87.0853V18.116H84.9261V17.3913H82.767V16.6666H82.0471V15.9419H81.3273V13.7673ZM32.3871 26.0854H33.107V26.8102H32.3871V26.0854ZM32.3871 30.433V29.7083H33.107V28.9836H33.8268V28.2589H34.5467V27.5341H35.986V26.8094H37.4253V27.5341H39.5845V26.8094H38.1452V26.0847H39.5845V25.36H40.3043V26.0847H39.5845V26.8094H42.4635V26.0847H43.9028V25.36H41.7436V24.6352H43.9028V23.9105H46.062V24.6352H43.9028V25.36H46.7818V24.6352H50.3803V23.9105H52.5394V23.1858H49.6604V23.9105H46.7814V23.1858H49.6604V22.4611H52.5394V21.7364H56.8578V21.0116H61.1761V20.2869H65.4944V19.5622H71.252V18.8375H77.7295V19.5622H71.9719V20.2869H82.7677V19.5622H78.4486V18.8375H82.767V19.5622H84.9261V20.2869H87.8051V21.0116H90.6841V21.7364H95.0024V22.4611H100.76V23.1858H107.957V23.9105H148.98V23.1858H156.177V22.4611H161.935V21.7364H166.253V21.0116H169.132V20.2869H172.011V19.5622H174.17V18.8375H176.33V20.2865H184.966V19.5618H177.769V18.8371H185.686V19.5618H191.444V20.2865H195.762V21.0113H200.08V21.736H204.399V22.4607H207.278V23.1854H210.157V23.9102H213.036V24.6349H215.195V25.3596H217.354V26.0843H219.513V26.8091H220.952V27.5338H222.392V28.2585H223.112V28.9832H223.832V29.7079H224.551V30.4327H225.271V32.6065H224.551V33.3312H223.832V34.0559H223.112V34.7807H222.392V35.5054H221.672V34.7807H222.392V34.0559H220.952V34.7807H218.793V35.5054H217.354V36.2301H218.074V36.9548H217.354V37.6795H215.195V38.4043H213.036V39.129H210.157V39.8537H207.278V40.5784H205.119V39.8537H207.278V39.129H203.679V39.8537H204.399V41.3028H200.081V42.0264H196.482V41.3017H200.081V40.577H195.762V41.3017H190.725V42.0264H195.762V42.7511H191.444V43.4759H185.686V44.2006H179.209V44.9253H171.292V45.65H161.216V46.3748H160.496V45.65H159.777V46.3748H145.382V47.0995H143.223V46.3748H142.503V47.0995H141.064V46.3748H140.344V45.65H116.594V46.3748H139.624V47.0995H116.594V46.3748H115.154V47.0995H111.556V46.3748H95.7223V45.65H85.6463V44.9253H77.7295V44.2006H71.252V43.4759H65.4944V42.7511H61.1761V42.0264H56.8578V41.3017H52.5394V40.577H49.6604V39.8522H46.7814V39.1275H43.9024V38.4028H41.7433V37.6781H39.5841V36.9534H37.4249V36.2286H35.9856V35.5039H34.5463V34.7792H33.8265V34.0545H33.1066V33.3297H32.3868V32.605H31.6669V30.4312H32.3871V30.433ZM220.951 35.5054V36.2301H220.231V35.5054H220.951ZM219.511 36.2297V36.9544H218.792V36.2297H219.511ZM30.9478 27.5349H31.6677V28.2596H30.9478V27.5349ZM12.9551 39.1283H13.6749V39.853H12.9551V39.1283ZM12.9551 42.0264H13.6749V42.7511H12.9551V42.0264ZM11.5157 39.8526H12.2356V40.5773H11.5157V39.8526ZM11.5157 42.7511H12.2356V43.4759H11.5157V42.7511ZM10.0761 40.5773H10.7959V41.3021H10.0761V40.5773ZM12.2352 69.5608H11.5154V68.8361H12.2352V69.5608ZM107.957 95.6461H95.7215V94.9214H95.0017V94.1967H96.441V94.9214H107.956V95.6461H107.957ZM220.951 85.5018H219.512V86.2265H218.792V85.5018H219.512V84.7771H220.951V85.5018ZM225.269 81.8789H224.549V82.6036H223.829V83.3283H223.109V84.0531H222.39V84.7778H221.67V84.0531H222.39V83.3283H223.109V82.6036H221.67V83.3283H220.95V84.0531H218.791V84.7778H217.352V85.5025H218.072V86.2272H217.352V86.952H215.193V87.6767H213.034V88.4014H210.155V89.1261H207.276V89.8509H204.397V90.5756H200.078V91.3003H196.48V90.5756H200.078V89.8509H195.76V90.5756H190.722V91.3003H195.76V92.025H191.442V92.7498H185.684V93.4745H179.206V94.1992H172.009V93.4745H171.29V94.9236H164.093V94.1988H169.85V93.4741H159.055V94.1988H139.622V94.9236H159.774V94.1988H163.373V94.9236H161.214V95.6483H145.38V96.373H140.342V95.6483H139.622V96.373H116.592V95.6483H115.872V96.373H111.554V95.6483H108.675V94.9236H113.713V95.6483H114.432V94.9236H116.592V94.1988H97.1594V93.4741H86.3636V94.1988H94.2804V94.9236H85.6438V94.1988H77.727V93.4741H71.2495V92.7494H65.4919V92.0247H61.1735V91.2999H56.8552V90.5752H53.2567V89.8505H56.8552V90.5752H61.1735V91.2999H66.2113V90.5752H61.893V89.8505H59.014V89.1258H58.2942V89.8505H57.5743V89.1258H53.256V88.401H49.6575V89.1258H52.5365V89.8505H49.6575V89.1258H46.7785V88.401H43.8995V87.6763H41.7404V86.9516H43.8995V86.2269H41.7404V85.5022H39.5812V86.2269H41.0205V86.9516H39.5812V86.2269H37.4221V85.5022H35.9827V84.7774H34.5434V84.0527H33.8236V83.328H33.1037V82.6033H32.3839V81.8785H31.6641V79.7047H32.3839V78.98H33.1037V79.7047H32.3839V81.8785H33.1037V80.4295H35.9827V81.1542H36.7026V80.4295H38.8617V79.7047H43.1801V80.4295H47.4984V81.1542H52.5362V81.8789H57.574V82.6036H52.5362V83.3283H56.8545V84.0531H57.5743V83.3283H58.2942V82.6036H65.4911V83.3283H73.4079V84.0531H83.4839V84.7778H96.4385V85.5025H95.7187V86.2272H94.2793V85.5025H81.3247V86.2272H93.5599V86.952H114.431V87.6767H115.151V86.2276H97.1583V85.5029H160.493V84.7782H162.652V85.5029H161.932V86.2276H141.783V86.9523H163.374V86.2276H171.291V86.9523H172.011V86.2276H175.609V85.5029H163.374V84.7782H174.17V84.0534H183.526V83.3287H190.723V84.0534H184.246V84.7782H192.162V84.0534H191.443V82.6044H197.92V83.3291H192.162V84.0538H199.359V83.3291H204.397V82.6044H198.64V81.8796H204.397V81.1549H209.435V80.4302H214.473V79.7055H218.071V78.9807H222.39V78.256H223.109V80.4298H223.829V81.1545H223.109V82.6036H223.829V81.8789H224.549V79.7051H223.829V78.9804H224.549V79.7051H225.269V81.8789ZM33.8265 79.7051V78.256H34.5463V79.7051H33.8265ZM41.7433 76.8069V77.5317H38.1448V76.8069H34.5463V76.0822H38.1448V76.8069H41.7433ZM38.1448 78.9807V79.7055H35.2658V78.9807H38.1448ZM228.148 81.1545H227.428V77.5317H228.148V81.1545ZM238.944 75.3578H238.224V74.6331H238.944V75.3578ZM243.982 70.2855H243.262V69.5608H243.982V70.2855ZM246.861 71.7346H246.141V71.0099H246.861V71.7346ZM246.141 59.4169V60.1416H246.861V60.8663H248.3V61.591H249.02V63.0401H249.74V65.9386H249.02V66.6634H248.3V67.3881H247.58V68.1128H246.86V68.8375H246.14V68.1128H246.86V67.3881H245.421V68.1128H244.701V68.8375H245.421V69.5622H244.701V68.8375H242.542V69.5622H241.822V70.287H242.542V71.0117H241.103V71.7364H239.663V71.0117H241.103V70.287H238.224V71.0117H236.784V71.7364H238.943V72.4612H236.784V73.1859H234.625V73.9106H231.746V74.6353H228.867V75.36H225.988V74.6353H223.109V75.36H225.268V76.0848H222.389V76.8095H218.791V77.5342H215.192V76.8095H218.791V76.0848H214.472V76.8095H210.874V76.0848H210.154V77.5338H214.472V78.2586H210.155V78.9833H205.117V79.708H199.36V80.4327H192.882V81.1575H185.685V81.8822H177.049V82.6069H176.329V81.8822H175.609V82.6069H168.412V81.8822H175.609V81.1575H163.374V81.8822H167.692V82.6069H165.533V83.3316H147.54V84.0564H141.783V83.3316H141.063V84.0564H115.154V83.3316H114.434V84.0564H109.396V83.3316H91.4032V82.6069H89.9639V81.8822H92.1231V81.1575H81.3273V81.8822H89.2441V82.6069H79.8879V81.8822H71.2513V81.1575H64.0544V80.4327H56.8574V79.708H51.8196V78.9833H46.7818V78.2586H42.4635V77.5338H46.7818V76.8091H42.4635V76.0844H38.865V75.3597H34.5467V74.6349H30.9482V75.3597H33.8272V76.0844H30.9482V75.3597H27.3497V74.6349H25.1905V73.9084H22.3115V73.1837H20.1524V72.459H17.9932V71.7342H15.8341V71.0095H14.3947V70.2848H12.9554V69.5601H14.3947V68.8353H12.9554V68.1106H11.5161V67.3859H10.0768V68.1106H10.7966V68.8353H10.0768V68.1106H9.35695V67.3859H8.63711V66.6612H7.91727V65.9365H7.19742V63.0379H7.91727V61.5888H8.63711V60.8641H9.35695V61.5888H8.63711V63.0379H9.35695V62.3132H10.0768V61.5885H10.7966V60.8638H10.0768V60.139H10.7966V59.4143H11.5165V60.139H10.7966V60.8638H12.2359V60.139H13.6753V59.4143H12.2359V58.6896H13.6753V57.9649H14.3951V58.6896H13.6753V59.4143H18.7131V60.139H21.5921V59.4143H19.4329V58.6896H16.5539V57.9649H19.4329V58.6896H21.5921V59.4143H23.7512V60.139H26.6302V60.8638H23.7512V61.5885H26.6302V63.0376H27.3501V62.3128H29.5092V63.0376H33.1077V62.3128H30.2287V61.5881H27.3497V60.8634H30.2287V61.5881H33.1077V62.3128H36.7062V63.0376H41.0245V63.7623H36.7062V64.487H40.3047V65.2117H41.744V65.9365H42.4638V65.2117H45.3428V64.487H41.7444V63.7623H46.0627V64.487H50.381V65.2117H56.1386V65.9365H62.6161V66.6612H70.5329V68.1103H69.0936V69.5593H69.8134V68.8346H74.8512V69.5593H75.5711V68.8346H77.7302V68.1099H71.2528V67.3852H77.7302V68.1099H78.4501V67.3852H79.1699V68.1099H88.526V68.8346H89.9654V68.1099H90.6852V68.8346H91.4051V69.5593H89.9657V70.2841H103.64V71.0088H152.58V70.2841H168.414V69.5593H151.86V70.2841H146.103V69.5593H147.542V68.8346H166.255V68.1099H167.694V68.8346H168.414V68.1099H177.77V67.3852H178.49V68.1099H179.21V67.3852H187.127V66.6604H192.164V67.3852H187.846V68.1099H195.043V67.3852H192.884V66.6604H194.323V65.9357H200.801V65.211H206.558V64.4863H211.596V63.7616H215.914V63.0368H218.073V63.7616H215.914V64.4863H220.233V63.7616H218.793V63.0368H220.233V62.3121H223.112V63.0368H220.233V63.7616H223.831V63.0368H227.43V62.3121H230.309V61.5874H227.43V60.8627H230.309V60.1379H233.188V59.4132H235.347V58.6885H237.506V57.9638H243.264V58.6885H244.703V59.4132H246.141V59.4169ZM15.1142 58.6921V57.9674H15.8341V58.6921H15.1142ZM151.139 66.6626V67.3874H105.798V66.6626H151.139V65.9379H155.457V66.6626H154.738V67.3874H152.578V66.6626H151.139ZM109.396 68.8364V69.5612H145.382V70.2859H105.078V69.5612H92.1231V68.8364H109.396ZM156.177 66.6626V65.9379H156.897V66.6626H156.177ZM223.83 62.315V61.5903H226.709V62.315H223.83ZM249.739 49.2726H249.019V50.7216H248.3V51.4464H247.58V50.7216H248.3V49.2726H247.58V49.9973H246.14V51.4464H246.86V52.1711H246.14V52.8958H244.701V53.6205H243.981V52.8958H244.701V52.1711H243.981V51.4464H243.261V52.8954H241.822V53.6202H243.261V54.3449H241.822V53.6202H239.663V54.3449H241.102V55.0696H239.663V55.7943H238.224V55.0696H239.663V54.3449H237.504V55.0696H236.064V55.7943H237.504V56.5191H235.345V57.2438H234.625V56.5191H235.345V55.7943H233.185V56.5191H233.905V57.2438H233.185V56.5191H230.306V57.2438H232.466V57.9685H230.306V58.6932H227.427V59.4179H223.829V60.1427H220.23V60.8674H216.632V60.1427H220.23V59.4179H215.912V60.1427H211.594V60.8674H215.912V61.5921H211.594V62.3168H207.276V63.0416H201.518V63.7663H196.48V63.0416H200.798V62.3168H195.761V64.4907H188.564V65.2154H179.927V65.9401H179.207V65.2154H178.487V65.9401H169.851V66.6648H157.617V65.9401H167.693V65.2154H166.973V64.4907H166.253V65.2154H150.419V65.9401H105.798V65.2154H102.919V65.9401H105.078V66.6648H104.358V67.3895H102.199V66.6648H87.0849V65.9401H77.0089V65.2154H68.3723V64.4907H61.8948V63.7659H55.4173V63.0412H49.6597V62.3165H45.3414V61.5918H41.0231V60.867H36.7047V60.1423H33.1063V59.4176H29.5078V58.6929H26.6288V57.9681H23.7498V57.2434H21.5906V56.5187H19.4315V55.794H17.2723V55.0692H15.1142V54.3445H13.6749V53.6198H12.2356V52.8951H10.7963V52.1704H10.0764V51.4456H10.7963V50.7209H10.0764V49.9962H9.35659V49.2715H8.63675V50.7205H9.35659V51.4453H8.63675V50.7205H7.91691V49.2715H7.19706V46.3729H7.91691V45.6482H8.63675V44.9235H9.35659V44.1988H10.0764V43.474H10.7963V44.1988H10.0764V44.9235H11.5157V44.1988H13.6749V43.474H14.3947V42.7493H15.8341V42.0264H14.3947V41.3017H15.8341V40.577H16.5539V41.3017H15.8341V42.0264H17.2734V40.5773H17.9932V39.8526H18.7131V40.5773H17.9932V41.3021H20.1524V40.5773H19.4325V39.8526H20.1524V39.1279H22.3115V38.4032H25.1905V37.6784H27.3497V38.4032H25.1905V39.1279H22.3115V39.8526H25.91V39.1279H28.0692V38.4032H34.5467V37.6784H28.0692V36.9537H34.5467V37.6784H35.986V38.4032H37.4253V39.1279H39.5845V39.8526H41.7436V40.5773H43.9028V41.3021H46.7818V42.0264H49.6608V42.7511H53.2593V43.4759H56.8578V44.2006H53.2593V44.9253H56.8578V45.65H61.1761V44.9253H57.5776V44.2006H61.8959V44.9253H66.9337V45.65H72.6914V46.3748H79.8883V47.0995H87.8051V47.8242H89.2444V48.5489H86.3654V49.2737H87.0853V49.9984H87.8051V49.2737H89.9643V49.9984H90.6841V49.2737H97.1616V49.9984H116.594V49.2737H97.8811V48.5489H89.9643V47.8242H99.3204V48.5489H157.617V47.8242H159.056V49.2733H159.776V49.998H160.496V49.2733H170.572V48.5486H159.776V47.8238H169.132V47.0991H177.769V46.3744H184.246V45.6497H190.724V44.9249H195.042V44.2002H199.361V44.9249H200.08V45.6497H200.8V44.9249H203.679V44.2002H200.081V43.4755H203.679V42.7508H207.278V42.0264H210.157V41.3017H213.036V40.577H215.195V39.8522H217.354V39.1275H218.793V39.8522H217.354V40.577H219.513V39.8522H220.952V39.1275H219.513V38.4028H220.952V37.6781H222.392V36.9534H223.112V37.6781H222.392V38.4028H223.831V39.1275H224.551V38.4028H228.869V39.8519H229.589V39.1272H231.748V38.4024H229.589V37.6777H231.748V38.4024H234.627V39.1272H236.786V39.8519H238.946V40.5766H236.786V41.3013H238.946V42.0264H241.105V41.3017H239.665V40.577H241.105V41.3017H242.544V42.0264H243.983V42.7511H242.544V43.4759H243.983V44.2006H245.423V44.9253H246.862V44.2006H246.142V43.4759H246.862V44.2006H247.582V44.9253H248.302V45.65H249.022V46.3748H249.741V49.2726H249.739Z" fill="#00020C"/>
    <path d="M252.618 55.7935H251.898V56.5184H252.618V55.7935Z" fill="#00020C"/>
    <path d="M134.586 64.4885H133.866V65.2135H134.586V64.4885Z" fill="#00020C"/>
    <path d="M242.542 44.2002H241.822V44.9252H242.542V44.2002Z" fill="#00020C"/>
    <path d="M249.02 46.374H248.3V49.2735H249.02V46.374Z" fill="#00020C"/>
    <path d="M195.761 60.1409H195.041V60.8658H195.761V60.1409Z" fill="#00020C"/>
    <path d="M164.813 52.1709H164.094V52.8959H164.813V52.1709Z" fill="#00020C"/>
    <path d="M169.852 51.4465H169.132V52.1715H169.852V51.4465Z" fill="#00020C"/>
    <path d="M161.215 50.7217H160.495V51.4466H161.215V50.7217Z" fill="#00020C"/>
    <path d="M162.655 52.1709H161.935V52.8959H162.655V52.1709Z" fill="#00020C"/>
    <path d="M210.155 44.2002H209.435V44.9252H210.155V44.2002Z" fill="#00020C"/>
    <path d="M197.2 59.4167H195.761V60.1417H197.2V59.4167Z" fill="#00020C"/>
    <path d="M211.595 46.374H210.875V47.099H211.595V46.374Z" fill="#00020C"/>
    <path d="M210.155 45.6497H209.435V46.3746H210.155V45.6497Z" fill="#00020C"/>
    <path d="M203.678 45.6497H202.958V46.3746H203.678V45.6497Z" fill="#00020C"/>
    <path d="M190.723 46.374H184.966V47.099H190.723V46.374Z" fill="#00020C"/>
    <path d="M43.9026 41.302H41.7434V42.027H43.9026V41.302Z" fill="#00020C"/>
    <path d="M46.7815 42.0264H43.9025V42.7513H46.7815V42.0264Z" fill="#00020C"/>
    <path d="M49.6601 42.7515H46.7811V43.4764H49.6601V42.7515Z" fill="#00020C"/>
    <path d="M41.743 40.5769H39.5839V41.3019H41.743V40.5769Z" fill="#00020C"/>
    <path d="M49.6598 44.2004H51.0995V44.9254H51.8189V44.2004H53.2583V43.4758H49.6598V44.2004Z" fill="#00020C"/>
    <path d="M35.9857 39.8525H35.2659V40.5775H35.9857V39.8525Z" fill="#00020C"/>
    <path d="M35.9856 38.4031H34.5463V39.128H35.9856V38.4031Z" fill="#00020C"/>
    <path d="M21.5913 41.3025H22.3111V39.8525H20.152V40.5775H21.5913V41.3025Z" fill="#00020C"/>
    <path d="M53.2589 44.9253H52.5391V45.6503H53.2589V44.9253Z" fill="#00020C"/>
    <path d="M37.4248 40.5775H38.1446V41.3025H38.8645V40.5775H39.584V39.8525H37.4248V40.5775Z" fill="#00020C"/>
    <path d="M37.4249 39.1282H35.9856V39.8531H37.4249V39.1282Z" fill="#00020C"/>
    <path d="M178.488 47.8232H170.571V48.5482H178.488V47.8232Z" fill="#00020C"/>
    <path d="M184.246 47.0991H178.488V47.8241H184.246V47.0991Z" fill="#00020C"/>
    <path d="M207.276 43.4758H203.678V44.2008H207.276V43.4758Z" fill="#00020C"/>
    <path d="M140.343 49.9973H149.7V50.7223H150.419V49.9973H151.859V50.7223H152.578V49.9973H156.177V50.7223H156.897V49.9973H159.056V49.2727H140.343V49.9973Z" fill="#00020C"/>
    <path d="M196.481 46.3749V45.6499H199.36V44.9253H195.761V45.6499H190.723V46.3749H196.481Z" fill="#00020C"/>
    <path d="M140.343 49.9971H116.593V50.722H140.343V49.9971Z" fill="#00020C"/>
    <path d="M64.0544 46.3746V47.0996H64.7743V46.3746H66.2136V45.6497H61.1754V46.3746H64.0544Z" fill="#00020C"/>
    <path d="M79.168 47.0991H71.9711V47.8241H79.168V47.0991Z" fill="#00020C"/>
    <path d="M79.168 47.8232V48.5482H79.8878V49.2732H80.6076V48.5482H86.3653V47.8232H79.168Z" fill="#00020C"/>
    <path d="M215.913 64.4885H211.594V65.2135H215.913V64.4885Z" fill="#00020C"/>
    <path d="M56.1374 61.5906H50.3797V60.866H45.3416V61.5906H49.6599V62.3156H56.1374V61.5906Z" fill="#00020C"/>
    <path d="M41.0238 59.4167H36.7054V60.1417H41.0238V59.4167Z" fill="#00020C"/>
    <path d="M45.3419 60.1409H41.0236V60.8658H45.3419V60.1409Z" fill="#00020C"/>
    <path d="M32.3869 57.967H29.5079V58.692H32.3869V57.967Z" fill="#00020C"/>
    <path d="M36.7054 58.6924H33.1069V59.4173H36.7054V58.6924Z" fill="#00020C"/>
    <path d="M178.488 64.4885H167.693V65.2135H178.488V64.4885Z" fill="#00020C"/>
    <path d="M102.198 65.2136H89.2439V65.9386H102.198V65.2136Z" fill="#00020C"/>
    <path d="M89.2442 64.4885H78.4484V65.2135H89.2442V64.4885Z" fill="#00020C"/>
    <path d="M78.4484 63.7642H69.0923V64.4891H78.4484V63.7642Z" fill="#00020C"/>
    <path d="M29.5085 57.2429H26.6295V57.9679H29.5085V57.2429Z" fill="#00020C"/>
    <path d="M69.0921 63.0397H62.6149V62.3147H56.1375V63.0397H61.8951V63.7643H69.0921V63.0397Z" fill="#00020C"/>
    <path d="M12.2352 51.4465H10.7959V52.1715H12.2352V51.4465Z" fill="#00020C"/>
    <path d="M9.35655 47.8236V47.099H8.63671V46.374H7.91687V49.2735H8.63671V47.8236H9.35655Z" fill="#00020C"/>
    <path d="M10.0764 44.9253H9.35657V45.6503H10.0764V44.9253Z" fill="#00020C"/>
    <path d="M13.6745 52.1709H12.2352V52.8959H13.6745V52.1709Z" fill="#00020C"/>
    <path d="M10.0764 46.374H9.35657V47.099H10.0764V46.374Z" fill="#00020C"/>
    <path d="M9.35656 45.6497H8.63672V46.3746H9.35656V45.6497Z" fill="#00020C"/>
    <path d="M23.7503 55.0691H23.0309V55.7937H21.5912V56.5187H23.7503V55.0691Z" fill="#00020C"/>
    <path d="M21.5914 55.0691H19.4323V55.7941H21.5914V55.0691Z" fill="#00020C"/>
    <path d="M26.6295 56.5186H23.7505V57.2435H26.6295V56.5186Z" fill="#00020C"/>
    <path d="M17.2732 53.6199H15.8335V52.8953H13.6743V53.6199H15.114V54.3448H17.2732V53.6199Z" fill="#00020C"/>
    <path d="M19.4325 54.3447H17.2733V55.0697H19.4325V54.3447Z" fill="#00020C"/>
    <path d="M210.156 38.4031H207.277V39.128H210.156V38.4031Z" fill="#00020C"/>
    <path d="M219.511 26.8098H217.352V27.5348H219.511V26.8098Z" fill="#00020C"/>
    <path d="M217.353 26.0854H215.193V26.8104H217.353V26.0854Z" fill="#00020C"/>
    <path d="M220.95 27.5349H219.511V28.2599H220.95V27.5349Z" fill="#00020C"/>
    <path d="M222.39 28.259H220.951V28.984H222.39V28.259Z" fill="#00020C"/>
    <path d="M215.193 25.3611H213.034V26.0861H215.193V25.3611Z" fill="#00020C"/>
    <path d="M200.079 21.7378H195.761V22.4628H200.079V21.7378Z" fill="#00020C"/>
    <path d="M203.678 22.4622H200.079V23.1871H203.678V22.4622Z" fill="#00020C"/>
    <path d="M223.111 28.9836H222.391V29.7086H223.111V28.9836Z" fill="#00020C"/>
    <path d="M207.276 23.1873H204.397V23.9122H207.276V23.1873Z" fill="#00020C"/>
    <path d="M210.156 23.9116H207.277V24.6366H210.156V23.9116Z" fill="#00020C"/>
    <path d="M213.034 24.636H210.155V25.361H213.034V24.636Z" fill="#00020C"/>
    <path d="M223.83 31.8822H223.111V32.6069H222.391V34.056H223.111V33.3316H223.83V32.6069H224.55V30.4331H223.83V31.8822Z" fill="#00020C"/>
    <path d="M186.405 41.302H185.685V42.0266H184.966V42.7516H190.723V42.0266H186.405V41.302Z" fill="#00020C"/>
    <path d="M119.472 6.52148H118.752V7.24645H119.472V6.52148Z" fill="#00020C"/>
    <path d="M203.678 39.8525H200.079V40.5775H203.678V39.8525Z" fill="#00020C"/>
    <path d="M184.966 42.7513H182.806V42.0264H182.087V42.7513H178.488V43.4763H184.966V42.7513Z" fill="#00020C"/>
    <path d="M178.488 43.4758H171.291V44.2008H178.488V43.4758Z" fill="#00020C"/>
    <path d="M223.83 29.708H223.11V30.433H223.83V29.708Z" fill="#00020C"/>
    <path d="M213.034 37.6787H210.155V38.4037H213.034V37.6787Z" fill="#00020C"/>
    <path d="M188.564 21.0133V21.7379H189.284V21.0133H190.723V23.1878H191.443V21.7379H195.761V21.0133H191.443V20.2883H184.966V21.0133H188.564Z" fill="#00020C"/>
    <path d="M217.353 36.2292H215.193V36.9542H217.353V36.2292Z" fill="#00020C"/>
    <path d="M215.193 36.9543H213.034V37.6793H215.193V36.9543Z" fill="#00020C"/>
    <path d="M169.132 21.7378H166.253V22.4628H169.132V21.7378Z" fill="#00020C"/>
    <path d="M66.9334 21.7379V21.0133H70.5319V21.7379H71.2514V20.2883H66.2136V21.0133H61.1754V21.7379H66.9334Z" fill="#00020C"/>
    <path d="M60.4557 22.4628V23.1877H61.895V22.4628H61.1751V21.7378H56.8572V22.4628H60.4557Z" fill="#00020C"/>
    <path d="M84.9259 20.2883H82.7667V21.0133H84.9259V20.2883Z" fill="#00020C"/>
    <path d="M56.8574 22.4622H52.5391V23.1871H56.8574V22.4622Z" fill="#00020C"/>
    <path d="M87.8049 21.0137H84.9259V21.7386H87.8049V21.0137Z" fill="#00020C"/>
    <path d="M205.117 35.5049H204.397V36.2299H205.117V35.5049Z" fill="#00020C"/>
    <path d="M90.6837 21.7378H87.8047V22.4628H90.6837V21.7378Z" fill="#00020C"/>
    <path d="M203.678 37.6787H202.958V38.4037H203.678V37.6787Z" fill="#00020C"/>
    <path d="M203.678 36.2292H202.958V36.9542H203.678V36.2292Z" fill="#00020C"/>
    <path d="M209.436 36.2292H208.716V36.9542H209.436V36.2292Z" fill="#00020C"/>
    <path d="M120.192 24.636H107.237V25.361H120.192V24.636Z" fill="#00020C"/>
    <path d="M133.866 24.636H133.146V25.361H120.911V26.0856H132.426V26.8105H133.146V26.0856H136.745V25.361H133.866V24.636Z" fill="#00020C"/>
    <path d="M149.699 24.636H136.745V25.361H149.699V24.636Z" fill="#00020C"/>
    <path d="M166.253 22.4622H161.935V23.1871H166.253V22.4622Z" fill="#00020C"/>
    <path d="M172.73 21.7379V21.0133H174.17V20.2883H172.011V21.0133H169.132V21.7379H172.73Z" fill="#00020C"/>
    <path d="M159.056 44.2002V44.9252H140.343V45.6498H159.776V44.9252H171.291V44.2002H159.056Z" fill="#00020C"/>
    <path d="M95.0019 22.4622H90.6836V23.1871H95.0019V22.4622Z" fill="#00020C"/>
    <path d="M156.897 23.9119H149.7V24.6368H155.458V25.3618H156.897V24.6368H157.617V23.9119H161.935V23.1873H156.897V23.9119Z" fill="#00020C"/>
    <path d="M100.039 23.1873H95.0016V23.9122H100.039V23.1873Z" fill="#00020C"/>
    <path d="M107.237 23.9116H100.04V24.6366H107.237V23.9116Z" fill="#00020C"/>
    <path d="M175.609 19.5642H174.17V20.2892H175.609V19.5642Z" fill="#00020C"/>
    <path d="M213.754 28.9836H213.034V29.7086H213.754V28.9836Z" fill="#00020C"/>
    <path d="M169.852 17.3904H166.973V18.1154H169.852V17.3904Z" fill="#00020C"/>
    <path d="M174.17 13.7671H172.73V14.4921H174.17V13.7671Z" fill="#00020C"/>
    <path d="M116.593 21.0138V20.2888H111.555V19.5642H110.835V20.2888H107.237V21.0138H116.593Z" fill="#00020C"/>
    <path d="M122.351 20.2883H121.631V21.0133H120.192V20.2883H117.313V21.0133H119.472V21.7379H136.745V21.0133H122.351V20.2883Z" fill="#00020C"/>
    <path d="M159.056 18.8397V18.1147H158.336V18.8397H156.897V19.5647H150.419V20.2893H157.617V19.5647H162.654V18.8397H159.056Z" fill="#00020C"/>
    <path d="M109.396 10.8689H106.517V11.5939H109.396V10.8689Z" fill="#00020C"/>
    <path d="M113.714 11.594H109.396V12.319H113.714V11.594Z" fill="#00020C"/>
    <path d="M172.73 13.0427H170.571V13.7677H172.73V13.0427Z" fill="#00020C"/>
    <path d="M134.585 13.0427H133.146V13.7677H134.585V13.0427Z" fill="#00020C"/>
    <path d="M159.056 11.594H158.336V12.319H159.056V11.594Z" fill="#00020C"/>
    <path d="M170.572 12.3184H167.693V13.0433H170.572V12.3184Z" fill="#00020C"/>
    <path d="M174.89 14.4922H174.17V15.9418H174.89V14.4922Z" fill="#00020C"/>
    <path d="M136.025 5.07275H134.586V5.79773H136.025V5.07275Z" fill="#00020C"/>
    <path d="M134.586 4.34766H123.07V5.07262H134.586V4.34766Z" fill="#00020C"/>
    <path d="M136.745 6.52234H137.464V5.79736H143.222V6.52234H147.54V5.79736H143.942V5.07275H136.745V6.52234Z" fill="#00020C"/>
    <path d="M71.2514 42.0266H66.2136V41.302H61.1754V42.0266H65.4937V42.7516H71.2514V42.0266Z" fill="#00020C"/>
    <path d="M134.586 8.69507H122.351V9.42003H134.586V8.69507Z" fill="#00020C"/>
    <path d="M123.07 6.52148H122.351V7.24645H123.07V6.52148Z" fill="#00020C"/>
    <path d="M123.79 5.79712H123.07V6.52209H123.79V5.79712Z" fill="#00020C"/>
    <path d="M113.714 6.52234V5.79736H123.07V5.07275H112.994V5.79736H109.396V6.52234H113.714Z" fill="#00020C"/>
    <path d="M87.0851 16.666H84.9259V17.391H87.0851V16.666Z" fill="#00020C"/>
    <path d="M107.237 19.5647H100.04V18.8397H97.8807V18.1147H97.1609V18.8397H94.2822V19.5647H99.32V20.2893H107.237V19.5647Z" fill="#00020C"/>
    <path d="M122.351 8.69617V7.97119H120.192V7.24658H119.472V7.97119H113.714V8.69617H122.351Z" fill="#00020C"/>
    <path d="M43.9026 36.9543H41.7434V37.6793H43.9026V36.9543Z" fill="#00020C"/>
    <path d="M41.743 36.2292H39.5839V36.9542H41.743V36.2292Z" fill="#00020C"/>
    <path d="M46.7815 37.6787H43.9025V38.4037H46.7815V37.6787Z" fill="#00020C"/>
    <path d="M37.4249 34.7805H35.9856V35.5055H37.4249V34.7805Z" fill="#00020C"/>
    <path d="M39.584 35.5049H37.4248V36.2299H39.584V35.5049Z" fill="#00020C"/>
    <path d="M61.1755 40.5769H56.8572V41.3019H61.1755V40.5769Z" fill="#00020C"/>
    <path d="M35.9856 34.0554H34.5463V34.7804H35.9856V34.0554Z" fill="#00020C"/>
    <path d="M56.8574 40.5778V39.1282H56.1375V39.8528H53.2585V40.5778H56.8574Z" fill="#00020C"/>
    <path d="M49.6601 38.4031H46.7811V39.128H49.6601V38.4031Z" fill="#00020C"/>
    <path d="M53.2583 39.1282H49.6598V39.8531H53.2583V39.1282Z" fill="#00020C"/>
    <path d="M84.9259 15.9409H82.7667V16.6659H84.9259V15.9409Z" fill="#00020C"/>
    <path d="M166.253 18.1147H163.374V18.8397H166.253V18.1147Z" fill="#00020C"/>
    <path d="M121.631 18.1147H120.911V19.5643H121.631V18.1147Z" fill="#00020C"/>
    <path d="M89.2444 12.3184H86.3654V13.0433H89.2444V12.3184Z" fill="#00020C"/>
    <path d="M122.351 12.3184H115.154V13.0433H122.351V12.3184Z" fill="#00020C"/>
    <path d="M93.5622 12.3185V11.5939H97.8805V10.8689H92.8424V11.5939H89.2439V12.3185H93.5622Z" fill="#00020C"/>
    <path d="M115.874 18.1147H115.154V18.8397H115.874V18.1147Z" fill="#00020C"/>
    <path d="M231.027 62.3147H230.308V63.0397H231.027V62.3147Z" fill="#00020C"/>
    <path d="M33.8268 32.6069H33.1069V33.3319H33.8268V32.6069Z" fill="#00020C"/>
    <path d="M132.427 13.0427H122.351V13.7677H132.427V13.0427Z" fill="#00020C"/>
    <path d="M34.5464 33.3311H33.8265V34.056H34.5464V33.3311Z" fill="#00020C"/>
    <path d="M106.518 10.1445H97.8809V10.8695H106.518V10.1445Z" fill="#00020C"/>
    <path d="M46.7815 86.9514H43.9025V87.6764H46.7815V86.9514Z" fill="#00020C"/>
    <path d="M42.4627 80.4294H38.8643V81.1544H42.4627V80.4294Z" fill="#00020C"/>
    <path d="M37.4249 84.0525H35.9856V84.7775H37.4249V84.0525Z" fill="#00020C"/>
    <path d="M33.8268 81.8789H33.1069V82.6039H33.8268V81.8789Z" fill="#00020C"/>
    <path d="M35.9857 83.3282H35.2662V82.6033H33.8265V83.3282H34.5464V84.0528H35.9857V83.3282Z" fill="#00020C"/>
    <path d="M39.584 84.7778H37.4248V85.5028H39.584V84.7778Z" fill="#00020C"/>
    <path d="M190.723 91.2991H184.966V92.024H190.723V91.2991Z" fill="#00020C"/>
    <path d="M178.488 92.7478H172.73V93.4728H178.488V92.7478Z" fill="#00020C"/>
    <path d="M184.966 92.0234H178.488V92.7484H184.966V92.0234Z" fill="#00020C"/>
    <path d="M53.9784 87.675H53.2585V88.4H53.9784V87.675Z" fill="#00020C"/>
    <path d="M78.4487 92.7486V92.0237H71.9713V91.2991H66.2136V92.0237H71.2514V92.7486H77.7289V93.4732H86.3655V92.7486H78.4487Z" fill="#00020C"/>
    <path d="M49.6601 87.675H46.7811V88.4H49.6601V87.675Z" fill="#00020C"/>
    <path d="M209.435 81.8789H204.397V82.6039H209.435V81.8789Z" fill="#00020C"/>
    <path d="M177.049 86.2274H177.768V85.5024H184.246V84.7778H175.609V85.5024H177.049V86.2274Z" fill="#00020C"/>
    <path d="M118.033 86.2263H117.313V87.6759H141.783V86.9513H118.033V86.2263Z" fill="#00020C"/>
    <path d="M218.792 80.4294H214.474V81.1544H218.792V80.4294Z" fill="#00020C"/>
    <path d="M214.473 81.1545H209.435V81.8795H214.473V81.1545Z" fill="#00020C"/>
    <path d="M64.7742 83.3284H58.2968V84.0533H64.7742V83.3284Z" fill="#00020C"/>
    <path d="M47.5009 81.1545H42.4631V81.8795H47.5009V81.1545Z" fill="#00020C"/>
    <path d="M51.8191 81.8789H47.5007V82.6039H51.8191V81.8789Z" fill="#00020C"/>
    <path d="M71.971 84.7775V85.5021H72.6908V84.0525H64.774V84.7775H71.971Z" fill="#00020C"/>
    <path d="M222.39 79.7051H218.792V80.4301H222.39V79.7051Z" fill="#00020C"/>
    <path d="M81.3271 84.7778H73.4103V85.5028H81.3271V84.7778Z" fill="#00020C"/>
    <path d="M195.042 85.5012H194.322V86.2262H195.042V85.5012Z" fill="#00020C"/>
    <path d="M243.261 58.6924H241.102V59.4173H243.261V58.6924Z" fill="#00020C"/>
    <path d="M116.593 86.9514H115.873V87.6764H116.593V86.9514Z" fill="#00020C"/>
    <path d="M188.564 86.2263H187.844V86.9513H188.564V86.2263Z" fill="#00020C"/>
    <path d="M184.965 88.4001H184.245V89.1251H184.965V88.4001Z" fill="#00020C"/>
    <path d="M244.701 59.4167H243.262V60.1417H244.701V59.4167Z" fill="#00020C"/>
    <path d="M203.678 88.4001V89.1251H200.079V89.8497H204.397V89.1251H207.276V88.4001H203.678Z" fill="#00020C"/>
    <path d="M238.224 59.4173V60.142H238.944V59.4173H239.663V60.142H240.383V58.6924H237.504V59.4173H238.224Z" fill="#00020C"/>
    <path d="M231.027 62.3156H231.747V61.5906H233.186V60.866H230.308V61.5906H231.027V62.3156Z" fill="#00020C"/>
    <path d="M237.504 59.4167H235.345V60.1417H237.504V59.4167Z" fill="#00020C"/>
    <path d="M235.345 60.1409H233.185V60.8658H235.345V60.1409Z" fill="#00020C"/>
    <path d="M217.353 85.5012H215.193V86.2262H217.353V85.5012Z" fill="#00020C"/>
    <path d="M66.9335 89.1252H66.2136V89.8502H66.9335V89.1252Z" fill="#00020C"/>
    <path d="M208.716 87.676V86.9514H207.996V87.676H207.277V88.401H210.155V87.676H208.716Z" fill="#00020C"/>
    <path d="M213.034 86.9514H210.155V87.6764H213.034V86.9514Z" fill="#00020C"/>
    <path d="M39.5841 83.3284H38.8643V84.0533H39.5841V83.3284Z" fill="#00020C"/>
    <path d="M215.193 86.2263H213.034V86.9513H215.193V86.2263Z" fill="#00020C"/>
    <path d="M63.3346 88.4001H62.6147V89.1251H63.3346V88.4001Z" fill="#00020C"/>
    <path d="M57.577 86.2263H56.8572V86.9513H57.577V86.2263Z" fill="#00020C"/>
    <path d="M62.615 86.2263H61.8951V86.9513H62.615V86.2263Z" fill="#00020C"/>
    <path d="M59.7362 84.7778H59.0164V85.5028H59.7362V84.7778Z" fill="#00020C"/>
    <path d="M74.1301 22.4622H73.4103V23.1871H74.1301V22.4622Z" fill="#00020C"/>
    <path d="M107.237 42.7515H106.517V43.4764H107.237V42.7515Z" fill="#00020C"/>
    <path d="M89.2444 42.7515H88.5245V43.4764H89.2444V42.7515Z" fill="#00020C"/>
    <path d="M151.139 28.9836H150.419V29.7086H151.139V28.9836Z" fill="#00020C"/>
    <path d="M142.503 43.4758H141.783V44.2008H142.503V43.4758Z" fill="#00020C"/>
    <path d="M150.42 26.0854H149.7V26.8104H150.42V26.0854Z" fill="#00020C"/>
    <path d="M110.836 43.4758H110.116V44.2008H110.836V43.4758Z" fill="#00020C"/>
    <path d="M105.078 42.7515H104.358V43.4764H105.078V42.7515Z" fill="#00020C"/>
    <path d="M115.873 45.6498V44.9252H99.3198V44.2002H98.6003V44.9252H97.1606V45.6498H115.873Z" fill="#00020C"/>
    <path d="M97.1611 44.2002H96.4413V44.9252H97.1611V44.2002Z" fill="#00020C"/>
    <path d="M104.358 27.5349H103.638V28.2599H104.358V27.5349Z" fill="#00020C"/>
    <path d="M104.358 26.0854H103.638V26.8104H104.358V26.0854Z" fill="#00020C"/>
    <path d="M172.73 23.1873H172.01V23.9122H172.73V23.1873Z" fill="#00020C"/>
    <path d="M171.291 22.4622H170.571V23.1871H171.291V22.4622Z" fill="#00020C"/>
    <path d="M156.177 42.7515H155.457V43.4764H156.177V42.7515Z" fill="#00020C"/>
    <path d="M170.571 42.7515H169.851V43.4764H170.571V42.7515Z" fill="#00020C"/>
    <path d="M173.45 22.4622H172.73V23.1871H173.45V22.4622Z" fill="#00020C"/>
    <path d="M174.89 21.7378H174.17V22.4628H174.89V21.7378Z" fill="#00020C"/>
    <path d="M151.139 42.7515H150.419V43.4764H151.139V42.7515Z" fill="#00020C"/>
    <path d="M160.496 42.7507H159.776V43.4757H160.496V42.7507Z" fill="#00020C"/>
    <path d="M159.776 42.0264H159.056V42.7513H159.776V42.0264Z" fill="#00020C"/>
    <path d="M166.973 41.302H166.253V42.027H166.973V41.302Z" fill="#00020C"/>
    <path d="M56.1373 35.5049H55.4175V36.2299H56.1373V35.5049Z" fill="#00020C"/>
    <path d="M40.3037 28.9836H39.5839V29.7086H40.3037V28.9836Z" fill="#00020C"/>
    <path d="M43.183 28.259H42.4631V28.984H43.183V28.259Z" fill="#00020C"/>
    <path d="M45.342 28.9836H44.6222V29.7086H45.342V28.9836Z" fill="#00020C"/>
    <path d="M38.8646 34.0554H38.1448V34.7804H38.8646V34.0554Z" fill="#00020C"/>
    <path d="M46.0614 26.0854H45.3416V26.8104H46.0614V26.0854Z" fill="#00020C"/>
    <path d="M33.1068 30.4331H32.387V32.6077H33.1068V30.4331Z" fill="#00020C"/>
    <path d="M33.8268 29.708H33.1069V30.433H33.8268V29.708Z" fill="#00020C"/>
    <path d="M49.6603 35.5049H48.9404V36.2299H49.6603V35.5049Z" fill="#00020C"/>
    <path d="M36.7054 28.9845V28.2595H37.4249V27.5349H35.9856V28.2595H34.5463V28.9845H36.7054Z" fill="#00020C"/>
    <path d="M34.5464 28.9836H33.8265V29.7086H34.5464V28.9836Z" fill="#00020C"/>
    <path d="M95.7215 44.2002H86.3654V44.9252H95.7215V44.2002Z" fill="#00020C"/>
    <path d="M78.4485 42.7515H71.9711V43.4764H78.4485V42.7515Z" fill="#00020C"/>
    <path d="M69.8121 23.1873H69.0923V23.9122H69.8121V23.1873Z" fill="#00020C"/>
    <path d="M85.6453 43.4758H78.4484V44.2008H85.6453V43.4758Z" fill="#00020C"/>
    <path d="M51.0997 36.9543H50.3799V38.4039H51.0997V36.9543Z" fill="#00020C"/>
    <path d="M179.208 21.7378H178.488V22.4628H179.208V21.7378Z" fill="#00020C"/>
    <path d="M79.8878 41.302H79.168V42.027H79.8878V41.302Z" fill="#00020C"/>
    <path d="M139.623 94.9216H116.593V95.6466H139.623V94.9216Z" fill="#00020C"/>
    <path d="M56.8573 36.2292H56.1375V36.9542H56.8573V36.2292Z" fill="#00020C"/>
    <path d="M59.016 37.6787H57.5767V38.4037H59.016V37.6787Z" fill="#00020C"/>
    <path d="M68.3726 21.7378H67.6527V22.4628H68.3726V21.7378Z" fill="#00020C"/>
</svg>
