<svg width="101" height="100" viewBox="0 0 101 100" fill="none" xmlns="http://www.w3.org/2000/svg">
    <path d="M7.41111 55.2505H6.81946L6.81946 55.8029H7.41111L7.41111 55.2505Z" fill="#00020C"/>
    <path d="M9.18625 55.25H8.5946L8.5946 55.8024H9.18625L9.18625 55.25Z" fill="#00020C"/>
    <path d="M1.49412 55.2502L0.902466 55.2502L0.902466 56.3553L1.49412 56.3553L1.49412 55.2502Z" fill="#00020C"/>
    <path d="M7.41135 56.355L6.8197 56.355L6.8197 57.46L7.41135 57.46L7.41135 56.355Z" fill="#00020C"/>
    <path d="M19.2454 59.1174L19.8372 59.1174L19.8372 58.0125L20.4288 58.0125L20.4288 57.46L19.2454 57.46L19.2454 59.1174Z" fill="#00020C"/>
    <path d="M8.00266 55.8025H7.41101L7.41101 56.3549H8.00266L8.00266 55.8025Z" fill="#00020C"/>
    <path d="M18.062 58.0127L17.4703 58.0127L17.4703 58.5651L18.062 58.5651L18.062 58.0127Z" fill="#00020C"/>
    <path d="M63.0322 59.1172H62.4406L62.4406 59.6696H63.0322L63.0322 59.1172Z" fill="#00020C"/>
    <path d="M13.9199 56.355H13.3282L13.3282 56.9074H13.9199L13.9199 56.355Z" fill="#00020C"/>
    <path d="M3.86069 56.355H3.26904L3.26904 57.46H3.86069L3.86069 56.355Z" fill="#00020C"/>
    <path d="M5.04429 56.9077L4.45264 56.9077L4.45264 57.4602L5.04429 57.4602L5.04429 56.9077Z" fill="#00020C"/>
    <path d="M12.1451 56.355L10.9617 56.355L10.9617 56.9074L12.1451 56.9074L12.1451 56.355Z" fill="#00020C"/>
    <path d="M17.4707 56.9077L16.879 56.9077L16.879 57.4602L17.4707 57.4602L17.4707 56.9077Z" fill="#00020C"/>
    <path d="M15.1035 56.355L14.5118 56.355L14.5118 56.9074L15.1035 56.9074L15.1035 56.355Z" fill="#00020C"/>
    <path d="M2.08542 56.3552L1.49377 56.3552L1.49377 56.9077L2.08542 56.9077L2.08542 56.3552Z" fill="#00020C"/>
    <path d="M2.6771 56.9077L2.08545 56.9077L2.08545 57.4602L2.6771 57.4602L2.6771 56.9077Z" fill="#00020C"/>
    <path d="M2.08579 57.4602H1.49414L1.49414 58.0126H2.08579L2.08579 57.4602Z" fill="#00020C"/>
    <path d="M2.67759 58.0127L2.08594 58.0127L2.08594 58.5651L2.67759 58.5651L2.67759 58.0127Z" fill="#00020C"/>
    <path d="M8.59473 57.4603H9.18638L9.18638 56.9078H9.77818L9.77818 56.3552H8.59473L8.59473 57.4603Z" fill="#00020C"/>
    <path d="M44.6891 64.6428H44.0974L44.0974 65.1953H44.6891L44.6891 64.6428Z" fill="#00020C"/>
    <path d="M48.2391 75.6926L47.6475 75.6926L47.6475 76.2451L48.2391 76.2451L48.2391 75.6926Z" fill="#00020C"/>
    <path d="M45.8724 67.9575H45.2808L45.2808 68.51H45.8724L45.8724 67.9575Z" fill="#00020C"/>
    <path d="M45.8724 66.8525L45.2808 66.8525L45.2808 67.405L45.8724 67.405L45.8724 66.8525Z" fill="#00020C"/>
    <path d="M47.0559 71.8252L46.4642 71.8252L46.4642 72.3776L47.0559 72.3776L47.0559 71.8252Z" fill="#00020C"/>
    <path d="M48.8312 84.5325H48.2395L48.2395 85.0849H48.8312L48.8312 84.5325Z" fill="#00020C"/>
    <path d="M55.3396 93.3728L55.3396 93.9253L55.9313 93.9253L55.9313 92.8203L54.7478 92.8203L54.7478 93.3728L55.3396 93.3728Z" fill="#00020C"/>
    <path d="M47.6477 76.2451H47.056L47.056 76.7976H47.6477L47.6477 76.2451Z" fill="#00020C"/>
    <path d="M48.8308 83.4275L48.2391 83.4275L48.2391 83.9799L48.8308 83.9799L48.8308 83.4275Z" fill="#00020C"/>
    <path d="M31.6713 58.0125H31.0795L31.0795 59.1173H32.2629L32.2629 58.5649H31.6713L31.6713 58.0125Z" fill="#00020C"/>
    <path d="M35.8133 59.1172H35.2217L35.2217 59.6696H35.8133L35.8133 59.1172Z" fill="#00020C"/>
    <path d="M36.9966 59.6702H36.4049L36.4049 60.7752H36.9966L36.9966 59.6702Z" fill="#00020C"/>
    <path d="M39.9554 60.7754H39.3638L39.3638 61.3278H39.9554L39.9554 60.7754Z" fill="#00020C"/>
    <path d="M41.7303 61.3276L41.1387 61.3276L41.1387 61.8801L41.7303 61.8801L41.7303 61.3276Z" fill="#00020C"/>
    <path d="M38.7719 60.2227L38.1803 60.2227L38.1803 60.7751L38.7719 60.7751L38.7719 60.2227Z" fill="#00020C"/>
    <path d="M55.9315 76.2451H55.3398L55.3398 76.7976H55.9315L55.9315 76.2451Z" fill="#00020C"/>
    <path d="M23.979 58.0127L23.3873 58.0127L23.3873 58.5651L23.979 58.5651L23.979 58.0127Z" fill="#00020C"/>
    <path d="M21.0205 58.0127L20.4288 58.0127L20.4288 58.5651L21.0205 58.5651L21.0205 58.0127Z" fill="#00020C"/>
    <path d="M21.6118 58.5652L21.0201 58.5652L21.0201 59.1176L21.6118 59.1176L21.6118 58.5652Z" fill="#00020C"/>
    <path d="M30.488 57.46L29.8964 57.46L29.8964 58.0124L30.488 58.0124L30.488 57.46Z" fill="#00020C"/>
    <path d="M57.1148 70.1677L56.5232 70.1677L56.5232 70.7202L57.1148 70.7202L57.1148 70.1677Z" fill="#00020C"/>
    <path d="M56.5235 71.8254H55.9319L55.9319 72.3779H56.5235L56.5235 71.8254Z" fill="#00020C"/>
    <path d="M28.1213 58.5652L27.5297 58.5652L27.5297 59.6702L28.1213 59.6702L28.1213 58.5652Z" fill="#00020C"/>
    <path d="M62.44 60.2224H61.8484L61.8484 61.3274H62.44L62.44 60.2224Z" fill="#00020C"/>
    <path d="M60.6655 61.3276L60.0739 61.3276L60.0739 61.8801L60.6655 61.8801L60.6655 61.3276Z" fill="#00020C"/>
    <path d="M24.5708 57.4602H23.9791L23.9791 58.0126H24.5708L24.5708 57.4602Z" fill="#00020C"/>
    <path d="M59.4814 63.5378L58.8898 63.5378L58.8898 64.0903L59.4814 64.0903L59.4814 63.5378Z" fill="#00020C"/>
    <path d="M75.4577 46.9626L74.8661 46.9626L74.8661 47.5151L75.4577 47.5151L75.4577 46.9626Z" fill="#00020C"/>
    <path d="M99.1263 51.3828H98.5347L98.5347 51.9353H99.1263L99.1263 51.3828Z" fill="#00020C"/>
    <path d="M98.5348 51.9353L97.9431 51.9353L97.9431 52.4877L98.5348 52.4877L98.5348 51.9353Z" fill="#00020C"/>
    <path d="M97.3515 51.9353L96.1681 51.9353L96.1681 52.4877L97.3515 52.4877L97.3515 51.9353Z" fill="#00020C"/>
    <path d="M94.9845 52.4878H94.3928L94.3928 53.0402H94.9845L94.9845 52.4878Z" fill="#00020C"/>
    <path d="M72.4995 48.0674L71.9078 48.0674L71.9078 49.7249L72.4995 49.7249L72.4995 48.0674Z" fill="#00020C"/>
    <path d="M70.1328 46.9629H69.5411L69.5411 48.0679H70.1328L70.1328 46.9629Z" fill="#00020C"/>
    <path d="M97.9431 51.3828H97.3514L97.3514 51.9353H97.9431L97.9431 51.3828Z" fill="#00020C"/>
    <path d="M72.4992 46.9624H71.9076L71.9076 47.5148H72.4992L72.4992 46.9624Z" fill="#00020C"/>
    <path d="M71.908 47.5151H71.3164L71.3164 48.0676H71.908L71.908 47.5151Z" fill="#00020C"/>
    <path d="M96.7596 54.145L96.168 54.145L96.168 54.6975L96.7596 54.6975L96.7596 54.145Z" fill="#00020C"/>
    <path d="M93.2092 53.04L92.6174 53.04L92.6174 54.1451L93.8009 54.1451L93.8009 53.5925L93.2092 53.5925L93.2092 53.04Z" fill="#00020C"/>
    <path d="M74.8663 48.0676L74.2747 48.0676L74.2747 48.6201L74.8663 48.6201L74.8663 48.0676Z" fill="#00020C"/>
    <path d="M76.05 47.5154H75.4584L75.4584 48.0678H76.05L76.05 47.5154Z" fill="#00020C"/>
    <path d="M94.3925 53.0403L93.8009 53.0403L93.8009 53.5927L94.3925 53.5927L94.3925 53.0403Z" fill="#00020C"/>
    <path d="M75.4579 48.6204H74.8662L74.8662 49.1728H75.4579L75.4579 48.6204Z" fill="#00020C"/>
    <path d="M77.2334 48.0674L76.0499 48.0674L76.0499 48.62L76.6416 48.62L76.6416 49.1724L77.2334 49.1724L77.2334 48.0674Z" fill="#00020C"/>
    <path d="M99.7186 53.04L99.127 53.04L99.127 54.1451L100.31 54.1451L100.31 53.5925L99.7186 53.5925L99.7186 53.04Z" fill="#00020C"/>
    <path d="M60.6649 44.2002L60.0732 44.2002L60.0732 44.7526L60.6649 44.7526L60.6649 44.2002Z" fill="#00020C"/>
    <path d="M99.1268 52.4878H98.5352L98.5352 53.0402H99.1268L99.1268 52.4878Z" fill="#00020C"/>
    <path d="M62.44 44.7524L61.8484 44.7524L61.8484 45.3049L62.44 45.3049L62.44 44.7524Z" fill="#00020C"/>
    <path d="M60.0736 43.6477H59.4819L59.4819 44.2001H60.0736L60.0736 43.6477Z" fill="#00020C"/>
    <path d="M57.1153 39.78L55.9319 39.78L55.9319 40.8851L57.1153 40.8851L57.1153 39.78Z" fill="#00020C"/>
    <path d="M56.523 38.1228H55.9314L55.9314 38.6752H56.523L56.523 38.1228Z" fill="#00020C"/>
    <path d="M100.31 52.4875L99.7183 52.4875L99.7183 53.04L100.31 53.04L100.31 52.4875Z" fill="#00020C"/>
    <path d="M63.032 44.2H62.4403L62.4403 44.7524H63.032L63.032 44.2Z" fill="#00020C"/>
    <path d="M68.9494 47.5151L68.3578 47.5151L68.3578 48.0676L68.9494 48.0676L68.9494 47.5151Z" fill="#00020C"/>
    <path d="M67.7661 46.4099H67.1744L67.1744 47.5149H67.7661L67.7661 46.4099Z" fill="#00020C"/>
    <path d="M57.115 38.675L56.5233 38.675L56.5233 39.2275L57.115 39.2275L57.115 38.675Z" fill="#00020C"/>
    <path d="M96.1678 53.5928L95.5762 53.5928L95.5762 54.1452L96.1678 54.1452L96.1678 53.5928Z" fill="#00020C"/>
    <path d="M63.0322 45.3047H62.4406L62.4406 46.4097H63.0322L63.0322 45.3047Z" fill="#00020C"/>
    <path d="M97.3509 53.0403H96.7593L96.7593 54.1453H97.3509L97.3509 53.0403Z" fill="#00020C"/>
    <path d="M97.9432 52.4875L97.3516 52.4875L97.3516 53.04L97.9432 53.04L97.9432 52.4875Z" fill="#00020C"/>
    <path d="M65.3987 46.4099H64.2152L64.2152 46.9625H64.8069L64.8069 47.5149H65.3987L65.3987 46.4099Z" fill="#00020C"/>
    <path d="M96.1679 52.4875L95.5763 52.4875L95.5763 53.04L96.1679 53.04L96.1679 52.4875Z" fill="#00020C"/>
    <path d="M95.5761 53.04L94.9845 53.04L94.9845 53.5925L95.5761 53.5925L95.5761 53.04Z" fill="#00020C"/>
    <path d="M92.6175 49.7253L92.0259 49.7253L92.0259 50.8304L92.6175 50.8304L92.6175 49.7253Z" fill="#00020C"/>
    <path d="M99.1263 48.6204H98.5347L98.5347 49.1728H99.1263L99.1263 48.6204Z" fill="#00020C"/>
    <path d="M93.2092 50.8301L92.6176 50.8301L92.6176 51.3825L93.2092 51.3825L93.2092 50.8301Z" fill="#00020C"/>
    <path d="M97.9431 50.2778L97.3514 50.2778L97.3514 50.8303L97.9431 50.8303L97.9431 50.2778Z" fill="#00020C"/>
    <path d="M89.0672 48.6201H87.8838L87.8838 49.7251H89.0672L89.0672 48.6201Z" fill="#00020C"/>
    <path d="M90.8427 50.8301H90.2511L90.2511 51.3825H90.8427L90.8427 50.8301Z" fill="#00020C"/>
    <path d="M97.943 49.1726H97.3513L97.3513 49.7251H97.943L97.943 49.1726Z" fill="#00020C"/>
    <path d="M94.3927 50.2778L93.801 50.2778L93.801 50.8303L94.3927 50.8303L94.3927 50.2778Z" fill="#00020C"/>
    <path d="M93.8009 49.7251H93.2092L93.2092 50.2775H93.8009L93.8009 49.7251Z" fill="#00020C"/>
    <path d="M97.3517 48.6201H96.76L96.76 49.1726H97.3517L97.3517 48.6201Z" fill="#00020C"/>
    <path d="M93.2094 51.9353L92.6178 51.9353L92.6178 52.4877L93.2094 52.4877L93.2094 51.9353Z" fill="#00020C"/>
    <path d="M92.0259 50.8303H91.4342L91.4342 51.9354H92.0259L92.0259 50.8303Z" fill="#00020C"/>
    <path d="M97.3512 49.7251H96.7595L96.7595 50.2775H97.3512L97.3512 49.7251Z" fill="#00020C"/>
    <path d="M94.9844 48.6204H94.3927L94.3927 50.2778H94.9844L94.9844 48.6204Z" fill="#00020C"/>
    <path d="M96.1679 49.7251H95.5763L95.5763 50.8301H96.1679L96.1679 49.7251Z" fill="#00020C"/>
    <path d="M79.5998 48.6204L79.0082 48.6204L79.0082 49.1728L79.5998 49.1728L79.5998 48.6204Z" fill="#00020C"/>
    <path d="M100.902 53.0403H100.311L100.311 53.5927H100.902L100.902 53.0403Z" fill="#00020C"/>
    <path d="M100.31 51.3831H99.7179L99.7179 51.9355H100.31L100.31 51.3831Z" fill="#00020C"/>
    <path d="M98.5346 53.0403H97.943L97.943 53.5927H98.5346L98.5346 53.0403Z" fill="#00020C"/>
    <path d="M78.4168 48.6206H77.8252L77.8252 49.173H78.4168L78.4168 48.6206Z" fill="#00020C"/>
    <path d="M98.535 54.1448H97.3516L97.3516 54.6972H98.535L98.535 54.1448Z" fill="#00020C"/>
    <path d="M100.902 50.2776L99.7185 50.2776L99.7185 50.83L100.902 50.83L100.902 50.2776Z" fill="#00020C"/>
    <path d="M81.9669 49.1726H81.3752L81.3752 49.7251H81.9669L81.9669 49.1726Z" fill="#00020C"/>
    <path d="M85.5171 48.0679H84.9254L84.9254 48.6203H85.5171L85.5171 48.0679Z" fill="#00020C"/>
    <path d="M87.8841 48.0671H86.7007L86.7007 48.6196H87.8841L87.8841 48.0671Z" fill="#00020C"/>
    <path d="M80.7835 48.0676L80.1919 48.0676L80.1919 49.1727L80.7835 49.1727L80.7835 48.0676Z" fill="#00020C"/>
    <path d="M99.7182 49.1729H99.1266L99.1266 49.7253H99.7182L99.7182 49.1729Z" fill="#00020C"/>
    <path d="M100.31 48.6204H99.7188L99.7187 49.1728H100.31L100.31 48.6204Z" fill="#00020C"/>
    <path d="M99.1266 49.7253L98.5349 49.7253L98.5349 50.8304L99.1266 50.8304L99.1266 49.7253Z" fill="#00020C"/>
    <path d="M89.6588 53.0403L89.0671 53.0403L89.0671 53.5927L89.6588 53.5927L89.6588 53.0403Z" fill="#00020C"/>
    <path d="M52.3814 0.552246L51.7898 0.552246L51.7898 1.10469L52.3814 1.10469L52.3814 0.552246Z" fill="#00020C"/>
    <path d="M69.5407 58.0129L68.9491 58.0129L68.9491 58.5654L69.5407 58.5654L69.5407 58.0129Z" fill="#00020C"/>
    <path d="M71.316 57.46L70.7244 57.46L70.7244 58.0124L71.316 58.0124L71.316 57.46Z" fill="#00020C"/>
    <path d="M51.7895 0.000244139L51.1979 0.000244141L51.1979 0.552687L51.7895 0.552687L51.7895 0.000244139Z" fill="#00020C"/>
    <path d="M71.908 58.0127L71.3164 58.0127L71.3164 58.5651L71.908 58.5651L71.908 58.0127Z" fill="#00020C"/>
    <path d="M51.1979 0.552246L50.6062 0.552246L50.6062 1.65728L51.1979 1.65728L51.1979 0.552246Z" fill="#00020C"/>
    <path d="M70.7243 58.0129H70.1327L70.1327 58.5654H70.7243L70.7243 58.0129Z" fill="#00020C"/>
    <path d="M70.1329 56.9076L69.5413 56.9076L69.5413 57.46L70.7246 57.46L70.7246 56.355L70.1329 56.355L70.1329 56.9076Z" fill="#00020C"/>
    <path d="M68.9493 57.46L68.3577 57.46L68.3577 58.0124L68.9493 58.0124L68.9493 57.46Z" fill="#00020C"/>
    <path d="M63.6236 59.6702H63.032L63.032 60.2226H63.6236L63.6236 59.6702Z" fill="#00020C"/>
    <path d="M66.5823 58.565L67.7656 58.565L67.7656 58.0125L67.1739 58.0125L67.1739 57.46L66.5823 57.46L66.5823 58.565Z" fill="#00020C"/>
    <path d="M64.8073 58.5652L64.2157 58.5652L64.2157 59.1176L64.8073 59.1176L64.8073 58.5652Z" fill="#00020C"/>
    <path d="M82.5586 55.2502L81.9669 55.2502L81.9669 55.8027L82.5586 55.8027L82.5586 55.2502Z" fill="#00020C"/>
    <path d="M96.1681 51.3828H95.5764L95.5764 51.9353H96.1681L96.1681 51.3828Z" fill="#00020C"/>
    <path d="M94.3925 51.9351H94.9844L94.9844 50.8301H94.3925L94.3925 51.3827H93.8009L93.8009 52.4877H94.3925L94.3925 51.9351Z" fill="#00020C"/>
    <path d="M95.5761 51.9353H94.9845L94.9845 52.4877H95.5761L95.5761 51.9353Z" fill="#00020C"/>
    <path d="M51.1982 12.7075L51.1982 13.26L51.7899 13.26L51.7899 14.365L52.3817 14.365L52.3817 12.7075L51.1982 12.7075Z" fill="#00020C"/>
    <path d="M50.0145 6.63013L49.4229 6.63013L49.4229 7.18257L50.0145 7.18257L50.0145 6.63013Z" fill="#00020C"/>
    <path d="M91.4345 54.1453H90.8429L90.8429 54.6977H91.4345L91.4345 54.1453Z" fill="#00020C"/>
    <path d="M92.0259 53.5928H91.4342L91.4342 54.1452H92.0259L92.0259 53.5928Z" fill="#00020C"/>
    <path d="M93.8011 52.4875L93.2095 52.4875L93.2095 53.04L93.8011 53.04L93.8011 52.4875Z" fill="#00020C"/>
    <path d="M92.6174 52.4878H91.434L91.434 53.0402H92.6174L92.6174 52.4878Z" fill="#00020C"/>
    <path d="M52.973 14.3652L52.3813 14.3652L52.3813 14.9177L52.973 14.9177L52.973 14.3652Z" fill="#00020C"/>
    <path d="M98.5353 50.8303H97.9436L97.9436 51.3828H98.5353L98.5353 50.8303Z" fill="#00020C"/>
    <path d="M54.7481 29.835L54.1565 29.835L54.1565 30.3874L54.7481 30.3874L54.7481 29.835Z" fill="#00020C"/>
    <path d="M99.7184 51.9353H99.1267L99.1267 52.4877H99.7184L99.7184 51.9353Z" fill="#00020C"/>
    <path d="M99.7182 50.8301L99.1266 50.8301L99.1266 51.3825L99.7182 51.3825L99.7182 50.8301Z" fill="#00020C"/>
    <path d="M97.3517 50.8303H96.1682L96.1682 51.3828H97.3517L97.3517 50.8303Z" fill="#00020C"/>
    <path d="M91.4342 53.0403L90.8425 53.0403L90.8425 53.5927L91.4342 53.5927L91.4342 53.0403Z" fill="#00020C"/>
    <path d="M72.4995 56.9077L71.9078 56.9077L71.9078 57.4602L72.4995 57.4602L72.4995 56.9077Z" fill="#00020C"/>
    <path d="M52.3812 14.9175L51.7896 14.9175L51.7896 15.4699L52.3812 15.4699L52.3812 14.9175Z" fill="#00020C"/>
    <path d="M53.5647 16.0225H52.973L52.973 16.5749H53.5647L53.5647 16.0225Z" fill="#00020C"/>
    <path d="M78.4165 55.8025L77.8248 55.8025L77.8248 56.3549L78.4165 56.3549L78.4165 55.8025Z" fill="#00020C"/>
    <path d="M79.0083 56.3549H80.1918L80.1918 55.8024H79.5999L79.5999 55.25H79.0083L79.0083 56.3549Z" fill="#00020C"/>
    <path d="M54.1568 30.3877H53.5652L53.5652 30.9401H54.1568L54.1568 30.3877Z" fill="#00020C"/>
    <path d="M77.2334 55.8027L76.6417 55.8027L76.6417 56.3552L77.2334 56.3552L77.2334 55.8027Z" fill="#00020C"/>
    <path d="M74.8663 56.355L73.6829 56.355L73.6829 56.9074L74.8663 56.9074L74.8663 56.355Z" fill="#00020C"/>
    <path d="M83.1502 55.8025H82.5586L82.5586 56.3549H83.1502L83.1502 55.8025Z" fill="#00020C"/>
    <path d="M75.4584 55.8027H74.8667L74.8667 56.3552H75.4584L75.4584 55.8027Z" fill="#00020C"/>
    <path d="M50.6059 3.86719H50.0143L50.0143 4.41963H50.6059L50.6059 3.86719Z" fill="#00020C"/>
    <path d="M90.251 53.5928H89.6593L89.6593 54.1452H90.251L90.251 53.5928Z" fill="#00020C"/>
    <path d="M76.0499 56.355L75.4583 56.355L75.4583 56.9074L76.0499 56.9074L76.0499 56.355Z" fill="#00020C"/>
    <path d="M89.0674 53.5928L88.4757 53.5928L88.4757 54.1452L89.0674 54.1452L89.0674 53.5928Z" fill="#00020C"/>
    <path d="M50.0146 4.41992H49.423L49.423 4.97236H50.0146L50.0146 4.41992Z" fill="#00020C"/>
    <path d="M88.4759 54.145L87.8843 54.145L87.8843 55.25L88.4759 55.25L88.4759 54.145Z" fill="#00020C"/>
    <path d="M83.1501 55.2503L83.7418 55.2503L83.7418 56.3552L84.3336 56.3552L84.3336 54.6978L83.1501 54.6978L83.1501 55.2503Z" fill="#00020C"/>
    <path d="M86.1085 54.6978L85.5168 54.6978L85.5168 55.8028L86.1085 55.8028L86.1085 54.6978Z" fill="#00020C"/>
    <path d="M85.5171 55.8027H84.9254L84.9254 56.3552H85.5171L85.5171 55.8027Z" fill="#00020C"/>
    <path d="M87.292 46.9626H86.7003L86.7003 47.5151H87.292L87.292 46.9626Z" fill="#00020C"/>
    <path d="M83.7418 46.9626L83.1501 46.9626L83.1501 47.5151L83.7418 47.5151L83.7418 46.9626Z" fill="#00020C"/>
    <path d="M84.3337 47.5154H83.7421L83.7421 48.0678H84.3337L84.3337 47.5154Z" fill="#00020C"/>
    <path d="M83.1502 46.4104H82.5586L82.5586 46.9628H83.1502L83.1502 46.4104Z" fill="#00020C"/>
    <path d="M81.9669 47.5154L81.3752 47.5154L81.3752 48.6204L81.9669 48.6204L81.9669 47.5154Z" fill="#00020C"/>
    <path d="M83.15 45.3047H82.5583L82.5583 45.8571H83.15L83.15 45.3047Z" fill="#00020C"/>
    <path d="M89.0672 46.4099H88.4756L88.4756 46.9624H89.0672L89.0672 46.4099Z" fill="#00020C"/>
    <path d="M90.2506 48.6206H89.6589L89.6589 49.173H90.2506L90.2506 48.6206Z" fill="#00020C"/>
    <path d="M89.0672 47.5151H88.4756L88.4756 48.0676H89.0672L89.0672 47.5151Z" fill="#00020C"/>
    <path d="M99.1263 46.9629H98.5347L98.5347 47.5153H99.1263L99.1263 46.9629Z" fill="#00020C"/>
    <path d="M92.026 48.6204H91.4343L91.4343 49.1728H92.026L92.026 48.6204Z" fill="#00020C"/>
    <path d="M93.8011 47.5151L93.2095 47.5151L93.2095 48.0676L93.8011 48.0676L93.8011 47.5151Z" fill="#00020C"/>
    <path d="M90.8429 47.5154H90.2512L90.2512 48.0678H90.8429L90.8429 47.5154Z" fill="#00020C"/>
    <path d="M91.4338 49.1726H90.8422L90.8422 50.2776H91.4338L91.4338 49.1726Z" fill="#00020C"/>
    <path d="M93.2093 48.6201L92.6177 48.6201L92.6177 49.1726L93.2093 49.1726L93.2093 48.6201Z" fill="#00020C"/>
    <path d="M100.902 47.5154H100.31L100.31 48.0678H100.902L100.902 47.5154Z" fill="#00020C"/>
    <path d="M85.5171 45.3047H84.9254L84.9254 45.8571H85.5171L85.5171 45.3047Z" fill="#00020C"/>
    <path d="M85.5171 46.9626H84.9254L84.9254 47.5151H85.5171L85.5171 46.9626Z" fill="#00020C"/>
    <path d="M1.49412 54.145L0.902466 54.145L0.902466 54.6975L1.49412 54.6975L1.49412 54.145Z" fill="#00020C"/>
    <path d="M96.1678 47.5151L95.5762 47.5151L95.5762 48.0676L96.1678 48.0676L96.1678 47.5151Z" fill="#00020C"/>
    <path d="M70.7245 45.8577L70.1328 45.8577L70.1328 46.4101L70.7245 46.4101L70.7245 45.8577Z" fill="#00020C"/>
    <path d="M71.9076 45.3049L71.3159 45.3049L71.3159 45.8574L71.9076 45.8574L71.9076 45.3049Z" fill="#00020C"/>
    <path d="M77.8249 46.9626L77.2333 46.9626L77.2333 47.5151L77.8249 47.5151L77.8249 46.9626Z" fill="#00020C"/>
    <path d="M72.4999 45.8577L71.9082 45.8577L71.9082 46.4101L72.4999 46.4101L72.4999 45.8577Z" fill="#00020C"/>
    <path d="M79.0085 45.8577L78.4169 45.8577L78.4169 46.4101L79.0085 46.4101L79.0085 45.8577Z" fill="#00020C"/>
    <path d="M76.05 45.8579H75.4584L75.4584 46.4104H76.05L76.05 45.8579Z" fill="#00020C"/>
    <path d="M74.2744 46.4104H73.6827L73.6827 47.5154H74.2744L74.2744 46.4104Z" fill="#00020C"/>
    <path d="M70.7242 44.2H70.1326L70.1326 44.7524H70.7242L70.7242 44.2Z" fill="#00020C"/>
    <path d="M79.0082 46.9626H78.4165L78.4165 47.5151H79.0082L79.0082 46.9626Z" fill="#00020C"/>
    <path d="M43.5051 55.25H42.9135L42.9135 56.355H43.5051L43.5051 55.25Z" fill="#00020C"/>
    <path d="M9.18674 50.2778H8.59509L8.59509 50.8303H9.18674L9.18674 50.2778Z" fill="#00020C"/>
    <path d="M8.59458 49.1729L8.00293 49.1729L8.00293 49.7253L8.59458 49.7253L8.59458 49.1729Z" fill="#00020C"/>
    <path d="M8.00266 51.3826L7.41101 51.3826L7.41101 51.935L8.00266 51.935L8.00266 51.3826Z" fill="#00020C"/>
    <path d="M12.1449 47.5151L11.5532 47.5151L11.5532 48.0676L12.1449 48.0676L12.1449 47.5151Z" fill="#00020C"/>
    <path d="M10.9616 49.7253H10.37L10.37 50.2778H10.9616L10.9616 49.7253Z" fill="#00020C"/>
    <path d="M12.1448 49.1726L11.5531 49.1726L11.5531 49.7251L12.1448 49.7251L12.1448 49.1726Z" fill="#00020C"/>
    <path d="M3.26902 50.8303H2.67737L2.67737 51.3828H3.26902L3.26902 50.8303Z" fill="#00020C"/>
    <path d="M6.81919 50.8301L6.22754 50.8301L6.22754 51.3825L6.81919 51.3825L6.81919 50.8301Z" fill="#00020C"/>
    <path d="M16.8783 48.6204H16.2866L16.2866 49.1728H16.8783L16.8783 48.6204Z" fill="#00020C"/>
    <path d="M14.5118 48.0674L13.9202 48.0674L13.9202 48.6198L14.5118 48.6198L14.5118 48.0674Z" fill="#00020C"/>
    <path d="M15.6949 49.1726H15.1033L15.1033 49.7251H15.6949L15.6949 49.1726Z" fill="#00020C"/>
    <path d="M14.5118 49.7253L13.3284 49.7253L13.3284 50.2778L14.5118 50.2778L14.5118 49.7253Z" fill="#00020C"/>
    <path d="M15.6952 50.2776H14.5117L14.5117 50.83H15.6952L15.6952 50.2776Z" fill="#00020C"/>
    <path d="M43.5056 64.6423L42.9139 64.6423L42.9139 65.1948L43.5056 65.1948L43.5056 64.6423Z" fill="#00020C"/>
    <path d="M32.2629 59.6704H31.6713L31.6713 60.2229H32.2629L32.2629 59.6704Z" fill="#00020C"/>
    <path d="M34.6301 59.6704H34.0385L34.0385 60.2229H34.6301L34.6301 59.6704Z" fill="#00020C"/>
    <path d="M35.2212 61.3276H34.6295L34.6295 61.8801H35.2212L35.2212 61.3276Z" fill="#00020C"/>
    <path d="M30.488 58.5652H29.8964L29.8964 59.1176H30.488L30.488 58.5652Z" fill="#00020C"/>
    <path d="M32.8547 60.2227H32.2631L32.2631 60.7751H32.8547L32.8547 60.2227Z" fill="#00020C"/>
    <path d="M33.4465 59.6704L32.8549 59.6704L32.8549 60.2229L33.4465 60.2229L33.4465 59.6704Z" fill="#00020C"/>
    <path d="M38.7719 61.3279H38.1803L38.1803 61.8803H38.7719L38.7719 61.3279Z" fill="#00020C"/>
    <path d="M47.6472 77.3499H47.0555L47.0555 77.9023H47.6472L47.6472 77.3499Z" fill="#00020C"/>
    <path d="M48.8312 85.6377L48.2395 85.6377L48.2395 86.1901L48.8312 86.1901L48.8312 85.6377Z" fill="#00020C"/>
    <path d="M29.3047 59.1174L28.713 59.1174L28.713 59.6699L29.3047 59.6699L29.3047 59.1174Z" fill="#00020C"/>
    <path d="M40.5467 61.8801L39.9551 61.8801L39.9551 62.4326L40.5467 62.4326L40.5467 61.8801Z" fill="#00020C"/>
    <path d="M40.5467 62.9854L39.9551 62.9854L39.9551 63.5378L40.5467 63.5378L40.5467 62.9854Z" fill="#00020C"/>
    <path d="M8.00327 58.0132H7.41162L7.41162 58.5656H8.00327L8.00327 58.0132Z" fill="#00020C"/>
    <path d="M10.3697 58.0127L9.77808 58.0127L9.77808 58.5651L10.3697 58.5651L10.3697 58.0127Z" fill="#00020C"/>
    <path d="M10.9615 57.46L10.3699 57.46L10.3699 58.0124L10.9615 58.0124L10.9615 57.46Z" fill="#00020C"/>
    <path d="M1.49387 53.0403L0.902222 53.0403L0.902222 53.5927L1.49387 53.5927L1.49387 53.0403Z" fill="#00020C"/>
    <path d="M6.22788 57.4602H5.63623L5.63623 58.0126H6.22788L6.22788 57.4602Z" fill="#00020C"/>
    <path d="M5.63633 58.5649L5.04468 58.5649L5.04468 59.1174L5.63633 59.1174L5.63633 58.5649Z" fill="#00020C"/>
    <path d="M15.1031 57.46L14.5115 57.46L14.5115 58.565L15.1031 58.565L15.1031 57.46Z" fill="#00020C"/>
    <path d="M21.0204 59.6704L20.4287 59.6704L20.4287 60.2229L21.0204 60.2229L21.0204 59.6704Z" fill="#00020C"/>
    <path d="M16.2871 58.0127H15.6954L15.6954 58.5651H16.2871L16.2871 58.0127Z" fill="#00020C"/>
    <path d="M18.6537 59.1174L18.062 59.1174L18.062 59.6699L18.6537 59.6699L18.6537 59.1174Z" fill="#00020C"/>
    <path d="M13.3281 57.46L12.7365 57.46L12.7365 58.0124L13.3281 58.0124L13.3281 57.46Z" fill="#00020C"/>
    <path d="M22.7958 58.5649H22.2041L22.2041 59.1174H22.7958L22.7958 58.5649Z" fill="#00020C"/>
    <path d="M38.1801 45.3047H37.5885L37.5885 46.4097H38.1801L38.1801 45.3047Z" fill="#00020C"/>
    <path d="M40.5472 43.0952H39.9556L39.9556 43.6477H40.5472L40.5472 43.0952Z" fill="#00020C"/>
    <path d="M34.6297 45.8574H34.0381L34.0381 46.4099H34.6297L34.6297 45.8574Z" fill="#00020C"/>
    <path d="M34.6299 46.9626L34.0382 46.9626L34.0382 47.5151L34.6299 47.5151L34.6299 46.9626Z" fill="#00020C"/>
    <path d="M36.4052 44.7524L35.8136 44.7524L35.8136 45.3049L36.4052 45.3049L36.4052 44.7524Z" fill="#00020C"/>
    <path d="M54.7481 95.0305H54.1565L54.1565 95.583H54.7481L54.7481 95.0305Z" fill="#00020C"/>
    <path d="M46.4642 18.2327H45.8726L45.8726 18.7851H46.4642L46.4642 18.2327Z" fill="#00020C"/>
    <path d="M42.9136 39.7803H42.3219L42.3219 40.3327H42.9136L42.9136 39.7803Z" fill="#00020C"/>
    <path d="M39.9554 44.7524L39.3638 44.7524L39.3638 45.3049L39.9554 45.3049L39.9554 44.7524Z" fill="#00020C"/>
    <path d="M39.9554 43.6472H39.3638L39.3638 44.1997H39.9554L39.9554 43.6472Z" fill="#00020C"/>
    <path d="M42.322 40.3328H41.7303L41.7303 40.8852H42.322L42.322 40.3328Z" fill="#00020C"/>
    <path d="M21.6123 49.7253L20.4288 49.7253L20.4288 50.2778L21.6123 50.2778L21.6123 49.7253Z" fill="#00020C"/>
    <path d="M23.979 50.2778H23.3873L23.3873 51.3829H23.979L23.979 50.2778Z" fill="#00020C"/>
    <path d="M22.796 48.6204H22.2043L22.2043 49.1728H22.796L22.796 48.6204Z" fill="#00020C"/>
    <path d="M26.346 48.6204L25.7544 48.6204L25.7544 49.1728L26.346 49.1728L26.346 48.6204Z" fill="#00020C"/>
    <path d="M23.3872 49.7251H22.7955L22.7955 50.2775H23.3872L23.3872 49.7251Z" fill="#00020C"/>
    <path d="M19.2457 48.6201H18.6541L18.6541 49.7251H19.2457L19.2457 48.6201Z" fill="#00020C"/>
    <path d="M23.9788 48.6201L23.9788 49.7251H25.1622L25.1622 49.1726H24.5706L24.5706 48.6201H23.9788Z" fill="#00020C"/>
    <path d="M25.1623 47.5151H24.5707L24.5707 48.0676H25.1623L25.1623 47.5151Z" fill="#00020C"/>
    <path d="M32.855 48.6204H32.2633L32.2633 49.1728H32.855L32.855 48.6204Z" fill="#00020C"/>
    <path d="M33.4468 46.4102L32.2633 46.4102L32.2633 46.9626L33.4468 46.9626L33.4468 46.4102Z" fill="#00020C"/>
    <path d="M33.4463 47.5151H32.8546L32.8546 48.0676H33.4463L33.4463 47.5151Z" fill="#00020C"/>
    <path d="M31.0797 46.9629H30.488L30.488 47.5153H31.0797L31.0797 46.9629Z" fill="#00020C"/>
    <path d="M29.8962 46.4104H29.3046L29.3046 46.9628H29.8962L29.8962 46.4104Z" fill="#00020C"/>
    <path d="M56.5232 96.1353L55.9315 96.1353L55.9315 96.6877L56.5232 96.6877L56.5232 96.1353Z" fill="#00020C"/>
    <path d="M64.8073 43.6475L64.2157 43.6475L64.2157 44.1999L64.8073 44.1999L64.8073 43.6475Z" fill="#00020C"/>
    <path d="M68.9492 45.8579L68.3575 45.8579L68.3575 46.4104L68.9492 46.4104L68.9492 45.8579Z" fill="#00020C"/>
    <path d="M64.2153 45.3052H63.6237L63.6237 45.8576H64.2153L64.2153 45.3052Z" fill="#00020C"/>
    <path d="M65.399 44.7524L64.8074 44.7524L64.8074 45.3049L65.399 45.3049L65.399 44.7524Z" fill="#00020C"/>
    <path d="M67.1739 44.7524L66.5823 44.7524L66.5823 45.3049L67.1739 45.3049L67.1739 44.7524Z" fill="#00020C"/>
    <path d="M68.9492 44.7524L68.3575 44.7524L68.3575 45.3049L68.9492 45.3049L68.9492 44.7524Z" fill="#00020C"/>
    <path d="M66.5819 46.4102H65.9902L65.9902 46.9626H66.5819L66.5819 46.4102Z" fill="#00020C"/>
    <path d="M94.3927 54.6978H93.801L93.801 55.2502H94.3927L94.3927 54.6978Z" fill="#00020C"/>
    <path d="M94.9841 56.3552L94.3925 56.3552L94.3925 56.9077L94.9841 56.9077L94.9841 56.3552Z" fill="#00020C"/>
    <path d="M90.251 55.2502L89.6593 55.2502L89.6593 55.8027L90.251 55.8027L90.251 55.2502Z" fill="#00020C"/>
    <path d="M88.4757 55.8022H87.884L87.884 56.3547H88.4757L88.4757 55.8022Z" fill="#00020C"/>
    <path d="M91.4339 55.25H90.8423L90.8423 55.8024H91.4339L91.4339 55.25Z" fill="#00020C"/>
    <path d="M89.6587 54.6978L89.067 54.6978L89.067 55.2502L89.6587 55.2502L89.6587 54.6978Z" fill="#00020C"/>
    <path d="M100.902 55.8025H100.31L100.31 56.3549H100.902L100.902 55.8025Z" fill="#00020C"/>
    <path d="M100.31 55.2502L99.7183 55.2502L99.7183 55.8027L100.31 55.8027L100.31 55.2502Z" fill="#00020C"/>
    <path d="M99.1264 55.2505H98.5348L98.5348 55.8029H99.1264L99.1264 55.2505Z" fill="#00020C"/>
    <path d="M97.9431 55.25L97.3514 55.25L97.3514 55.8024L97.9431 55.8024L97.9431 55.25Z" fill="#00020C"/>
    <path d="M96.1678 55.2502L95.5762 55.2502L95.5762 55.8027L96.1678 55.8027L96.1678 55.2502Z" fill="#00020C"/>
    <path d="M94.3927 55.8027H93.801L93.801 56.3552H94.3927L94.3927 55.8027Z" fill="#00020C"/>
    <path d="M94.9847 54.145L94.3931 54.145L94.3931 54.6975L94.9847 54.6975L94.9847 54.145Z" fill="#00020C"/>
    <path d="M67.7656 59.1174L66.5822 59.1174L66.5822 59.6699L67.7656 59.6699L67.7656 59.1174Z" fill="#00020C"/>
    <path d="M74.2745 58.0129L73.6829 58.0129L73.6829 58.5654L74.2745 58.5654L74.2745 58.0129Z" fill="#00020C"/>
    <path d="M73.6831 57.46L73.0914 57.46L73.0914 58.0124L73.6831 58.0124L73.6831 57.46Z" fill="#00020C"/>
    <path d="M65.9907 59.1174L65.399 59.1174L65.399 59.6699L65.9907 59.6699L65.9907 59.1174Z" fill="#00020C"/>
    <path d="M58.2982 65.1953H57.7065L57.7065 65.7478H58.2982L58.2982 65.1953Z" fill="#00020C"/>
    <path d="M64.8069 59.6704H64.2152L64.2152 60.7754H64.8069L64.8069 59.6704Z" fill="#00020C"/>
    <path d="M79.6001 58.0127H79.0084L79.0084 58.5651H79.6001L79.6001 58.0127Z" fill="#00020C"/>
    <path d="M75.458 57.4602L74.8663 57.4602L74.8663 58.0126L75.458 58.0126L75.458 57.4602Z" fill="#00020C"/>
    <path d="M81.3749 56.9075H80.7832L80.7832 57.4599H81.3749L81.3749 56.9075Z" fill="#00020C"/>
    <path d="M84.334 57.4602H83.7423L83.7423 58.0126H84.334L84.334 57.4602Z" fill="#00020C"/>
    <path d="M82.5586 56.9077L81.9669 56.9077L81.9669 57.4602L82.5586 57.4602L82.5586 56.9077Z" fill="#00020C"/>
    <path d="M78.4167 57.4602H77.8251L77.8251 58.0126H78.4167L78.4167 57.4602Z" fill="#00020C"/>
    <path d="M87.2921 55.25H86.7004L86.7004 55.8024H87.2921L87.2921 55.25Z" fill="#00020C"/>
    <path d="M77.8246 56.9077H77.2329L77.2329 57.4602H77.8246L77.8246 56.9077Z" fill="#00020C"/>
    <path d="M92.6179 54.6975L92.0262 54.6975L92.0262 55.25L92.6179 55.25L92.6179 54.6975Z" fill="#00020C"/>
    <path d="M59.4814 40.3325L58.8898 40.3325L58.8898 40.885L59.4814 40.885L59.4814 40.3325Z" fill="#00020C"/>
    <path d="M58.8901 39.78L58.2985 39.78L58.2985 40.3325L58.8901 40.3325L58.8901 39.78Z" fill="#00020C"/>
    <path d="M58.8899 41.4375H58.2982L58.2982 41.9899H58.8899L58.8899 41.4375Z" fill="#00020C"/>
    <path d="M59.4815 42.5422H58.8899L58.8899 43.0947H59.4815L59.4815 42.5422Z" fill="#00020C"/>
    <path d="M61.8486 43.6475H61.257L61.257 44.1999H61.8486L61.8486 43.6475Z" fill="#00020C"/>
    <path d="M60.6649 42.5427H60.0732L60.0732 43.0952H60.6649L60.6649 42.5427Z" fill="#00020C"/>
    <path d="M61.2571 41.99H60.6654L60.6654 42.5424H61.2571L61.2571 41.99Z" fill="#00020C"/>
    <path d="M54.1561 28.7302L53.5645 28.7302L53.5645 29.2827L54.1561 29.2827L54.1561 28.7302Z" fill="#00020C"/>
    <path d="M51.1981 2.21045H50.6064L50.6064 2.76289H51.1981L51.1981 2.21045Z" fill="#00020C"/>
    <path d="M51.7896 2.7627H51.198L51.198 3.31514H51.7896L51.7896 2.7627Z" fill="#00020C"/>
    <path d="M52.3813 5.52466H51.7897L51.7897 6.0771H52.3813L52.3813 5.52466Z" fill="#00020C"/>
    <path d="M52.3813 8.28735H51.7897L51.7897 8.8398H52.3813L52.3813 8.28735Z" fill="#00020C"/>
    <path d="M52.9731 11.6025L52.3815 11.6025L52.3815 12.155L52.9731 12.155L52.9731 11.6025Z" fill="#00020C"/>
    <path d="M51.7896 11.6028H51.198L51.198 12.1552H51.7896L51.7896 11.6028Z" fill="#00020C"/>
    <path d="M51.1975 7.18262H50.6058L50.6058 7.73506H51.1975L51.1975 7.18262Z" fill="#00020C"/>
    <path d="M52.973 1.65771H52.3813L52.3813 2.21016H52.973L52.973 1.65771Z" fill="#00020C"/>
    <path d="M52.9732 10.4978H52.3816L52.3816 11.0502H52.9732L52.9732 10.4978Z" fill="#00020C"/>
    <path d="M52.9731 3.86768H52.3815L52.3815 4.42012H52.9731L52.9731 3.86768Z" fill="#00020C"/>
    <path d="M54.1566 26.52L53.5649 26.52L53.5649 27.0725L54.1566 27.0725L54.1566 26.52Z" fill="#00020C"/>
    <path d="M52.3815 9.94482H51.198L51.198 10.4973H52.3815L52.3815 9.94482Z" fill="#00020C"/>
    <path d="M2.67735 54.6978L1.4939 54.6978L1.4939 55.2502L2.67735 55.2502L2.67735 54.6978Z" fill="#00020C"/>
    <path d="M9.1865 54.1453H8.59485L8.59485 54.6977H9.1865L9.1865 54.1453Z" fill="#00020C"/>
    <path d="M8.00316 54.6972L8.00316 54.1448H6.8197L6.8197 54.6972H7.41135L7.41135 55.2498H8.59481L8.59481 54.6972H8.00316Z" fill="#00020C"/>
    <path d="M6.81943 54.6978H6.22778L6.22778 55.2502H6.81943L6.81943 54.6978Z" fill="#00020C"/>
    <path d="M9.77781 54.6978L9.18616 54.6978L9.18616 55.2502L9.77781 55.2502L9.77781 54.6978Z" fill="#00020C"/>
    <path d="M13.3282 55.25H12.7366L12.7366 56.355H13.3282L13.3282 55.25Z" fill="#00020C"/>
    <path d="M11.5532 55.2502L10.9615 55.2502L10.9615 55.8027L11.5532 55.8027L11.5532 55.2502Z" fill="#00020C"/>
    <path d="M10.3696 55.2502H9.77795L9.77795 56.3551H10.9614L10.9614 55.8027H10.3696L10.3696 55.2502Z" fill="#00020C"/>
    <path d="M12.1448 51.3826L11.5531 51.3826L11.5531 51.935L12.1448 51.935L12.1448 51.3826Z" fill="#00020C"/>
    <path d="M12.7366 51.9351L13.3282 51.9351L13.3282 50.8301L12.1448 50.8301L12.1448 51.3827L12.7366 51.3827L12.7366 51.9351Z" fill="#00020C"/>
    <path d="M12.7367 51.9353L12.145 51.9353L12.145 52.4877L12.7367 52.4877L12.7367 51.9353Z" fill="#00020C"/>
    <path d="M14.5117 55.8022H13.92L13.92 56.3547H14.5117L14.5117 55.8022Z" fill="#00020C"/>
    <path d="M9.77793 53.5928H9.18628L9.18628 54.1452H9.77793L9.77793 53.5928Z" fill="#00020C"/>
    <path d="M10.3695 53.04H9.77783L9.77783 53.5925H10.3695L10.3695 53.04Z" fill="#00020C"/>
    <path d="M10.9615 52.4873H10.3699L10.3699 53.0397H10.9615L10.9615 52.4873Z" fill="#00020C"/>
    <path d="M11.5533 51.9353H10.9617L10.9617 52.4877H11.5533L11.5533 51.9353Z" fill="#00020C"/>
    <path d="M15.6954 56.3547L15.6954 57.4598H16.2871L16.2871 56.9073H16.8789L16.8789 56.3547H15.6954Z" fill="#00020C"/>
    <path d="M15.695 55.8027H15.1034L15.1034 56.3552H15.695L15.695 55.8027Z" fill="#00020C"/>
    <path d="M28.7129 58.0128H28.1211L28.1211 58.5652H29.3045L29.3045 57.4602H28.7129L28.7129 58.0128Z" fill="#00020C"/>
    <path d="M28.1209 57.46L27.5293 57.46L27.5293 58.0124L28.1209 58.0124L28.1209 57.46Z" fill="#00020C"/>
    <path d="M38.1802 59.1173L38.1802 58.0123H38.7719L38.7719 57.4598H38.1802L38.1802 56.3548H37.5886L37.5886 55.8024H38.1802L38.1802 55.2499H36.9968L36.9968 56.355H35.8133L35.8133 55.8025H35.2217L35.2217 56.355H34.0382L34.0382 55.8025H33.4466L33.4466 55.2501H34.0382L34.0382 54.6976H33.4466L33.4466 53.5926H34.0382L34.0382 54.6976H34.6299L34.6299 54.1452H35.2215L35.2215 53.5927H34.6299L34.6299 53.0403H35.8133L35.8133 52.4879H36.9968L36.9968 51.9354H36.4051L36.4051 51.383H36.9968L36.9968 50.2779H37.5884L37.5884 49.7255H36.9968L36.9968 49.173H36.4051L36.4051 48.6206H35.8135L35.8135 49.7256H36.4051L36.4051 50.2781H35.8135L35.8135 51.9355H34.63L34.63 52.488H34.0384L34.0384 53.0404H33.4467L33.4467 51.9354H34.6302L34.6302 51.383H35.2218L35.2218 50.2779H34.6302L34.6302 50.8304H34.0385L34.0385 50.2779H33.4469L33.4469 51.383H32.2634L32.2634 50.2779H33.4469L33.4469 49.7255H30.4883L30.4883 50.2779H31.08L31.08 51.9354H29.8965L29.8965 51.383H30.4882L30.4882 50.2779H29.8965L29.8965 50.8304H29.3049L29.3049 51.3828H28.7132L28.7132 50.8304H28.1216L28.1216 51.3828H27.5299L27.5299 50.8304H26.9383L26.9383 51.3828H26.3466L26.3466 51.9353H25.755L25.755 51.3828H26.3466L26.3466 50.8304H25.755L25.755 50.2779H25.1633L25.1633 51.383H24.5717L24.5717 51.9354H25.1633L25.1633 52.4879H24.5717L24.5717 51.9354H21.6131L21.6131 52.4879H22.2048L22.2048 53.5929H22.7964L22.7964 53.0404H23.3881L23.3881 53.5929H22.7964L22.7964 54.1453H22.2048L22.2048 53.5929H21.6131L21.6131 52.4879H21.0215L21.0215 53.0403H20.4298L20.4298 51.9353H19.8382L19.8382 53.0403H19.2465L19.2465 51.9353H18.063L18.063 52.4877H17.4714L17.4714 51.9353H16.8797L16.8797 53.0403H15.6963L15.6963 51.9353H15.1034L15.1034 53.0403H14.5118L14.5118 51.9353H15.1034L15.1034 51.3828H13.92L13.92 51.9353H13.3283L13.3283 53.0403H13.92L13.92 53.5927H13.3283L13.3283 53.0403H12.1449L12.1449 53.5927H12.7365L12.7365 54.1452H11.5531L11.5531 53.0402H10.9614L10.9614 54.1452H9.77795L9.77795 54.6976H10.3696L10.3696 55.2501H10.9613L10.9613 54.6976H11.5529L11.5529 55.2501H12.7364L12.7364 54.6976H13.328L13.328 54.1452H13.9197L13.9197 54.6976H13.328L13.328 55.2501H14.5115L14.5115 55.8025H15.1031L15.1031 55.2501H15.6948L15.6948 55.8025H16.8782L16.8782 56.355H17.4699L17.4699 56.9074H18.0615L18.0615 58.0124H18.6532L18.6532 56.9074H19.2448L19.2448 56.355H19.8365L19.8365 55.2499H20.4281L20.4281 56.355H19.8365L19.8365 56.9074H20.4281L20.4281 57.4598H22.795L22.795 56.9074H22.2034L22.2034 56.355H22.795L22.795 55.8025H23.3867L23.3867 56.355H23.9783L23.9783 56.9074H24.57L24.57 56.355H25.1616L25.1616 55.8025H25.7533L25.7533 56.355H26.3449L26.3449 55.2499H26.9366L26.9366 56.355H27.5282L27.5282 56.9074H28.1199L28.1199 56.355H28.7115L28.7115 56.9074H29.3032L29.3032 56.355H29.8948L29.8948 56.9074H30.4865L30.4865 57.4598H31.6699L31.6699 56.9074H31.0783L31.0783 56.355H31.6699L31.6699 56.9074H32.2616L32.2616 56.355H33.445L33.445 57.46H32.8534L32.8534 56.9075H32.2617L32.2617 58.565H32.8534L32.8534 58.0126H33.445L33.445 58.565H34.6285L34.6285 58.0126H34.0368L34.0368 57.4601H34.6285L34.6285 56.9077H35.8119L35.8119 57.4601H36.4036L36.4036 58.0126H36.9952L36.9952 56.9075H37.5869L37.5869 58.0126H36.9952L36.9952 58.565H37.5869L37.5869 59.1174H36.9952L36.9952 59.6699H38.7703L38.7703 59.1174L38.1802 59.1173ZM15.1034 54.6973H14.5118L14.5118 53.5923H15.1034L15.1034 54.6973ZM17.4703 55.2499H16.8787L16.8787 54.6975H16.287L16.287 54.145H15.6954L15.6954 53.5926H16.287L16.287 54.145H16.8787L16.8787 54.6975H17.4703L17.4703 55.2499ZM17.4703 53.5923L17.4703 53.0399H18.6538L18.6538 53.5923H17.4703ZM18.6538 56.3548H18.0621L18.0621 55.8024H18.6538L18.6538 56.3548ZM19.2454 54.6973H18.062L18.062 54.1449H19.2454L19.2454 54.6973ZM20.4289 53.5923H21.0205L21.0205 54.1447H20.4289L20.4289 53.5923ZM21.6123 56.9074H21.0207L21.0207 56.355H21.6123L21.6123 56.9074ZM21.6123 55.2499H21.0207L21.0207 54.6975H21.6123L21.6123 55.2499ZM23.3874 54.6973L23.3874 55.2498H22.7958L22.7958 54.6973H23.3874L23.3874 54.1449H23.9791L23.9791 54.6973H23.3874ZM24.5709 55.8024H23.9792L23.9792 55.2499H24.5709L24.5709 55.8024ZM24.5709 53.5923H23.9792L23.9792 53.0399H24.5709L24.5709 53.5923ZM26.346 54.1449H25.7543L25.7543 53.5925H26.346L26.346 54.1449ZM26.346 53.0399H25.7543L25.7543 52.4874H26.346L26.346 53.0399ZM27.5294 54.6973H26.9378L26.9378 54.1449H27.5294L27.5294 54.6973ZM27.5294 52.4874H26.9378L26.9378 51.935H27.5294L27.5294 52.4874ZM30.488 52.4874H31.0797L31.0797 53.0399H30.488L30.488 52.4874ZM28.7129 55.8024H28.1213L28.1213 55.2499H28.7129L28.7129 55.8024ZM28.7129 52.4874L28.7129 51.935H29.3046L29.3046 52.4874H28.7129ZM29.3046 53.5923L29.3046 53.0399H29.8962L29.8962 53.5923H29.3046ZM29.8964 54.6973L29.8964 54.1449H30.488L30.488 54.6973H29.8964ZM31.0797 55.8024H30.488L30.488 55.2499H31.0797L31.0797 55.8024ZM32.2631 55.8024H31.6715L31.6715 55.2499H32.2631L32.2631 55.8024ZM32.2631 54.6973H31.6715L31.6715 54.1449H31.0798L31.0798 53.5925H31.6715L31.6715 54.1449H32.2631L32.2631 54.6973ZM32.8549 53.0399H32.2633L32.2633 51.9348H32.8549L32.8549 53.0399Z" fill="#00020C"/>
    <path d="M28.7124 56.9077L28.1207 56.9077L28.1207 57.4602L28.7124 57.4602L28.7124 56.9077Z" fill="#00020C"/>
    <path d="M36.4047 58.5647L36.4047 58.0123H35.8131L35.8131 57.4597H34.6296L34.6296 58.0123H35.2213L35.2213 58.5647H35.8131L35.8131 59.1172H36.9964L36.9964 58.5647H36.4047Z" fill="#00020C"/>
    <path d="M35.2218 58.5649H34.6301L34.6301 59.1174H35.2218L35.2218 58.5649Z" fill="#00020C"/>
    <path d="M29.8965 56.9077H29.3048L29.3048 57.4602H29.8965L29.8965 56.9077Z" fill="#00020C"/>
    <path d="M23.3875 56.355L22.7959 56.355L22.7959 56.9074L23.3875 56.9074L23.3875 56.355Z" fill="#00020C"/>
    <path d="M27.5296 56.9077H26.938L26.938 57.4602H27.5296L27.5296 56.9077Z" fill="#00020C"/>
    <path d="M12.1449 52.4875L11.5532 52.4875L11.5532 53.04L12.1449 53.04L12.1449 52.4875Z" fill="#00020C"/>
    <path d="M23.3872 57.46L22.7955 57.46L22.7955 58.0124L23.3872 58.0124L23.3872 57.46Z" fill="#00020C"/>
    <path d="M23.979 56.9075H23.3873L23.3873 57.4599H23.979L23.979 56.9075Z" fill="#00020C"/>
    <path d="M26.9378 56.355L26.3462 56.355L26.3462 56.9074L26.9378 56.9074L26.9378 56.355Z" fill="#00020C"/>
    <path d="M25.7544 56.355L25.1626 56.355L25.1626 57.46L25.7544 57.46L25.7544 58.0126L25.1626 58.0126L25.1626 58.565L26.3461 58.565L26.3461 56.9076L25.7544 56.9076L25.7544 56.355Z" fill="#00020C"/>
    <path d="M56.523 50.2776H55.9314L55.9314 50.83H56.523L56.523 50.2776Z" fill="#00020C"/>
    <path d="M50.0144 64.0901H49.4227L49.4227 64.6425H50.0144L50.0144 64.0901Z" fill="#00020C"/>
    <path d="M45.8724 57.46L45.2808 57.46L45.2808 58.0124L45.8724 58.0124L45.8724 57.46Z" fill="#00020C"/>
    <path d="M47.6477 48.0674H46.4642L46.4642 48.6198H47.6477L47.6477 48.0674Z" fill="#00020C"/>
    <path d="M47.0558 49.7253L46.4641 49.7253L46.4641 50.2778L47.0558 50.2778L47.0558 49.7253Z" fill="#00020C"/>
    <path d="M42.3221 52.4875L41.7305 52.4875L41.7305 53.04L42.3221 53.04L42.3221 52.4875Z" fill="#00020C"/>
    <path d="M45.2809 55.8022H44.6892L44.6892 56.3547H45.2809L45.2809 55.8022Z" fill="#00020C"/>
    <path d="M41.1386 53.5925H40.547L40.547 54.145H41.1386L41.1386 53.5925Z" fill="#00020C"/>
    <path d="M44.6891 56.908H44.0974L44.0974 57.4604H44.6891L44.6891 56.908Z" fill="#00020C"/>
    <path d="M43.5052 62.9854H42.9136L42.9136 63.5378H43.5052L43.5052 62.9854Z" fill="#00020C"/>
    <path d="M57.7068 51.3826L57.1151 51.3826L57.1151 51.935L57.7068 51.935L57.7068 51.3826Z" fill="#00020C"/>
    <path d="M60.6655 54.145L59.4821 54.145L59.4821 54.6975L60.6655 54.6975L60.6655 54.145Z" fill="#00020C"/>
    <path d="M51.7896 40.885L51.198 40.885L51.198 41.4375L51.7896 41.4375L51.7896 40.885Z" fill="#00020C"/>
    <path d="M52.3812 66.3L51.7896 66.3L51.7896 66.8525L52.3812 66.8525L52.3812 66.3Z" fill="#00020C"/>
    <path d="M54.1566 47.5149H53.5649L53.5649 48.0673H54.1566L54.1566 47.5149Z" fill="#00020C"/>
    <path d="M54.1568 45.8577L53.5652 45.8577L53.5652 46.4101L54.1568 46.4101L54.1568 45.8577Z" fill="#00020C"/>
    <path d="M28.7129 50.8302L29.3045 50.8302L29.3045 49.7253L28.1211 49.7253L28.1211 50.2778L28.7129 50.2778L28.7129 50.8302Z" fill="#00020C"/>
    <path d="M34.0384 48.6204L33.4468 48.6204L33.4468 49.7254L34.0384 49.7254L34.0384 48.6204Z" fill="#00020C"/>
    <path d="M35.2217 48.6201H34.63L34.63 49.7251H35.2217L35.2217 48.6201Z" fill="#00020C"/>
    <path d="M18.0619 51.3823H17.4702L17.4702 51.9348H18.0619L18.0619 51.3823Z" fill="#00020C"/>
    <path d="M26.3458 50.8302L26.9376 50.8302L26.9376 49.7253L25.7542 49.7253L25.7542 50.2778L26.3458 50.2778L26.3458 50.8302Z" fill="#00020C"/>
    <path d="M19.8371 51.3828H19.2455L19.2455 51.9353H19.8371L19.8371 51.3828Z" fill="#00020C"/>
    <path d="M35.8132 49.7251H35.2216L35.2216 50.2775H35.8132L35.8132 49.7251Z" fill="#00020C"/>
    <path d="M28.1211 50.2776H27.5294L27.5294 50.83H28.1211L28.1211 50.2776Z" fill="#00020C"/>
    <path d="M35.8133 48.0676L35.2217 48.0676L35.2217 48.6201L35.8133 48.6201L35.8133 48.0676Z" fill="#00020C"/>
    <path d="M37.5885 48.6201H36.9968L36.9968 49.1726H37.5885L37.5885 48.6201Z" fill="#00020C"/>
    <path d="M37.5881 51.3828L36.9965 51.3828L36.9965 51.9353L37.5881 51.9353L37.5881 51.3828Z" fill="#00020C"/>
    <path d="M37.5889 48.0676L37.5889 48.6202L38.1805 48.6202L38.1805 49.1726L37.5889 49.1726L37.5889 49.7252L38.7723 49.7252L38.7723 49.1726L39.364 49.1726L39.364 48.6202L38.7723 48.6202L38.7723 47.5151L38.1805 47.5151L38.1805 48.0676L37.5889 48.0676Z" fill="#00020C"/>
    <path d="M34.6297 49.7253L34.0381 49.7253L34.0381 50.2778L34.6297 50.2778L34.6297 49.7253Z" fill="#00020C"/>
    <path d="M38.7717 51.3826H38.1801L38.1801 51.935H38.7717L38.7717 51.3826Z" fill="#00020C"/>
    <path d="M37.5889 47.5148H38.1805L38.1805 46.9624H36.9971L36.9971 48.0673H37.5889L37.5889 47.5148Z" fill="#00020C"/>
    <path d="M36.9964 48.0676L36.4048 48.0676L36.4048 48.6201L36.9964 48.6201L36.9964 48.0676Z" fill="#00020C"/>
    <path d="M83.1501 49.1728L83.7418 49.1728L83.7418 48.6204L82.5583 48.6204L82.5583 49.7254L83.1501 49.7254L83.1501 49.1728Z" fill="#00020C"/>
    <path d="M61.8482 45.8577H60.6648L60.6648 46.4101H61.8482L61.8482 45.8577Z" fill="#00020C"/>
    <path d="M63.6236 46.4102L63.032 46.4102L63.032 47.5152L63.6236 47.5152L63.6236 46.4102Z" fill="#00020C"/>
    <path d="M60.6651 45.3052H60.0735L60.0735 45.8576H60.6651L60.6651 45.3052Z" fill="#00020C"/>
    <path d="M60.6649 46.9625L60.6649 47.5149H60.0732L60.0732 48.0674H59.4816L59.4816 48.62H60.0732L60.0732 49.725H60.6649L60.6649 48.0674H61.8483L61.8483 47.5149H62.4401L62.4401 46.4099H61.8483L61.8483 46.9625H60.6649Z" fill="#00020C"/>
    <path d="M58.8902 43.6475L58.2986 43.6475L58.2986 44.1999L58.8902 44.1999L58.8902 43.6475Z" fill="#00020C"/>
    <path d="M59.4817 44.2002L58.89 44.2002L58.89 44.7526L59.4817 44.7526L59.4817 44.2002Z" fill="#00020C"/>
    <path d="M53.5648 29.835H52.9731L52.9731 30.3874H53.5648L53.5648 29.835Z" fill="#00020C"/>
    <path d="M60.0735 44.7524L59.4818 44.7524L59.4818 45.3049L60.0735 45.3049L60.0735 44.7524Z" fill="#00020C"/>
    <path d="M70.7245 48.0676H70.1328L70.1328 48.6201H70.7245L70.7245 48.0676Z" fill="#00020C"/>
    <path d="M68.9491 48.6204L68.3574 48.6204L68.3574 49.1728L68.9491 49.1728L68.9491 48.6204Z" fill="#00020C"/>
    <path d="M64.2156 48.6199L64.2156 48.0673H64.8072L64.8072 47.5149H63.6239L63.6239 48.6199H64.2156Z" fill="#00020C"/>
    <path d="M74.8664 49.1729H74.2748L74.2748 49.7253H74.8664L74.8664 49.1729Z" fill="#00020C"/>
    <path d="M66.5828 48.0675L66.5828 50.2776H65.3994L65.3994 50.83H66.5828L66.5828 51.3825H67.7663L67.7663 51.9349H66.5828L66.5828 51.3825H65.3994L65.3994 50.83H64.8077L64.8077 51.3825H64.2161L64.2161 51.9349H65.3995L65.3995 52.4874H66.583L66.583 53.0398H67.1746L67.1746 53.5923H67.7663L67.7663 52.4872H68.3579L68.3579 53.5923H68.9496L68.9496 53.0398H69.5412L69.5412 53.5923H68.9496L68.9496 54.1447H68.3579L68.3579 53.5923H67.7663L67.7663 54.6973H67.1746L67.1746 55.2497H66.583L66.583 54.6973H65.9913L65.9913 55.8023H66.583L66.583 56.3548H67.7664L67.7664 56.9072H67.1748L67.1748 57.4596H68.3582L68.3582 56.9072H68.9499L68.9499 56.3548H68.3582L68.3582 55.8023H67.7666L67.7666 55.2499H68.3582L68.3582 54.6974H68.9499L68.9499 55.2499H68.3582L68.3582 55.8023H68.9499L68.9499 56.3548H70.1333L70.1333 55.8023H69.5417L69.5417 55.2499H70.1333L70.1333 55.8023H70.725L70.725 55.2499H71.9084L71.9084 56.3549H72.5001L72.5001 55.8025H73.0917L73.0917 55.25H72.5001L72.5001 54.6976H73.0917L73.0917 54.1451H72.5001L72.5001 53.5927H73.0917L73.0917 54.1451H73.6834L73.6834 54.6976H73.0917L73.0917 55.25H73.6834L73.6834 55.8025H74.275L74.275 55.25H76.0501L76.0501 54.6976H74.8667L74.8667 54.1451H76.0501L76.0501 54.6976H76.6418L76.6418 54.1451H77.8252L77.8252 54.6976H78.4169L78.4169 55.25H79.0085L79.0085 54.6976H79.6002L79.6002 55.25H80.7836L80.7836 54.6976H80.192L80.192 53.5925H80.7836L80.7836 54.6976H81.3753L81.3753 55.25H81.9669L81.9669 54.6976H83.1504L83.1504 54.1451H83.742L83.742 53.0401H84.3337L84.3337 54.6976H85.5171L85.5171 54.1451H84.9255L84.9255 53.5927H85.5171L85.5171 54.1451H86.1088L86.1088 53.0401H85.5171L85.5171 52.4877H86.1088L86.1088 51.9352H86.7004L86.7004 52.4877H87.8839L87.8839 51.9352H87.2923L87.2923 51.3828H86.1088L86.1088 50.8303H87.8839L87.8839 49.7253H86.1088L86.1088 50.2777H85.5171L85.5171 50.8302H84.9255L84.9255 50.2777H85.5171L85.5171 49.7253H84.3337L84.3337 50.2777H83.742L83.742 49.7253H83.1504L83.1504 50.8303H81.9669L81.9669 50.2779H81.3753L81.3753 50.8303H80.1918L80.1918 51.3828H80.7835L80.7835 51.9352H80.1918L80.1918 51.3828H79.0084L79.0084 50.8303H80.1918L80.1918 50.2779H79.6002L79.6002 49.7254H79.0085L79.0085 50.2779H78.4169L78.4169 50.8303H77.2334L77.2334 49.7253H76.6418L76.6418 50.8303H76.0501L76.0501 49.7253H76.6418L76.6418 49.1729H75.4583L75.4583 49.7253H74.8667L74.8667 50.2777H74.275L74.275 49.7253H73.6834L73.6834 48.0678H73.0917L73.0917 49.7253H72.5001L72.5001 50.2777H71.3166L71.3166 48.6203H70.725L70.725 49.7253H70.1333L70.1333 48.6203H69.5417L69.5417 49.7253H68.3582L68.3582 49.1729H67.7666L67.7666 49.7253H67.1749L67.1749 49.1729H67.7666L67.7666 48.6204H67.1749L67.1749 47.5154H65.3994L65.3994 48.0678H66.5828L66.5828 48.0675ZM84.9258 51.3826H85.5175L85.5175 51.9351H84.9258L84.9258 51.3826ZM83.1507 51.3826H83.7424L83.7424 50.8302H84.334L84.334 51.3826H83.7424L83.7424 51.9351H84.334L84.334 52.4875H83.7424L83.7424 51.9351H83.1507L83.1507 51.3826ZM81.9673 51.3826H82.5589L82.5589 51.9351H81.9673L81.9673 51.3826ZM81.9673 53.0401H82.5589L82.5589 54.1451H81.9673L81.9673 53.0401ZM79.0087 51.9351H79.6003L79.6003 53.0401H79.0087L79.0087 51.9351ZM79.6003 53.5925L79.6003 54.145H78.4169L78.4169 53.5925H79.6003ZM77.2336 51.3826H77.8252L77.8252 51.9351H78.4169L78.4169 52.4875H77.8252L77.8252 51.9351H77.2336L77.2336 51.3826ZM76.6418 53.0401H77.2334L77.2334 53.5925H76.6418L76.6418 53.0401ZM76.0501 52.4877L76.0501 53.0401H75.4585L75.4585 52.4877H76.0501ZM74.275 51.3826H74.8667L74.8667 50.8302H75.4583L75.4583 51.3826H74.8667L74.8667 51.9351H74.275L74.275 51.3826ZM70.7247 54.1451H70.133L70.133 53.5927H70.7247L70.7247 54.1451ZM72.4999 50.83H73.6834L73.6834 51.3825H72.4999L72.4999 50.83ZM72.4999 53.0401H71.9083L71.9083 52.4877H72.4999L72.4999 53.0401ZM71.3165 51.3826L71.3165 50.8302H71.9081L71.9081 51.3826H71.3165L71.3165 51.9351H70.133L70.133 51.3826H71.3165ZM68.9496 51.3826L68.9496 50.8302H69.5412L69.5412 50.2777H70.1329L70.1329 50.8302H69.5412L69.5412 51.3826H68.9496L68.9496 51.9351H68.3579L68.3579 51.3826H68.9496ZM67.1745 50.2776H68.3579L68.3579 50.83H67.1745L67.1745 50.2776Z" fill="#00020C"/>
    <path d="M69.5409 48.0674H68.9492L68.9492 48.6198H69.5409L69.5409 48.0674Z" fill="#00020C"/>
    <path d="M68.3576 48.0674L67.766 48.0674L67.766 48.6198L68.3576 48.6198L68.3576 48.0674Z" fill="#00020C"/>
    <path d="M52.973 15.4705H52.3813L52.3813 16.0229H52.973L52.973 15.4705Z" fill="#00020C"/>
    <path d="M47.6477 6.62988L47.056 6.62988L47.056 7.18233L47.6477 7.18233L47.6477 6.62988Z" fill="#00020C"/>
    <path d="M47.056 6.07764L46.4644 6.07764L46.4644 6.63008L47.056 6.63008L47.056 6.07764Z" fill="#00020C"/>
    <path d="M46.464 8.28734H47.0557L47.0557 8.83979H47.6473L47.6473 9.39223H48.239L48.239 9.94467H47.6473L47.6473 10.4971H47.0557L47.0557 11.0496H46.464L46.464 11.602H47.6475L47.6475 12.1544H46.464L46.464 12.7069H47.0557L47.0557 13.2593H47.6473L47.6473 13.8118H47.0557L47.0557 14.9168H47.6473L47.6473 15.4692H46.4639L46.4639 16.0217H47.6473L47.6473 17.1267H47.0557L47.0557 17.6792H47.6473L47.6473 20.4417H47.0557L47.0557 20.9941H47.6473L47.6473 21.5465H48.239L48.239 22.099H47.0555L47.0555 22.6514H47.6472L47.6472 23.7565H48.2388L48.2388 24.3089H47.6472L47.6472 23.7565H46.4637L46.4637 24.3089H47.0554L47.0554 24.8613H47.647L47.647 25.4138H47.0554L47.0554 24.8613H46.4637L46.4637 26.5188H47.6472L47.6472 27.0713H46.4637L46.4637 28.1763H47.0554L47.0554 28.7287H45.8719L45.8719 29.2812H47.0554L47.0554 29.8336H47.647L47.647 30.3861H47.0554L47.0554 29.8336H45.8719L45.8719 30.3861H46.4636L46.4636 31.4911H45.8719L45.8719 32.0435H46.4636L46.4636 33.1486H45.8719L45.8719 33.701H46.4636L46.4636 34.2535H47.0552L47.0552 34.8059H46.4636L46.4636 34.2535H45.2801L45.2801 34.8059H45.8718L45.8718 35.3583H45.2801L45.2801 35.9108H45.8718L45.8718 37.0158H46.4634L46.4634 37.5682H45.8718L45.8718 37.0158H45.2801L45.2801 38.6733H45.8718L45.8718 39.2257H45.2801L45.2801 38.6733H44.6885L44.6885 39.2257H44.0968L44.0968 39.7782H45.2803L45.2803 40.3306H44.6886L44.6886 40.883H44.097L44.097 41.9881H45.2804L45.2804 42.5405H44.097L44.097 41.9881H43.5053L43.5053 43.6474H42.9137L42.9137 44.1998H43.5053L43.5053 44.7523H42.9137L42.9137 44.1998H42.322L42.322 44.7523H41.7304L41.7304 45.3047H42.9138L42.9138 45.8572H41.7304L41.7304 45.3047H41.1387L41.1387 44.1997H40.5471L40.5471 45.8572H41.1387L41.1387 46.4096H42.9138L42.9138 46.9621H41.1387L41.1387 47.5145H41.7304L41.7304 48.067H41.1387L41.1387 48.6194H39.9553L39.9553 49.1718H39.3636L39.3636 49.7243H38.772L38.772 50.2767H37.5885L37.5885 51.3818H38.1801L38.1801 50.8293H39.3636L39.3636 50.2769H39.9553L39.9553 49.7244H41.1387L41.1387 49.172H41.7304L41.7304 48.6195H42.9138L42.9138 49.7246H43.5055L43.5055 49.1721H44.0971L44.0971 48.6197H43.5055L43.5055 48.0672H44.0971L44.0971 46.4098H44.6888L44.6888 47.5148H45.2804L45.2804 45.8575H46.4639L46.4639 45.305H45.8722L45.8722 44.2H46.4639L46.4639 45.305H47.6473L47.6473 44.7526H47.0557L47.0557 43.6474H47.6473L47.6473 43.095H47.0557L47.0557 42.5425H47.6473L47.6473 43.095H48.8308L48.8308 42.5425H48.2391L48.2391 41.4375H48.8308L48.8308 40.885H48.2391L48.2391 40.3326H49.4226L49.4226 39.7802H48.2391L48.2391 39.2277H50.0142L50.0142 38.6753H48.8308L48.8308 37.5702H50.0142L50.0142 36.4652H49.4226L49.4226 37.0177H48.8309L48.8309 36.4652H49.4226L49.4226 35.3602H48.8309L48.8309 34.8077H49.4226L49.4226 35.3602H50.0142L50.0142 34.8077H50.6059L50.6059 34.2553H51.1975L51.1975 35.9128H50.6059L50.6059 36.4652H51.7893L51.7893 37.0177H50.6059L50.6059 37.5701H52.381L52.381 38.1225H51.1975L51.1975 38.675H52.381L52.381 39.2274H51.1975L51.1975 39.7799H52.9726L52.9726 40.3323H52.381L52.381 41.4373H52.9726L52.9726 40.8849H53.5643L53.5643 41.4373H52.9726L52.9726 41.9898H52.381L52.381 42.5422H53.5644L53.5644 43.0947H54.1561L54.1561 43.6471H54.7477L54.7477 44.1996H54.1561L54.1561 44.752H53.5644L53.5644 45.3044H54.7479L54.7479 44.752H55.3395L55.3395 44.1996H55.9312L55.9312 44.752H55.3395L55.3395 45.3044H55.9312L55.9312 45.8569H55.3395L55.3395 45.3044H54.7479L54.7479 46.4095H55.3395L55.3395 47.5145H55.9312L55.9312 46.4095H56.5228L56.5228 45.857H57.1145L57.1145 46.4095H56.5228L56.5228 47.5145H57.1145L57.1145 48.6195H58.8896L58.8896 48.0671H58.2979L58.2979 47.5147H57.7063L57.7063 46.9622H58.2979L58.2979 47.5147H58.8896L58.8896 48.0671H59.4812L59.4812 47.5147H60.0729L60.0729 46.9622H60.6645L60.6645 46.4098H60.0729L60.0729 45.8573H59.4812L59.4812 45.3049H58.8896L58.8896 45.8573H58.2979L58.2979 46.4098H57.7063L57.7063 45.8573H58.2979L58.2979 45.3049H58.8896L58.8896 44.7524H58.2979L58.2979 44.2H57.1145L57.1145 43.6474H58.2979L58.2979 43.095H57.7063L57.7063 41.4375H57.1146L57.1146 41.9899H56.523L56.523 41.4375H55.9313L55.9313 40.885H55.3397L55.3397 39.78H55.9313L55.9313 38.675H54.7479L54.7479 38.1225H55.9313L55.9313 37.5701H54.1562L54.1562 37.0177H55.9313L55.9313 36.4652H54.7479L54.7479 35.9128H55.3395L55.3395 35.3603H53.5644L53.5644 34.8079H54.7479L54.7479 33.1504H54.1562L54.1562 32.598H54.7479L54.7479 32.0455H53.5644L53.5644 30.9405H52.9728L52.9728 30.3881H52.3811L52.3811 29.8356H52.9728L52.9728 28.1781H53.5644L53.5644 27.6257H52.381L52.381 27.0733H52.9726L52.9726 25.9682H52.381L52.381 25.4158H52.9726L52.9726 23.7583H52.381L52.381 23.2059H52.9726L52.9726 22.6534H52.381L52.381 22.101H52.9726L52.9726 19.8909H52.381L52.381 18.7859H52.9726L52.9726 16.5758H52.381L52.381 16.0234H51.7893L51.7893 17.1284H52.381L52.381 18.2335H51.7893L51.7893 17.1284H51.1977L51.1977 16.0234H51.7893L51.7893 15.471H51.1977L51.1977 14.3659H50.606L50.606 14.9184H50.0144L50.0144 14.3659H50.606L50.606 13.2609H50.0144L50.0144 12.7085H50.606L50.606 12.156H50.0144L50.0144 10.4985H49.4227L49.4227 9.9461H48.8311L48.8311 9.39366H49.4227L49.4227 9.9461H50.6062L50.6062 9.39366H50.0145L50.0145 8.84121H48.2394L48.2394 8.28877H47.6478L47.6478 7.73633H46.4643L46.4643 8.28734H46.464ZM42.9137 48.0674H42.322L42.322 47.5149H42.9137L42.9137 48.0674ZM44.6889 45.8575H44.0973L44.0973 45.305H44.6889L44.6889 45.8575ZM44.6889 44.7524H44.0973L44.0973 44.2H44.6889L44.6889 44.7524ZM46.464 43.6474H45.8724L45.8724 43.095H46.464L46.464 43.6474ZM47.6475 40.8849H47.0558L47.0558 40.3325H47.6475L47.6475 40.8849ZM58.8899 46.4099H59.4815L59.4815 46.9624H58.8899L58.8899 46.4099ZM57.7064 44.7524L57.7064 45.3049H57.1148L57.1148 44.7524H57.7064ZM56.5231 42.5424H57.1148L57.1148 43.0948H56.5231L56.5231 42.5424ZM55.9313 42.5424L55.9313 43.0948H55.3397L55.3397 42.5424H55.9313ZM54.7479 41.4375H55.3395L55.3395 41.9899H54.7479L54.7479 41.4375ZM54.1562 35.9125L54.1562 36.4649H53.5646L53.5646 35.9125H54.1562ZM52.3811 32.5974H53.5646L53.5646 33.1498H52.3811L52.3811 32.5974ZM51.1977 32.5974H50.606L50.606 32.045H51.1977L51.1977 32.5974ZM51.1977 31.4924H50.606L50.606 30.9399H51.1977L51.1977 31.4924ZM51.1977 19.8899H50.606L50.606 19.3375H51.1977L51.1977 19.8899ZM50.0142 15.47H50.6059L50.6059 16.0224H50.0142L50.0142 15.47ZM50.0142 16.5748H50.6059L50.6059 17.1273H50.0142L50.0142 16.5748ZM50.0142 18.2325H50.6059L50.6059 17.68H51.1975L51.1975 18.2325H50.6059L50.6059 18.7849H50.0142L50.0142 18.2325ZM50.0142 32.5974L50.0142 34.2549H49.4226L49.4226 32.5974H50.0142ZM48.8308 12.1549H49.4224L49.4224 12.7073H48.8308L48.8308 12.1549Z" fill="#00020C"/>
    <path d="M77.8248 49.1726L77.2332 49.1726L77.2332 49.7251L77.8248 49.7251L77.8248 49.1726Z" fill="#00020C"/>
    <path d="M86.1086 48.6206H85.517L85.517 49.7256H86.1086L86.1086 48.6206Z" fill="#00020C"/>
    <path d="M71.9074 56.3552L71.3158 56.3552L71.3158 56.9077L71.9074 56.9077L71.9074 56.3552Z" fill="#00020C"/>
    <path d="M73.0914 56.3552H72.4998L72.4998 56.9077H73.0914L73.0914 56.3552Z" fill="#00020C"/>
    <path d="M76.6412 55.25H76.0496L76.0496 55.8024H76.6412L76.6412 55.25Z" fill="#00020C"/>
    <path d="M73.6831 55.8022H73.0914L73.0914 56.3547H73.6831L73.6831 55.8022Z" fill="#00020C"/>
    <path d="M86.7007 54.145L86.109 54.145L86.109 54.6975L86.7007 54.6975L86.7007 54.145Z" fill="#00020C"/>
    <path d="M76.6415 55.2501L77.2333 55.2501L77.2333 55.8025L77.8249 55.8025L77.8249 54.6975L76.6415 54.6975L76.6415 55.2501Z" fill="#00020C"/>
    <path d="M79.0084 49.1729H78.4167L78.4167 49.7253H79.0084L79.0084 49.1729Z" fill="#00020C"/>
    <path d="M64.2158 58.0127L63.6241 58.0127L63.6241 58.5651L64.2158 58.5651L64.2158 58.0127Z" fill="#00020C"/>
    <path d="M56.523 69.615H55.9314L55.9314 70.1674H56.523L56.523 69.615Z" fill="#00020C"/>
    <path d="M71.316 55.8027H70.7244L70.7244 56.3552H71.316L71.316 55.8027Z" fill="#00020C"/>
    <path d="M54.748 92.2673H54.1564L54.1564 92.8198H54.748L54.748 92.2673Z" fill="#00020C"/>
    <path d="M54.1562 91.7151H53.5646L53.5646 92.2675H54.1562L54.1562 91.7151Z" fill="#00020C"/>
    <path d="M65.9905 56.3549L65.9905 56.9073H65.3988L65.3988 57.4598H64.8072L64.8072 56.9073H64.2155L64.2155 55.8023H64.8072L64.8072 56.9073H65.3988L65.3988 56.3549H65.9905L65.9905 55.8024H65.3988L65.3988 54.6974H65.9905L65.9905 54.145H65.3988L65.3988 53.5925H64.8072L64.8072 55.25H64.2155L64.2155 54.6976H63.0321L63.0321 55.25H63.6237L63.6237 56.355H63.0321L63.0321 55.25H61.8486L61.8486 55.8024H61.257L61.257 56.3549H60.6653L60.6653 57.4599H59.4818L59.4818 56.9075H60.0735L60.0735 56.355H58.2984L58.2984 57.4601H58.89L58.89 58.0125H58.2984L58.2984 58.5649H57.7067L57.7067 59.67H57.1151L57.1151 58.5649H57.7067L57.7067 58.0125H58.2984L58.2984 57.4601H57.7067L57.7067 56.9076H57.1151L57.1151 58.0126H56.5234L56.5234 58.5651H55.9318L55.9318 59.1175H56.5234L56.5234 59.67H55.34L55.34 60.2224H55.9316L55.9316 60.7749H55.34L55.34 61.3273H55.9316L55.9316 61.8797H54.7482L54.7482 62.4322H54.1565L54.1565 62.9846H54.7482L54.7482 63.5371H54.1565L54.1565 62.9846H53.5649L53.5649 64.0897H54.7483L54.7483 64.6421H53.5649L53.5649 65.1945H54.1565L54.1565 65.747H53.5649L53.5649 65.1945H52.9732L52.9732 66.852H53.5649L53.5649 67.4045H52.3814L52.3814 72.377H51.7898L51.7898 72.9295H51.1981L51.1981 72.377H51.7898L51.7898 71.8246H51.1981L51.1981 69.6145H50.0147L50.0147 69.0621H50.6063L50.6063 68.5096H50.0147L50.0147 66.8522H49.423L49.423 66.2997H48.8314L48.8314 65.7473H49.423L49.423 65.1948H48.8314L48.8314 62.9848H47.6479L47.6479 61.3273H48.2396L48.2396 60.7749H47.0561L47.0561 61.3273H46.4645L46.4645 59.6698H45.8728L45.8728 59.1174H45.2812L45.2812 59.6698H44.0977L44.0977 58.5648H43.5061L43.5061 56.9073H42.9144L42.9144 57.4598H42.3228L42.3228 56.9073H41.7311L41.7311 58.0124H41.1395L41.1395 57.4599H40.5478L40.5478 56.9075H39.3644L39.3644 55.8024H38.1809L38.1809 56.3549H38.7726L38.7726 57.4599H39.3642L39.3642 58.0124H38.7726L38.7726 59.1174H39.3642L39.3642 58.5649H39.9559L39.9559 59.1174H39.3642L39.3642 59.6698H38.7726L38.7726 60.2223H39.956L39.956 59.6698H40.5477L40.5477 60.2223H39.956L39.956 60.7747H41.7311L41.7311 61.3272H43.5062L43.5062 61.8796H42.3228L42.3228 62.432H41.7311L41.7311 62.9845H42.9146L42.9146 62.432H43.5062L43.5062 62.9845H44.0979L44.0979 62.432H44.6895L44.6895 62.9845H44.0979L44.0979 63.5369H43.5062L43.5062 64.0894H44.6897L44.6897 63.5369H45.2813L45.2813 64.0894H44.6897L44.6897 64.6418H45.2813L45.2813 65.1943H45.873L45.873 65.7467H45.2813L45.2813 65.1943H44.6897L44.6897 66.2993H45.8731L45.8731 66.8517H46.4648L46.4648 67.4042H45.8731L45.8731 67.9566H47.0566L47.0566 68.5091H45.8731L45.8731 69.0615H46.4648L46.4648 69.6139H47.0564L47.0564 69.0615H47.6481L47.6481 69.6139H47.0564L47.0564 70.1664H46.4648L46.4648 70.7188H47.6482L47.6482 71.2713H47.0566L47.0566 71.8237H47.6482L47.6482 74.0338H48.2399L48.2399 74.5862H47.6482L47.6482 75.1387H48.2399L48.2399 75.6911H48.8315L48.8315 75.1387H49.4232L49.4232 75.6911H48.8315L48.8315 81.2161H48.2399L48.2399 81.7686H48.8315L48.8315 82.321H48.2399L48.2399 82.8734H48.8315L48.8315 83.4259H49.4232L49.4232 83.9783H48.8315L48.8315 84.5308H50.015L50.015 83.4257H50.6066L50.6066 85.0832H50.015L50.015 85.6357H50.6066L50.6066 86.1881H50.015L50.015 86.7405H50.6066L50.6066 87.293H50.015L50.015 87.8454H50.6066L50.6066 88.3979H50.015L50.015 88.9503H50.6066L50.6066 89.5028H50.015L50.015 90.0552H50.6066L50.6066 90.6076H50.015L50.015 91.7127H50.6066L50.6066 92.2651H50.015L50.015 99.4476H50.6066L50.6066 100H51.1983L51.1983 99.4476H51.7899L51.7899 98.8952H52.3816L52.3816 99.4476H51.7899L51.7899 100H52.9734L52.9734 99.4476H53.565L53.565 98.3426H52.9734L52.9734 97.2375H53.565L53.565 96.1325H52.9734L52.9734 95.5801H53.565L53.565 95.0276H52.9734L52.9734 94.4752H53.565L53.565 93.9227H52.9734L52.9734 91.7127H53.565L53.565 90.6076H54.7485L54.7485 91.1601H54.1568L54.1568 91.7125H55.9319L55.9319 90.6075H55.3403L55.3403 88.95H55.9319L55.9319 88.3976H55.3403L55.3403 86.1875H54.7486L54.7486 85.6351H55.3403L55.3403 83.9776H54.7486L54.7486 82.8726H55.3403L55.3403 82.3201H54.7486L54.7486 78.4526H54.157L54.157 77.9002H55.3404L55.3404 77.3477H54.7488L54.7488 76.2427H55.3404L55.3404 75.6902H55.9321L55.9321 75.1378H55.3404L55.3404 74.0328H55.9321L55.9321 73.4803H55.3404L55.3404 71.8229H55.9321L55.9321 71.2704H56.5237L56.5237 70.718H55.9321L55.9321 70.1655H55.3404L55.3404 69.6131H55.9321L55.9321 69.0607H56.5237L56.5237 67.9556H55.9321L55.9321 67.4032H56.5237L56.5237 67.9556H57.1154L57.1154 64.6407H58.2988L58.2988 64.0882H57.7072L57.7072 63.5358H57.1156L57.1156 62.9833H57.7072L57.7072 63.5358H58.8907L58.8907 62.9833H58.299L58.299 61.8783H58.8907L58.8907 62.9833H59.4823L59.4823 62.4309H60.074L60.074 61.8785H59.4823L59.4823 61.326H58.8907L58.8907 60.7736H59.4823L59.4823 61.326H60.074L60.074 59.116H60.6656L60.6656 60.7734H61.2573L61.2573 60.221H61.8489L61.8489 59.116H62.4406L62.4406 58.5635H63.0322L63.0322 58.0111H62.4406L62.4406 56.906H61.8489L61.8489 57.4585H61.2573L61.2573 56.906H61.8489L61.8489 56.3536H62.4406L62.4406 56.906H63.0322L63.0322 58.0111H63.6239L63.6239 57.4586H64.2155L64.2155 58.0111H64.8072L64.8072 58.5635H65.3988L65.3988 58.0111H65.9905L65.9905 57.4586H66.5821L66.5821 56.3536H65.9905L65.9905 56.3549ZM41.7304 60.2224H41.1387L41.1387 59.67H41.7304L41.7304 60.2224ZM41.7304 59.1174H40.5469L40.5469 58.5649H41.7304L41.7304 59.1174ZM42.9137 60.775H42.322L42.322 60.2226H42.9137L42.9137 60.775ZM42.9137 59.1174H42.322L42.322 58.5649H42.9137L42.9137 59.1174ZM45.2806 60.775H44.6889L44.6889 60.2226H45.2806L45.2806 60.775ZM47.0557 62.4325H46.464L46.464 61.88H47.0557L47.0557 62.4325ZM50.606 82.3224H50.0144L50.0144 81.77H50.606L50.606 82.3224ZM52.3811 74.0349H51.7895L51.7895 73.4825H52.3811L52.3811 74.0349ZM53.5646 90.0575H52.9729L52.9729 89.505H53.5646L53.5646 90.0575ZM53.5646 88.9525H52.9729L52.9729 88.4H53.5646L53.5646 88.9525ZM54.7479 89.505L54.7479 90.0575H54.1562L54.1562 89.505H54.7479ZM60.0733 58.5649H59.4817L59.4817 58.0125H60.0733L60.0733 58.5649ZM61.8484 58.0125L61.8484 58.5649H61.2568L61.2568 58.0125H61.8484Z" fill="#00020C"/>
    <path d="M86.7007 52.4873H86.109L86.109 53.0397H86.7007L86.7007 52.4873Z" fill="#00020C"/>
    <path d="M63.6236 58.5649H63.032L63.032 59.1174H63.6236L63.6236 58.5649Z" fill="#00020C"/>
    <path d="M81.375 55.2502H80.7832L80.7832 56.3551H81.9667L81.9667 55.8027H81.375L81.375 55.2502Z" fill="#00020C"/>
    <path d="M86.7006 54.1453L87.2924 54.1453L87.2924 53.5927L87.884 53.5927L87.884 53.0403L86.7006 53.0403L86.7006 54.1453Z" fill="#00020C"/>
    <path d="M82.5586 49.7253L81.9669 49.7253L81.9669 50.2778L82.5586 50.2778L82.5586 49.7253Z" fill="#00020C"/>
    <path d="M84.3337 49.1726H83.7421L83.7421 49.7251H84.3337L84.3337 49.1726Z" fill="#00020C"/>
    <path d="M78.4167 49.7253H77.8251L77.8251 50.2778H78.4167L78.4167 49.7253Z" fill="#00020C"/>
    <path d="M84.9254 48.6204L84.3337 48.6204L84.3337 49.1728L84.9254 49.1728L84.9254 48.6204Z" fill="#00020C"/>
    <path d="M80.1915 49.1729L79.5999 49.1729L79.5999 49.7253L80.1915 49.7253L80.1915 49.1729Z" fill="#00020C"/>
    <path d="M81.3753 49.7253L80.1919 49.7253L80.1919 50.2778L81.3753 50.2778L81.3753 49.7253Z" fill="#00020C"/>
    <path d="M60.0738 51.9351L59.4822 51.9351L59.4822 52.4875L60.0738 52.4875L60.0738 51.9351Z" fill="#00020C"/>
    <path d="M89.6589 52.4877L89.6589 51.9351L89.0672 51.9351L89.0672 51.3827L88.4754 51.3827L88.4754 50.8301L87.8838 50.8301L87.8838 51.9351L88.4754 51.9351L88.4754 52.4877L87.8838 52.4877L87.8838 53.0401L89.0672 53.0401L89.0672 52.4877L89.6589 52.4877Z" fill="#00020C"/>
    <path d="M89.0672 50.2781H88.4756L88.4756 50.8305H89.0672L89.0672 50.2781Z" fill="#00020C"/>
    <path d="M54.1567 92.8201L53.5651 92.8201L53.5651 93.9251L54.7484 93.9251L54.7484 93.3725L54.1567 93.3725L54.1567 92.8201Z" fill="#00020C"/>
    <path d="M89.6592 50.8303H89.0675L89.0675 51.3828H89.6592L89.6592 50.8303Z" fill="#00020C"/>
    <path d="M89.6594 52.4876L89.6594 53.0401H90.8429L90.8429 52.4876H91.4345L91.4345 51.9351H90.2512L90.2512 52.4876H89.6594Z" fill="#00020C"/>
    <path d="M89.659 50.2775L89.659 50.83L90.2508 50.83L90.2508 49.7251L89.0674 49.7251L89.0674 50.2775L89.659 50.2775Z" fill="#00020C"/>
    <path d="M90.2507 51.3826H89.6591L89.6591 51.935H90.2507L90.2507 51.3826Z" fill="#00020C"/>
    <path d="M55.3399 59.1174L54.7483 59.1174L54.7483 59.6699L55.3399 59.6699L55.3399 59.1174Z" fill="#00020C"/>
    <path d="M47.0556 22.6528H46.464L46.464 23.2053H47.0556L47.0556 22.6528Z" fill="#00020C"/>
    <path d="M46.4642 22.0999L45.8726 22.0999L45.8726 22.6523L46.4642 22.6523L46.4642 22.0999Z" fill="#00020C"/>
    <path d="M45.2807 36.4653L44.6891 36.4653L44.6891 37.0178L45.2807 37.0178L45.2807 36.4653Z" fill="#00020C"/>
    <path d="M41.1386 46.4102L40.547 46.4102L40.547 46.9626L41.1386 46.9626L41.1386 46.4102Z" fill="#00020C"/>
    <path d="M47.0558 20.9949H46.4641L46.4641 21.5473H47.0558L47.0558 20.9949Z" fill="#00020C"/>
    <path d="M42.9139 43.6477L42.9139 43.0952H41.7306L41.7306 44.2002H42.3222L42.3222 43.6477H42.9139Z" fill="#00020C"/>
    <path d="M44.6887 38.1226H44.097L44.097 38.675H44.6887L44.6887 38.1226Z" fill="#00020C"/>
    <path d="M47.6477 9.39282H46.4642L46.4642 9.94526H47.6477L47.6477 9.39282Z" fill="#00020C"/>
    <path d="M30.4883 48.6204L29.8966 48.6204L29.8966 49.1728L30.4883 49.1728L30.4883 48.6204Z" fill="#00020C"/>
    <path d="M34.6297 48.0676L34.0381 48.0676L34.0381 48.6201L34.6297 48.6201L34.6297 48.0676Z" fill="#00020C"/>
    <path d="M29.8959 49.1726H29.3042L29.3042 49.7251H29.8959L29.8959 49.1726Z" fill="#00020C"/>
    <path d="M44.0975 40.3325H43.5059L43.5059 40.885H44.0975L44.0975 40.3325Z" fill="#00020C"/>
    <path d="M43.5053 41.4377H42.9137L42.9137 41.9902H43.5053L43.5053 41.4377Z" fill="#00020C"/>
    <path d="M36.9966 46.4102L36.4049 46.4102L36.4049 46.9626L36.9966 46.9626L36.9966 46.4102Z" fill="#00020C"/>
    <path d="M39.3633 45.8577H38.7716L38.7716 46.4101H39.3633L39.3633 45.8577Z" fill="#00020C"/>
    <path d="M36.4051 47.5154L35.8135 47.5154L35.8135 48.0678L36.4051 48.0678L36.4051 47.5154Z" fill="#00020C"/>
    <path d="M36.9969 54.6975L36.4053 54.6975L36.4053 55.25L36.9969 55.25L36.9969 54.6975Z" fill="#00020C"/>
    <path d="M36.4052 55.2505H35.8136L35.8136 55.8029H36.4052L36.4052 55.2505Z" fill="#00020C"/>
    <path d="M35.8135 55.25L35.8135 54.145L35.2217 54.145L35.2217 54.6975L34.63 54.6975L34.63 55.25L34.0382 55.25L34.0382 55.8025L35.2217 55.8025L35.2217 55.25L35.8135 55.25Z" fill="#00020C"/>
    <path d="M38.7721 54.6975L39.3638 54.6975L39.3638 54.145L38.1803 54.145L38.1803 55.25L38.7721 55.25L38.7721 54.6975Z" fill="#00020C"/>
    <path d="M40.5467 55.8027H39.9551L39.9551 56.3552H40.5467L40.5467 55.8027Z" fill="#00020C"/>
    <path d="M40.5472 54.6975L39.9556 54.6975L39.9556 55.25L40.5472 55.25L40.5472 54.6975Z" fill="#00020C"/>
    <path d="M40.5469 45.8579H39.9552L39.9552 46.4104H40.5469L40.5469 45.8579Z" fill="#00020C"/>
    <path d="M39.9552 55.25H39.3635L39.3635 55.8024H39.9552L39.9552 55.25Z" fill="#00020C"/>
    <path d="M36.9971 53.04L35.8136 53.04L35.8136 54.1451L36.9971 54.1451L36.9971 53.04Z" fill="#00020C"/>
    <path d="M38.7719 52.4875L38.1803 52.4875L38.1803 53.04L38.7719 53.04L38.7719 52.4875Z" fill="#00020C"/>
    <path d="M39.9552 48.0674H41.1386L41.1386 47.5149H40.547L40.547 46.9625H39.9552L39.9552 46.4099H39.3635L39.3635 48.62H39.9552L39.9552 48.0674Z" fill="#00020C"/>
    <path d="M38.1803 53.0403L37.5886 53.0403L37.5886 53.5927L38.1803 53.5927L38.1803 53.0403Z" fill="#00020C"/>
    <path d="M37.5884 54.1453H36.9967L36.9967 54.6977H37.5884L37.5884 54.1453Z" fill="#00020C"/>
    <path d="M38.1804 51.9353H37.5887L37.5887 52.4877H38.1804L38.1804 51.9353Z" fill="#00020C"/>
    <path d="M37.5884 52.4875H36.9967L36.9967 53.04H37.5884L37.5884 52.4875Z" fill="#00020C"/>
    <path d="M28.7129 48.6204L27.5294 48.6204L27.5294 49.1728L28.7129 49.1728L28.7129 48.6204Z" fill="#00020C"/>
    <path d="M4.45261 55.8027L4.45261 55.2502H3.86096L3.86096 56.3551H5.04442L5.04442 55.8027H4.45261Z" fill="#00020C"/>
    <path d="M5.04456 55.8027L5.63621 55.8027L5.63621 56.3551L5.04456 56.3551L5.04456 56.9077L6.22785 56.9077L6.22786 55.2502L5.04456 55.2502L5.04456 55.8027Z" fill="#00020C"/>
    <path d="M3.26914 55.2502L2.67749 55.2502L2.67749 56.3553L3.26914 56.3553L3.26914 55.2502Z" fill="#00020C"/>
    <path d="M3.26938 54.1448H2.67773L2.67773 54.6972H3.26938L3.26938 54.1448Z" fill="#00020C"/>
    <path d="M6.22788 54.145L5.63623 54.145L5.63623 54.6975L6.22788 54.6975L6.22788 54.145Z" fill="#00020C"/>
    <path d="M5.63585 52.4875L4.45239 52.4875L4.45239 53.04L5.63585 53.04L5.63585 52.4875Z" fill="#00020C"/>
    <path d="M4.45273 51.9353L3.86108 51.9353L3.86108 52.4877L4.45273 52.4877L4.45273 51.9353Z" fill="#00020C"/>
    <path d="M5.04441 53.5928L4.45276 53.5928L4.45276 54.1452L5.04441 54.1452L5.04441 53.5928Z" fill="#00020C"/>
    <path d="M31.6714 48.0676L30.4879 48.0676L30.4879 48.6201L31.6714 48.6201L31.6714 48.0676Z" fill="#00020C"/>
    <path d="M2.67771 52.4873H2.08606L2.08606 54.1448H2.67771L2.67771 52.4873Z" fill="#00020C"/>
    <path d="M3.86094 53.0403L3.26929 53.0403L3.26929 54.1453L3.86094 54.1453L3.86094 53.0403Z" fill="#00020C"/>
    <path d="M3.86082 54.6975L3.26917 54.6975L3.26916 55.25L3.86082 55.25L3.86082 54.6975Z" fill="#00020C"/>
    <path d="M4.45261 54.145L3.86096 54.145L3.86096 54.6975L4.45261 54.6975L4.45261 54.145Z" fill="#00020C"/>
    <path d="M5.63608 51.3828H5.04443L5.04443 51.9353H5.63608L5.63608 51.3828Z" fill="#00020C"/>
    <path d="M5.04392 54.6975H4.45227L4.45227 55.25H5.04392L5.04392 54.6975Z" fill="#00020C"/>
    <path d="M3.26926 51.9353H2.67761L2.67761 52.4877H3.26926L3.26926 51.9353Z" fill="#00020C"/>
    <path d="M22.7959 50.8303H21.6124L21.6124 51.3828H22.7959L22.7959 50.8303Z" fill="#00020C"/>
    <path d="M19.2456 50.8303L18.6539 50.8303L18.6539 50.2778L18.0621 50.2778L18.0621 51.3829L19.2456 51.3829L19.2456 50.8303Z" fill="#00020C"/>
    <path d="M19.8374 50.2776L19.2457 50.2776L19.2457 50.83L19.8374 50.83L19.8374 50.2776Z" fill="#00020C"/>
    <path d="M6.22776 51.9353L5.63611 51.9353L5.63611 52.4877L6.22776 52.4877L6.22776 51.9353Z" fill="#00020C"/>
    <path d="M21.6125 51.3827L21.0207 51.3827L21.0207 50.8301L20.4291 50.8301L20.4291 51.9351L21.6125 51.9351L21.6125 51.3827Z" fill="#00020C"/>
    <path d="M27.5296 49.1729H26.938L26.938 49.7253H27.5296L27.5296 49.1729Z" fill="#00020C"/>
    <path d="M41.7306 56.355H40.5471L40.5471 56.9074H41.7306L41.7306 56.355Z" fill="#00020C"/>
    <path d="M16.879 50.8303H16.2872L16.2872 51.3829H15.6956L15.6956 51.9354H16.879L16.879 50.8303Z" fill="#00020C"/>
    <path d="M6.81943 53.5928L6.22778 53.5928L6.22778 54.1452L6.81943 54.1452L6.81943 53.5928Z" fill="#00020C"/>
    <path d="M6.22751 53.04H5.63586L5.63586 53.5925H6.22751L6.22751 53.04Z" fill="#00020C"/>
    <path d="M8.00291 52.4875L6.81946 52.4875L6.81946 53.04L8.00291 53.04L8.00291 52.4875Z" fill="#00020C"/>
    <path d="M17.4704 49.7253H16.8788L16.8788 50.8304H17.4704L17.4704 49.7253Z" fill="#00020C"/>
    <path d="M9.77771 50.8301L9.77771 51.3827L10.3694 51.3827L10.3694 51.9351L10.9612 51.9351L10.9612 50.8301L9.77771 50.8301Z" fill="#00020C"/>
    <path d="M8.59485 51.9348L8.59485 52.4874H9.1865L9.1865 53.0398H9.7783L9.7783 51.9348H8.59485Z" fill="#00020C"/>
    <path d="M8.59421 53.04H8.00256L8.00256 54.1451H8.59421L8.59421 53.04Z" fill="#00020C"/>
    <path d="M45.2809 58.5654H44.6892L44.6892 59.1179H45.2809L45.2809 58.5654Z" fill="#00020C"/>
    <path d="M56.5233 47.5151L55.9316 47.5151L55.9316 48.6202L56.5233 48.6202L56.5233 47.5151Z" fill="#00020C"/>
    <path d="M42.3224 55.25H41.7307L41.7307 56.355H42.3224L42.3224 55.25Z" fill="#00020C"/>
    <path d="M57.7069 49.1726L57.1152 49.1726L57.1152 50.2776L57.7069 50.2776L57.7069 49.1726Z" fill="#00020C"/>
    <path d="M55.3401 47.5151H54.7484L54.7484 48.0676H55.3401L55.3401 47.5151Z" fill="#00020C"/>
    <path d="M48.2394 43.6472H47.6477L47.6477 44.1997H48.2394L48.2394 43.6472Z" fill="#00020C"/>
    <path d="M50.6064 35.3601H50.0148L50.0148 35.9126H50.6064L50.6064 35.3601Z" fill="#00020C"/>
    <path d="M65.3989 48.0674H64.8073L64.8073 48.6198H65.3989L65.3989 48.0674Z" fill="#00020C"/>
    <path d="M60.0737 49.7253H59.4821L59.4821 50.2778H60.0737L60.0737 49.7253Z" fill="#00020C"/>
    <path d="M64.2158 49.7254L64.2158 49.1728H63.6242L63.6242 48.6204H63.0323L63.0323 49.7254H64.2158Z" fill="#00020C"/>
    <path d="M61.2571 48.6204L61.2571 49.7254H61.8487L61.8487 50.8303H62.4405L62.4405 50.2779H63.0322L63.0322 49.7254H62.4405L62.4405 48.6204H63.0322L63.0322 47.5154H62.4405L62.4405 48.0678H61.8487L61.8487 48.6204H61.2571Z" fill="#00020C"/>
    <path d="M59.4819 48.6201H58.8903L58.8903 49.7251H59.4819L59.4819 48.6201Z" fill="#00020C"/>
    <path d="M64.8071 48.6204L64.2155 48.6204L64.2155 49.1728L64.8071 49.1728L64.8071 48.6204Z" fill="#00020C"/>
    <path d="M47.0558 45.8582H46.4641L46.4641 46.4106H47.0558L47.0558 45.8582Z" fill="#00020C"/>
    <path d="M60.0735 50.2775L60.0735 50.83H61.2569L61.2569 49.7251H60.6651L60.6651 50.2775H60.0735Z" fill="#00020C"/>
    <path d="M58.8902 49.7251H58.2986L58.2986 50.83H59.482L59.482 50.2775H58.8902L58.8902 49.7251Z" fill="#00020C"/>
    <path d="M52.973 43.6472H52.3813L52.3813 44.1998H54.1564L54.1564 43.6472H53.5648L53.5648 43.0947H52.973L52.973 43.6472Z" fill="#00020C"/>
    <path d="M40.5469 52.4875L39.9552 52.4875L39.9552 53.04L40.5469 53.04L40.5469 52.4875Z" fill="#00020C"/>
    <path d="M42.3222 51.3828H41.7306L41.7306 51.9353H42.3222L42.3222 51.3828Z" fill="#00020C"/>
    <path d="M39.9554 53.04L39.3638 53.04L39.3638 53.5925L39.9554 53.5925L39.9554 53.04Z" fill="#00020C"/>
    <path d="M41.7305 50.8301H40.547L40.547 51.3825H41.7305L41.7305 50.8301Z" fill="#00020C"/>
    <path d="M40.547 50.2776L39.9553 50.2776L39.9553 50.83L40.547 50.83L40.547 50.2776Z" fill="#00020C"/>
    <path d="M39.9552 51.9353L39.3635 51.9353L39.3635 52.4877L39.9552 52.4877L39.9552 51.9353Z" fill="#00020C"/>
    <path d="M40.547 51.3828H39.9553L39.9553 51.9353H40.547L40.547 51.3828Z" fill="#00020C"/>
    <path d="M46.4641 46.4099H45.8724L45.8724 47.5149H46.4641L46.4641 46.4099Z" fill="#00020C"/>
    <path d="M44.6886 48.0674H44.0969L44.0969 48.6198H44.6886L44.6886 48.0674Z" fill="#00020C"/>
    <path d="M42.9139 50.8298H42.3223L42.3223 51.3823H42.9139L42.9139 50.8298Z" fill="#00020C"/>
    <path d="M45.281 48.6204H44.6893L44.6893 49.1728H45.281L45.281 48.6204Z" fill="#00020C"/>
    <path d="M45.8729 47.5154H45.2812L45.2812 48.0678H45.8729L45.8729 47.5154Z" fill="#00020C"/>
    <path d="M45.2807 50.2778L44.6891 50.2778L44.6891 50.8303L45.2807 50.8303L45.2807 50.2778Z" fill="#00020C"/>
    <path d="M42.914 50.2776L42.914 49.7252L42.3224 49.7252L42.3224 49.1726L41.7307 49.1726L41.7307 49.7252L41.1389 49.7252L41.1389 50.2776L42.914 50.2776Z" fill="#00020C"/>
    <path d="M44.6892 49.7253H43.5057L43.5057 50.2778H44.6892L44.6892 49.7253Z" fill="#00020C"/>
    <path d="M57.1148 48.6206H56.5232L56.5232 49.173H57.1148L57.1148 48.6206Z" fill="#00020C"/>
    <path d="M55.3396 60.2227L54.7479 60.2227L54.7479 60.7751L55.3396 60.7751L55.3396 60.2227Z" fill="#00020C"/>
    <path d="M54.1565 60.7754L53.5648 60.7754L53.5648 61.3278L54.1565 61.3278L54.1565 60.7754Z" fill="#00020C"/>
    <path d="M54.7481 61.3276L54.1565 61.3276L54.1565 61.8801L54.7481 61.8801L54.7481 61.3276Z" fill="#00020C"/>
    <path d="M56.5232 57.46L55.9315 57.46L55.9315 58.0124L56.5232 58.0124L56.5232 57.46Z" fill="#00020C"/>
    <path d="M58.2983 55.8025L57.7067 55.8025L57.7067 56.3549L58.2983 56.3549L58.2983 55.8025Z" fill="#00020C"/>
    <path d="M57.707 55.2502H57.1154L57.1154 55.8027H57.707L57.707 55.2502Z" fill="#00020C"/>
    <path d="M59.4822 55.2502L59.4822 55.8027H60.0738L60.0738 56.3551H60.6655L60.6655 55.2502H59.4822Z" fill="#00020C"/>
    <path d="M46.4643 58.5652L45.8727 58.5652L45.8727 59.1176L46.4643 59.1176L46.4643 58.5652Z" fill="#00020C"/>
    <path d="M39.9555 50.8301L39.3639 50.8301L39.3639 51.3825L39.9555 51.3825L39.9555 50.8301Z" fill="#00020C"/>
    <path d="M51.1976 67.9575L50.606 67.9575L50.606 68.51L51.1976 68.51L51.1976 67.9575Z" fill="#00020C"/>
    <path d="M44.6891 58.0127L44.0974 58.0127L44.0974 58.5651L44.6891 58.5651L44.6891 58.0127Z" fill="#00020C"/>
    <path d="M50.0143 65.7478L49.4226 65.7478L49.4226 66.3002L50.0143 66.3002L50.0143 65.7478Z" fill="#00020C"/>
    <path d="M47.056 59.1174L46.4644 59.1174L46.4644 59.6699L47.056 59.6699L47.056 59.1174Z" fill="#00020C"/>
    <path d="M47.6474 59.6702L47.0558 59.6702L47.0558 60.2226L47.6474 60.2226L47.6474 59.6702Z" fill="#00020C"/>
    <path d="M63.624 53.0403H63.0323L63.0323 53.5927H63.624L63.624 53.0403Z" fill="#00020C"/>
    <path d="M61.8486 51.3826H61.257L61.257 52.4876H61.8486L61.8486 51.3826Z" fill="#00020C"/>
    <path d="M61.8486 54.6978L61.257 54.6978L61.257 55.2502L61.8486 55.2502L61.8486 54.6978Z" fill="#00020C"/>
    <path d="M61.2571 52.4875H60.6654L60.6654 53.04H61.2571L61.2571 52.4875Z" fill="#00020C"/>
    <path d="M63.6236 51.3826H63.032L63.032 51.935H63.6236L63.6236 51.3826Z" fill="#00020C"/>
    <path d="M63.0321 50.2778L63.0321 50.8303H63.6239L63.6239 51.3829H64.2156L64.2156 50.2778H63.0321Z" fill="#00020C"/>
    <path d="M63.0321 50.8303H62.4404L62.4404 51.3828H63.0321L63.0321 50.8303Z" fill="#00020C"/>
    <path d="M62.44 52.4875L61.8484 52.4875L61.8484 53.04L62.44 53.04L62.44 52.4875Z" fill="#00020C"/>
    <path d="M63.0323 51.9353H62.4407L62.4407 52.4877H63.0323L63.0323 51.9353Z" fill="#00020C"/>
    <path d="M63.0323 53.5928L61.8489 53.5928L61.8489 54.1452L63.0323 54.1452L63.0323 53.5928Z" fill="#00020C"/>
    <path d="M65.9906 49.7254L65.9906 48.6204L65.3989 48.6204L65.3989 49.1728L64.8071 49.1728L64.8071 49.7254L64.2155 49.7254L64.2155 50.2778L65.3989 50.2778L65.3989 49.7254L65.9906 49.7254Z" fill="#00020C"/>
    <path d="M65.399 52.4875H64.8074L64.8074 53.04H65.399L65.399 52.4875Z" fill="#00020C"/>
    <path d="M64.2156 53.5925H63.6239L63.6239 54.145H64.2156L64.2156 53.5925Z" fill="#00020C"/>
    <path d="M65.399 53.5927H65.9907L65.9907 54.1453H66.5825L66.5825 54.6978H67.1742L67.1742 53.5927H66.5825L66.5825 53.0403H65.399L65.399 53.5927Z" fill="#00020C"/>
    <path d="M64.2154 52.4875L63.6238 52.4875L63.6238 53.04L64.2154 53.04L64.2154 52.4875Z" fill="#00020C"/>
    <path d="M64.807 53.0403H64.2153L64.2153 53.5927H64.807L64.807 53.0403Z" fill="#00020C"/>
    <path d="M48.2391 3.86743H46.464L46.464 4.41988H48.2391L48.2391 3.86743Z" fill="#00020C"/>
    <path d="M48.8307 3.31494L48.239 3.31494L48.239 3.86738L48.8307 3.86738L48.8307 3.31494Z" fill="#00020C"/>
    <path d="M47.6476 4.97241L46.4641 4.97241L46.4641 5.52486L47.6476 5.52486L47.6476 4.97241Z" fill="#00020C"/>
    <path d="M48.2394 5.52505L47.6477 5.52505L47.6477 6.63008L48.2394 6.63008L48.2394 6.07764L48.831 6.07764L48.831 6.63008L49.4228 6.63008L49.4228 6.07764L50.0145 6.07764L50.0145 5.52505L48.831 5.52505L48.831 4.42017L48.2394 4.42017L48.2394 5.52505Z" fill="#00020C"/>
    <path d="M48.8311 6.62988L48.2395 6.62988L48.2395 7.18247L47.6478 7.18247L47.6478 7.73491L48.8311 7.73491L48.8311 8.28736L50.0146 8.28736L50.0146 7.73491L49.4229 7.73491L49.4229 7.18247L48.8311 7.18247L48.8311 6.62988Z" fill="#00020C"/>
    <path d="M49.4228 3.86743L48.8312 3.86743L48.8312 4.41988L49.4228 4.41988L49.4228 3.86743Z" fill="#00020C"/>
    <path d="M48.831 1.10498H48.2394L48.2394 1.65742H48.831L48.831 1.10498Z" fill="#00020C"/>
    <path d="M46.4642 2.7624H47.0559L47.0559 3.31499H47.6477L47.6477 2.20996H46.4642L46.4642 2.7624Z" fill="#00020C"/>
    <path d="M48.2391 1.65747L47.6475 1.65747L47.6475 2.20991L48.2391 2.20991L48.2391 1.65747Z" fill="#00020C"/>
    <path d="M48.8309 1.65718L48.8309 2.20977H50.0144L50.0144 1.10474H49.4227L49.4227 1.65718H48.8309Z" fill="#00020C"/>
    <path d="M48.8313 2.21021H48.2396L48.2396 2.76265H48.8313L48.8313 2.21021Z" fill="#00020C"/>
    <path d="M48.8311 1.10503L49.4229 1.10503L49.4229 0.552586L50.0145 0.552586L50.0145 -2.35868e-09L48.8311 0L48.8311 1.10503Z" fill="#00020C"/>
    <path d="M49.4226 2.7627H48.8309L48.8309 3.31514H49.4226L49.4226 2.7627Z" fill="#00020C"/>
    <path d="M50.0141 3.31494H49.4225L49.4225 3.86738H50.0141L50.0141 3.31494Z" fill="#00020C"/>
</svg>
