<svg width="134" height="100" viewBox="0 0 134 100" fill="none" xmlns="http://www.w3.org/2000/svg">
    <path d="M133.526 51.9651V47.5983H133.963V47.1615H133.526V45.8514H133.089V45.4147H133.526V44.9779H133.089V44.5411H133.526V44.1044H133.089V43.2311H132.652V42.7943H132.216V42.3575H131.779V42.7943H131.342V42.3575H130.469V42.7943H130.906V43.2311H130.469V42.7943H130.032V41.921H129.595V43.2311H129.159V41.921H128.722V42.7943H127.849V41.921H127.412V42.7943H126.975V43.2311H126.102V42.7943H125.665V42.3575H125.228V43.2309H124.791V42.7941H124.355V42.3574H123.918V43.6674H124.355V44.1042H123.918V43.6674H123.481V42.7941H123.044V42.3574H122.608V43.2307H123.044V43.6674H122.608V43.2307H121.734V43.6674H121.298V43.2307H120.861V43.6674H120.424V42.7941H119.987V43.2309H119.55V43.6676H118.24V43.2309H117.804V44.1042H117.367V43.2309H116.93V42.7941H116.493V44.1042H116.057V43.6674H115.622V43.2307H114.749V44.104H113.875V43.6672H113.439V44.104H113.002V43.6672H112.565V44.104H111.255V43.6672H110.382V44.104H109.945V43.6672H109.508V44.104H108.198V44.5408H107.761V43.6674H107.325V44.5408H106.888V43.6674H106.451V44.5408H106.014V44.104H105.578V44.5408H104.268V44.104H103.831V44.5408H102.521V44.104H102.084V44.5408H100.774V44.9775H100.337V44.5408H99.027V44.104H98.5903V44.9773H98.1535V44.5406H97.7168V44.9773H96.8434V44.5406H96.4067V44.9773H95.5333V44.5406H95.0966V44.9773H94.6598V45.4141H93.7865V44.9773H92.9132V45.4141H92.4764V44.9773H92.0396V45.4141H91.6029V45.8508H91.1661V44.9775H90.2928V45.4143H88.1094V45.851H87.6726V45.4143H87.2359V45.851H86.3626V45.4143H85.9258V45.851H85.489V45.4143H85.0523V46.2876H84.6155V45.8508H82.4321V46.2876H81.9954V45.8508H81.5586V44.9775H81.9954V44.5408H81.5586V42.7941H81.9954V43.6674H82.4321V44.1042H82.8689V44.541H83.3056V44.1042H83.7424V43.6674H84.1792V42.3574H83.7424V41.9206H83.3056V41.4838H83.7424V41.9206H84.1792V42.3574H85.0525V42.7941H85.4892V42.3574H85.926V41.0473H86.3627V41.484H86.7995V41.0473H87.2363V40.1739H87.673V41.0473H88.1098V40.6105H88.5465V41.0473H88.9833V40.1739H89.8566V39.3006H89.4199V38.8639H90.2932V39.3006H91.1665V38.4273H90.7298V37.9905H91.6031V38.4273H92.0398V37.9905H92.4766V37.5538H91.6033V37.117H92.04V36.6803H92.4768V37.117H92.9136V37.9903H93.3503V36.6803H92.9136V36.2435H92.4768V35.8067H92.9136V36.2435H93.3503V36.6803H93.7871V35.8069H93.3503V35.3702H93.7871V35.8069H94.2238V35.3702H94.6606V35.8069H95.0974V34.9336H95.5341V36.2437H95.9709V36.6804H96.4076V35.8071H95.9709V34.9338H96.4076V34.497H95.9709V34.0603H96.8442V34.497H97.281V35.3704H98.1543V34.9336H97.7175V34.4968H98.5909V34.0601H97.7175V33.1868H98.1543V33.6235H98.591V34.0603H99.4644V33.6235H99.0276V33.1868H98.5909V32.75H99.0276V32.3132H99.4644V31.8765H99.9011V32.3132H100.338V32.75H100.775V31.8767H101.648V31.4399H101.211V30.5666H101.648V29.6933H102.085V30.5666H102.521V31.0034H102.958V31.4401H103.395V30.5668H102.958V30.13H103.395V29.6933H103.832V28.8199H104.269V29.2567H104.705V29.6935H105.142V28.8201H105.579V28.3834H106.016V27.9466H106.452V28.8199H106.889V28.3832H107.326V28.8199H107.763V27.9466H107.326V27.0733H107.763V27.51H108.199V27.9468H108.636V27.0735H108.199V26.6367H107.763V26.2H108.636V27.0733H109.509V26.2H109.946V25.7632H110.383V25.3264H110.82V26.6365H111.256V24.4531H110.82V24.0164H111.256V24.4531H112.13V24.8899H112.566V25.3266H113.003V24.4533H112.566V23.58H112.13V23.1432H112.566V23.58H113.003V24.4533H113.44V24.0166H113.877V23.5798H113.44V22.7065H113.877V23.5798H114.313V23.143H114.75V22.7063H115.187V23.143H115.624V23.5798H116.06V23.143H116.497V22.7063H116.06V22.2695H115.622V21.8328H116.495V21.396H116.932V20.0859H116.495V19.6492H116.932V18.3391H116.495V17.4657H115.622V16.5924H115.185V16.1557H114.749V15.2823H114.312V14.409H113.875V13.9723H113.002V13.0989H112.565V12.2256H111.692V11.3523H111.255V10.9155H110.382V10.4788H109.945V10.9155H109.508V11.7888H109.071V11.3521H108.635V11.7888H108.198V13.5355H107.761V12.2254H107.324V13.0987H106.888V12.662H106.451V13.5353H106.888V14.4086H106.451V13.5353H106.014V14.8454H104.704V15.2821H104.267V15.7189H104.704V16.1557H104.267V15.7208H103.394V16.5941H102.957V17.0309H102.52V17.4677H102.084V17.0309H101.647V17.9042H101.21V18.7776H100.337V18.3408H99.9V19.2141H100.773V19.6509H99.9V19.2141H99.4632V20.0874H98.5899V20.5242H98.1531V20.961H97.2798V21.8343H96.4065V22.7076H95.9697V22.2709H95.533V23.1442H95.9697V23.5809H95.533V23.1442H95.0962V23.5809H94.6594V24.0177H93.7861V24.4545H93.3494V25.3278H92.0393V26.2011H91.6025V26.6379H91.1658V26.2011H90.729V26.6379H90.2922V27.5112H90.729V27.9479H90.2922V27.5112H89.8555V27.9479H89.4187V28.3847H88.5454V28.8215H87.2353V29.2582H87.6721V29.695H87.2353V30.1317H86.362V31.0051H85.4887V31.4418H84.6153V31.8786H84.1786V32.7519H83.7418V32.3151H83.3051V33.1885H82.8683V33.6252H82.4315V34.062H81.5582V34.9353H80.6849V35.3721H80.2481V35.8088H79.8114V36.2456H78.938V36.6824H78.0647V37.5557H77.1914V38.8658H76.7546V38.429H76.3179V38.8658H75.8811V39.3025H75.0078V40.1758H74.1345V40.6126H74.5712V41.0494H74.1345V40.6126H73.2611V41.9227H72.8244V41.4859H72.3876V41.9227H71.9509V41.4859H71.5141V42.3593H71.0774V41.9225H70.204V41.0492H69.7673V40.6124H68.8939V40.1757H69.7673V39.7389H69.3305V39.3021H68.8938V38.8654H69.7671V38.4286H69.3303V37.9919H68.8936V37.1185H69.7669V36.6818H69.3301V36.245H68.4568V36.6818H68.02V35.8085H69.3301V36.245L69.7669 36.2452V35.3719H68.4568V34.9351H69.7669V34.4984H69.3301V34.0616H69.7669V33.1883H69.3301V32.7515H69.7669V32.3148H70.2037V31.878H69.7669V31.4413H68.8936V31.0045H68.4568V31.4413H68.02V31.0045H68.4568V30.5677H69.7669V29.6944H69.3301V28.8211H69.7669V28.3843H68.4568V27.9476H70.2035V27.5108H69.7667V27.074H69.3299V26.6373H70.2033V26.2005H69.7665V25.7638H69.3298V26.2005H68.893V25.7638H69.3298V25.327H70.6398V24.8903H69.3298V24.4535H68.893V24.0167H69.3298V24.4535H69.7665V24.0167H70.2033V23.1434H68.8932V22.7067H69.3299V22.2699H68.8932V21.8331H70.2033V21.3964H69.7665V20.9596H69.3298V20.5229H68.893V20.0861H69.3298V20.5229H69.7665V20.0861H70.2033V20.5229H71.0766V20.0861H70.6398V19.6494H70.2031V19.2126H69.7663V18.7758H70.2031V18.3391H68.893V17.9023H70.2031V17.4656H69.3298V17.0288H69.7665V16.1555H68.8932V16.5922H68.4564V16.1555H68.8932V15.7208H69.3299V15.2841H69.7667V15.7208H71.0768V15.2841H70.2035V14.8473H70.6402V14.4105H69.7669V13.9738H71.077V13.537H70.6402V13.1003H70.2035V13.537H69.7667V13.1003H67.1467V13.537H66.71V13.1003H64.5266V13.537H64.9633V13.9738H64.5266V14.4105H64.0898V15.2839H64.5266V15.7206H64.9633V16.5939H64.5266V16.1572H64.0898V17.4673H65.3999V17.904H63.6532V18.3408H64.5266V18.7776H64.9633V19.2143H64.5266V19.6511H64.9633V20.0878H65.4001V20.5246H64.09V20.9613H64.5267V21.3981H64.9635V22.2714H64.0902V22.7082H64.5269V23.1449H64.9637V22.7082H65.4004V23.1449H64.9637V23.5817H64.5269V24.455H64.0902V24.8918H64.9635V25.3285H64.5267V26.2019H66.2734V26.6386H64.9633V27.0754H64.5266V28.822H64.9633V29.2588H64.5266V29.6956H64.9633V30.5689H64.5266V31.4422H64.9633V31.0054H65.4001V31.8788H64.5267V32.7521H64.9635V32.3153H66.2736V32.7521H65.4003V33.1889H64.5269V34.0622H65.4003V34.4989H64.9635V35.3723H64.5267V35.809H65.4001V36.2458H64.5267V36.6825H65.8368V37.1193H64.9635V37.5561H65.4003V37.9928H65.837V38.4296H66.2738V37.9928H67.1471V38.4296H67.5838V38.8663H67.1471V38.4296H66.2738V38.8663H65.837V38.4296H65.4003V38.8663H64.9635V39.7397H65.8368V40.1764H64.9635V41.0497H64.5267V41.4865H64.09V41.9233H61.474V41.0499H60.1639V39.7399H59.7272V40.1766H59.2904V39.7399H58.8537V38.8665H57.9803V38.4298H57.5436V38.8665H57.1068V37.5564H56.67V37.1197H55.7967V36.6829H54.4866V36.2462H54.9234V35.8094H53.6133V36.2462H53.1766V35.8094H53.6133V35.3726H54.0501V34.9359H52.74V34.0626H52.3032V33.6258H51.8665V33.189H51.4297V32.7523H50.993V33.189H50.1196V32.7523H50.5564V32.3155H50.1196V31.8788H49.2463V32.3155H48.8103V31.4422H49.2471V31.0054H48.8103V30.5687H47.937V30.1319H46.6269V28.8218H46.1901V28.3851H45.7534V28.8218H44.8801V27.5118H44.4433V27.9485H44.0065V26.6384H43.1332V26.2017H42.6964V27.075H42.2597V26.2017H42.6964V25.7649H41.8231V26.2017H41.3864V25.7649H41.8231V24.8916H40.9498V25.3284H40.513V24.8916H40.9498V24.4548H40.0765V24.0181H40.5132V23.5813H38.7666V23.1446H39.2033V22.2712H38.7666V22.708H37.4565V22.2712H37.8932V21.3979H36.5832V20.0878H35.7098V20.5246H35.2731V20.9613H34.8363V20.5246H35.2731V19.6513H34.8363V19.2145H34.3996V19.6513H33.9628V20.088H33.5261V19.2147H33.9628V18.7779H33.5261V18.3412H33.0893V18.7779H32.6525V17.0313H31.3424V17.468H30.4691V16.5947H30.9059V16.158H30.4691V15.7208H29.5958V16.1576H30.0326V16.5943H29.5958V16.1576H29.159V15.7208H29.5958V14.4107H28.7225V14.8475H28.2857V13.5374H26.5391V13.1006H25.6657V12.6639H26.1025V11.7906H25.6657V12.2273H24.7924V11.7906H25.2292V11.3538H24.3558V10.917H24.7926V10.4803H23.9193V10.917H23.0459V11.3538H22.6092V12.2271H22.1724V12.6639H21.7357V13.1006H21.2989V13.974H20.4256V14.8473H19.9888V15.2841H19.5521V16.1574H19.1153V16.5941H18.6786V17.0309H18.2418V17.9042H17.805V18.341H17.3683V19.6511H17.805V20.0878H17.3683V21.3979H17.805V21.8347H17.3683V23.1448H17.805V22.708H18.6784V22.2712H19.1151V21.8345H19.5519V22.2712H19.1151V23.5813H19.9884V23.1446H20.4252V22.7078H20.862V24.0179H22.172V24.4546H22.6088V25.328H23.0456V24.8912H23.4823V24.0179H23.9191V24.8912H23.4823V25.7645H23.0456V26.6379H23.4823V26.2011H23.9191V25.7643H24.3558V24.891H24.7926V25.7643H25.2294V26.2011H24.7926V27.0744H25.2294V26.6377H26.1027V27.0744H26.5394V26.6377H26.9762V27.511H27.413V27.0742H27.8497V26.6375H28.2865V27.0742H27.8497V27.511H27.413V28.3843H26.9762V29.2577H27.413V28.8209H27.8497V28.3841H28.2865V27.9474H28.7232V28.8207H29.5966V29.2575H29.1598V30.1308H30.0331V29.694H30.9065V30.5674H31.3432V30.1306H31.78V31.0039H31.3432V31.4407H32.2165V31.0039H32.6533V31.4407H33.5266V31.0039H33.9634V32.7506H34.8367V32.3138H34.3999V31.8771H35.2733V33.1871H36.1466V32.7504H36.5834V33.1871H36.1466V34.4972H36.5834V33.6239H37.0201V34.4972H36.5834V35.3706H37.0201V34.9338H37.4569V34.497H37.8936V34.0603H38.3304V34.9336H38.7672V35.3704H38.3304V35.8071H39.2037V36.2439H39.6405V36.6806H41.3871V37.1174H41.8239V36.2441H42.2606V35.8073H41.8239V35.3706H42.2606V35.8073H42.6974V36.2441H42.2606V37.1174H42.6974V36.6806H43.1342V37.1174H42.6974V38.4275H42.2606V38.8642H43.134V37.9909H43.5707V37.1176H44.0075V37.9909H43.5707V39.301H44.0075V38.8642H44.4442V39.7376H44.881V38.8642H45.3178V38.4275H45.7545V38.8642H45.3178V39.7376H45.7545V39.3008H46.1913V38.864H46.628V39.3008H46.1913V39.7376H45.7545V40.1743H46.1913V40.6111H47.0646V40.1743H46.6278V39.7376H47.0646V39.3008H47.5014V39.7376H47.0646V40.1743H47.5014V40.6111H47.0646V41.4844H47.9379V41.9212H48.3747V42.3579H48.8115V41.9212H49.2482V41.0478H49.685V40.6111H50.1217V41.4844H49.685V42.3577H50.1217V44.1044H50.5585V43.2311H51.4318V43.6678H51.8686V44.1046H52.3053V45.4147H52.7421V44.9779H53.6154V45.8512H54.0522V45.4145H54.4889V45.8512H54.0522V46.288H53.6154V45.8512H51.8688V45.4145H51.432V45.8512H50.1219V45.4145H49.2486V45.8512H47.9385V45.4145H44.445V44.9777H44.0083V45.4145H43.1349V44.9777H42.6982V45.4145H41.3881V44.9777H40.5148V45.4145H40.078V44.9777H39.2047V45.4145H38.7679V44.5411H38.3312V44.9779H37.8944V44.5411H37.4576V44.9779H37.0209V44.5411H34.8375V45.4145H34.4007V44.5411H32.2173V44.1044H31.7805V44.9777H31.3438V44.1044H30.907V44.5411H30.0337V44.1044H29.5969V44.5411H29.1602V44.1044H28.7234V44.5411H28.2867V44.1044H27.8499V43.6676H27.4131V44.1044H25.6665V43.6676H25.2297V44.1044H24.3564V44.5411H23.9197V44.1044H23.4829V43.6676H22.6096V44.1044H22.1728V44.5411H21.7361V43.6678H21.2993V43.2311H20.8625V43.6678H18.6791V42.7945H18.2424V43.6678H17.369V42.7945H16.9323V43.6678H15.1856V43.2311H14.7489V43.6678H14.3121V42.7945H13.4388V43.2312H13.8755V43.668H13.4388V43.2312H13.002V42.3579H12.5653V43.2312H12.1285V43.668H11.6918V43.2312H12.1285V42.7945H11.2552V43.6678H10.8184V43.2311H10.3817V42.3577H9.94491V42.7945H9.50815V42.3577H9.07139V42.7945H8.63464V44.1046H8.19788V42.3579H7.76112V42.7947H7.32589V42.3579H6.88913V43.2312H6.45237V42.7945H5.57904V42.3577H5.14229V42.7945H3.8322V41.9212H3.39544V42.3579H2.95869V43.2312H2.52193V41.9212H2.08517V42.3579H1.64841V43.2312H1.21165V45.8512H0.774893V47.5979H0.338135V48.0346H0.774893V48.4714H0.338135V48.9082H0.774893V49.3449H0.338135V49.7817H0.774893V50.655H0.338135V51.0918H0.774893V51.5285H0.338135V51.9653H0.774893V52.8386H0.338135V53.2754H0.774893V55.022H1.21165V57.642H2.08498V56.7687H2.52174V56.3319H2.95849V56.7687H3.39525V56.3319H3.83201V57.2052H4.26877V56.3319H4.70553V55.8951H5.14229V56.3319H4.70553V56.7687H5.14229V57.2054H5.57904V56.7687H6.88913V56.3319H7.32589V55.8951H7.76265V56.3319H7.32589V56.7687H7.76265V57.2054H8.1994V56.3321H8.63616V56.7689H9.50949V56.3321H9.94625V56.7689H10.383V56.3321H10.8198V55.8953H11.2565V56.3321H10.8198V56.7689H11.6931V56.3321H13.4397V55.8953H13.003V55.4586H12.5662V55.0218H13.003V55.4586H13.4397V55.8953H13.8765V56.3321H14.3133V55.8953H14.75V56.3321H15.1868V55.8953H15.6235V56.3321H16.0603V55.4588H16.4971V56.3321H17.3704V55.8953H17.8071V55.4586H18.2439V55.8953H19.1172V56.3321H19.554V55.8953H19.9907V55.4586H20.4275V56.7687H21.3008V55.8953H20.8641V55.022H21.3008V55.4588H21.7376V55.8955H22.1743V56.7689H22.6111V55.0222H23.0479V55.8955H23.4846V55.4588H24.7947V55.022H25.2315V55.8953H25.6682V56.3321H26.105V55.022H26.9783V54.5852H27.4151V55.022H26.9783V55.4588H27.4151V55.8955H28.2884V55.4588H27.8516V55.022H30.035V54.5852H30.4718V55.022H30.9086V55.4588H31.3453V55.022H32.2186V55.8953H32.6554V55.4586H33.0922V55.0218H32.6554V54.5851H33.5287V55.0218H34.8388V54.5851H35.2756V55.4584H35.7123V55.0216H36.1491V55.4584H37.0224V54.1483H37.4592V54.5851H37.8959V55.4584H38.7693V54.1483H39.206V54.5851H39.6428V55.0218H40.5161V55.4586H40.9529V54.5852H41.3896V54.1485H42.2629V55.0218H42.6997V54.5851H43.1365V53.7117H43.5732V54.5851H43.1365V55.0218H43.5732V55.8951H44.01V53.2752H44.4467V54.1485H44.8835V55.0218H45.3202V54.1485H45.757V55.0218H46.6303V54.5851H46.1936V54.1483H46.6303V54.5851H47.0671V55.0218H47.5038V54.1485H47.9406V54.5852H48.8139V55.022H49.2507V53.7119H49.6874V54.1487H50.1242V54.5854H50.561V55.0222H50.9977V54.1489H51.8711V54.5856H51.4343V55.0224H52.3076V54.1491H52.7444V53.7123H53.1811V53.2755H53.6179V53.7123H54.0546V54.5856H53.6179V55.0224H53.1811V55.4591H52.3078V56.7692H51.8711V56.3325H50.9977V57.2058H50.561V56.769H50.1242V57.6424H48.8103V58.0791H47.937V58.5159H47.5002V58.9526H46.6269V59.3894H46.1901V59.8262H45.7534V60.2629H44.4433V60.6997H43.57V61.573H43.1332V62.0098H42.2599V61.573H41.8231V62.4463H41.3864V63.3197H40.9496V62.8829H40.5128V63.3197H39.6395V64.193H38.7662V63.7562H38.3294V65.0663H37.0194V65.5031H36.146V65.9398H35.7093V66.3766H34.3992V67.2499H33.5259V67.6867H33.0891V67.2499H32.6523V68.1232H32.2156V68.56H31.3423V68.9967H30.9055V68.56H30.4687V69.4333H30.9055V69.8701H30.4687V69.4333H29.5954V69.8701H29.1587V70.7434H27.8486V71.1802H27.4118V71.6169H26.9751V72.0537H25.2284V73.3638H24.7916V72.4904H24.3549V72.9272H23.9181V73.8005H22.608V74.6738H22.1713V74.2371H21.298V74.6738H21.7347V75.1106H20.8614V75.5474H21.2981V75.9841H20.8614V75.5474H19.5513V76.4207H19.1145V75.9839H18.6778V76.8572H19.1145V77.294H18.6778V76.8572H17.8045V79.0407H17.3677V79.4774H17.8045V80.7875H18.6778V81.2243H18.241V82.0976H18.6778V82.5344H19.1145V82.9711H19.5513V83.4079H19.9881V83.8446H19.1147V84.2814H19.5515V84.7181H19.9883V84.2814H20.425V84.7181H21.2983V85.1549H20.8616V85.5917H20.4248V86.0284H20.8616V86.4652H21.2983V86.0284H21.7351V86.4652H22.1719V86.9019H22.6086V87.3387H23.0454V87.7755H23.4821V87.3387H23.9189V88.212H24.7922V87.3387H25.229V86.9019H25.6657V87.7753H26.1025V87.3385H26.5392V86.9017H26.1025V86.465H26.9758V86.0282H26.5391V85.5915H26.9758V85.1547H27.4126V85.5915H28.2859V84.7181H28.7227V84.2814H28.2859V83.8446H27.8491V83.4079H28.2859V83.8446H28.7227V84.2814H29.1594V83.8446H30.0327V82.5326H30.4695V82.9694H30.9063V83.4062H31.343V83.8429H32.2163V83.4062H31.7796V82.9694H31.3428V82.5326H30.9061V82.0959H30.4693V81.6591H30.9061V82.0959H31.7794V81.6591H32.2162V82.0959H32.6529V80.7858H33.0897V80.349H35.2731V79.9123H34.8363V79.4755H35.7097V79.9123H36.1464V79.0389H35.2731V78.6022H35.7098V78.1654H35.2731V77.7287H35.7098V78.1654H36.1466V78.6022H37.0199V78.1654H36.5832V77.7287H36.1464V77.2919H36.5832V77.7287H37.0199V78.1654H37.4567V76.8554H37.8934V77.2921H38.3302V77.7289H38.767V76.8555H38.3302V76.4188H38.767V76.8555H39.6403V76.4188H39.2035V75.982H38.7668V75.5453H39.2035V75.982H40.5136V75.5453H40.0769V75.1085H39.6401V74.6718H40.9502V75.1085H41.8235V74.2352H41.3867V73.7984H41.8235V74.2352H42.2603V73.7984H42.697V73.3617H42.2603V72.4883H42.697V72.0516H43.1338V72.4883H43.5705V72.9251H44.0073V72.0518H44.4441V71.1784H44.0073V70.7417H44.4441V71.1784H44.8808V71.6152H45.3176V70.7419H44.8808V70.3051H45.3176V70.7419H45.7543V69.8685H45.3176V69.4318H45.7543V69.8685H46.1911V70.3053H47.0644V69.8685H47.5012V70.3053H48.3745V69.432H47.5012V68.5587H48.3745V68.9954H48.8113V68.1221H49.6846V67.6853H50.1213V67.2486H51.4314V66.8118H51.8682V67.2486H52.3049V66.3752H51.4316V65.9385H50.9949V65.5017H51.8682V65.9385H52.7415V65.5017H52.3048V64.6284H52.7415V65.5017H53.1783V65.9385H53.615V65.0652H54.0518V64.6284H53.615V64.1916H53.1783V63.7549H53.615V64.1916H54.0518V64.6284H54.9251V64.1916H54.4884V63.7549H54.0516V63.3181H54.4884V62.4448H54.9251V62.8816H55.3619V63.7549H55.7986V63.3181H56.2354V62.8814H56.6721V63.3181H57.1089V62.4448H56.6721V62.008H57.1089V62.4448H57.5457V62.008H58.419V61.5713H57.5457V61.1345H57.1089V60.6978H57.5457V61.1345H59.2923V60.6978H58.8556V60.261H58.4188V59.3877H58.8556V60.261H59.7289V59.8242H60.1656V59.3875H60.6024V59.8242H61.4757V59.3875H61.039V58.9507H60.6022V58.514H60.1655V58.0772H60.6022V58.514H61.039V58.9507H61.4757V58.514H61.9125V58.9507H62.3492V58.514H62.786V58.9507H64.5327V59.3875H64.9694V59.8242H64.5327V60.6976H64.9694V61.1343H65.4062V61.5711H66.2795V62.0079H65.4062V61.5711H64.9694V62.4444H66.2795V62.8812H64.9694V63.7545H66.2795V64.1913H64.5329V64.628H64.9696V65.0648H65.4064V65.5015H64.9696V65.0648H64.5329V65.9381H65.8429V66.3749H65.4062V66.8116H64.0961V67.2484H64.5329V68.1217H64.9696V68.995H65.4064V69.4318H64.533V69.8685H64.9698V70.3053H65.8431V71.1786H65.4064V71.6154H64.0963V72.0521H64.9696V72.9255H64.5329V73.3622H64.9696V74.2356H64.5329V74.6723H63.6595V75.1091H64.5329V75.5458H64.9696V75.1091H65.8429V75.9824H64.9696V76.4192H64.0963V76.8559H65.4064V77.2927H65.8431V77.7294H64.9698V77.2927H64.533V78.6028H64.9698V79.4761H64.533V79.9128H65.4064V80.3496H64.533V79.9128H64.0963V80.7862H64.9696V81.2229H64.0963V81.6597H64.9696V82.0965H63.223V82.5332H69.7732V81.6599H69.3364V81.2231H71.0831V80.7864H70.2098V80.3496H69.3364V80.7864H68.8997V80.3496H69.3364V79.9128H70.2098V79.0395H69.3364V78.6028H69.7732V77.2927H70.6465V76.4194H70.2098V76.8561H69.3364V76.4194H68.8997V75.9826H68.4629V75.1093H69.3362V75.546H68.8995V75.9828H70.2096V75.1095H69.7728V74.2361H68.8995V73.7994H69.3362V73.3626H69.773V73.7994H70.2098V72.4893H67.153V72.926H66.7163V72.4893H66.2795V72.0525H69.3362V71.6158H69.773V71.179H70.2098V70.3057H69.773V69.8689H69.3362V69.4322H69.773V68.9954H68.8997V68.5587H68.4629V68.9954H68.0261V68.5587H68.4629V68.1219H69.3362V67.6851H69.773V67.2484H70.2098V66.8116H69.3364V67.2484H68.0263V66.8116H68.8997V66.3749H69.3364V64.1914H69.7732V63.7547H68.8999V63.3179H69.7732V62.8812H68.4631V62.4444H68.0263V62.0077H68.4631V62.4444H69.3364V62.0077H68.8997V61.5709H69.773V60.6976H68.4629V60.2608H69.773V59.8241H70.2098V59.3873H70.6465V58.9505H71.5198V58.5138H71.9566V58.077H72.8299V58.5138H71.9566V58.9505H72.3933V59.3873H73.7034V59.8241H74.1402V59.3873H75.0135V59.8241H74.1402V60.2608H75.4503V59.8241H75.887V60.2608H75.4503V60.6976H75.0135V61.1343H75.4503V61.5711H75.887V61.1343H76.3238V60.6976H76.7606V60.2608H77.6339V60.6976H77.1971V61.1343H76.7604V61.5711H76.3236V62.0079H77.1969V61.5711H77.6337V62.0079H77.1969V62.4446H78.0703V62.0079H78.507V62.4446H78.0703V62.8814H78.9436V62.4446H79.3803V62.0079H79.8171V62.4446H79.3803V62.8814H78.9436V63.3181H78.5068V63.7549H78.9436V64.1916H79.3803V63.7549H79.8171V63.3181H80.2539V63.7549H79.8171V64.1916H79.3803V64.6284H81.127V63.7551H82.0003V64.1918H81.5636V64.6286H81.1268V65.5019H81.5636V65.9387H82.4369V65.5019H82.8736V65.9387H82.4369V66.3754H83.3102V66.8122H82.8735V67.249H83.7468V66.8122H84.1835V68.5588H83.7468V68.9956H85.0569V68.1223H84.6201V67.6855H85.0569V68.1223H85.4936V68.559H85.9304V69.4324H86.3671V68.9956H86.8039V69.8689H86.3671V70.3057H87.2405V69.4324H88.1138V69.8691H87.677V70.3059H87.2403V71.1792H87.677V70.7425H88.9871V71.6158H89.4239V71.179H89.8606V70.7423H90.734V71.179H90.2972V71.6158H89.8604V72.0525H90.2972V72.4893H90.734V72.0525H91.6073V72.4893H91.1705V72.926H90.7338V73.7994H91.1705V73.3626H91.6073V72.9259H92.0441V72.4891H92.4808V72.9259H92.0441V73.3626H91.6073V73.7994H92.4806V73.3626H92.9174V73.7994H92.4806V74.2361H93.3539V73.3628H93.7907V74.2361H93.3539V74.6729H94.2273V74.2361H94.664V74.6729H94.2273V75.5462H95.1006V74.6729H95.5374V75.5462H95.1006V75.983H94.6638V76.8563H95.1006V76.4195H95.5374V75.9828H96.4107V76.4195H95.9739V76.8563H95.5372V77.2931H96.4105V76.8563H96.8472V77.2931H97.7206V77.7298H98.1573V78.1666H97.7206V79.0399H98.1573V78.6031H99.0307V77.7298H99.4674V78.6031H99.0307V79.0399H99.904V78.1666H100.777V78.6033H100.341V79.0401H99.9038V79.9134H99.467V80.3502H100.34V79.9134H100.777V80.7868H101.214V81.6601H101.651V81.2233H102.087V80.7866H102.524V82.0966H103.397V81.6599H103.834V82.5332H102.961V82.97H103.398V83.8433H103.834V83.4065H104.271V82.9698H104.708V83.4065H105.145V84.2799H105.581V83.8431H106.455V84.2799H106.018V84.7166H105.581V85.1534H105.145V85.5901H106.018V85.1534H106.455V84.7166H107.328V85.1534H106.891V86.0267H106.454V86.4635H107.328V85.5901H108.201V86.0269H108.638V86.4637H109.511V86.0269H109.948V86.4637H109.511V86.9004H109.074V87.3372H108.638V88.2105H109.074V87.7737H109.511V88.2105H109.948V87.7737H110.385V87.337H110.821V87.7737H110.385V88.6471H111.258V87.7737H111.695V87.337H113.005V86.9002H112.132V86.4635H112.568V86.0267H113.005V85.5899H113.442V84.7166H113.879V84.2799H114.752V82.9698H115.189V82.5326H115.625V82.0959H116.062V80.7858H116.499V79.9125H116.062V80.3492H115.622V79.9125H116.059V79.4757H115.622V79.0389H116.059V78.6022H116.496V79.0389H116.059V79.4757H116.932V77.7291H116.495V78.1658H116.059V77.7291H115.622V76.8557H116.059V76.419H115.186V77.2923H114.749V77.7291H114.312V77.2923H114.749V76.419H115.186V75.9822H113.875V75.5455H114.312V74.6721H113.875V75.1089H113.002V75.9822H112.565V75.5455H112.129V75.1087H112.565V74.2354H111.255V75.1087H110.382V74.6719H109.945V74.2352H110.382V73.3619H109.509V72.9251H108.635V72.4883H107.325V72.0516H106.888V72.4883H106.452V71.615H106.888V71.1782H106.452V70.7415H105.578V70.3047H105.142V70.7415H104.705V70.3047H103.832V69.868H103.395V68.9947H102.521V68.5579H102.085V69.4312H101.648V68.5579H102.085V68.1211H101.211V67.6844H101.648V67.2476H100.775V67.6844H100.338V68.1211H99.9013V67.6844H99.4646V67.2476H99.9013V66.3743H99.4646V66.811H99.0278V66.3743H98.1545V65.9375H96.8444V65.0642H97.2811V64.1909H96.8444V64.6276H96.4076V65.0644H95.9709V64.6276H95.5341V63.7543H95.0974V64.6276H94.6606V63.7543H93.7873V62.4442H93.3505V63.3176H92.9137V62.8808H92.0404V62.444H92.4772V62.0073H91.6039V61.5705H91.1671V61.1338H90.7303V61.5705H90.2936V61.1338H90.7303V60.697H90.2936V60.2602H89.8568V60.697H89.4201V60.2602H88.9833V59.3869H88.5465V59.8237H88.1098V59.3869H86.7997V58.5136H85.4896V58.0768H85.0529V57.6401H84.6161V57.2033H83.306V56.33H82.8693V56.7668H82.4325V55.8934H81.5592V55.4567H81.1224V54.5833H80.6857V55.0201H80.2489V55.4569H79.8121V55.0201H79.3754V54.5833H79.8121V54.1466H81.9955V55.0199H82.4323V54.1466H82.8691V53.2733H83.3058V54.1466H83.7426V55.0199H85.0527V54.1466H84.6159V54.5833H84.1792V54.1466H84.6159V53.7098H85.0527V54.1466H85.4894V54.5833H85.9262V54.1466H86.7995V54.5833H86.3627V55.0201H86.7995V55.8934H87.2363V54.5833H87.673V54.1466H88.1098V54.5833H88.5465V55.0201H88.9833V54.5833H89.4201V55.0201H91.1667V54.1468H91.6035V55.4569H92.0402V54.5835H92.9136V53.7102H93.3503V54.147H93.7871V54.5837H94.2238V55.0205H94.6606V54.5837H95.0974V55.0205H95.5341V54.5837H95.9709V55.4571H96.4076V53.7104H96.8444V55.4571H97.2811V54.5837H97.7179V54.147H98.1547V54.5837H98.5914V55.0205H98.1547V55.4572H99.028V54.5839H99.4647V55.0207H99.9015V55.4574H100.338V55.0207H101.648V55.4574H101.212V55.8942H102.085V55.4574H102.522V55.0207H102.958V54.5839H103.395V55.0207H103.832V54.5839H104.269V55.0207H103.832V55.4574H104.269V56.3308H104.705V55.4574H105.142V54.5841H105.579V55.0209H106.452V55.4576H106.889V55.0209H107.762V56.3309H108.199V55.0209H109.072V55.4576H109.946V55.0209H110.383V55.4576H109.946V55.8944H110.383V56.7677H110.819V55.4576H111.256V55.8944H111.693V56.3311H112.566V55.8944H112.129V55.4576H113.003V56.3309H113.439V55.8942H113.876V56.3309H114.313V55.8942H114.75V55.4574H115.187V55.8942H114.75V56.7675H115.187V56.3308H115.623V55.4574H116.06V55.8942H116.497V56.3309H116.934V55.8942H117.37V56.7675H117.807V56.3308H118.244V55.894H117.807V55.4572H118.244V55.894H118.681V55.4572H119.117V55.894H118.681V56.7673H120.427V56.3306H119.554V55.8938H120.427V56.3306H121.301V55.8938H121.737V56.3306H122.174V56.7673H121.737V57.2041H122.611V56.3308H123.484V55.894H123.921V56.3308H123.484V56.7675H123.921V57.2043H124.357V56.3309H125.231V56.7677H125.668V57.2045H126.104V55.4578H126.541V57.6412H126.978V56.3311H127.415V55.8944H127.851V56.3311H128.288V57.2045H128.725V56.7677H129.162V56.3309H130.472V56.7677H131.345V57.2045H131.782V56.7677H133.092V56.3309H133.529V55.8942H133.092V55.4574H133.529V54.1473H133.965V53.7106H133.529V52.4005H133.092V51.9637H133.526V51.9651ZM114.749 21.8343H115.186V22.271H114.749V21.8343ZM109.945 11.354H110.382V11.7908H110.819V12.6641H110.382V11.7908H109.945V11.354ZM105.142 15.2842H105.579V15.721H105.142V15.2842ZM102.958 17.9042H103.395V18.341H102.958V17.9042ZM89.4214 37.5547H90.2947V38.4281H89.858V37.9913H89.4212L89.4214 37.5547ZM87.238 30.5679H87.6747V31.0047H87.238V30.5679ZM65.8408 30.5679H65.4041V30.1312H65.8408V30.5679ZM65.8408 27.9478H64.9675V27.511H65.8408V27.9478ZM20.4262 20.961H19.9894V20.5242H20.4262V20.961ZM22.1728 23.1444V22.7076H22.6096V23.1444H22.1728ZM23.0463 24.0177H22.6096V23.5809H23.0463V24.0177ZM25.6663 13.9742H25.2295V13.5374H25.6663V13.9742ZM30.9065 29.2578H30.4697V28.8211H30.9065V29.2578ZM39.6401 35.3713H39.2033V34.9346H39.6401V35.3713ZM40.5134 36.2446H40.0767V35.8079H40.5134V36.2446ZM52.3038 42.3583H51.867V42.7951H51.4303V42.3583H51.867V41.9215H52.3038V42.3583ZM53.6137 44.5417H53.1769V43.6684H53.6137V44.5417ZM4.70572 43.6682H3.83239V43.2314H4.70572V43.6682ZM9.94587 55.8953H9.50911V55.4586H9.94587V55.8953ZM9.94587 54.5852H9.50911V54.1485H9.94587V54.5852ZM10.3826 44.105H9.94587V43.6682H10.3826V44.105ZM14.7494 55.0218H14.3127V54.5851H14.7494V55.0218ZM18.6795 55.0218H18.2428V54.5851H18.6795V55.0218ZM23.9197 55.0218H23.4829V54.5851H23.9197V55.0218ZM46.1901 46.2884H45.7534V45.8516H46.1901V46.2884ZM20.8629 77.2925H20.4262V76.8557H20.8629V77.2925ZM24.3562 74.6725H23.9195V74.2357H24.3562V74.6725ZM31.7798 81.2225H31.343V80.7858H31.7798V81.2225ZM34.8365 68.1223H34.3998V67.6855H34.8365V68.1223ZM44.4435 69.4324H44.0067V68.9956H44.4435V69.4324ZM53.6137 62.8821H53.1769V62.4454H53.6137V62.8821ZM54.487 44.5417V44.9785H54.0503V44.5417H54.487V44.105H54.9238V44.5417H54.487ZM54.9238 54.1485V53.2752H55.3605V54.1485H54.9238ZM55.7971 62.4454H55.3603V62.0086H55.7971V62.4454ZM56.2339 46.2884H55.7971V45.8516H56.2339V46.2884ZM57.1072 53.2752H56.6704V52.8384H57.1072V53.2752ZM57.9805 46.7249H57.5438V46.2882H57.9805V46.7249ZM58.4173 40.1749H58.854V40.6117H58.4173V40.1749ZM58.8538 52.4018H58.4171V51.9651H58.8538V52.4018ZM58.8538 47.1617H59.2906V46.7249H59.7274V47.1617H59.2906V47.5984H58.8538V47.1617ZM59.2906 50.6552V50.2184H59.7274V49.7817H60.1641V50.2184H59.7274V50.6552H59.2906ZM60.1639 51.5285V51.9653H59.7272V51.5285H60.1639ZM60.1639 55.8953H59.7272V55.4586H60.1639V55.8953ZM61.0373 56.7687H60.6005V56.3319H61.0373V56.7687ZM61.0373 55.0218H60.6005V54.1485H60.1637V53.2752H60.6005V54.1485H61.0373V55.0218ZM61.0373 50.6552H60.6005V50.2184H61.0373V50.6552ZM61.474 48.035H60.6007V47.5983H61.474V48.035ZM65.8408 74.2357H65.4041V73.799H65.8408V74.2357ZM65.8408 72.9257H65.4041V72.0523H65.8408V72.9257ZM68.8976 77.2925H69.3343V77.7293H68.8976V77.2925ZM67.1507 73.799H68.4608V74.2357H67.1507V73.799ZM67.1507 75.1091H67.5875V75.5458H67.1507V75.1091ZM66.7142 75.1091V75.5458H66.2774V75.1091H66.7142ZM68.8976 70.7423H69.3343V71.179H68.8976V70.7423ZM73.701 47.1617H74.1377V48.4718H73.701V47.1617ZM74.1377 51.9651V52.4018H73.701V51.9651H74.1377ZM72.8276 51.0918H73.2644V50.2184H73.7011V51.0918H73.2644V51.5285H72.8276V51.0918ZM71.5175 50.2184V51.0918H71.9543V51.5285H71.5175V51.0918H71.0808V50.655H70.644V49.7817H71.0808V50.2184H71.5175ZM71.081 49.3451H70.6442V48.4718H71.081V49.3451ZM70.2075 46.7249H70.6442V47.1617H70.2075V46.7249ZM67.5875 51.5285V51.0918H66.7142V50.655H65.8408V49.7817H66.2776V50.2184H66.7143V49.7817H67.1511V50.2184H66.7143V50.6552H67.5877V51.0919H68.0244V50.6552H68.4612V51.5285H69.3345V51.9653H68.8978V52.402H68.461V51.5287L67.5875 51.5285ZM66.7142 53.2752V52.8384H67.5875V53.2752H66.7142ZM67.5875 53.7119V54.1487H67.1507V53.7119H67.5875ZM67.1507 52.4018V51.9651H66.714V51.5283H67.1507V51.9651H67.5875V52.4018H67.1507ZM65.4041 51.5285V51.0918H66.2774V51.5285H65.4041ZM66.2774 51.9651V52.8384H65.8406V53.2752H65.4039V52.8384H65.8406V51.9651H66.2774ZM67.1507 47.5984V47.1617H68.0241V48.035H68.4608V48.4718H68.0241V48.035H67.5873V47.5983L67.1507 47.5984ZM68.0242 49.3451V48.9083H68.461V49.7817H68.0242V50.2184H67.5875V49.3451H68.0242ZM69.3341 47.5984V48.0352H68.8974V47.5984H68.4606V46.7251H68.8974V47.5984H69.3341ZM68.8976 49.3451V48.9083H69.3343V49.3451H68.8976ZM69.3341 50.6552H69.7709V50.2184H69.3341V49.7817H70.2075V50.655H69.7707V51.0918H69.3339L69.3341 50.6552ZM69.7709 51.9651H70.2077V51.5283H70.6444V52.4016H70.2077V52.8384H69.7709V51.9651ZM69.7709 47.5984H70.2077V48.0352H69.7709V47.5984ZM68.8976 43.6682V44.105H68.4608V43.6682H68.8976ZM68.4608 42.3583V42.7951H68.0241V42.3583H68.4608ZM68.0242 35.3713H67.5875V34.9346H68.0242V35.3713ZM67.5875 13.5374H68.0242V13.9742H67.5875V13.5374ZM67.5875 14.4107H68.4608V14.8475H67.5875V14.4107ZM65.4041 16.1576H65.8408V16.5943H65.4041V16.1576ZM65.4041 18.7776H65.8408V19.2143H65.4041V18.7776ZM66.2774 23.1444H65.8406V22.7076H66.2774V23.1444ZM66.2774 15.7208H66.7142V16.5941H66.2774V15.7208ZM66.7142 26.6379V26.2011H68.0242V26.6379H66.7142ZM67.5875 46.2884V45.8516H68.0242V45.4149H68.8976V45.8516H69.3343V46.2884H68.8976V45.8516H68.4608V46.2884H67.5875V46.7251H66.7142V47.1619H66.2774V47.5986H66.7142V48.472H67.5875V48.9087H66.7142V49.3455H65.4041V49.7822H64.9673V49.3455H65.4041V48.9087H66.7142V48.472H66.2774V47.5986H65.8406V48.0354H64.9673V47.5986H65.4041V47.1619H66.2774V46.2886L67.5875 46.2884ZM64.5307 52.4018V51.9651H64.094V51.5283H64.9673V52.4016L64.5307 52.4018ZM64.9673 54.1485V54.5852H64.5306V54.1485H64.9673ZM63.6574 52.8386H64.0942V53.7119H63.6574V52.8386ZM63.2207 51.5285V51.0918H63.6574V51.5285H63.2207ZM63.6574 49.7819V49.3451H64.0942V49.7819H64.5309V50.6552H64.0942V49.7819H63.6574ZM64.5307 48.9083V48.4716H64.9675V48.9083H64.5307ZM66.7142 39.3016H67.1509V39.7383H66.7142V39.3016ZM66.2774 41.4848H66.7142V41.9215H66.2774V41.4848ZM64.5307 45.8516H65.8408V45.4149H66.7142V45.8516H65.8408V46.2884H64.9675V46.7251H64.5307V45.8516ZM62.7841 48.4718H63.2209V48.035H64.0942V47.5983H64.5309V48.035H64.0942V48.4718H63.2209V49.3451H62.7841V48.4718ZM63.2207 54.1485V55.0218H62.7839V54.1485H63.2207ZM62.3473 49.7819H62.7841V50.6552H62.3473V49.7819ZM62.3473 54.5852H61.9106V53.7119H62.3473V54.5852ZM62.3473 53.2752V52.4018H62.7841V53.2752H62.3473ZM63.2207 56.7687H62.7839V56.3319H63.2207V56.7687ZM63.2207 55.4586H63.6574V55.8953H63.2207V55.4586ZM64.5307 57.642H64.094V57.2052H63.6572V56.7685H64.094V57.2052H64.5307V57.642ZM64.5307 56.3319V55.8951H64.9675V56.3319H64.5307ZM65.8408 58.9521H65.4041V58.5153H65.8408V58.9521ZM65.8408 58.0787H65.4041V57.642H64.9673V57.2052H65.4041V57.642H65.8408V58.0787ZM65.8408 55.0218V54.5851H66.2776V54.1483H65.4043V53.7115H66.7143V55.0216L65.8408 55.0218ZM66.2774 60.262H66.7142V60.6987H66.2774V60.262ZM67.1507 68.9956H66.714V68.5588H67.1507V68.9956ZM68.0242 57.2052H67.5875V56.7685H66.7142V56.3317H67.5875V56.7685H68.0242V57.2052ZM68.0242 55.8953H67.1509V55.4586H68.0242V55.8953ZM68.0242 55.0218H67.1509V54.5851H68.0242V55.0218ZM68.8976 58.9521H68.4608V58.5153H68.8976V58.9521ZM68.8976 54.5852H68.4608V54.1485H68.8976V53.7117H68.0242V53.275H68.8976V53.7117H69.3343V53.275H69.7711V53.7117H69.3343V54.1485H68.8976V54.5852ZM69.7709 54.5852V55.022H69.3341V54.5852H69.7709ZM70.2075 58.5153H69.3341V58.0786H69.7709V57.6418H70.2077L70.2075 58.5153ZM70.2075 57.2052H69.7707V56.7685H70.2075V57.2052ZM70.2075 56.3319V55.8951H70.6442V56.3319H70.2075ZM71.5175 57.2052H71.0808V57.642H70.644V57.2052H71.0808V56.7685H71.5175V57.2052ZM71.081 53.2752V53.7119H70.2077V53.2752H71.081V52.8384H71.9543V53.2752H71.081ZM72.3909 56.3319H71.9541V55.8951H72.3909V56.3319ZM72.3909 52.8386V51.9653H72.8276V52.8386H72.3909ZM72.8276 54.1485H73.2644V54.5852H72.8276V54.1485ZM74.5743 57.642H74.1375V57.2052H74.5743V57.642ZM74.5743 56.3319H74.1375V56.7687H73.7008V57.2054H73.264V56.3321H73.7008V55.8953H74.5741L74.5743 56.3319ZM74.5743 49.7819H74.1375V49.3451H74.5743V49.7819ZM75.011 52.4018H75.4478V52.8386H75.011V52.4018ZM75.8844 54.1485H75.011V53.7117H75.8844V54.1485ZM76.3211 52.8386H75.8844V52.4018H76.3211V52.8386ZM114.312 82.0961H114.749V82.5328H114.312V82.0961ZM113.439 78.6026H113.875V79.0393H113.439V78.6026ZM113.439 83.406H113.875V83.8427H113.439V83.406ZM110.382 86.0261H110.819V86.8995H110.382V86.0261ZM108.199 73.799H108.635V74.2357H108.199V73.799ZM108.199 84.716H107.762V84.2793H108.199V84.716ZM107.325 81.6593H107.762V82.0961H107.325V81.6593ZM105.142 71.179H105.579V71.6158H105.142V71.179ZM102.958 80.786H103.395V81.2227H102.958V80.786ZM78.5043 61.1355H78.0676V60.6987H78.5043V61.1355ZM78.9411 60.262H78.5043V59.8252H78.9411V60.262ZM79.3779 46.7249H78.9411V46.2882H79.3779V46.7249ZM80.2512 45.8516V45.4149H79.8144V44.9781H80.2512V44.5413H80.6879V45.8514H81.1247V46.2882H80.6879V45.8514L80.2512 45.8516ZM81.9978 53.2752H81.5611V52.8384H81.1243V52.4016H81.5611V52.8384H81.9978V53.2752ZM86.8014 53.7119H86.3647V53.2752H86.8014V53.7119ZM90.2947 54.5852H89.858V54.1485H90.2947V54.5852ZM102.085 45.415H101.648V44.9783H102.085V45.415ZM109.072 44.9783H108.635V44.5415H109.072V44.9783ZM110.382 44.9783H109.945V44.5415H110.382V44.9783ZM113.875 55.4586H113.439V55.0218H113.875V55.4586ZM116.495 44.9783H116.059V44.5415H116.495V44.9783ZM121.299 54.5852H120.862V54.1485H121.299V54.5852ZM125.229 44.105H124.792V43.6682H125.229V44.105ZM128.286 43.6682H127.849V43.2314H128.286V43.6682ZM129.159 55.8953H128.722V55.4586H129.159V55.8953ZM130.033 55.4586H129.596V55.0218H130.033V55.4586ZM130.906 55.8953H130.469V55.4586H130.906V55.8953ZM131.343 43.6682V43.2314H131.779V43.6682H131.343ZM132.216 44.5417H131.779V44.105H132.216V44.5417Z" fill="#00020C"/>
    <path d="M53.1771 65.9392H52.7404V66.376H53.1771V65.9392Z" fill="#00020C"/>
    <path d="M54.4872 65.0657H54.0504V65.5024H54.4872V65.0657Z" fill="#00020C"/>
    <path d="M60.1639 60.2622H59.7272V60.699H60.1639V60.2622Z" fill="#00020C"/>
    <path d="M49.2471 68.9956H48.8103V69.4324H49.2471V68.9956Z" fill="#00020C"/>
    <path d="M47.5004 70.3059H47.0637V70.7427H47.5004V70.3059Z" fill="#00020C"/>
    <path d="M46.1903 72.0525H45.7535V72.4892H46.1903V72.0525Z" fill="#00020C"/>
    <path d="M50.1204 68.1228H49.6837V68.5596H50.1204V68.1228Z" fill="#00020C"/>
    <path d="M107.762 71.6162H108.199V71.1794H107.762V70.7427H107.325V72.0528H107.762V71.6162Z" fill="#00020C"/>
    <path d="M106.015 69.8691H105.578V70.3059H106.015V69.8691Z" fill="#00020C"/>
    <path d="M70.2076 68.5591H69.7709V68.9958H70.2076V68.5591Z" fill="#00020C"/>
    <path d="M77.1944 62.4453H76.7577V62.8821H77.1944V62.4453Z" fill="#00020C"/>
    <path d="M105.142 69.4326H104.705V70.3059H105.142V69.4326Z" fill="#00020C"/>
    <path d="M64.5308 68.9956H64.094V69.4324H64.5308V68.9956Z" fill="#00020C"/>
    <path d="M71.9543 58.9524H71.5176V59.3891H71.9543V58.9524Z" fill="#00020C"/>
    <path d="M64.0942 75.9824H63.6574V76.4192H64.0942V75.9824Z" fill="#00020C"/>
    <path d="M46.6269 70.7427H45.7536V71.1794H46.6269V70.7427Z" fill="#00020C"/>
    <path d="M127.849 56.332H127.412V56.7688H127.849V56.332Z" fill="#00020C"/>
    <path d="M107.325 55.459H106.888V55.8957H107.325V55.459Z" fill="#00020C"/>
    <path d="M106.015 55.8958H105.578V56.3325H106.015V55.8958Z" fill="#00020C"/>
    <path d="M103.832 55.459H103.395V55.8957H103.832V55.459Z" fill="#00020C"/>
    <path d="M133.089 57.2051H132.216V57.6418H133.089V57.2051Z" fill="#00020C"/>
    <path d="M129.159 57.2054H130.032V57.6421H130.469V56.7688H129.159V57.2054Z" fill="#00020C"/>
    <path d="M98.1551 55.459H97.7183V55.8957H98.1551V55.459Z" fill="#00020C"/>
    <path d="M131.343 57.2051H130.906V58.0784H131.343V57.2051Z" fill="#00020C"/>
    <path d="M89.4214 55.0217H88.9846V55.4585H89.4214V55.0217Z" fill="#00020C"/>
    <path d="M96.845 55.459H96.4082V56.3323H96.845V55.459Z" fill="#00020C"/>
    <path d="M88.1116 54.5852H87.6748V55.022H88.1116V54.5852Z" fill="#00020C"/>
    <path d="M103.832 68.5591H103.395V68.9958H103.832V68.5591Z" fill="#00020C"/>
    <path d="M99.0284 65.502H98.155V65.9387H99.0284V65.502Z" fill="#00020C"/>
    <path d="M94.225 55.0217H93.7882V55.4585H94.225V55.0217Z" fill="#00020C"/>
    <path d="M78.0678 62.8821H77.631V63.3188H78.0678V62.8821Z" fill="#00020C"/>
    <path d="M93.7882 54.5852H93.3514V55.022H93.7882V54.5852Z" fill="#00020C"/>
    <path d="M82.8713 67.2493H82.4346V67.686H82.8713V67.2493Z" fill="#00020C"/>
    <path d="M109.945 89.0825H109.509V89.5193H109.945V89.0825Z" fill="#00020C"/>
    <path d="M101.212 81.6594H100.775V82.0962H101.212V81.6594Z" fill="#00020C"/>
    <path d="M98.5917 79.4763H97.7183V79.9131H98.5917V79.4763Z" fill="#00020C"/>
    <path d="M104.705 84.7166H104.268V85.1533H104.705V84.7166Z" fill="#00020C"/>
    <path d="M99.0284 79.0396H98.5916V79.4763H99.0284V79.0396Z" fill="#00020C"/>
    <path d="M95.535 77.2922H95.0983V77.729H95.535V77.2922Z" fill="#00020C"/>
    <path d="M97.7183 77.7295H97.2816V78.1662H97.7183V77.7295Z" fill="#00020C"/>
    <path d="M96.845 77.2922H96.4082V78.1656H96.845V77.2922Z" fill="#00020C"/>
    <path d="M110.382 88.6462H109.945V89.083H110.382V88.6462Z" fill="#00020C"/>
    <path d="M104.705 83.406H104.269V83.8428H104.705V83.406Z" fill="#00020C"/>
    <path d="M108.635 86.4631H108.199V86.8999H108.635V86.4631Z" fill="#00020C"/>
    <path d="M105.142 84.2793H104.705V84.716H105.142V84.2793Z" fill="#00020C"/>
    <path d="M129.596 58.0789H129.159V58.5156H129.596V58.0789Z" fill="#00020C"/>
    <path d="M107.762 86.4631H107.325V86.8999H107.762V86.4631Z" fill="#00020C"/>
    <path d="M94.6615 76.856H93.7882V77.2927H94.6615V76.856Z" fill="#00020C"/>
    <path d="M109.509 88.21H109.072V88.6467H109.509V88.21Z" fill="#00020C"/>
    <path d="M94.225 75.5461H93.7882V75.9829H94.225V75.5461Z" fill="#00020C"/>
    <path d="M110.819 72.9263H110.382V73.363H110.819V72.9263Z" fill="#00020C"/>
    <path d="M111.255 73.7993H110.818V74.2361H111.255V73.7993Z" fill="#00020C"/>
    <path d="M111.255 72.4893H110.818V72.926H111.255V72.4893Z" fill="#00020C"/>
    <path d="M116.495 77.2922H116.059V77.729H116.495V77.2922Z" fill="#00020C"/>
    <path d="M88.9848 71.6157H88.548V72.489H88.9848V71.6157Z" fill="#00020C"/>
    <path d="M82.4346 66.376H81.9978V66.8127H82.4346V66.376Z" fill="#00020C"/>
    <path d="M116.059 82.533H115.622V82.9697H116.059V82.533Z" fill="#00020C"/>
    <path d="M89.8582 72.0525H89.4214V72.4892H89.8582V72.0525Z" fill="#00020C"/>
    <path d="M114.749 84.7166H113.875V85.1533H114.749V84.7166Z" fill="#00020C"/>
    <path d="M92.4781 74.2361H92.0414V74.6728H92.4781V74.2361Z" fill="#00020C"/>
    <path d="M92.9149 75.1089H92.4781V75.5457H93.3515V74.6724H92.9149V75.1089Z" fill="#00020C"/>
    <path d="M90.7314 73.7993H90.2947V74.2361H90.7314V73.7993Z" fill="#00020C"/>
    <path d="M115.622 82.9692H115.185V83.406H115.622V82.9692Z" fill="#00020C"/>
    <path d="M81.1245 65.502H80.6877V65.9387H81.1245V65.502Z" fill="#00020C"/>
    <path d="M113.876 85.5896H113.439V86.4629H113.876V85.5896Z" fill="#00020C"/>
    <path d="M90.2949 72.4893H89.8582V72.926H90.2949V72.4893Z" fill="#00020C"/>
    <path d="M64.5308 63.7556H64.094V64.1924H64.5308V63.7556Z" fill="#00020C"/>
    <path d="M64.094 99.1267H63.2207V99.5635H64.094V99.1267Z" fill="#00020C"/>
    <path d="M62.3473 96.5063H61.9106V96.9431H62.3473V96.5063Z" fill="#00020C"/>
    <path d="M64.9675 99.1267H64.5308V99.5635H64.9675V99.1267Z" fill="#00020C"/>
    <path d="M66.2776 99.1267H65.8408V100H66.2776V99.1267Z" fill="#00020C"/>
    <path d="M68.4608 99.1267H67.1508V99.5635H68.4608V99.1267Z" fill="#00020C"/>
    <path d="M50.9937 67.6855H50.5569V68.1223H50.9937V67.6855Z" fill="#00020C"/>
    <path d="M42.6968 75.5461H42.2601V75.9829H42.6968V75.5461Z" fill="#00020C"/>
    <path d="M43.1336 74.2361H42.6968V74.6728H43.1336V74.2361Z" fill="#00020C"/>
    <path d="M65.8409 97.8167H63.2207V98.6902H63.6575V98.2534H64.094V98.6902H66.2774V98.2534H65.8409V97.8167Z" fill="#00020C"/>
    <path d="M63.6575 93.886H63.2207V94.3227H63.6575V93.886Z" fill="#00020C"/>
    <path d="M69.3343 99.1267H68.8976V99.5635H69.3343V99.1267Z" fill="#00020C"/>
    <path d="M68.8975 97.816V98.2527H68.4608V97.816H67.1507V97.3794H67.5874V96.9426H66.7141V97.816H66.2773V98.2527H66.7141V98.6895H69.3341V98.2527H69.7708V98.6895H70.2074V98.2527H70.6442V98.6895H71.0809V97.816H70.2074V97.3794H69.7708V97.816H68.8975Z" fill="#00020C"/>
    <path d="M71.5178 91.7034H71.081V92.1401H71.5178V91.7034Z" fill="#00020C"/>
    <path d="M71.0808 99.1267H70.2075V99.5635H71.0808V99.1267Z" fill="#00020C"/>
    <path d="M34.4 82.533H33.9632V82.9697H34.4V82.533Z" fill="#00020C"/>
    <path d="M128.723 57.6423H128.286V58.0791H128.723V57.6423Z" fill="#00020C"/>
    <path d="M15.6228 56.7688H15.186V57.6421H15.6228V56.7688Z" fill="#00020C"/>
    <path d="M27.8497 86.4631H27.413V86.8999H27.8497V86.4631Z" fill="#00020C"/>
    <path d="M122.172 42.3582H121.736V42.7949H122.172V42.3582Z" fill="#00020C"/>
    <path d="M31.3433 15.2847H30.9065V15.7214H31.3433V15.2847Z" fill="#00020C"/>
    <path d="M121.736 41.4851H121.299V41.9219H121.736V41.4851Z" fill="#00020C"/>
    <path d="M17.8062 24.0178H17.3694V24.4546H17.8062V24.0178Z" fill="#00020C"/>
    <path d="M133.089 41.4851H132.653V41.9219H133.089V41.4851Z" fill="#00020C"/>
    <path d="M130.033 41.0479H129.596V41.4846H130.033V41.0479Z" fill="#00020C"/>
    <path d="M131.779 41.4851H131.343V41.9219H131.779V41.4851Z" fill="#00020C"/>
    <path d="M30.9064 14.4106H30.4697V14.8474H30.9064V14.4106Z" fill="#00020C"/>
    <path d="M16.4961 42.7949H16.0593V43.2317H16.4961V42.7949Z" fill="#00020C"/>
    <path d="M13.0028 56.7688H12.566V57.6421H13.0028V56.7688Z" fill="#00020C"/>
    <path d="M70.6442 95.6334H71.081V95.1966H69.7709V95.6334H70.2077V96.0702H69.7709V96.5069H69.3341V96.0702H69.7709V95.6334H69.3341V95.1966H68.8974V94.7599H69.3341V95.1966H69.7709V94.7599H70.2077V94.3231H71.5177V93.4498H70.6444V93.8865H70.2077V92.5765H71.081V92.1397H70.6442V91.703H70.2075V90.8296H71.0808V89.9563H70.644V90.3931H68.8974V90.8298H68.4606V91.2666H68.0239V90.8298H68.4606V90.3931H67.5873V90.8298H67.1505V90.3931H66.7138V90.8298H65.8405V90.3931H65.4037V90.8298H64.9669V90.3931H63.2203V90.8298H64.5304V91.7031H63.2203V92.5765H64.0936V94.3231H63.6569V94.7599H66.2768V95.6332H65.8401V95.1964H64.9668V95.6332H64.53V95.1964H63.6567V95.6332H63.2199V96.07H64.53V96.5067H63.6567V96.9435H63.2199V97.3802H64.0932V96.9435H64.9666V97.3802H66.2766V96.9435H66.7134V96.5067H67.1502V96.07H67.5869V96.9433H68.0237V96.07H68.4604V96.9433H68.0237V97.38H68.4604V97.8168H68.8972V96.9435H69.334V97.3802H69.7707V96.9435H71.0808V96.0702H70.644V95.6334H70.6442ZM66.2774 96.5067H65.8407V96.9435H65.4039V96.5067H64.9671V96.07H66.2772L66.2774 96.5067ZM69.7709 93.45H69.3341V92.5767H69.7709V93.45ZM69.3341 90.8298H69.7709V91.2666H69.3341V90.8298ZM68.8976 91.7031H69.7709V92.1399H68.8976V91.7031ZM67.5875 91.7031H68.0243V92.1399H67.5875V91.7031ZM66.2774 91.7031H66.7142V92.1399H66.2774V91.7031ZM64.9673 93.45H64.5306V93.0132H64.9673V93.45ZM64.9673 91.7031H65.8407V92.1399H64.9673V91.7031ZM65.8408 93.8865V93.4498H65.4041V93.013H65.8408V93.4498H66.7142V93.013H67.1509V93.4498H67.5877V93.013H68.0244V93.4498H67.5877V93.8865H67.1509V93.4498H66.7142V93.8865H65.8408ZM68.4608 95.1966H67.1507V95.6334H66.714V94.7601H68.4606V95.1966H68.4608ZM68.4608 93.45V93.0132H68.8976V93.45H68.4608Z" fill="#00020C"/>
    <path d="M9.50933 57.2051H9.07257V57.6418H9.50933V57.2051Z" fill="#00020C"/>
    <path d="M2.08574 58.5156H1.64899V58.9524H2.08574V58.5156Z" fill="#00020C"/>
    <path d="M4.26916 58.5156H3.8324V58.9524H4.26916V58.5156Z" fill="#00020C"/>
    <path d="M6.45257 58.0789H6.01581V58.5156H6.45257V58.0789Z" fill="#00020C"/>
    <path d="M63.2209 96.5063H62.7841V96.9431H63.2209V96.5063Z" fill="#00020C"/>
    <path d="M106.015 87.3364H105.578V87.7732H106.015V87.3364Z" fill="#00020C"/>
    <path d="M109.072 89.9563H108.635V90.3931H109.072V89.9563Z" fill="#00020C"/>
    <path d="M116.932 81.6594H116.495V82.0962H116.932V81.6594Z" fill="#00020C"/>
    <path d="M117.369 82.533H116.932V82.9697H117.369V82.533Z" fill="#00020C"/>
    <path d="M107.762 87.3364H107.325V87.7732H107.762V87.3364Z" fill="#00020C"/>
    <path d="M103.832 85.1528H103.395V85.5896H103.832V85.1528Z" fill="#00020C"/>
    <path d="M102.085 83.8428H101.648V84.2795H102.085V83.8428Z" fill="#00020C"/>
    <path d="M71.5178 95.6331H71.081V96.0698H71.5178V95.6331Z" fill="#00020C"/>
    <path d="M125.666 57.6423H125.229V58.0791H125.666V57.6423Z" fill="#00020C"/>
    <path d="M127.849 58.5156H127.412V58.9524H127.849V58.5156Z" fill="#00020C"/>
    <path d="M127.849 57.6423H127.412V58.0791H127.849V57.6423Z" fill="#00020C"/>
    <path d="M100.338 81.2227H99.9017V81.6594H100.338V81.2227Z" fill="#00020C"/>
    <path d="M120.426 57.6423H119.989V58.0791H120.426V57.6423Z" fill="#00020C"/>
    <path d="M123.046 57.6423H122.609V58.0791H123.046V57.6423Z" fill="#00020C"/>
    <path d="M119.116 57.2051H118.679V57.6418H119.116V57.2051Z" fill="#00020C"/>
    <path d="M117.369 80.3494H116.932V80.7861H117.369V80.3494Z" fill="#00020C"/>
    <path d="M101.649 82.9692H101.212V83.406H101.649V82.9692Z" fill="#00020C"/>
    <path d="M70.6442 85.1528H70.2075V85.5896H70.6442V85.1528Z" fill="#00020C"/>
    <path d="M70.6442 86.0264H70.2075V86.4631H70.6442V86.0264Z" fill="#00020C"/>
    <path d="M70.6442 81.6594H70.2075V82.0962H70.6442V81.6594Z" fill="#00020C"/>
    <path d="M64.094 86.8994V87.3362H63.2206V87.773H64.094V88.2097H64.5307V88.6465H64.094V89.0832H64.5307V89.52H64.094V89.0832H63.2206V89.52H63.6574V89.9568H64.9675V89.52H65.4042V89.9568H69.7711V89.52H70.2078V89.0832H71.0812V88.2099H70.6444V88.6467H69.7711V88.2099H70.6444V87.7731H70.2076V87.3364H69.3343V86.8996H69.7711V86.0263H70.2078V85.5896H69.3345V85.1528H70.2078V84.716H71.5179V84.2793H69.3345V83.8425H70.2078V83.4058H70.6446V82.969H64.0943V83.4058H63.6576V83.8425H64.9677V84.2793H64.5309V85.1526H64.0942V86.4627H64.5309V86.8994H64.094ZM67.1507 89.5194H66.7139V89.0827H67.1507V89.5194ZM68.0242 89.5194H67.5875V89.0827H68.0242V89.5194ZM68.4608 88.6461H68.024V88.2093H68.4608V88.6461ZM68.8976 88.2095H69.3343V88.6463H68.8976V88.2095ZM68.0242 83.8427H68.461V84.2795H68.0242V83.8427ZM67.5875 86.4627H68.0242V86.8994H67.5875V86.4627ZM67.5875 88.6461H66.2774V88.2093H67.5875V88.6461ZM66.7141 86.8994V86.4627H67.1509V86.8994H66.7141ZM66.2774 83.8427H66.7141V84.2795H67.1509V84.7162H66.7141V84.2795H66.2774V83.8427ZM65.8408 86.8994H66.2776V87.3362H65.8408V86.8994ZM64.9673 88.2095H65.4041V88.6463H64.9673V88.2095Z" fill="#00020C"/>
    <path d="M62.784 93.0129H62.3473V93.4497H62.784V93.0129Z" fill="#00020C"/>
    <path d="M64.094 84.7166H63.2206V85.1533H64.094V84.7166Z" fill="#00020C"/>
    <path d="M71.0809 85.5896H70.6442V86.0264H71.0809V85.5896Z" fill="#00020C"/>
    <path d="M71.9543 97.8167H71.5176V98.2534H71.9543V97.8167Z" fill="#00020C"/>
    <path d="M73.2644 95.6331H72.8276V96.0698H73.2644V95.6331Z" fill="#00020C"/>
    <path d="M95.535 79.0396H95.0983V79.4763H95.535V79.0396Z" fill="#00020C"/>
    <path d="M92.0416 75.1094H91.6049V75.5461H92.0416V75.1094Z" fill="#00020C"/>
    <path d="M71.9543 98.6899H71.5176V99.1267H71.9543V98.6899Z" fill="#00020C"/>
    <path d="M71.5178 87.3364H71.081V87.7732H71.5178V87.3364Z" fill="#00020C"/>
    <path d="M63.2209 86.4631H62.7841V86.8999H63.2209V86.4631Z" fill="#00020C"/>
    <path d="M71.5178 79.4763H71.081V79.9131H71.5178V79.4763Z" fill="#00020C"/>
    <path d="M37.4567 79.0396H37.0199V79.4763H37.4567V79.0396Z" fill="#00020C"/>
    <path d="M54.9238 63.3188H54.487V63.7556H54.9238V63.3188Z" fill="#00020C"/>
    <path d="M55.3605 63.7556H54.9238V64.1924H55.3605V63.7556Z" fill="#00020C"/>
    <path d="M98.1551 54.5852H97.7183V55.022H98.1551V54.5852Z" fill="#00020C"/>
    <path d="M108.199 86.0264H107.762V86.4631H108.199V86.0264Z" fill="#00020C"/>
    <path d="M110.819 74.2361H110.382V74.6728H110.819V74.2361Z" fill="#00020C"/>
    <path d="M43.1336 72.4893H42.6968V72.926H43.1336V72.4893Z" fill="#00020C"/>
    <path d="M53.6139 53.7117H53.1771V54.1484H53.6139V53.7117Z" fill="#00020C"/>
    <path d="M24.793 25.7646H24.3562V26.2014H24.793V25.7646Z" fill="#00020C"/>
    <path d="M20.4263 84.7166H19.9896V85.5899H20.4263V84.7166Z" fill="#00020C"/>
    <path d="M22.6095 87.3364H22.1728V88.2098H22.6095V87.3364Z" fill="#00020C"/>
    <path d="M31.3432 16.594H30.9064V17.0308H31.3432V16.594Z" fill="#00020C"/>
    <path d="M112.129 56.7688H111.692V57.2056H112.129V56.7688Z" fill="#00020C"/>
    <path d="M103.395 55.0217H102.958V55.4585H103.395V55.0217Z" fill="#00020C"/>
    <path d="M113.439 56.7688H113.002V57.2056H113.439V56.7688Z" fill="#00020C"/>
    <path d="M109.509 71.6157H109.072V72.0525H109.509V71.6157Z" fill="#00020C"/>
    <path d="M109.509 55.8958H109.072V56.7691H109.509V55.8958Z" fill="#00020C"/>
    <path d="M111.692 57.6423H111.255V58.0791H111.692V57.6423Z" fill="#00020C"/>
    <path d="M115.622 57.6423H115.185V58.0791H115.622V57.6423Z" fill="#00020C"/>
    <path d="M105.579 55.459H105.142V55.8957H105.579V55.459Z" fill="#00020C"/>
    <path d="M106.452 55.459H106.015V55.8957H106.452V55.459Z" fill="#00020C"/>
    <path d="M113.439 25.3276H113.002V25.7644H113.439V25.3276Z" fill="#00020C"/>
    <path d="M116.495 23.5811H116.059V24.0178H116.495V23.5811Z" fill="#00020C"/>
    <path d="M115.185 23.1443H114.749V23.581H115.185V23.1443Z" fill="#00020C"/>
    <path d="M116.932 21.8342H116.495V22.7076H116.932V21.8342Z" fill="#00020C"/>
    <path d="M113.876 24.4551H113.439V24.8918H113.876V24.4551Z" fill="#00020C"/>
    <path d="M113.876 25.7646H113.439V26.2014H113.876V25.7646Z" fill="#00020C"/>
    <path d="M96.4083 21.3979H95.9716V21.8347H96.4083V21.3979Z" fill="#00020C"/>
    <path d="M102.085 30.5679H101.648V31.4412H102.085V31.878H102.522V31.0044H102.085V30.5679Z" fill="#00020C"/>
    <path d="M99.4651 18.7776H99.0283V19.2143H99.4651V18.7776Z" fill="#00020C"/>
    <path d="M108.635 10.9175H108.199V11.3542H108.635V10.9175Z" fill="#00020C"/>
    <path d="M102.958 16.1577H102.522V16.5945H102.958V16.1577Z" fill="#00020C"/>
    <path d="M107.325 56.332H106.888V56.7688H107.325V56.332Z" fill="#00020C"/>
    <path d="M106.015 28.8213H105.578V29.258H106.015V28.8213Z" fill="#00020C"/>
    <path d="M87.2382 41.4851H86.8014V41.9219H87.2382V41.4851Z" fill="#00020C"/>
    <path d="M118.679 42.7949H118.242V43.2317H118.679V42.7949Z" fill="#00020C"/>
    <path d="M94.6615 35.8081H94.2247V36.6814H94.6615V35.8081Z" fill="#00020C"/>
    <path d="M126.976 42.3582H126.539V42.7949H126.976V42.3582Z" fill="#00020C"/>
    <path d="M92.4781 38.428H92.0414V38.8647H92.4781V38.428Z" fill="#00020C"/>
    <path d="M93.3517 24.0178H92.9149V24.4546H93.3517V24.0178Z" fill="#00020C"/>
    <path d="M104.268 29.6948H103.832V30.1316H104.268V29.6948Z" fill="#00020C"/>
    <path d="M95.535 36.2444H95.0983V36.6811H95.535V36.2444Z" fill="#00020C"/>
    <path d="M94.225 36.6812H93.7882V37.1179H94.225V36.6812Z" fill="#00020C"/>
    <path d="M99.9016 32.7515H99.0283V33.1882H99.9016V32.7515Z" fill="#00020C"/>
    <path d="M63.6575 19.2144H63.2207V19.6511H63.6575V19.2144Z" fill="#00020C"/>
    <path d="M63.6575 17.031H63.2207V17.4678H63.6575V17.031Z" fill="#00020C"/>
    <path d="M47.0636 41.9219H46.6269V42.3586H47.0636V41.9219Z" fill="#00020C"/>
    <path d="M71.9543 6.11426H71.5176V6.55102H71.9543V6.11426Z" fill="#00020C"/>
    <path d="M71.9543 10.9175H71.5176V11.3542H71.9543V10.9175Z" fill="#00020C"/>
    <path d="M28.7233 29.2581H28.2865V29.6948H28.7233V29.2581Z" fill="#00020C"/>
    <path d="M72.391 7.42358H71.9543V7.86034H72.391V7.42358Z" fill="#00020C"/>
    <path d="M45.3171 40.175H44.8803V40.6118H45.3171V40.175Z" fill="#00020C"/>
    <path d="M95.0983 55.8958H94.6615V56.3325H95.0983V55.8958Z" fill="#00020C"/>
    <path d="M35.7101 33.6245H35.2733V34.0613H35.7101V33.6245Z" fill="#00020C"/>
    <path d="M107.325 29.2581H106.888V29.6948H107.325V29.2581Z" fill="#00020C"/>
    <path d="M109.509 27.5112H109.072V27.948H109.509V27.5112Z" fill="#00020C"/>
    <path d="M108.199 29.6948H107.762V30.1316H108.199V29.6948Z" fill="#00020C"/>
    <path d="M23.4831 42.7949H23.0463V43.2317H23.4831V42.7949Z" fill="#00020C"/>
    <path d="M102.085 33.188V32.3147H101.212V32.7515H101.648V33.188H102.085Z" fill="#00020C"/>
    <path d="M104.268 31.0046H103.832V31.4414H104.268V31.0046Z" fill="#00020C"/>
    <path d="M70.6442 16.1577H70.2075V16.5945H70.6442V16.1577Z" fill="#00020C"/>
    <path d="M71.5178 16.594H71.081V17.0308H71.5178V16.594Z" fill="#00020C"/>
    <path d="M110.819 27.5112H110.382V27.948H110.819V27.5112Z" fill="#00020C"/>
    <path d="M114.749 24.0178H114.312V24.4546H114.749V24.0178Z" fill="#00020C"/>
    <path d="M110.382 26.6382H109.945V27.5115H110.382V26.6382Z" fill="#00020C"/>
    <path d="M30.0331 31.4414H29.5964V31.8782H30.0331V31.4414Z" fill="#00020C"/>
    <path d="M19.9896 57.2051H19.5529V57.6418H19.9896V57.2051Z" fill="#00020C"/>
    <path d="M17.8062 57.2051H17.3694V57.6418H17.8062V57.2051Z" fill="#00020C"/>
    <path d="M24.7929 55.8958H23.9196V56.3325H24.7929V55.8958Z" fill="#00020C"/>
    <path d="M26.1031 71.179H25.6663V71.6157H26.1031V71.179Z" fill="#00020C"/>
    <path d="M19.5528 56.7688H19.1161V57.2056H19.5528V56.7688Z" fill="#00020C"/>
    <path d="M64.9675 70.7427H64.5308V71.1794H64.9675V70.7427Z" fill="#00020C"/>
    <path d="M92.9149 55.0217H92.4781V55.4585H92.9149V55.0217Z" fill="#00020C"/>
    <path d="M83.3079 54.5852H82.8712V55.022H83.3079V54.5852Z" fill="#00020C"/>
    <path d="M64.0942 78.166H63.6574V78.6028H64.0942V78.166Z" fill="#00020C"/>
    <path d="M22.1728 24.8914H21.2995V25.3281H22.1728V24.8914Z" fill="#00020C"/>
    <path d="M70.2076 65.502H69.7709V65.9387H70.2076V65.502Z" fill="#00020C"/>
    <path d="M28.7233 56.7688H28.2865V57.2056H28.7233V56.7688Z" fill="#00020C"/>
    <path d="M18.6795 24.0178H18.2427V24.4546H18.6795V24.0178Z" fill="#00020C"/>
    <path d="M20.8629 24.4551H19.9896V24.8918H20.8629V24.4551Z" fill="#00020C"/>
    <path d="M19.9896 42.7949H19.5529V43.2317H19.9896V42.7949Z" fill="#00020C"/>
    <path d="M20.4264 25.7646H19.9896V26.2014H20.4264V25.7646Z" fill="#00020C"/>
    <path d="M19.9896 24.0178H19.5529V24.4546H19.9896V24.0178Z" fill="#00020C"/>
    <path d="M45.7536 71.6157H45.3168V72.0525H45.7536V71.6157Z" fill="#00020C"/>
    <path d="M29.1598 55.459H28.723V55.8957H29.1598V55.459Z" fill="#00020C"/>
    <path d="M39.2035 62.8821H38.7667V63.3188H39.2035V62.8821Z" fill="#00020C"/>
    <path d="M35.71 55.8958H35.2733V56.3325H35.71V55.8958Z" fill="#00020C"/>
    <path d="M34.8367 55.459H34.3999V56.3323H34.8367V55.459Z" fill="#00020C"/>
    <path d="M31.78 55.459H31.3432V55.8957H31.78V55.459Z" fill="#00020C"/>
    <path d="M7.76263 41.9219H7.32587V42.3586H7.76263V41.9219Z" fill="#00020C"/>
    <path d="M30.9064 55.459H30.4697V55.8957H30.9064V55.459Z" fill="#00020C"/>
    <path d="M23.0463 56.7688H22.6096V57.2056H23.0463V56.7688Z" fill="#00020C"/>
    <path d="M41.8235 54.5852H41.3868V55.022H41.8235V54.5852Z" fill="#00020C"/>
    <path d="M26.9764 71.179H26.5396V71.6157H26.9764V71.179Z" fill="#00020C"/>
    <path d="M49.6837 55.0217H49.2469V55.4585H49.6837V55.0217Z" fill="#00020C"/>
    <path d="M18.2429 82.0967H17.8062V82.5334H18.2429V82.0967Z" fill="#00020C"/>
    <path d="M18.2429 55.8958H17.8062V56.7691H18.2429V55.8958Z" fill="#00020C"/>
    <path d="M53.1771 54.1489H52.7404V54.5857H53.1771V54.1489Z" fill="#00020C"/>
    <path d="M6.0158 57.2051H5.57904V57.6418H6.0158V57.2051Z" fill="#00020C"/>
    <path d="M3.3958 57.6423H2.95905V58.0791H3.3958V57.6423Z" fill="#00020C"/>
    <path d="M17.8062 81.6594H17.3694V82.0962H17.8062V81.6594Z" fill="#00020C"/>
    <path d="M4.70592 57.2051H4.26917V58.0784H4.70592V57.2051Z" fill="#00020C"/>
    <path d="M5.14245 41.9219H4.70569V42.3586H5.14245V41.9219Z" fill="#00020C"/>
    <path d="M2.9591 56.7688H2.52234V57.6421H2.9591V56.7688Z" fill="#00020C"/>
    <path d="M10.8193 56.7688H10.3826V57.2056H10.8193V56.7688Z" fill="#00020C"/>
    <path d="M13.8762 56.332H13.4394V56.7688H13.8762V56.332Z" fill="#00020C"/>
    <path d="M14.7494 56.332H14.3127V56.7688H14.7494V56.332Z" fill="#00020C"/>
    <path d="M7.32592 56.7688H6.88916V57.2056H7.32592V56.7688Z" fill="#00020C"/>
    <path d="M6.88915 57.2051H6.45239V57.6418H6.88915V57.2051Z" fill="#00020C"/>
    <path d="M39.2035 55.459H38.7667V56.3323H39.2035V55.459Z" fill="#00020C"/>
    <path d="M36.1466 80.7861H35.7098V81.2229H36.1466V80.7861Z" fill="#00020C"/>
    <path d="M37.8935 78.166H37.4567V78.6028H37.8935V78.166Z" fill="#00020C"/>
    <path d="M39.2035 77.7295H38.7667V78.1662H39.2035V77.7295Z" fill="#00020C"/>
    <path d="M33.5267 80.7861H33.0899V81.2229H33.5267V80.7861Z" fill="#00020C"/>
    <path d="M33.9634 81.2227H33.5266V81.6594H33.9634V81.2227Z" fill="#00020C"/>
    <path d="M18.6795 82.533H18.2427V82.9697H18.6795V82.533Z" fill="#00020C"/>
    <path d="M43.5702 72.9263H43.1335V73.363H43.5702V72.9263Z" fill="#00020C"/>
    <path d="M45.3171 72.9263H44.8803V73.363H45.3171V72.9263Z" fill="#00020C"/>
    <path d="M44.8802 72.0525H44.4435V72.9258H44.8802V72.0525Z" fill="#00020C"/>
    <path d="M44.0069 73.3625H43.5701V73.7993H44.0069V73.3625Z" fill="#00020C"/>
    <path d="M35.71 80.3494H35.2733V80.7861H35.71V80.3494Z" fill="#00020C"/>
    <path d="M22.6096 88.6465H23.0463V89.0833H23.4829V88.6465H23.9196V88.21H22.6096V88.6465Z" fill="#00020C"/>
    <path d="M24.3564 88.6462H23.9197V89.083H24.3564V88.6462Z" fill="#00020C"/>
    <path d="M22.1728 86.8999H21.2995V87.3367H22.1728V86.8999Z" fill="#00020C"/>
    <path d="M26.5398 87.7727H26.1031V88.2095H26.5398V87.7727Z" fill="#00020C"/>
    <path d="M19.1163 83.406H18.6795V83.8428H19.1163V83.406Z" fill="#00020C"/>
    <path d="M30.9064 83.8428H30.0331V84.2795H30.9064V83.8428Z" fill="#00020C"/>
    <path d="M33.0898 82.0967H32.6531V82.5334H33.0898V82.0967Z" fill="#00020C"/>
    <path d="M32.2165 82.0967H31.7797V82.5334H32.2165V82.0967Z" fill="#00020C"/>
    <path d="M29.5966 84.2793H29.1599V84.716H29.5966V84.2793Z" fill="#00020C"/>
    <path d="M29.1598 86.4629V86.0264H28.7231V85.5896H28.2865V86.4629H29.1598Z" fill="#00020C"/>
    <path d="M62.784 6.11426H62.3473V6.55102H62.784V6.11426Z" fill="#00020C"/>
    <path d="M63.6575 12.2275H63.2207V12.6643H63.6575V12.2275Z" fill="#00020C"/>
    <path d="M64.5307 13.5374H63.6574V13.9741H64.5307V13.5374Z" fill="#00020C"/>
    <path d="M64.0942 11.7913H63.6574V12.228H64.0942V11.7913Z" fill="#00020C"/>
    <path d="M63.6575 10.4807H63.2207V10.9175H63.6575V10.4807Z" fill="#00020C"/>
    <path d="M63.6575 11.354H63.2207V11.7908H63.6575V11.354Z" fill="#00020C"/>
    <path d="M64.0942 21.8342H63.6574V22.271H64.0942V21.8342Z" fill="#00020C"/>
    <path d="M65.404 37.9917H64.9673V38.4285H65.404V37.9917Z" fill="#00020C"/>
    <path d="M35.2732 18.7776H34.8365V19.2143H35.2732V18.7776Z" fill="#00020C"/>
    <path d="M64.5308 36.6812H64.094V37.1179H64.5308V36.6812Z" fill="#00020C"/>
    <path d="M64.5308 23.1443H64.094V23.581H64.5308V23.1443Z" fill="#00020C"/>
    <path d="M67.5875 9.1709H67.1508V9.60766H67.5875V9.1709Z" fill="#00020C"/>
    <path d="M33.9634 17.9045H33.5266V18.3413H33.9634V17.9045Z" fill="#00020C"/>
    <path d="M64.0941 8.29736H62.7841V8.73412H64.0941V8.29736Z" fill="#00020C"/>
    <path d="M66.7141 6.11424V6.551H67.5875V6.11424H68.0242V6.551H68.461V6.11424H68.8978V6.551H71.0812V6.11424H70.2078V5.67748H71.5179V5.24072H71.0812V4.80396H71.5179V3.93064H72.3912V3.49388H71.5179V2.18379H72.3912V1.74704H71.0812V1.31028H71.9545V0.873518H71.5177V0.43676H68.8978V0H68.461V0.43676H67.5877V0H66.7143V0.43676H65.841V0H65.4043V0.43676H62.7843V0.873518H61.9109V1.31028H62.3477V1.74704H61.9109V2.18379H62.3477V4.80377H62.7845V5.24053H63.2212V4.80377H63.658V5.24053H63.2212V5.67729H63.658V6.11405H63.2212V6.5508H64.0946V6.11405H64.5313V6.5508H65.4046V6.11405H65.8414V6.5508H66.2782V6.11405H66.7141V6.11424ZM68.8976 4.80434H69.3343V5.2411H68.8976V4.80434ZM68.0242 4.80434H68.461V5.2411H68.0242V4.80434ZM64.9673 5.24091H64.094V4.80415H64.9673V5.24091ZM65.8408 5.24091V4.80415H66.2776V5.24091H65.8408Z" fill="#00020C"/>
    <path d="M70.2076 30.5679H69.7709V31.0046H70.2076V30.5679Z" fill="#00020C"/>
    <path d="M69.7709 12.6641V12.2273H70.6442V12.6641H71.081V11.7908H69.3344V10.9174H69.7711V11.3542H70.2079V10.9174H71.0812V10.4807H70.2079V10.0439H70.6446V9.60717H67.5879V10.4805H67.1511V9.60717H66.7144V9.17041H66.2776V9.60717H62.7841V10.0439H63.6574V10.4807H64.0942V10.0439H64.531V10.4807H64.0942V10.9174H64.531V12.2275H64.0942V13.1009H64.531V12.6641H69.7709ZM68.0243 10.9174H68.461V11.3542H68.0243V10.9174ZM66.2774 10.0441H66.7142V10.4809H66.2774V10.0441ZM66.2774 11.354H66.7142V10.9173H67.1509V11.354H67.5877V11.7908H67.1509V11.354H66.7142V11.7908H66.2774V11.354ZM64.9673 10.9174H65.8407V11.7908H65.4039V11.354H64.9671V10.9174H64.9673Z" fill="#00020C"/>
    <path d="M67.1507 8.73395H67.5875V9.17051H68.4608V8.73395H69.3342V9.17051H71.5176V8.73395H69.7709V8.29719H66.2774V7.86062H70.2075V8.29719H70.6442V7.86062H71.081V7.42386H70.6442V6.98711H68.8976V6.55054H68.4608V6.98711H66.7142V6.55054H66.2774V6.98711H62.7841V7.42386H63.6574V7.86062H65.8409V8.29719H64.5308V8.73395H64.094V9.17051H65.4041V8.73395H66.7142V9.17051H67.1507V8.73395Z" fill="#00020C"/>
    <path d="M89.4214 27.5112H88.9846V27.948H89.4214V27.5112Z" fill="#00020C"/>
    <path d="M63.2209 5.67773H62.7841V6.11449H63.2209V5.67773Z" fill="#00020C"/>
    <path d="M72.8276 3.05713H72.3909V3.49389H72.8276V3.05713Z" fill="#00020C"/>
    <path d="M72.391 2.62061H71.9543V3.05736H72.391V2.62061Z" fill="#00020C"/>
    <path d="M26.9764 29.2581H26.5396V29.6948H26.9764V29.2581Z" fill="#00020C"/>
    <path d="M39.2035 36.2444H38.7667V36.6811H39.2035V36.2444Z" fill="#00020C"/>
    <path d="M38.33 35.8081H37.8932V36.2449H38.33V35.8081Z" fill="#00020C"/>
    <path d="M33.9634 32.7515H33.5266V33.1882H33.9634V32.7515Z" fill="#00020C"/>
    <path d="M38.33 34.9346H37.8932V35.3713H38.33V34.9346Z" fill="#00020C"/>
    <path d="M41.8235 37.5547H41.3868V38.4281H41.8235V37.9915H42.2601V37.1182H41.8235V37.5547Z" fill="#00020C"/>
    <path d="M43.5702 44.5417H43.1334V44.9785H43.5702V44.5417Z" fill="#00020C"/>
    <path d="M24.3564 43.6685H23.9197V44.1052H24.3564V43.6685Z" fill="#00020C"/>
    <path d="M33.5267 31.8782H33.0899V32.3149H33.5267V31.8782Z" fill="#00020C"/>
    <path d="M44.4435 39.738H44.0067V40.1748H44.4435V39.738Z" fill="#00020C"/>
    <path d="M49.6837 42.3582H49.2469V43.2315H49.6837V42.3582Z" fill="#00020C"/>
    <path d="M26.1031 27.0745H25.6663V27.5112H26.1031V27.0745Z" fill="#00020C"/>
    <path d="M27.4129 12.6643H26.9764V12.2275H26.5396V13.1011H27.4129V12.6643Z" fill="#00020C"/>
    <path d="M26.9764 27.5112H26.5396V27.948H26.9764V27.5112Z" fill="#00020C"/>
    <path d="M24.3564 26.2014H23.9197V26.6382H24.3564V26.2014Z" fill="#00020C"/>
    <path d="M25.6662 10.9175H25.2295V11.3542H25.6662V10.9175Z" fill="#00020C"/>
    <path d="M26.5398 11.354H26.1031V11.7908H26.5398V11.354Z" fill="#00020C"/>
    <path d="M32.2165 31.8782H31.7798V32.7515H32.2165V32.3147H32.6531V31.4414H32.2165V31.8782Z" fill="#00020C"/>
    <path d="M33.0898 32.3147H32.6531V32.7515H33.0898V32.3147Z" fill="#00020C"/>
    <path d="M32.6533 32.7515H32.2166V33.1882H32.6533V32.7515Z" fill="#00020C"/>
    <path d="M9.0725 41.9219H8.63574V42.3586H9.0725V41.9219Z" fill="#00020C"/>
    <path d="M30.4698 30.1311H30.0331V30.5679H30.4698V30.1311Z" fill="#00020C"/>
</svg>
