<svg width="100" height="100" viewBox="0 0 100 100" fill="none" xmlns="http://www.w3.org/2000/svg">
    <path d="M60.3518 0H39.6485C36.1313 0 33.3335 2.80002 33.3335 6.32002V27.04C33.3335 30.56 36.1313 33.36 39.6485 33.36H60.3518C63.869 33.36 66.6668 30.56 66.6668 27.04V6.32002C66.6668 2.80002 63.789 0 60.3518 0Z" fill="#00020C"/>
    <path d="M39.6485 100H60.3518C63.869 100 66.6668 97.2002 66.6668 93.6802V72.9601C66.6668 69.4401 63.869 66.6401 60.3518 66.6401H39.6485C36.1313 66.6401 33.3335 69.4401 33.3335 72.9601V93.6802C33.3335 97.1202 36.2112 100 39.6485 100Z" fill="#00020C"/>
    <path d="M66.6665 39.6V60.32C66.6665 63.84 69.4643 66.64 72.9815 66.64H93.6849C97.2021 66.64 99.9999 63.84 99.9999 60.32V39.6C99.9999 36.08 97.2021 33.28 93.6849 33.28H72.9815C69.4643 33.28 66.6665 36.16 66.6665 39.6Z" fill="#00020C"/>
    <path d="M0 39.6V60.32C0 63.84 2.79778 66.64 6.31496 66.64H27.0184C30.5356 66.64 33.3334 63.84 33.3334 60.32V39.6C33.3334 36.08 30.5356 33.28 27.0184 33.28H6.31496C2.87772 33.28 0 36.16 0 39.6Z" fill="#00020C"/>
</svg>
