<svg width="109" height="100" viewBox="0 0 109 100" fill="none" xmlns="http://www.w3.org/2000/svg">
    <path d="M102.547 62.203C98.1906 57.8534 92.3827 55.6786 86.6554 55.7592C83.2674 55.7592 80.2022 53.9871 78.5082 51.0874L73.6682 42.791C71.9742 39.8913 71.9742 36.2666 73.6682 33.3669C78.6695 24.9094 77.5401 13.7938 70.1995 6.46395C61.5683 -2.15465 47.5324 -2.15465 38.8205 6.46395C31.4799 13.7938 30.3506 24.8288 35.3519 33.3669C37.0459 36.2666 37.0459 39.8913 35.3519 42.791L30.5119 51.0874C28.818 53.9871 25.7527 55.8397 22.3647 55.7592C16.6374 55.6786 10.8294 57.8534 6.47344 62.203C-2.15781 70.8216 -2.15781 84.8369 6.47344 93.536C15.1047 102.155 29.1406 102.155 37.8525 93.536C39.3045 92.0862 40.5145 90.4752 41.4825 88.7837C43.1765 85.884 46.2418 84.0314 49.6297 84.0314H59.229C62.617 84.0314 65.7629 85.8034 67.3762 88.7837C68.3442 90.4752 69.5542 92.0862 71.0062 93.536C79.6375 102.155 93.6734 102.155 102.385 93.536C111.178 84.8369 111.178 70.8216 102.547 62.203ZM41.4018 57.1285L46.2418 48.8321C47.9358 45.8518 51.0817 44.1603 54.5503 44.1603C54.631 44.1603 54.7117 44.1603 54.7924 44.1603C58.1803 44.1603 61.3264 45.9324 63.101 48.8321L67.941 57.1285C69.6349 60.0282 69.6349 63.6528 67.8602 66.5526C67.7795 66.6331 67.7796 66.7137 67.7796 66.7942C66.0856 69.7745 62.9396 71.6271 59.5517 71.6271H49.9524C46.5644 71.6271 43.4185 69.7745 41.7245 66.7942C41.7245 66.7137 41.6438 66.6331 41.6438 66.5526C39.7078 63.7334 39.7079 60.1087 41.4018 57.1285Z" fill="#00020C"/>
</svg>
