<svg width="62" height="100" viewBox="0 0 62 100" fill="none" xmlns="http://www.w3.org/2000/svg">
    <path d="M17.863 67.0329H18.4101V65.9341H17.3158V66.4835H17.863V67.0329Z" fill="#00020C"/>
    <path d="M12.3917 54.3955H11.8447V54.9449H12.3917V54.3955Z" fill="#00020C"/>
    <path d="M15.1275 62.6374V66.4836H15.6746V67.033H16.2217V67.5824H17.8631V67.033H17.3159V66.4836H16.7688V65.9342H16.2217V60.989H15.1275V61.5386H14.5804V60.989H13.486V62.088H14.0331V62.6374H15.1275Z" fill="#00020C"/>
    <path d="M5.82614 18.1316H5.27917V18.681H5.82614V18.1316Z" fill="#00020C"/>
    <path d="M28.8054 76.9231H27.7112V77.4725H28.8054V76.9231Z" fill="#00020C"/>
    <path d="M10.7502 53.8462H10.2032V54.3956H10.7502V53.8462Z" fill="#00020C"/>
    <path d="M56.1617 82.4175V80.2197H55.0675V79.6702H54.5204V78.5714H52.3318V77.4725H49.5962V76.9231H49.0491V77.4725H48.502V76.3737H46.8607V77.4725H46.3136V76.3737H45.2194V76.9231H44.6723V76.3737H43.5781V75.8242H44.1252V75.2748H43.5781V74.7254H41.9368V75.2748H41.3897V74.7254H40.2955V75.2748H39.7484V74.7254H38.6541V75.2748H38.107V74.7254H37.5599V73.6265H31.5415V73.0771H30.4473V73.6265H30.9944V74.1759H30.4473V73.6265H29.9002V73.0771H30.4473V72.5277H23.8818V71.4288H23.3347V72.5277H22.7876V71.4288H21.6934V71.9782H22.2405V72.5277H21.6934V71.9782H21.1463V71.4288H20.5992V70.8794H19.505V71.4288H18.9579V70.8794H17.8637V71.4288H17.3166V70.8794H16.2224V70.3299H15.6753V68.6817H15.1282V67.5828H13.4869V68.1322H12.9398V67.0334H12.3927V62.6378H11.8456V62.0884H11.2985V63.1872H11.8456V63.7367H11.2985V67.0334H11.8456V67.5828H11.2985V67.0334H10.7514V62.6378H10.2043V62.0884H9.11007V63.1872H9.65717V64.2861H9.11007V69.2311H9.65717V69.7805H9.11007V70.8794H8.56297V63.7365H6.37442V64.286H6.92152V65.3848H7.46862V73.6265H6.92152V71.4287H6.37442V70.8792H6.92152V68.132H6.37442V67.5825H6.92152V65.9342H6.37442V66.4837H5.82731V67.5825H5.28021V69.2308H5.82731V69.7802H5.28021V73.0769H5.82731V73.6264H5.28021V74.1758H5.82731V74.7252H5.28021V76.3735H5.82731V77.4724H5.28021V78.5712H5.82731V78.0218H6.37442V79.1207H6.92152V80.2195H8.01572V79.6701H8.56282V80.2195H10.2041V81.3184H14.5811V82.4172H19.5051V83.5161H21.6937V84.0655H22.2408V83.5161H22.7879V84.0655H25.5236V84.6149H26.6178V85.1644H27.712V84.6149H28.2591V85.1644H29.9004V84.0655H29.3533V84.6149H28.8062V83.5161H27.712V84.0655H27.1649V83.5161H26.0707V82.9667H25.5236V83.5161H24.9765V82.9667H25.5236V82.4172H24.4293V82.9667H23.8823V82.4172H23.3351V81.3184H23.8823V80.7689H23.3351V79.6701H23.8823V80.2195H24.9765V78.5712H26.0707V79.1207H26.6178V78.0218H24.4292V79.1207H23.8821V76.9228H24.4292V77.4722H25.5234V74.1755H26.0705V76.3734H27.1647V75.2745H27.7118V76.3734H28.806V75.2745H28.2589V74.7251H28.806V75.2745H29.3531V76.3734H30.9944V75.8239H30.4473V75.2745H30.9944V75.8239H31.5415V75.2745H32.0886V75.8239H31.5415V76.3734H34.2772V74.7251H34.8243V76.3734H40.2956V76.9228H37.5599V77.4722H45.2197V78.0217H43.0311V78.5711H46.861V79.1205H47.4081V80.2194H51.2379V81.3182H52.3321V81.8677H51.2379V82.4171H52.8792V82.9665H51.785V83.5159H53.4263V84.0654H53.9734V85.1642H54.5205V84.6148H55.0676V85.1642H54.5205V85.7137H53.9734V86.2631H54.5205V89.0104H55.6147V88.4609H56.1618V89.0104H55.6147V90.1092H54.5205V90.6587H55.6147V91.2081H56.1618V91.7575H56.7089V90.6587H56.1618V90.1092H57.256V82.4169H56.1617V82.4175ZM5.82632 72.5275V71.9781H6.37342V72.5275H5.82632ZM6.92052 76.3737H6.37342V75.2748H6.92052V76.3737ZM7.46777 74.7252V74.1758H8.01487V74.7252H7.46777ZM8.56197 76.9231H8.01487V76.3737H8.56197V76.9231ZM8.56197 75.8242H8.01487V75.2748H8.56197V75.8242ZM8.56197 72.5275H8.01487V71.9781H8.56197V72.5275ZM9.65617 66.4835H10.2033V67.033H9.65617V66.4835ZM9.65617 78.5714H9.10907V78.0219H9.65617V78.5714ZM9.65617 76.3737H9.10907V75.8242H9.65617V76.3737ZM9.65617 72.5275V71.9781H10.7504V72.5275H9.65617ZM11.2976 76.9231V78.0219H10.7505V76.9231H11.2976ZM11.8447 80.2198H11.2976V79.6704H10.7505V79.1209H11.2976V79.6704H11.8447V80.2198ZM11.8447 75.2747H11.2976V74.7252H11.8447V75.2747ZM11.8447 70.8791H11.2976V71.4285H10.7505V70.8791H11.2976V70.3297H11.8447V70.8791ZM12.9389 76.3737H12.3918V75.2748H12.9389V76.3737ZM12.9389 72.5275H12.3918V71.9781H12.9389V72.5275ZM14.0331 79.6704H13.486V79.1209H14.0331V79.6704ZM14.5804 70.8791H13.4862V69.7802H10.2034V67.5824H10.7505V68.1318H11.8447V68.6812H14.0333V69.2307H14.5804V70.8791ZM16.2217 76.3737H16.7688V76.9231H16.2217V76.3737ZM17.3159 81.3187H16.7688V80.7692H17.3159V81.3187ZM20.0515 71.9779H20.5986V72.5274H20.0515V71.9779ZM20.0515 73.0769H20.5986V73.6264H20.0515V73.0769ZM20.0515 74.7252H20.5986V75.2747H21.1457V75.8241H20.5986V75.2747H20.0515V74.7252ZM19.5044 78.0219V78.5714H18.9573V78.0219H19.5044ZM18.4102 71.9779H18.9573V72.5274H18.4102V71.9779ZM18.4102 80.7692H17.8631V77.4725H18.4102V80.7692ZM18.4102 75.8242H18.9573V76.9231H18.4102V75.8242ZM19.5044 81.3187H18.9573V80.7692H19.5044V81.3187ZM21.693 81.3187H21.1459V82.4175H20.5988V81.8681H20.0517V81.3187H21.1459V80.7692H20.5988V80.2198H20.0517V79.6704H19.5046V79.1209H20.0517V79.6704H20.5988V80.2198H21.693V81.3187ZM21.693 79.6704H21.1459V78.0221H20.5988V76.3738H21.1459V78.0221H21.693V79.6704ZM22.7872 82.4175H22.2401V81.8681H22.7872V82.4175ZM22.7872 81.3187H22.2401V80.7692H22.7872V81.3187ZM22.7872 79.6704H22.2401V78.5715H22.7872V79.6704ZM22.7872 78.0219H22.2401V77.4725H22.7872V78.0219ZM23.3343 76.9231H22.7872V76.3737H23.3343V76.9231ZM23.3343 75.8242H22.7872V75.2748H22.2401V74.7254H22.7872V75.2748H23.3343V75.8242ZM23.3343 74.1758H22.7872V73.6264H23.3343V74.1758ZM24.4285 76.3737H23.8814V74.7254H24.4285V76.3737ZM41.9365 76.3737H41.3894V75.8242H41.9365V76.3737ZM52.3318 79.6704H51.7847V79.1209H52.3318V79.6704Z" fill="#00020C"/>
    <path d="M27.1641 76.9231H26.0699V77.4725H27.1641V76.9231Z" fill="#00020C"/>
    <path d="M5.27903 51.0991H4.73206V52.198H5.27903V51.0991Z" fill="#00020C"/>
    <path d="M26.0697 79.6704H25.5228V80.2198H26.0697V79.6704Z" fill="#00020C"/>
    <path d="M40.8421 93.4065H40.2952V93.9559H40.8421V93.4065Z" fill="#00020C"/>
    <path d="M20.5985 85.165H20.0515V85.7145H20.5985V85.165Z" fill="#00020C"/>
    <path d="M21.6927 86.8132H21.1457V87.3627H21.6927V86.8132Z" fill="#00020C"/>
    <path d="M3.09049 19.7803H2.54352V20.3297H3.09049V19.7803Z" fill="#00020C"/>
    <path d="M30.9938 84.0659H30.4468V85.1648H30.9938V84.0659Z" fill="#00020C"/>
    <path d="M19.5042 86.8132H18.9573V87.3627H19.5042V86.8132Z" fill="#00020C"/>
    <path d="M3.63761 36.2637H3.09064V36.8131H3.63761V36.2637Z" fill="#00020C"/>
    <path d="M6.92038 80.7693H6.37341V81.3187H6.92038V80.7693Z" fill="#00020C"/>
    <path d="M30.9938 85.7141H30.4468V86.2635H30.9938V85.7141Z" fill="#00020C"/>
    <path d="M37.0124 76.9231H35.9182V77.4725H37.0124V76.9231Z" fill="#00020C"/>
    <path d="M34.2767 85.1647H33.1825V84.6152H32.0883V85.7141H32.6354V86.2635H34.8238V85.7141H34.2767V85.1647Z" fill="#00020C"/>
    <path d="M32.6353 76.9231H31.5411V77.4725H32.6353V76.9231Z" fill="#00020C"/>
    <path d="M30.994 76.9231H29.3527V77.4725H30.994V76.9231Z" fill="#00020C"/>
    <path d="M30.9938 81.3186H30.4468V82.4175H30.9938V81.3186Z" fill="#00020C"/>
    <path d="M35.9179 85.7141H35.3709V86.813H35.9179V85.7141Z" fill="#00020C"/>
    <path d="M32.088 84.0659H31.5411V84.6153H32.088V84.0659Z" fill="#00020C"/>
    <path d="M35.3708 85.165H34.8238V85.7145H35.3708V85.165Z" fill="#00020C"/>
    <path d="M38.6535 12.6372H38.1066V13.1866H38.6535V12.6372Z" fill="#00020C"/>
    <path d="M37.5594 15.9341H37.0124V17.0329H37.5594V15.9341Z" fill="#00020C"/>
    <path d="M35.3708 1.64844H34.8238V2.19787H35.3708V1.64844Z" fill="#00020C"/>
    <path d="M51.2376 17.5825H50.1434V18.1319H51.2376V17.5825Z" fill="#00020C"/>
    <path d="M52.8787 18.1316H52.3318V18.681H52.8787V18.1316Z" fill="#00020C"/>
    <path d="M57.2557 20.8794H56.7087V21.4288H57.2557V20.8794Z" fill="#00020C"/>
    <path d="M54.5202 18.6816H53.9733V19.2311H54.5202V18.6816Z" fill="#00020C"/>
    <path d="M17.3158 9.34076H17.8631V8.2419H18.4102V5.49462H17.8631V3.84619H16.7687V5.49462H17.3158V6.04405H16.7687V8.79133H17.3158V9.34076Z" fill="#00020C"/>
    <path d="M1.44919 73.0769H0.902222V73.6263H1.44919V73.0769Z" fill="#00020C"/>
    <path d="M1.99625 20.3296H1.44928V20.879H1.99625V20.3296Z" fill="#00020C"/>
    <path d="M1.44919 75.2749H0.902222V75.8243H1.44919V75.2749Z" fill="#00020C"/>
    <path d="M19.5044 4.94519H18.9573V9.34076H20.0515V8.2419H19.5044V7.69233H20.0515V3.84619H18.4102V4.39576H19.5044V4.94519Z" fill="#00020C"/>
    <path d="M1.44919 9.89014H0.902222V10.4396H1.44919V9.89014Z" fill="#00020C"/>
    <path d="M33.7295 0H33.1825V0.549429H33.7295V0Z" fill="#00020C"/>
    <path d="M2.54343 43.9563H1.99646V44.5057H2.54343V43.9563Z" fill="#00020C"/>
    <path d="M50.6903 80.7693H49.049V81.3187H50.6903V80.7693Z" fill="#00020C"/>
    <path d="M57.803 90.1101H57.256V90.6595H57.803V90.1101Z" fill="#00020C"/>
    <path d="M4.73208 76.3736V75.8242H4.18498V74.7252H3.63788V74.1758H3.09064V75.8242H3.63788V76.3736H4.18498V77.4725H5.27919V76.3736H4.73208Z" fill="#00020C"/>
    <path d="M52.3317 87.3628H51.7847V87.9122H52.3317V87.3628Z" fill="#00020C"/>
    <path d="M51.2376 91.2087H50.1434V91.7582H51.2376V91.2087Z" fill="#00020C"/>
    <path d="M40.8422 84.6152H39.748V85.1647H40.8422V84.6152Z" fill="#00020C"/>
    <path d="M46.3133 81.8679H45.7664V82.4173H46.3133V81.8679Z" fill="#00020C"/>
    <path d="M44.672 85.165H44.125V85.7145H44.672V85.165Z" fill="#00020C"/>
    <path d="M42.4834 83.5166H41.9364V84.066H42.4834V83.5166Z" fill="#00020C"/>
    <path d="M24.9757 81.8681V80.7693H24.4285V81.3187H23.8813V81.8681H24.9757Z" fill="#00020C"/>
    <path d="M57.2561 25.2748H56.1618V23.6266H55.6147V22.5277H53.9734V21.4288H51.2378V19.7806H50.6907V20.33H49.5965V19.7806H48.5023V20.33H47.9552V19.7806H46.861V18.6817H44.6724V19.2311H44.1253V18.6817H41.9368V17.5828H35.9184V17.0334H35.3713V17.5828H34.8242V17.0334H35.3713V16.484H30.9943V15.9346H30.4472V15.3851H30.9943V14.8357H29.9001V16.484H29.353V15.9346H28.8059V16.484H28.2588V13.7367H29.353V13.1873H28.2588V12.0884H27.7117V10.9896H27.1646V10.4401H27.7117V4.39584H27.1646V3.84642H27.7117V3.29699H27.1646V2.74756H26.0704V3.84642H26.6175V4.94527H26.0704V5.4947H26.6175V6.04413H27.1646V6.59356H26.0704V7.69241H26.6175V8.24184H26.0704V9.3407H26.6175V12.6374H27.1646V15.9341H26.6175V14.8353H24.4289V15.3847H23.8818V14.8353H20.5991V13.7364H19.5049V14.8353H18.9578V13.7364H17.8636V15.3847H17.3165V13.7364H13.4866V13.187H14.5808V12.6376H14.0337V12.0881H13.4866V10.9893H14.5808V11.5387H17.3165V10.9893H17.8636V11.5387H21.6934V10.4398H20.5992V9.89041H12.3924V8.24213H11.8453V7.6927H12.3924V6.59384H12.9395V6.04441H12.3924V4.94556H10.7511V5.49499H11.2982V8.7917H10.7511V9.34113H11.2982V9.89056H11.8453V10.44H11.2982V12.0883H11.8453V11.5388H12.3924V10.9894H12.9395V15.385H12.3924V13.7367H11.2982V13.1873H10.7511V9.34084H10.204V8.79141H10.7511V7.14313H10.204V6.04427H9.1098V6.5937H8.5627V6.04427H7.46849V7.14313H8.01559V7.69256H7.46849V16.4837H6.92139V15.9343H6.37429V15.3848H6.92139V7.14313H5.82719V10.9893H5.28008V8.79141H4.73298V8.24199H4.18588V8.79141H3.63878V9.34084H4.18588V10.9891H3.09167V12.088H4.18588V12.6374H3.09167V13.7363H3.63878V14.2857H3.09167V15.3846H3.63878V16.4834H3.09167V17.5823H3.63878V18.1317H3.09167V18.6811H4.18588V19.78H4.73298V20.3294H5.28008V21.4283H5.82719V22.5271H8.56284V23.626H11.8456V24.1754H12.9398V25.2743H16.2226V24.7248H16.7697V25.2743H17.3168V26.3731H22.7881V26.9226H23.3352V27.472H26.6179V26.3731H23.8823V25.8237H23.3352V24.1754H23.8823V23.0766H23.3352V22.5271H24.4294V24.1754H24.9765V21.4281H27.165V20.8787H26.6179V20.3293H25.5237V20.8787H24.9766V20.3293H25.5237V19.7798H24.9766V19.2304H24.4295V18.681H25.5237V19.7798H26.6179V20.3293H28.8065V19.2304H28.2594V19.7798H27.7123V19.2304H27.1652V18.681H32.0892V18.1316H31.5421V17.5821H32.0892V18.1316H32.6363V18.681H37.5604V18.1316H38.1075V18.681H37.5604V19.2304H34.8247V19.7798H38.6546V20.3293H43.5786V20.8787H40.2952V21.4281H47.9549V21.9776H45.2192V22.527H49.5962V23.0764H48.502V23.6258H50.6905V24.1753H51.2376V24.7247H50.6905V25.2741H52.332V25.8236H51.7849V26.373H53.9734V26.9224H52.8792V27.4718H53.9734V29.1201H54.5205V30.219H55.6147V29.6696H56.1618V30.219H55.6147V30.7684H54.5205V31.8673H55.6147V32.4167H54.5205V32.9661H55.6147V33.5156H55.0676V34.6144H55.6147V35.1638H56.1618V35.7133H56.709V34.6144H56.1618V32.4166H56.709V32.966H57.8032V32.4166H57.2561V25.2748ZM6.92054 20.8793H5.82633V20.3298H6.92054V20.8793ZM6.92054 18.6816H5.82633V19.7804H5.27923V18.6816H4.73213V15.3848H4.18503V14.8354H4.73213V11.5387H5.27923V12.0881H5.82633V12.6376H5.27923V13.7364H6.37343V14.2858H5.27923V17.5826H5.82633V18.132H6.92054V18.6816ZM8.56198 7.69241H9.10909V8.24184H9.65619V7.69241H10.2033V8.24184H9.65619V8.79127H8.56198V7.69241ZM8.56198 9.34084H9.10909V9.89027H9.65619V10.4397H9.10909V13.187H10.2033V13.7364H8.56198V9.34084ZM10.2033 14.2858V14.8353H9.65619V14.2858H10.2033ZM8.01488 14.8353H8.56198V15.3847H8.01488V14.8353ZM7.46778 17.0331H8.01488V17.5826H7.46778V17.0331ZM8.56198 20.8793H8.01488V20.3298H8.56198V20.8793ZM9.10909 18.132H8.56198V18.6814H8.01488V18.132H8.56198V17.5826H9.10909V18.132ZM9.10909 16.4837H9.65619V17.0331H9.10909V16.4837ZM10.2033 23.0771H9.65619V21.4288H10.2033V23.0771ZM11.2976 20.3298H10.7505V19.7804H11.2976V20.3298ZM11.8447 18.132H11.2976V17.0331H10.7505V16.4837H10.2034V15.9343H10.7505V16.4837H11.2976V17.0331H11.8447V18.132ZM12.9389 19.231H12.3918V18.6816H12.9389V19.231ZM14.5804 15.9343H14.0333V15.3848H14.5804V15.9343ZM15.6746 21.9781H15.1275V21.4287H15.6746V21.9781ZM15.6746 15.3848V14.8354H16.2217V15.3848H15.6746ZM16.7688 17.5826V18.132H16.2217V17.5826H16.7688ZM17.3159 23.6266H16.7688V23.0771H17.3159V23.6266ZM17.3159 19.7804H16.7688V19.231H16.2217V18.6816H16.7688V19.231H17.3159V19.7804ZM22.2401 17.5826H22.7872V18.132H22.2401V17.5826ZM20.5987 17.5826H21.1458V18.132H20.5987V17.5826ZM19.5044 25.2748H18.9573V23.6266H18.4102V23.0771H17.8631V19.7804H18.4102V23.0771H19.5044V25.2748ZM20.0516 22.5277H19.5044V20.3298H20.0516V22.5277ZM19.5044 19.231V18.6816H20.0516V19.231H20.5987V19.7804H20.0516V19.231H19.5044ZM21.693 22.5277H21.1459V23.0771H21.693V24.176H21.1459V25.2748H20.5988V24.176H21.1459V23.0771H20.5988V22.5277H21.1459V20.3298H21.693V22.5277ZM21.693 19.7804H21.1459V18.6816H21.693V19.7804ZM22.7872 25.2748H22.2401V22.5276H22.7872V25.2748ZM22.7872 21.9781H22.2401V21.4287H22.7872V21.9781ZM23.3343 20.8793H22.7872V20.3298H23.3343V20.8793ZM23.3343 19.231H22.7872V18.6816H23.3343V19.231ZM23.3343 15.9343H23.8814V16.4837H23.3343V15.9343ZM24.4285 21.4287H23.8814V19.7804H24.4285V21.4287ZM25.5229 18.132H24.9758V17.5826H24.4287V17.0331H24.9758V17.5826H25.5229V18.132ZM26.07 16.4837H25.5229V15.9343H26.07V16.4837ZM28.2584 17.5826H27.7113V18.132H27.1642V17.5826H27.7113V17.0331H28.2584V17.5826ZM29.8998 18.132H29.3527V17.5826H29.8998V18.132ZM55.0675 28.0221H54.5204V27.4727H55.0675V28.0221Z" fill="#00020C"/>
    <path d="M4.73208 67.5824H5.27919V66.4835H4.73208V65.9341H4.18498V68.1318H3.63788V67.0329H3.09064V69.2308H3.63788V69.7802H3.09064V70.8791H4.18498V71.4285H3.63788V71.9779H3.09064V72.5275H3.63788V74.1758H4.73208V67.5824Z" fill="#00020C"/>
    <path d="M5.82626 65.9342H6.37336V64.8352H4.73206V65.3848H5.27916V66.4836H5.82626V65.9342Z" fill="#00020C"/>
    <path d="M17.3158 69.7805H16.2216V70.3299H17.3158V69.7805Z" fill="#00020C"/>
    <path d="M59.4443 31.8682H58.8973V32.4176H59.4443V31.8682Z" fill="#00020C"/>
    <path d="M58.8972 79.6704H58.3502V80.2198H58.8972V79.6704Z" fill="#00020C"/>
    <path d="M61.6328 87.9121H61.0859V88.4615H61.6328V87.9121Z" fill="#00020C"/>
    <path d="M39.2007 83.5166H38.6537V84.066H39.2007V83.5166Z" fill="#00020C"/>
    <path d="M46.8605 97.8022H46.3135V98.3517H46.8605V97.8022Z" fill="#00020C"/>
    <path d="M61.6328 21.978H61.0859V22.5275H61.6328V21.978Z" fill="#00020C"/>
    <path d="M46.3133 87.3628H45.7664V88.4617H46.3133V87.3628Z" fill="#00020C"/>
    <path d="M41.3892 98.3518H40.8422V98.9012H41.3892V98.3518Z" fill="#00020C"/>
    <path d="M40.8421 96.1541H40.2952V96.7035H40.8421V96.1541Z" fill="#00020C"/>
    <path d="M12.9389 66.4833H14.5804V64.2855H14.0331V63.7361H14.5804V63.1866H14.0331V62.6372H12.9389V66.4833Z" fill="#00020C"/>
    <path d="M44.672 99.4507H44.125V100H44.672V99.4507Z" fill="#00020C"/>
    <path d="M59.9914 91.2087H59.4444V91.7582H59.9914V91.2087Z" fill="#00020C"/>
    <path d="M55.6146 91.7582H53.9733V91.2087H53.4262V90.1099H52.8791V89.5605H52.3319V89.011H51.2377V90.1099H51.7848V90.6593H52.3319V91.7582H52.8791V92.857H52.3319V92.3076H50.1434V92.857H50.6905V93.9559H50.1434V92.857H49.5963V92.3076H49.0492V91.7582H49.5963V91.2087H48.5021V91.7582H47.955V90.6593H48.5021V90.1099H47.955V89.011H48.5021V89.5605H49.5963V90.1099H50.6905V89.011H50.1434V88.4616H46.8606V89.011H47.4077V91.2089H46.8606V89.5605H46.3135V89.011H45.7664V88.4616H45.2193V87.3627H44.1251V89.5606H43.578V90.11H43.0309V89.0112H43.578V87.3629H41.9367V86.8135H41.3896V87.3629H40.2954V86.264H39.7483V85.7146H38.6541V86.264H39.2012V87.3629H39.7483V87.9123H41.9369V95.0552H42.484V96.154H47.408V96.7035H48.5022V96.154H47.9551V95.6046H47.408V94.5057H47.9551V95.0552H51.785V95.6046H52.8792V95.0552H52.3321V94.5057H51.785V93.4069H52.8792V93.9563H54.5205V92.308H55.0676V92.8575H56.1618V92.308H55.6147L55.6146 91.7582ZM44.125 95.6043H43.5779V94.5055H44.125V95.6043ZM44.125 91.2087H43.5779V90.6593H44.125V91.2087ZM45.7663 92.3076H45.2192V91.7582H45.7663V92.3076ZM45.7663 91.2087H45.2192V89.5603H45.7663V91.2087ZM46.8606 92.3076V91.7582H47.4077V92.3076H46.8606ZM48.5019 93.956H47.9548V93.4066H47.4077V92.8572H47.9548V93.4066H48.5019V93.956Z" fill="#00020C"/>
    <path d="M59.9914 79.1206H59.4444V79.67H59.9914V79.1206Z" fill="#00020C"/>
    <path d="M38.6536 90.1101H38.1066V90.6595H38.6536V90.1101Z" fill="#00020C"/>
    <path d="M61.6328 52.7473H61.0859V53.2967H61.6328V52.7473Z" fill="#00020C"/>
    <path d="M61.0857 56.0439H60.5387V56.5934H61.0857V56.0439Z" fill="#00020C"/>
    <path d="M59.9914 53.2966H59.4444V53.8461H59.9914V53.2966Z" fill="#00020C"/>
    <path d="M23.8814 39.011H22.7872V40.1098H23.8814V39.011Z" fill="#00020C"/>
    <path d="M30.9938 70.3296H30.4468V71.4284H30.9938V70.3296Z" fill="#00020C"/>
    <path d="M55.6145 63.1868H55.0675V63.7362H55.6145V63.1868Z" fill="#00020C"/>
    <path d="M11.2976 38.4616H11.8447V40.11H16.7688V39.011H16.2217V38.4616H15.1274V39.011H14.0331V38.4616H12.3918V36.8133H11.8447V36.2637H12.3918V33.5166H10.2032V34.6155H11.2976V35.1649H10.7505V35.7143H11.2976V38.4616Z" fill="#00020C"/>
    <path d="M38.6537 48.3518H34.2767V48.9012H38.6537V48.3518Z" fill="#00020C"/>
    <path d="M24.9754 71.4285H24.4285V71.9779H24.9754V71.4285Z" fill="#00020C"/>
    <path d="M47.4076 57.6921H46.8606V58.2416H47.4076V57.6921Z" fill="#00020C"/>
    <path d="M37.0123 71.4285H36.4653V71.9779H37.0123V71.4285Z" fill="#00020C"/>
    <path d="M32.6353 69.7805H31.5411V71.4288H32.6353V69.7805Z" fill="#00020C"/>
    <path d="M34.2767 20.3298V19.231H33.1825V19.7804H33.7296V20.3298H34.2767Z" fill="#00020C"/>
    <path d="M15.1275 41.2089H14.5804V40.6594H13.486V41.7583H15.1275V41.2089Z" fill="#00020C"/>
    <path d="M36.4651 25.8242H35.9182V26.3736H36.4651V25.8242Z" fill="#00020C"/>
    <path d="M40.8421 27.4727H40.2952V28.0221H40.8421V27.4727Z" fill="#00020C"/>
    <path d="M39.2007 25.8242H38.6537V26.3736H39.2007V25.8242Z" fill="#00020C"/>
    <path d="M23.3343 42.8573H23.8814V42.3079H22.7872V43.4067H23.3343V42.8573Z" fill="#00020C"/>
    <path d="M23.8813 43.4065H23.3343V43.9559H23.8813V43.4065Z" fill="#00020C"/>
    <path d="M41.9363 26.3738H41.3893V26.9232H41.9363V26.3738Z" fill="#00020C"/>
    <path d="M32.6353 72.5278H32.0883V73.0773H32.6353V72.5278Z" fill="#00020C"/>
    <path d="M55.0673 74.1758H54.5203V74.7252H55.0673V74.1758Z" fill="#00020C"/>
    <path d="M55.0674 76.3735H54.5204V76.923H55.0674V76.3735Z" fill="#00020C"/>
    <path d="M48.502 62.0881V63.187H50.1434V62.6376H49.5962V62.0881H48.502Z" fill="#00020C"/>
    <path d="M51.7845 69.2307H51.2375V69.7801H51.7845V69.2307Z" fill="#00020C"/>
    <path d="M53.4259 68.6814H52.879V69.2308H53.4259V68.6814Z" fill="#00020C"/>
    <path d="M47.9547 53.8462H47.4077V54.3956H47.9547V53.8462Z" fill="#00020C"/>
    <path d="M50.1431 57.1428H49.5961V57.6923H50.1431V57.1428Z" fill="#00020C"/>
    <path d="M49.049 57.6921H47.9548V58.2416H49.049V57.6921Z" fill="#00020C"/>
    <path d="M46.3133 69.2307H45.7664V69.7801H46.3133V69.2307Z" fill="#00020C"/>
    <path d="M44.672 24.7253H44.125V25.2748H44.672V24.7253Z" fill="#00020C"/>
    <path d="M38.6537 68.6814H39.2009V67.0329H38.6537V65.9341H37.5594V67.0329H38.1066V67.5824H37.5594V68.6814H38.1066V69.2308H37.5594V70.3296H38.6537V68.6814Z" fill="#00020C"/>
    <path d="M37.0124 67.0331V64.8352H35.9182V69.7803H37.0124V67.5825H37.5595V67.0331H37.0124Z" fill="#00020C"/>
    <path d="M50.1431 74.7251H49.5961V75.2745H50.1431V74.7251Z" fill="#00020C"/>
    <path d="M50.6903 68.1316H50.1434V68.681H50.6903V68.1316Z" fill="#00020C"/>
    <path d="M38.6535 73.6262H38.1066V74.1757H38.6535V73.6262Z" fill="#00020C"/>
    <path d="M39.748 67.0332V68.6816H40.8422V68.1321H40.2952V67.0332H39.748Z" fill="#00020C"/>
    <path d="M33.7295 70.8792H33.1825V71.4286H33.7295V70.8792Z" fill="#00020C"/>
    <path d="M18.4101 36.2637H17.8631V36.8131H18.4101V36.2637Z" fill="#00020C"/>
    <path d="M16.2215 28.022H15.6746V28.5714H16.2215V28.022Z" fill="#00020C"/>
    <path d="M16.7687 32.4175V37.9121H17.8631V36.8132H17.3158V36.2636H17.8631V35.7142H18.4102V33.5165H17.8631V32.4175H16.7687Z" fill="#00020C"/>
    <path d="M16.7688 41.209H15.6746V41.7584H16.7688V41.209Z" fill="#00020C"/>
    <path d="M18.9572 37.3629H18.4101V37.9123H18.9572V38.4617H18.4101V37.9123H17.863V39.0111H17.3158V39.5606H17.863V40.1101H18.4101V39.5606H18.9572V40.1101H21.6929V39.5606H22.24V39.0111H20.5985V38.4617H19.5043V37.9123H20.0514V33.5167H19.5043V32.9673H18.4101V33.5167H18.9572V37.3629Z" fill="#00020C"/>
    <path d="M20.0514 27.4727H19.5044V28.0221H20.0514V27.4727Z" fill="#00020C"/>
    <path d="M19.5044 32.4176H20.0515V32.9671H20.5986V37.9121H21.6929V37.3627H22.24V35.7143H21.6929V35.1649H22.24V34.066H21.6929V32.9671H22.24V31.8681H22.7872V35.1649H22.24V35.7143H22.7872V37.9121H23.8814V31.3187H21.1457V32.4176H20.5986V31.3187H20.0515V30.7693H19.5044V32.4176Z" fill="#00020C"/>
    <path d="M18.4101 28.5713H17.8631V29.1207H18.4101V28.5713Z" fill="#00020C"/>
    <path d="M6.92038 25.2747H6.37341V25.8241H6.92038V25.2747Z" fill="#00020C"/>
    <path d="M23.8813 28.5713H23.3343V29.1207H23.8813V28.5713Z" fill="#00020C"/>
    <path d="M6.3732 24.176H5.82623V24.7255H6.3732V24.176Z" fill="#00020C"/>
    <path d="M10.2031 25.2747H9.65613V25.8241H10.2031V25.2747Z" fill="#00020C"/>
    <path d="M15.1274 26.3738H14.5804V26.9232H15.1274V26.3738Z" fill="#00020C"/>
    <path d="M14.0331 32.4176V32.9672H14.5803V34.066H15.1274V33.5166H15.6745V34.066H15.1274V37.9122H16.2216V32.4176H15.1274V31.8682H14.5803V32.4176H14.0331Z" fill="#00020C"/>
    <path d="M57.256 56.044H56.7089V55.4945H57.256V53.8462H56.1618V52.7474H55.6147V51.6485H55.0676V51.0991H54.5205V50.0002H52.8792V49.4508H52.3321V48.9014H49.0493V48.352H48.5022V48.9014H47.9551V47.2531H47.408V48.352H46.8609V47.8025H46.3138V47.2531H45.2196V47.8025H44.6725V47.2531H43.5783V47.8025H43.0312V47.2531H42.4841V46.1542H36.4657V45.0554H32.6358V45.6048H32.0888V45.0554H29.9002V43.9565H26.6174V43.4071H26.0703V42.3082H24.429V42.8577H24.9761V43.9565H23.8819V44.506H23.3348V43.9565H22.7877V43.4071H22.2406V42.3082H20.5993V42.8577H20.0522V42.3082H19.5051V41.2094H18.4109V41.7588H18.958V42.8577H18.4109V43.4071H17.8638V43.9565H17.3167V43.4071H17.8638V42.8577H17.3167V42.3082H15.6754V42.8577H15.1283V42.3082H13.487V41.7588H12.9399V41.2094H10.2042V40.66H10.7513V35.715H10.2042V35.1655H9.65714V35.715H9.11004V37.3633H9.65714V37.9127H8.56294V35.1654H7.46874V34.616H6.37453V35.1654H6.92163V36.2643H7.46874V45.0554H6.37453V44.506H6.92163V42.8577H6.37453V42.3082H6.92163V41.2094H6.37453V40.66H5.82743V41.2094H5.28033V44.5061H5.82743V45.0555H5.28033V47.2534H5.82743V46.704H6.92163V47.2534H5.82743V48.3522H5.28033V47.2534H4.73323V41.7588H4.18612V41.2094H4.73323V40.66H5.28033V40.1105H4.73323V39.5611H4.18612V38.4622H3.09192V39.5611H3.63902V40.1105H4.18612V40.66H3.63902V41.2094H3.09192V42.3082H3.63902V42.8577H3.09192V43.9565H3.63902V44.506H4.18612V45.0554H3.63902V45.6048H3.09192V46.1542H3.63902V47.2531H4.18612V48.9014H5.28033V50.0002H6.92163V51.0991H9.11018V52.198H9.65728V52.7474H13.4871V53.8462H16.7699V53.2968H17.317V53.8462H18.9583V54.9451H23.8824V53.8462H23.3353V52.7474H23.8824V52.198H23.3353V51.0991H23.8824V52.198H24.4295V52.7474H24.9766V50.0001H26.6179V49.4507H24.4293V50.0001H23.8822V48.9012H24.9764V47.8024H24.4293V47.253H24.9764V47.8024H25.5235V48.9012H28.8063V48.3518H28.2592V47.253H28.8063V46.7035H28.2592V46.1541H28.8063V46.7035H29.3534V47.8024H30.4476V47.253H30.9947V47.8024H33.1832V47.253H33.7303V47.8024H35.3716V47.253H35.9187V47.8024H38.6544V48.3518H39.2015V48.9012H45.2199V49.4507H41.9372V50.0001H47.9556V50.5495H46.8613V51.099H49.597V52.7472H52.3327V53.2967H50.6912V53.8461H53.4269V54.3955H51.7856V54.945H54.5212V55.4944H52.8799V56.0438H53.9741V56.5932H54.5212V58.7911H55.6154V59.3405H54.5212V60.4394H55.0683V60.9888H54.5212V61.5382H55.6154V62.6371H56.7096V62.0877H56.1625V60.9888H56.7096V61.5382H57.8038V60.9888H57.2567V56.044H57.256ZM10.2032 41.7583H10.7503V42.3077H10.2032V41.7583ZM10.2032 43.4065V43.956H9.65615V43.4065H10.2032ZM8.56194 38.4615H9.10905V40.6594H9.65615V41.2088H9.10905V42.3077H8.56194V38.4615ZM8.01484 43.4065H8.56194V43.956H8.01484V43.4065ZM8.01484 48.3517H7.46774V47.8022H8.01484V48.3517ZM8.56194 47.2528V46.7034H8.01484V46.154H7.46774V45.6045H8.01484V46.154H8.56194V46.7034H9.10905V47.2528H9.65615V47.8022H10.2032V48.3517H9.65615V47.8022H9.10905V47.2528H8.56194ZM11.2976 51.6484H10.7505V51.099H10.2034V50.5495H9.65629V50.0001H9.10919V49.4507H9.65629V50.0001H10.2034V50.5495H10.7505V51.099H11.2976V51.6484ZM12.9389 52.1978H12.3918V51.6484H12.9389V52.1978ZM12.9389 47.8022H12.3918V45.6044H12.9389V47.8022ZM12.9389 43.9561H12.3918V42.3078H11.2976V41.7584H12.3918V42.3078H12.9389V43.9561ZM14.0331 48.3517H13.486V47.8022H14.0331V48.3517ZM14.0331 43.4065H14.5802V44.5054H14.0331V43.4065ZM15.6746 50.5494H15.1275V49.4505H14.5803V48.9011H15.1275V49.4505H15.6746V50.5494ZM15.6746 46.1538H15.1275V45.6044H15.6746V46.1538ZM15.6746 43.4065H16.2217V43.956H15.6746V43.4065ZM16.2217 46.7032V46.1538H16.7688V46.7032H16.2217ZM17.3159 52.1978H16.7688V51.6484H17.3159V52.1978ZM17.3159 50.5494H16.7688V50H17.3159V50.5494ZM18.4102 51.6484H17.8631V50.5495H18.4102V51.6484ZM18.4102 50H17.8631V48.3517H18.4102V50ZM20.5986 45.6044V46.7032H20.0515V45.6044H20.5986ZM20.5986 50V50.5494H20.0515V51.0988H19.5044V50.5494H20.0515V50H20.5986ZM19.5044 43.4065H20.0515V43.956H19.5044V43.4065ZM18.9573 47.2528H19.5044V47.8022H20.0515V48.9011H19.5044V47.8022H18.9573V47.2528ZM20.5986 54.3957H20.0515V53.8462H19.5044V52.7474H18.9573V52.198H19.5044V52.7474H20.0515V53.2968H20.5986V54.3957ZM21.693 51.099H21.1459V52.1978H21.693V53.2967H21.1459V52.1978H20.5988V51.099H21.1459V47.2528H21.693V51.099ZM21.693 43.9561H21.1459V42.8572H21.693V43.9561ZM22.7872 53.8461H22.2401V53.2967H22.7872V53.8461ZM22.7872 52.7472H22.2401V51.099H22.7872V52.7472ZM23.3343 50H22.7872V50.5494H22.2401V50H22.7872V48.9011H23.3343V50ZM23.8814 48.3517H23.3343V47.8022H22.7872V46.7034H22.2401V46.154H22.7872V46.7034H23.3343V47.8022H23.8814V48.3517ZM24.4285 46.7032H23.8814V46.1538H23.3343V45.6044H23.8814V46.1538H24.4285V46.7032ZM26.617 44.5055H27.1641V45.055H26.617V44.5055ZM25.5228 46.1538H26.0699V47.2527H25.5228V46.1538ZM27.7112 48.3517H27.1641V47.8022H26.617V48.3517H26.0699V47.8022H26.617V47.2528H27.1641V47.8022H27.7112V48.3517ZM28.8056 45.055H28.2585V44.5055H28.8056V45.055ZM30.994 46.7032H30.4469V46.1538H30.994V46.7032ZM51.7847 50H51.2376V49.4505H51.7847V50ZM55.0675 53.8461V53.2967H55.6146V53.8461H55.0675ZM56.1617 60.4395H55.6146V59.8901H56.1617V60.4395Z" fill="#00020C"/>
    <path d="M14.58 31.3186H14.0331V31.868H14.58V31.3186Z" fill="#00020C"/>
    <path d="M32.6354 19.231H30.994V19.7804H31.5411V20.3298H32.6354V19.231Z" fill="#00020C"/>
    <path d="M27.1641 26.9232H27.7112V28.0221H28.8056V27.4726H28.2583V26.3738H27.1641V26.9232Z" fill="#00020C"/>
    <path d="M30.4469 39.011H29.8998V40.11H30.4469V40.6594H30.994V41.2089H31.5411V37.9122H32.0883V39.011H32.6354V39.5604H32.0883V41.2089H31.5411V41.7583H30.4469V42.3077H32.6354V42.8572H33.7296V42.3077H33.1825V34.066H32.6354V33.5166H32.0883V36.8133H32.6354V37.3627H32.0883V36.8133H31.5411V33.5166H30.994V31.8682H29.8998V32.9672H30.4469V33.5166H29.8998V35.1649H30.4469V35.7143H29.8998V36.2637H30.4469V37.3627H29.8998V37.9122H30.4469V39.011Z" fill="#00020C"/>
    <path d="M28.2582 20.8794H27.7112V21.4288H28.2582V20.8794Z" fill="#00020C"/>
    <path d="M29.3527 28.0221H29.8998V28.5715H30.4469V29.1209H31.5411V28.5715H32.0882V29.1209H32.6353V30.2198H31.5411V29.6703H29.8998V30.2198H29.3527V29.6703H28.2584V39.011H27.7113V39.5605H27.1642V41.7583H28.2584V42.8572H29.8998V41.7583H29.3527V41.2089H28.2584V40.6595H29.3527V39.0112H29.8998V37.9123H29.3527V30.7695H29.8998V31.3189H32.0883V31.8683H31.5412V32.4178H33.7298V33.5166H34.2769V34.0661H35.9182V35.1649H37.5595V36.2638H39.2008V37.3626H40.295V37.9121H40.8421V39.0109H41.9363V40.1098H45.219V38.4615H45.7661V39.0109H49.596V37.9121H49.0489V37.3626H52.3316V37.9121H53.4258V37.3626H52.8787V36.2638H54.5201V35.1649H53.973V34.6155H54.5201V34.0661H53.973V33.5166H53.4258V32.9672H53.973V32.4178H52.8787V33.5166H52.3316V32.4178H50.1431V32.9672H51.2373V34.0661H52.8786V35.7143H52.3315V35.1649H51.2373V34.6155H50.1431V35.1649H49.596V33.5166H49.0489V31.8683H48.5018V31.3189H46.8605V32.4178H47.9547V32.9672H48.5018V33.5166H47.4076V34.6155H47.9547V35.1649H47.4076V34.6155H46.8605V33.5166H46.3134V31.3188H45.7663V32.9671H45.2192V31.3188H43.5779V30.2199H42.4837V29.6705H41.9366V30.2199H38.1067V29.6705H37.5596V28.5716H34.2769V29.1211H35.9182V30.2199H33.7296V29.6705H33.1825V28.5716H32.6354V28.0222H33.1825V27.4728H32.0883V28.0222H31.5412V27.4728H30.447V26.9233H28.8057V27.4728H29.3528V28.0221H29.3527ZM51.2376 35.7143H51.7847V36.2638H51.2376V35.7143ZM48.5019 35.7143H49.049V36.2638H48.5019V35.7143ZM47.4077 37.3628H47.9548V37.9122H47.4077V37.3628ZM46.3135 37.9122H45.7664V37.3628H46.3135V37.9122ZM46.3135 35.7143V36.8132H45.7664V35.7143H46.3135ZM45.2192 34.0661H45.7663V35.1649H45.2192V34.0661ZM44.6721 35.1649H44.125V34.6155H44.6721V35.1649ZM43.0308 32.9672H43.5779V32.4178H43.0308V31.8683H43.5779V32.4178H44.125V34.0661H43.5779V33.5166H43.0308V32.9672ZM43.0308 37.9122H43.5779V38.4616H44.125V39.5605H43.5779V38.4616H43.0308V37.9122ZM41.9364 31.3188H42.4835V31.8682H41.9364V31.3188ZM41.9364 34.0661H42.4835V34.6155H41.9364V34.0661ZM41.9364 36.8133H42.4835V37.9122H41.9364V36.8133ZM41.3893 36.8133H40.2951V36.2639H40.8422V35.7145H41.3893V36.8133ZM40.8422 30.7693H41.3893V31.3188H40.8422V30.7693ZM40.2951 31.8682H40.8422V32.4176H40.2951V31.8682ZM40.2951 33.5166H40.8422V34.0661H40.2951V33.5166ZM39.2009 34.6155H39.748V35.1649H40.2951V35.7143H39.748V35.1649H39.2009V34.6155ZM38.1066 30.7693H38.6537V31.3188H38.1066V30.7693ZM38.1066 33.5166V34.0661H37.5595V33.5166H38.1066ZM37.5595 32.4176H37.0124V31.8682H37.5595V32.4176ZM36.4653 30.2199H37.0124V31.3188H36.4653V30.2199ZM35.9182 32.4176H36.4653V32.9671H35.9182V32.4176ZM34.2767 30.7693H34.8238V31.3188H34.2767V30.7693Z" fill="#00020C"/>
    <path d="M30.4469 19.231H29.3527V20.3298H30.4469V19.231Z" fill="#00020C"/>
    <path d="M32.6353 20.8794H32.0883V21.4288H32.6353V20.8794Z" fill="#00020C"/>
    <path d="M12.9389 37.3627V37.9122H14.5804V35.7143H14.0331V35.1649H14.5804V34.6155H14.0331V33.5166H12.9389V36.8133H13.486V37.3627H12.9389Z" fill="#00020C"/>
    <path d="M6.37341 40.6595H6.92051V37.3628H6.37341V36.2638H5.8263V35.7144H4.7321V36.8134H5.2792V37.3628H4.185V37.9122H5.2792V40.1101H6.37341V40.6595Z" fill="#00020C"/>
    <path d="M24.4285 35.7142V40.6593H24.9757V41.2087H26.0699V41.7582H26.617V40.1099H25.5228V39.0109H26.0699V38.4615H25.5228V35.7142H26.0699V34.6153H24.9757V34.0659H25.5228V33.5165H26.0699V32.967H25.5228V31.3186H24.4285V35.1647H24.9757V35.7142H24.4285Z" fill="#00020C"/>
    <path d="M27.1641 34.066V34.6154H26.617V35.7143H26.0699V36.2637H26.617V37.3627H26.0699V37.9121H26.617V39.011H27.1641V38.4615H27.7112V31.8681H27.1641V31.3187H27.7112V30.2198H27.1641V29.6704H26.0699V30.7693H26.617V31.8681H26.0699V32.4176H26.617V33.5166H26.0699V34.066H27.1641Z" fill="#00020C"/>
    <path d="M17.8628 41.209H17.3158V41.7584H17.8628V41.209Z" fill="#00020C"/>
    <path d="M25.5228 23.6265H26.0699V22.5276H26.617V21.978H25.5228V23.6265Z" fill="#00020C"/>
    <path d="M45.219 40.6594H44.6721V41.2089H45.219V40.6594Z" fill="#00020C"/>
    <path d="M45.7661 40.1101H45.2192V40.6595H45.7661V40.1101Z" fill="#00020C"/>
    <path d="M55.0674 36.2637H54.5204V36.8131H55.0674V36.2637Z" fill="#00020C"/>
    <path d="M16.7687 60.989V65.3847H17.3158V64.8352H17.8631V63.7363H18.4102V62.6374H17.8631V63.1869H17.3158V62.6374H17.8631V60.989H16.7687Z" fill="#00020C"/>
    <path d="M30.4469 62.6374V63.7363H29.8998V64.8352H30.4469V65.3847H29.8998V66.4836H30.4469V67.5824H29.8998V68.1319H30.4469V69.2309H31.5411V65.9342H30.994V65.3847H31.5411V60.989H30.4469V62.088H29.8998V62.6374H30.4469Z" fill="#00020C"/>
    <path d="M22.2401 11.5385H23.8814V12.6373H25.5228V11.5385H24.9757V10.9889H24.4285V10.4395H25.5228V8.79118H24.9757V8.24175H26.0699V7.69218H25.5228V4.39561H26.0699V3.84604H25.5228V2.74718H24.4285V9.34061H23.8814V2.74718H22.7872V3.29661H22.2401V2.19775H21.1457V3.84604H20.5986V9.34061H21.693V8.24175H22.2401V7.14275H21.693V6.04389H22.2401V4.39561H21.693V3.84604H22.7872V6.59332H22.2401V7.14275H22.7872V8.24175H22.2401V8.79118H22.7872V9.34061H23.3343V9.89004H23.8814V10.9889H23.3343V10.4395H22.7872V9.89004H21.693V10.4395H22.2401V11.5385Z" fill="#00020C"/>
    <path d="M32.088 65.3845H31.5411V65.934H32.088V65.3845Z" fill="#00020C"/>
    <path d="M27.7112 3.29683H28.2583V11.5387H29.8998V10.9891H29.3527V10.4397H29.8998V9.34083H29.3527V8.7914H29.8998V8.24198H29.3527V6.59355H29.8998V6.04412H28.8056V5.49469H29.3527V4.94526H29.8998V3.29683H29.3527V2.19798H30.4469V2.74741H30.994V3.29683H31.5411V3.84626H32.0883V9.89026H32.6354V10.4397H32.0883V13.187H32.6354V11.5387H33.1825V3.84626H32.6354V2.74741H32.0883V2.19798H31.5411V1.09912H28.8056V2.19798H28.2583V1.09912H27.1641V2.74741H27.7112V3.29683Z" fill="#00020C"/>
    <path d="M32.6354 65.9343H32.0883V69.231H33.1825V67.5826H33.7296V67.0331H33.1825V65.3848H33.7296V64.8353H33.1825V62.6376H32.6354V62.0881H32.0883V65.3848H32.6354V65.9343Z" fill="#00020C"/>
    <path d="M30.4469 6.04379V6.59322H29.8998V7.69208H30.4469V8.79108H29.8998V9.34051H30.4469V10.4394H29.8998V10.9888H30.4469V11.5384H29.8998V12.0878H30.4469V12.6372H29.8998V13.7361H30.994V14.2855H31.5411V4.94494H30.994V4.39551H30.4469V4.94494H29.8998V6.04379H30.4469Z" fill="#00020C"/>
    <path d="M34.2767 65.3845H33.7296V67.0328H34.2767V67.5822H33.7296V69.2305H33.1825V69.7799H34.8238V70.3293H35.3709V66.4833H34.8238V65.9339H35.3709V64.8351H34.8238V63.1868H34.2767V63.7362H33.7296V64.8351H34.2767V65.3845ZM34.8238 68.6812V69.2306H34.2767V68.6812H34.8238Z" fill="#00020C"/>
    <path d="M16.2216 12.6372H15.1274V13.1866H16.2216V12.6372Z" fill="#00020C"/>
    <path d="M30.9938 3.29688H30.4468V3.8463H30.9938V3.29688Z" fill="#00020C"/>
    <path d="M30.9938 43.9563H30.4468V44.5057H30.9938V43.9563Z" fill="#00020C"/>
    <path d="M32.088 43.4065H31.5411V44.5053H32.088V43.4065Z" fill="#00020C"/>
    <path d="M57.2557 50H56.7087V50.5494H57.2557V50Z" fill="#00020C"/>
    <path d="M35.3709 40.11V36.2639H34.8238V35.7145H34.2767V35.165H33.7296V41.209H35.3709V40.6596H34.8238V40.1102H35.3709V40.11ZM34.2767 37.3628V36.8133H34.8238V37.3628H34.2767Z" fill="#00020C"/>
    <path d="M24.9757 24.7253H24.4285V25.2748H23.8813V25.8243H24.9757V24.7253Z" fill="#00020C"/>
    <path d="M17.8629 12.6372H16.7687V13.1866H17.8629V12.6372Z" fill="#00020C"/>
    <path d="M15.1275 7.14302V9.34087H16.2217V3.29688H15.1275V4.39587H15.6746V4.9453H15.1275V6.59359H14.5804V7.14302H15.1275Z" fill="#00020C"/>
    <path d="M13.486 6.59335H12.9389V8.24178H13.486V8.79121H12.9389V9.34064H14.0331V8.24178H14.5804V7.14278H14.0331V6.59335H14.5804V5.4945H14.0331V4.94507H12.9389V6.04393H13.486V6.59335Z" fill="#00020C"/>
    <path d="M16.2216 69.2306H16.7687V68.6812H17.3158V68.1316H16.2216V69.2306Z" fill="#00020C"/>
    <path d="M19.5042 68.1316H18.9573V68.681H19.5042V68.1316Z" fill="#00020C"/>
    <path d="M22.7872 61.5386H22.2401V62.6374H22.7872V65.9341H22.2401V66.4836H23.8814V59.8901H22.2401V60.989H22.7872V61.5386Z" fill="#00020C"/>
    <path d="M11.8446 12.6372H11.2976V13.1866H11.8446V12.6372Z" fill="#00020C"/>
    <path d="M26.6169 13.1868H26.0699V14.2856H26.6169V13.1868Z" fill="#00020C"/>
    <path d="M20.0514 69.7805H19.5044V70.3299H20.0514V69.7805Z" fill="#00020C"/>
    <path d="M18.4101 64.8352H17.8631V65.3846H18.4101V64.8352Z" fill="#00020C"/>
    <path d="M18.9573 67.5824H20.0515V59.8901H18.4102V60.4396H18.9573V61.5386H18.4102V62.088H19.5044V62.6374H18.9573V64.2857H18.4102V64.8351H18.9573V67.5824Z" fill="#00020C"/>
    <path d="M18.9573 69.7805H17.8631V70.3299H18.9573V69.7805Z" fill="#00020C"/>
    <path d="M53.9731 61.5388H53.4261V62.0882H53.9731V61.5388Z" fill="#00020C"/>
    <path d="M22.2399 13.7363H21.1457V14.2858H22.2399V13.7363Z" fill="#00020C"/>
    <path d="M23.8814 13.7363H22.7872V14.2858H23.8814V13.7363Z" fill="#00020C"/>
    <path d="M50.6903 60.4395H50.1434V60.9889H50.6903V60.4395Z" fill="#00020C"/>
    <path d="M20.5986 59.8901V67.5824H21.1457V68.6814H22.7872V69.2309H23.3343V68.1318H22.7872V67.5824H22.2401V67.033H21.693V65.9341H22.2401V64.8351H21.693V64.2857H22.2401V63.1869H21.693V61.5386H22.2401V60.989H21.693V59.8901H20.5986Z" fill="#00020C"/>
    <path d="M22.787 57.1428H22.2401V57.6923H22.787V57.1428Z" fill="#00020C"/>
    <path d="M32.6354 56.0441H30.9939V55.4946H30.4468V56.5935H31.541V57.6923H33.1825V56.5935H32.6354V56.0441Z" fill="#00020C"/>
    <path d="M37.5594 40.6595H37.0123V35.7144H35.9181V41.2089H37.5594V40.6595Z" fill="#00020C"/>
    <path d="M26.0697 52.1978H25.5228V52.7472H26.0697V52.1978Z" fill="#00020C"/>
    <path d="M26.0697 50.5493H25.5228V51.6482H26.0697V50.5493Z" fill="#00020C"/>
    <path d="M30.994 48.3518H29.3527V48.9012H30.994V48.3518Z" fill="#00020C"/>
    <path d="M30.4467 52.1978H29.8998V52.7472H30.4467V52.1978Z" fill="#00020C"/>
    <path d="M33.7296 48.3518H31.5411V48.9012H33.7296V48.3518Z" fill="#00020C"/>
    <path d="M24.4285 67.5825V68.1319H23.8813V68.6815H25.5228V69.7804H26.0699V70.3298H28.2583V71.4287H29.8998V70.3298H29.3527V69.7804H27.7112V69.2309H27.1641V69.7804H26.617V69.2309H27.1641V68.6815H26.0699V68.1319H25.5228V67.5825H26.0699V66.4837H25.5228V63.7364H26.0699V63.1869H25.5228V62.0881H26.0699V60.9891H25.5228V60.4397H26.0699V60.9891H26.617V60.4397H27.1641V60.9891H26.617V62.0881H26.0699V63.1869H26.617V63.7364H26.0699V66.4837H26.617V67.5825H27.7112V65.9342H27.1641V64.8352H27.7112V63.7364H28.2583V63.1869H27.7112V58.7914H26.617V59.8902H26.0699V58.7914H25.5228V58.2419H24.4285V59.3408H24.9757V59.8902H24.4285V62.0881H24.9757V62.6375H24.4285V63.1869H24.9757V63.7364H24.4285V67.0331H24.9757V67.5825H24.4285Z" fill="#00020C"/>
    <path d="M29.3526 56.5934H29.8997V54.9451H28.8055V56.0439H29.3526V56.5934Z" fill="#00020C"/>
    <path d="M28.8053 56.0439H28.2583V56.5934H28.8053V56.0439Z" fill="#00020C"/>
    <path d="M24.4285 53.8462V55.4946H24.9757V56.044H25.5228V56.5935H27.7112V56.044H28.2583V54.9452H27.7112V55.4946H27.1641V54.9452H25.5228V53.8462H24.4285Z" fill="#00020C"/>
    <path d="M41.3892 56.5938H40.8422V57.1432H41.3892V56.5938Z" fill="#00020C"/>
    <path d="M33.1824 52.7473H32.6354V53.2967H33.1824V52.7473Z" fill="#00020C"/>
    <path d="M41.9363 51.6484H41.3893V52.1979H41.9363V51.6484Z" fill="#00020C"/>
    <path d="M40.295 50.5493H39.748V51.0987H40.295V50.5493Z" fill="#00020C"/>
    <path d="M32.088 52.7473H31.5411V53.2967H32.088V52.7473Z" fill="#00020C"/>
    <path d="M37.0124 51.0991H35.9182V51.6486H37.0124V51.0991Z" fill="#00020C"/>
    <path d="M35.3708 50.5493H34.8238V51.0987H35.3708V50.5493Z" fill="#00020C"/>
    <path d="M47.9547 29.1208H47.4077V29.6703H47.9547V29.1208Z" fill="#00020C"/>
    <path d="M45.7661 42.3079H45.2192V42.8573H45.7661V42.3079Z" fill="#00020C"/>
    <path d="M28.8056 63.7361H28.2585V68.1317H28.8056V69.2306H29.8998V68.1317H29.3527V67.5823H29.8998V66.4834H29.3527V63.7361H29.8998V62.6373H29.3527V62.0878H29.8998V60.989H29.3527V59.3406H29.8998V59.89H32.0883V60.4394H32.6354V60.9888H33.1825V61.5383H34.8239V62.0877H34.2767V62.6371H35.9181V63.736H38.1066V64.8348H39.2008V65.9337H39.7479V66.4831H40.8421V67.582H42.4834V68.6808H44.1247V69.2303H44.6718V68.1314H44.1247V67.582H43.5776V67.0326H43.0305V66.4831H42.4834V65.9337H43.0305V66.4831H43.5776V67.0326H44.1247V67.582H48.5017V68.1314H49.0488V67.0326H48.5017V65.9337H49.5959V66.4831H52.8786V65.3843H51.7844V64.8348H53.973V65.3843H55.0672V64.8348H54.5201V62.637H53.4259V62.0876H52.8788V60.9887H51.2375V62.637H52.8788V64.2853H52.3317V63.7358H47.4078V63.1864H47.9549V61.5381H47.4078V62.637H46.8607V60.4391H47.4078V60.9886H47.9549V60.4391H48.502V60.9886H49.0491V61.538H50.1433V60.9886H49.5962V59.8897H45.7663V61.538H45.2192V59.8897H44.6721V58.7908H38.6537V57.692H38.1066V57.1426H37.0124V57.692H36.4653V57.1426H35.3711V57.692H34.824V57.1426H34.2769V56.0437H33.1827V56.5931H33.7298V58.2414H35.9183V58.7908H32.6356V59.3403H33.1827V59.8897H32.6356V59.3403H32.0885V58.7908H28.2586V63.1864H28.8057V63.7361H28.8056ZM48.502 64.2856H49.0491V64.835H48.502V64.2856ZM47.9549 65.934V66.4834H47.4078V65.934H47.9549ZM46.8607 64.2856H47.4078V64.835H46.8607V64.2856ZM44.125 63.7361H43.5779V63.1867H44.125V63.7361ZM45.2192 63.1867H45.7663V63.7361H45.2192V63.1867ZM44.6721 65.934H45.2192V66.4834H44.6721V65.934ZM44.125 62.6373H43.5779V61.5384H44.125V62.6373ZM41.9365 59.89H42.4836V59.3406H43.0307V59.89H43.5778V60.4394H43.0307V59.89H42.4836V60.4394H41.9365V59.89ZM40.8423 60.4394H41.3894V61.5383H40.8423V60.4394ZM40.8423 64.2856H41.3894V65.3844H41.9365V65.9338H41.3894V65.3844H40.8423V64.2856ZM39.7481 59.3406H40.2952V59.89H39.7481V59.3406ZM39.7481 63.7361H40.2952V64.2856H39.7481V63.7361ZM38.1066 59.89H38.6537V60.4394H38.1066V59.89ZM38.6537 62.0878V62.6373H39.2008V63.1867H38.6537V62.6373H38.1066V62.0878H37.5595V61.5384H38.1066V62.0878H38.6537ZM36.4653 59.3406H37.0124V58.2417H37.5595V59.3406H37.0124V59.89H36.4653V59.3406ZM35.9182 60.9888H36.4653V60.4394H37.0124V60.9888H36.4653V61.5383H35.9182V60.9888Z" fill="#00020C"/>
    <path d="M47.9547 43.4065H47.4077V43.9559H47.9547V43.4065Z" fill="#00020C"/>
    <path d="M47.4076 41.209H46.8606V41.7584H47.4076V41.209Z" fill="#00020C"/>
    <path d="M46.3133 52.1978H45.7664V52.7472H46.3133V52.1978Z" fill="#00020C"/>
    <path d="M44.6721 46.1538H43.0308V46.7032H44.6721V46.1538Z" fill="#00020C"/>
    <path d="M40.2951 41.7584V40.1101H39.748V39.5605H38.6537V39.0111H39.2009V38.4616H38.6537V37.9122H38.1066V37.3628H37.5594V40.1101H38.1066V41.2089H39.748V41.7584H40.2951Z" fill="#00020C"/>
    <path d="M49.0489 45.0549H48.502V45.6044H49.0489V45.0549Z" fill="#00020C"/>
    <path d="M49.0489 25.2747H48.502V25.8241H49.0489V25.2747Z" fill="#00020C"/>
    <path d="M37.5594 45.0549H37.0124V45.6044H37.5594V45.0549Z" fill="#00020C"/>
    <path d="M46.8605 27.4727H46.3135V28.0221H46.8605V27.4727Z" fill="#00020C"/>
    <path d="M48.5018 25.8242H47.9548V26.3736H48.5018V25.8242Z" fill="#00020C"/>
    <path d="M48.5018 44.5056H47.9548V45.055H48.5018V44.5056Z" fill="#00020C"/>
    <path d="M45.219 24.176H44.6721V24.7255H45.219V24.176Z" fill="#00020C"/>
    <path d="M52.8787 44.5056H52.3318V45.055H52.8787V44.5056Z" fill="#00020C"/>
</svg>
