<svg width="30" height="30" viewBox="0 0 30 30" fill="none" xmlns="http://www.w3.org/2000/svg">
    <path d="M13.3556 18.9331V25.5998H10.5778L14.9778 29.9998L19.4 25.5998H16.6222V18.9331H13.3556Z" fill="#1C1E25"/>
    <path d="M16.6222 11.0889V4.42221H19.4L15 0L10.5778 4.42221H13.3556V11.0889H16.6222Z" fill="#1C1E25"/>
    <path d="M16.6222 18.9334L21.3334 23.6445L19.3556 25.6223H25.6V19.3779L23.6222 21.3556L18.9111 16.6445L16.6222 18.9334Z" fill="#1C1E25"/>
    <path d="M13.3556 11.0888L8.64445 6.37769L10.6222 4.3999H4.37778V10.6443L6.35556 8.66657L11.0667 13.3777L13.3556 11.0888Z" fill="#1C1E25"/>
    <path d="M18.9111 16.6445H25.5778V19.4223L30 15.0223L25.5778 10.6001V13.3779H18.9111V16.6445Z" fill="#1C1E25"/>
    <path d="M11.0667 13.3779H4.4V10.6001L0 15.0001L4.4 19.4223V16.6445H11.0667V13.3779Z" fill="#1C1E25"/>
    <path d="M18.9111 13.3777L23.6222 8.66657L25.6 10.6443V4.3999H19.3556L21.3334 6.37769L16.6222 11.0888L18.9111 13.3777Z" fill="#1C1E25"/>
    <path d="M11.0667 16.6445L6.35556 21.3556L4.37778 19.3779V25.6223H10.6222L8.64445 23.6445L13.3556 18.9334L11.0667 16.6445Z" fill="#1C1E25"/>
</svg>
