<svg width="57" height="41" viewBox="0 0 57 41" fill="none" xmlns="http://www.w3.org/2000/svg">
    <rect x="0.5" y="0.5" width="56" height="40" rx="10" stroke="#F8FAFF" stroke-opacity="0.5"/>
    <path d="M24.0102 6.92642L18.9899 9.82489C18.137 10.3173 17.8506 11.388 18.3434 12.2415L21.2442 17.2658C21.737 18.1194 22.8074 18.4067 23.6603 17.9143L28.6806 15.0158C29.5334 14.5234 29.8199 13.4527 29.3271 12.5992L26.4263 7.57485C25.9335 6.7213 24.8437 6.44521 24.0102 6.92642Z" fill="#F8FAFF" fill-opacity="0.9"/>
    <path d="M32.9899 34.0734L38.0102 31.175C38.863 30.6826 39.1495 29.6119 38.6567 28.7584L35.7559 23.734C35.2631 22.8805 34.1926 22.5932 33.3398 23.0856L28.3195 25.9841C27.4666 26.4765 27.1802 27.5471 27.673 28.4007L30.5738 33.425C31.0554 34.2592 32.1564 34.5546 32.9899 34.0734Z" fill="#F8FAFF" fill-opacity="0.9"/>
    <path d="M31.0854 15.6448L33.9862 20.6692C34.479 21.5227 35.5494 21.81 36.4023 21.3176L41.4226 18.4191C42.2755 17.9267 42.5619 16.856 42.0691 16.0025L39.1683 10.9782C38.6755 10.1246 37.6051 9.83732 36.7522 10.3297L31.7319 13.2282C30.879 13.7206 30.6038 14.8107 31.0854 15.6448Z" fill="#F8FAFF" fill-opacity="0.9"/>
    <path d="M14.9196 24.9788L17.8204 30.0031C18.3132 30.8567 19.3837 31.144 20.2365 30.6516L25.2569 27.7531C26.1097 27.2607 26.3961 26.19 25.9033 25.3365L23.0025 20.3121C22.5097 19.4586 21.4393 19.1713 20.5865 19.6637L15.5661 22.5622C14.7326 23.0434 14.438 24.1447 14.9196 24.9788Z" fill="#F8FAFF" fill-opacity="0.9"/>
</svg>
