<svg width="57" height="41" viewBox="0 0 57 41" fill="none" xmlns="http://www.w3.org/2000/svg">
    <rect x="0.5" y="0.5" width="56" height="40" rx="10" stroke="#F8FAFF" stroke-opacity="0.5"/>
    <path d="M40.8422 23.6728C39.7233 22.5419 38.2313 21.9764 36.7601 21.9974C35.8898 21.9974 35.1024 21.5367 34.6672 20.7827L33.4239 18.6257C32.9888 17.8717 32.9888 16.9293 33.4239 16.1754C34.7087 13.9764 34.4186 11.0864 32.5329 9.18063C30.3157 6.93979 26.7102 6.93979 24.4722 9.18063C22.5866 11.0864 22.2965 13.9555 23.5812 16.1754C24.0164 16.9293 24.0164 17.8717 23.5812 18.6257L22.3379 20.7827C21.9028 21.5367 21.1154 22.0183 20.2451 21.9974C18.7738 21.9764 17.2819 22.5419 16.1629 23.6728C13.9457 25.9136 13.9457 29.5576 16.1629 31.8194C18.3801 34.0602 21.9857 34.0602 24.2236 31.8194C24.5966 31.4424 24.9074 31.0236 25.1561 30.5838C25.5912 29.8298 26.3786 29.3482 27.2489 29.3482H29.7148C30.5851 29.3482 31.3932 29.8089 31.8077 30.5838C32.0563 31.0236 32.3671 31.4424 32.7401 31.8194C34.9573 34.0602 38.5629 34.0602 40.8008 31.8194C43.0595 29.5576 43.0594 25.9136 40.8422 23.6728ZM25.1353 22.3534L26.3786 20.1963C26.8138 19.4215 27.6219 18.9817 28.5129 18.9817C28.5337 18.9817 28.5544 18.9817 28.5751 18.9817C29.4454 18.9817 30.2536 19.4424 30.7094 20.1963L31.9527 22.3534C32.3879 23.1073 32.3879 24.0497 31.932 24.8037C31.9113 24.8246 31.9113 24.8456 31.9113 24.8665C31.4761 25.6414 30.668 26.123 29.7977 26.123H27.3318C26.4615 26.123 25.6534 25.6414 25.2182 24.8665C25.2182 24.8456 25.1975 24.8246 25.1975 24.8037C24.7002 24.0707 24.7002 23.1283 25.1353 22.3534Z" fill="#F8FAFF" fill-opacity="0.9"/>
</svg>
