<svg width="227" height="227" viewBox="0 0 227 227" fill="none" xmlns="http://www.w3.org/2000/svg">
    <g style="mix-blend-mode:screen">
        <path d="M226.996 103.927V101.192H225.628V92.9877H224.261V87.5181H222.893V82.0484H221.526V77.946H220.158V72.4763H218.791V69.7414H217.423V67.0064H216.056V64.2714H214.688V62.9039H213.321V61.5364H214.688V60.169H213.321V58.8015H211.953V56.0665H210.586V54.699H209.218V51.964H207.851V50.5965H206.483V47.8616H205.116V46.4941H203.748V45.1266H202.381V42.3916H201.014V41.0241H199.646V39.6567H198.279V38.2892H196.911V36.9217H195.544V35.5542H194.176V34.1867H192.809V32.8192H191.441V31.4517H190.074V30.0842H188.706V28.7168H187.339V27.3493H185.971V25.9818H184.604V24.6143H181.869V23.2468H180.501V21.8793H177.766V20.5118H176.399V19.1443H173.664V17.7769H172.296V16.4094H169.561V15.0419H166.826V13.6744H164.091V12.3069H162.724V10.941H157.254V9.57355H155.887V8.20607H151.784V6.8389H147.684V5.47141H143.582V4.10393H142.214V5.47141H140.847V4.10393H138.112V2.73644H129.907V1.36895H128.54V2.73644H127.172V1.36895H118.968V0.00146484H117.6V1.36895H116.233V0.00146484H114.865V1.36895H109.395V0.00146484H108.028V1.36895H98.4558V2.73644H88.8838V4.10393H86.1488V5.47141H79.3117V6.8389H76.5767V8.20639H72.4742V9.57388H68.3718V10.9414H65.6368V12.3089H62.9018V13.6763H60.1669V15.0438H58.7994V16.4113H56.0644V17.7788H53.3294V19.1463H51.9619V20.5138H49.227V21.8813H47.8595V23.2488H45.1245V24.6162H43.757V25.9837H42.3895V27.3512H41.022V28.7187H39.6545V30.0862H36.9196V31.4537H35.5521V34.1886H32.8171V35.5561H31.4496V38.2911H28.7146V41.0261H27.3472V42.3936H25.9797V43.7611H24.6122V45.1285H23.2447V47.8635H21.8772V49.231H20.5097V51.966H19.1422V54.701H17.7747V56.0684H16.4073V57.4359H15.0398V60.1709H13.6723V62.9059H12.3071V65.6409H10.9396V68.3758H9.57209V72.4783H8.20492V75.2133H6.83744V80.6829H5.46995V83.4179H4.10246V84.7854H5.46995V86.1528H4.10246V90.2553H2.73498V97.0924H1.36749V98.4599H2.73498V99.8274H1.36749V116.237H0V117.604H1.36749V129.911H2.73498V136.748H4.10246V143.585H5.46995V147.688H6.83744V151.79H8.20492V154.525H9.57241V158.628H10.9399V161.363H12.3074V164.098H13.6749V166.833H15.0424V169.568H16.4098V172.303H17.7773V175.038H19.1448V176.405H20.5123V177.773H21.8798V179.14H23.2473V181.875H24.6148V183.242H25.9823V184.61H27.3497V187.345H28.7172V188.712H30.0847V190.08H31.4522V191.447H32.8197V192.815H34.1862V194.182H35.5537V195.55H36.9212V196.917H38.2887V198.285H39.6562V199.652H42.3911V201.02H43.7586V202.387H45.1261V203.755H47.8611V205.122H49.2286V206.49H50.5961V207.857H53.331V209.225H54.6985V210.592H57.4335V211.96H60.1685V213.327H61.536V214.695H65.6384V216.062H68.3734V217.43H71.1084V218.797H75.2108V220.165H77.9458V221.532H83.4154V222.9H87.5179V224.267H94.355V225.635H102.56V227.002H103.927V225.635H105.295V227.002H106.662V225.635H108.03V227.002H109.397V225.635H110.765V227.002H120.337V225.635H121.704V227.002H124.439V225.635H132.644V224.267H140.848V222.9H144.951V221.532H149.053V220.165H153.156V218.797H155.891V217.43H159.993V216.062H162.728V214.695H165.463V213.327H168.198V211.96H170.933V210.592H173.668V209.225H175.035V207.857H176.403V206.49H179.138V205.122H181.873V203.755H183.24V202.387H184.608V201.02H185.975V199.652H187.343V198.285H188.71V196.917H191.445V195.55H192.813V192.815H195.548V190.08H198.283V187.345H199.65V185.977H201.018V184.61H202.385V183.242H203.753V180.508H205.12V179.14H206.488V177.773H207.855V175.038H209.223V173.67H210.59V170.935H211.958V168.2H213.325V166.833H214.693V164.098H216.06V159.995H217.428V157.26H218.795V154.525H220.163V150.423H221.53V146.318H222.898V139.481H224.265V136.746H225.633V134.011H224.265V132.644H225.633V125.806H227V123.071H225.633V121.704H227V117.601H225.633V116.234H227V112.132H225.633V110.764H227V105.294H225.633V103.927H226.996V103.927ZM221.526 109.397H220.159V110.765H221.526V125.807H220.159V127.174H221.526V128.542H220.159V136.746H218.791V142.216H217.424V146.318H216.056V150.421H214.689V155.89H213.321V157.258H211.954V159.993H210.586V162.728H209.219V166.83H207.851V168.198H206.484V170.933H205.116V172.3H203.749V173.668H202.381V176.403H201.014V179.138H199.646V180.505H198.279V181.873H196.911V183.24H195.544V184.608H194.176V185.975H192.809V188.71H191.441V190.078H188.706V192.813H185.971V194.18H184.604V195.548H183.237V196.915H181.869V198.283H180.502V199.65H177.767V201.018H176.399V202.385H175.032V203.753H172.297V205.12H169.562V206.488H168.194V207.855H165.459V209.222H162.724V210.59H159.989V211.957H155.887V213.325H154.519V214.692H150.417V216.06H146.314V217.427H144.947V216.06H143.579V218.795H142.212V217.427H140.844V218.795H135.375V220.162H127.17V221.53H125.803V220.162H124.435V221.53H106.659V220.162H105.291V221.53H102.556V220.162H101.189V221.53H99.8211V220.162H92.984V218.795H86.1469V217.427H82.0467V216.06H77.9445V214.692H75.2095V213.325H71.1071V211.957H67.0046V210.59H65.6371V209.222H61.5347V207.855H60.1672V206.488H58.7997V205.12H56.0647V203.753H54.6972V202.385H51.9623V201.018H49.2273V199.65H47.8598V198.283H46.4923V196.915H43.7573V195.548H42.3898V192.813H39.6549V191.445H38.2874V190.078H36.9199V187.343H34.1862V185.975H32.8187V184.608H31.4512V181.873H30.0837V180.505H28.7163V179.138H27.3488V177.77H25.9813V175.035H24.6138V173.668H23.2463V170.933H21.8788V169.565H20.5113V165.463H19.1439V164.095H17.7764V161.36H16.4089V158.625H15.0414V155.89H13.6739V153.156H12.3071V151.788H13.6746V150.421H12.3071V147.686H10.9396V143.583H9.57209V138.113H8.20492V132.644H6.83744V123.072H5.46995V121.704H6.83744V118.969H5.46995V117.602H6.83744V116.234H5.46995V114.867H6.83744V113.499H5.46995V112.132H6.83744V110.764H5.46995V108.029H6.83744V101.192H8.20492V99.8248H6.83744V97.0898H8.20492V95.7223H6.83744V94.3549H8.20492V88.8852H9.57241V83.4156H10.9399V77.946H12.3074V75.211H13.6749V73.8435H15.0424V69.7411H16.4098V65.6386H17.7773V62.9036H19.1448V61.5361H20.5123V58.8012H21.8798V56.0662H23.2473V54.6987H24.6148V51.9637H25.9823V50.5962H27.3497V49.2287H28.7172V46.4938H30.0847V45.1263H31.4522V43.7588H32.8197V42.3913H34.1862V39.6563H36.9212V38.2888H38.2887V35.5539H41.0237V34.1864H42.3911V32.8189H43.7586V31.4514H45.1261V30.0839H46.4936V28.7164H49.2286V27.3489H50.5961V25.9815H51.9636V24.614H54.6985V23.2465H56.066V21.879H58.801V20.5115H61.536V19.144H62.9035V17.7765H67.0059V16.409H68.3734V15.0416H71.1084V13.6741H76.578V12.3066H77.9455V10.941H84.7826V9.57355H88.8851V8.20607H95.7222V6.8389H97.0897V8.20639H98.4572V6.8389H103.927V5.47141H105.294V6.8389H109.397V5.47141H113.499V6.8389H114.867V5.47141H116.234V6.8389H117.602V5.47141H118.969V6.8389H120.337V5.47141H121.704V6.8389H131.276V8.20639H139.481V9.57388H143.583V10.9414H149.053V12.3089H151.788V13.6763H155.89V15.0438H158.625V16.4113H161.36V17.7788H164.095V19.1463H166.83V20.5138H169.565V21.8813H170.933V23.2488H173.668V24.6162H175.035V25.9837H177.77V27.3512H179.138V28.7187H180.505V30.0862H181.873V31.4537H184.608V32.8212H185.975V34.1886H187.343V35.5561H188.71V36.9236H190.078V38.2911H191.445V39.6586H192.812V41.0261H194.18V42.3936H195.547V43.7611H196.915V45.1285H198.282V47.8635H199.65V49.231H201.017V50.5985H202.385V53.3335H203.752V54.701H205.12V57.4359H206.487V60.1709H207.855V61.5384H209.222V64.2734H210.59V65.6409H211.957V71.1105H213.325V73.8455H214.692V76.5804H216.06V82.0501H217.427V84.785H218.795V91.6221H220.162V99.8267H221.53V109.397H221.526Z" fill="url(#paint0_radial_642_8882)"/>
        <path d="M195.545 71.1084H192.81V72.4759H188.708V73.8434H187.34V75.2109H184.605V76.5784H181.87V77.9459H179.135V79.3133H175.033V80.6805H173.665V82.048H170.931V83.4155H166.828V84.783H165.461V86.1504H162.726V87.5179H159.991V88.8854H157.256V90.2529H151.787V91.6201H149.052V90.2529H147.684V83.4155H149.052V82.048H150.419V80.6805H151.787V79.3133H153.154V76.5784H155.889V73.8434H158.624V72.4759H159.991V69.7413H161.359V68.3738H164.093V65.6388H166.828V64.2713H168.196V62.9038H169.563V60.1688H172.298V58.8017H173.665V57.4342H172.298V54.6992H168.196V57.4342H166.828V58.8017H165.461V60.1688H162.726V62.9038H161.359V64.2713H159.991V65.6388H157.256V68.3738H154.521V69.7413H153.154V72.4759H151.787V73.8434H150.419V75.2109H149.052V76.5784H146.317V79.3133H143.582V80.6805H142.215V83.4155H140.847V84.783H138.112V86.1504H136.745V88.8854H135.377V90.2529H134.01V91.6201H132.642V92.9876H129.908V94.355H128.54V97.09H125.805V98.4575H124.438V99.825H118.968V98.4575H117.6V97.09H116.233V95.7225H117.6V94.355H116.233V88.8854H117.6V87.5179H116.233V83.4155H117.6V82.048H116.233V79.3133H117.6V77.9459H116.233V72.4759H114.865V71.1084H113.498V72.4759H110.763V73.8434H112.13V75.2109H110.763V76.5784H112.13V77.9459H110.763V79.3133H112.13V82.048H110.763V83.4155H112.13V84.783H110.763V86.1504H112.13V87.5179H110.763V90.2529H112.13V91.6201H110.763V92.9876H112.13V94.355H110.763V95.7225H112.13V98.4575H110.763V99.825H112.13V101.192H110.763V102.56H112.13V103.927H110.763V106.662H112.13V108.03H110.763V109.397H108.028V110.765H102.558V112.132H101.191V110.765H98.4563V112.132H97.0888V110.765H94.3538V112.132H92.9863V110.765H87.5167V112.132H86.1492V110.765H83.4142V112.132H82.0467V110.765H76.5771V112.132H75.2096V110.765H69.74V112.132H68.3725V110.765H65.6375V112.132H64.2701V110.765H61.5351V112.132H60.1676V110.765H57.4329V112.132H54.698V114.867H56.0655V116.234H83.4142V117.602H86.1492V120.337H87.5167V121.704H86.1492V124.439H84.7817V125.806H82.0467V127.174H80.6796V128.541H76.5771V129.909H75.2096V131.276H72.4747V132.643H68.3725V134.011H65.6375V135.378H64.2701V136.746H61.5351V138.113H57.4329V139.481H56.0655V140.848H53.3305V142.216H49.2283V143.583H47.8609V144.95H45.1259V146.318H42.3909V147.685H38.2888V149.053H36.9213V150.42H32.8188V153.155H31.4513V155.89H36.9213V154.523H39.6559V153.155H42.3909V151.788H45.1259V150.42H47.8609V149.053H50.5955V147.685H51.963V146.318H56.0655V144.95H57.4329V143.583H61.5351V142.216H64.2701V140.848H67.005V139.481H68.3725V138.113H72.4747V136.746H79.3121V138.113H80.6796V143.583H79.3121V144.95H77.9446V146.318H76.5771V147.685H75.2096V150.42H72.4747V151.788H71.1072V153.155H69.74V155.89H67.005V157.258H65.6375V158.625H64.2701V161.36H62.9026V162.727H60.1676V165.462H57.4329V166.83H56.0655V169.565H54.698V170.932H56.0655V172.3H60.1676V169.565H62.9026V166.83H65.6375V164.095H68.3725V161.36H71.1072V159.993H72.4747V157.258H75.2096V155.89H76.5771V153.155H79.3121V150.42H82.0467V149.053H83.4142V146.318H84.7817V144.95H87.5167V142.216H90.2517V139.481H92.9863V138.113H94.3538V135.378H97.0888V134.011H98.4563V131.276H101.191V128.541H103.926V127.174H105.293V128.541H106.661V127.174H108.028V128.541H110.763V136.746H112.13V138.113H110.763V139.481H112.13V140.848H110.763V142.216H112.13V143.583H110.763V144.95H112.13V147.685H110.763V150.42H112.13V151.788H110.763V153.155H112.13V155.89H116.233V149.053H117.6V147.685H116.233V144.95H117.6V143.583H116.233V138.113H117.6V136.746H116.233V129.909H117.6V128.541H116.233V124.439H117.6V123.071H116.233V121.704H117.6V118.969H118.968V117.602H120.335V116.234H127.173V117.602H128.54V116.234H140.847V117.602H142.215V116.234H172.298V112.132H170.931V110.765H168.196V112.132H166.828V110.765H159.991V112.132H158.624V110.765H154.521V112.132H153.154V110.765H143.582V109.397H140.847V105.295H142.215V102.56H143.582V101.192H146.317V99.825H149.052V98.4575H151.787V97.09H154.521V95.7225H157.256V94.355H159.991V92.9876H162.726V91.6201H165.461V90.2529H168.196V88.8854H170.931V87.5179H173.665V86.1504H176.4V84.783H179.135V83.4155H181.87V82.048H184.605V80.6805H187.34V79.3133H190.075V77.9459H192.81V76.5784H195.545V75.2109H196.912V73.8434H195.545V71.1084Z" fill="url(#paint1_radial_642_8882)"/>
    </g>
    <defs>
        <radialGradient id="paint0_radial_642_8882" cx="0" cy="0" r="1" gradientTransform="matrix(101.699 -147.431 177.587 -11.2205 169.574 112.344)" gradientUnits="userSpaceOnUse">
            <stop offset="0.0721154" stop-color="#500CBE"/>
            <stop offset="0.3125" stop-color="#FFF67A"/>
            <stop offset="0.625" stop-color="#7AFFF6"/>
            <stop offset="0.918269" stop-color="#0F5EF7"/>
        </radialGradient>
        <radialGradient id="paint1_radial_642_8882" cx="0" cy="0" r="1" gradientTransform="matrix(74.1287 -76.3785 129.443 -5.81294 155.054 112.899)" gradientUnits="userSpaceOnUse">
            <stop offset="0.0721154" stop-color="#500CBE"/>
            <stop offset="0.3125" stop-color="#FFF67A"/>
            <stop offset="0.625" stop-color="#7AFFF6"/>
            <stop offset="0.918269" stop-color="#0F5EF7"/>
        </radialGradient>
    </defs>
</svg>

