<svg width="28" height="28" viewBox="0 0 28 28" fill="none" xmlns="http://www.w3.org/2000/svg">
    <path d="M0 16.6971V23.4565C0 24.1056 0.783995 24.4413 1.25439 23.9713L8.01919 17.2119C8.48959 16.7419 8.1536 15.9585 7.504 15.9585H0.716789C0.313589 15.9585 0 16.2718 0 16.6971Z" fill="#1C1E25"/>
    <path d="M8.01919 10.7883L1.25439 4.02894C0.783995 3.55891 0 3.89465 0 4.54373V11.3031C0 11.706 0.335984 12.0417 0.739184 12.0417H7.504C8.1536 12.0417 8.46719 11.2584 8.01919 10.7883Z" fill="#1C1E25"/>
    <path d="M11.2896 0.0224609H4.52479C3.87519 0.0224609 3.53918 0.805832 4.00958 1.27586L10.7744 8.03525C11.2448 8.50528 12.0288 8.16954 12.0288 7.52046V0.761071C12.0288 0.335811 11.7152 0.0224609 11.2896 0.0224609Z" fill="#1C1E25"/>
    <path d="M15.9488 0.73861V7.49801C15.9488 8.14709 16.7328 8.48282 17.2032 8.01279L23.968 1.2534C24.4384 0.783375 24.1024 0 23.4528 0H16.688C16.2624 0.0223821 15.9488 0.335732 15.9488 0.73861Z" fill="#1C1E25"/>
    <path d="M19.9584 17.2119L26.7232 23.9713C27.1936 24.4413 27.9776 24.1056 27.9776 23.4565V16.6971C27.9776 16.2942 27.6416 15.9585 27.2384 15.9585H20.4736C19.824 15.9585 19.5104 16.7419 19.9584 17.2119Z" fill="#1C1E25"/>
    <path d="M28 11.3031V4.54373C28 3.89465 27.216 3.55891 26.7456 4.02894L19.9808 10.7883C19.5104 11.2584 19.8464 12.0417 20.496 12.0417H27.2608C27.664 12.0417 28 11.7284 28 11.3031Z" fill="#1C1E25"/>
    <path d="M15.9488 20.5022V27.2616C15.9488 27.6644 16.2848 28.0002 16.688 28.0002H23.4528C24.1024 28.0002 24.4384 27.2168 23.968 26.7468L17.2032 19.9874C16.7328 19.5174 15.9488 19.8307 15.9488 20.5022Z" fill="#1C1E25"/>
    <path d="M10.7744 19.9648L4.00955 26.7242C3.53915 27.1942 3.87516 27.9776 4.52476 27.9776H11.2896C11.6928 27.9776 12.0288 27.6419 12.0288 27.239V20.4796C12.0288 19.8305 11.2448 19.5172 10.7744 19.9648Z" fill="#1C1E25"/>
</svg>
